<svg
  xmlns="http://www.w3.org/2000/svg"
  width="8.267716535433072in"
  height="11.692913385826772in"
  viewBox="0 0 210.0 297.0"
>
  <rect x="0" y="0" width="210.0" height="297.0" fill="white" />
  <polyline points="74.27,40.37 74.01,40.62 72.74,40.62 72.48,40.88 71.97,40.88 71.46,40.37 71.46,39.6 71.72,39.35 71.97,39.35 72.23,39.09 72.48,39.09 72.74,38.84 73.25,38.84 73.5,38.58 73.76,38.58 74.01,38.33 74.27,38.33 74.52,38.07 74.78,38.07 75.03,37.82 75.29,37.82 75.54,37.56 76.05,37.56 76.31,37.31 76.82,37.31" fill="none" stroke="black" stroke-width="1.0" stroke-linecap="round" stroke-linejoin="round" stroke-opacity="0.85" />
  <polyline points="77.33,37.05 77.84,37.05 78.09,36.8 78.86,36.8 79.11,36.54 79.62,36.54" fill="none" stroke="black" stroke-width="1.0" stroke-linecap="round" stroke-linejoin="round" stroke-opacity="0.85" />
  <polyline points="81.92,39.86 80.9,38.84 80.64,38.84 80.39,38.58 79.88,38.58 79.62,38.84 79.11,38.84 78.6,39.35 78.09,39.35 77.84,39.6 77.33,39.6 77.07,39.86 76.31,39.86" fill="none" stroke="black" stroke-width="1.0" stroke-linecap="round" stroke-linejoin="round" stroke-opacity="0.85" />
  <polyline points="77.33,44.96 77.07,44.7 76.82,44.7 76.56,44.45 76.31,44.45 76.05,44.19 75.29,44.19 75.03,43.94 74.01,43.94 73.76,43.68 73.5,43.94 72.48,43.94 72.23,44.19 71.97,44.19 71.72,44.45 71.46,44.45 69.93,45.98 69.93,46.23 69.68,46.49 69.68,46.74 69.42,47.0 69.42,47.51 69.17,47.76 69.17,49.55 69.42,49.8 69.42,50.57 69.68,50.82 69.68,51.08 69.93,51.33 69.93,51.59 72.48,54.14 72.74,54.14 72.99,54.39 73.25,54.39 73.5,54.65 75.54,54.65 75.8,54.39 76.05,54.39 76.31,54.14" fill="none" stroke="black" stroke-width="1.0" stroke-linecap="round" stroke-linejoin="round" stroke-opacity="0.85" />
  <polyline points="76.05,53.88 75.8,53.63 75.03,53.63 74.78,53.37 74.52,53.37 74.27,53.12 74.01,53.12 72.48,51.59" fill="none" stroke="black" stroke-width="1.0" stroke-linecap="round" stroke-linejoin="round" stroke-opacity="0.85" />
  <polyline points="72.74,50.57 72.48,50.31 72.48,50.06 72.23,49.8 72.23,48.02 72.74,47.51 72.99,47.51" fill="none" stroke="black" stroke-width="1.0" stroke-linecap="round" stroke-linejoin="round" stroke-opacity="0.85" />
  <polyline points="73.25,47.51 73.76,47.0 74.27,47.0 74.52,46.74 74.78,46.74 75.03,46.49 75.29,46.49 75.54,46.23 76.05,46.23 76.31,45.98 76.56,45.98 76.82,45.72 77.33,45.72 77.58,45.47 77.84,45.47 78.09,45.21 78.35,45.21 78.6,44.96 78.86,44.96 79.11,44.7 79.37,44.7 79.62,44.45 80.13,44.45 80.39,44.19 80.64,44.19 81.15,43.68 81.92,43.68 82.17,43.43 82.68,43.43 82.94,43.17 83.45,43.17 83.7,42.92 84.21,42.92" fill="none" stroke="black" stroke-width="1.0" stroke-linecap="round" stroke-linejoin="round" stroke-opacity="0.85" />
  <polyline points="84.47,42.92 84.72,42.66 85.23,42.66 85.49,42.41 85.74,42.41" fill="none" stroke="black" stroke-width="1.0" stroke-linecap="round" stroke-linejoin="round" stroke-opacity="0.85" />
  <polyline points="84.47,43.17 84.47,43.68 84.72,43.94 84.72,44.19 84.98,44.45 84.98,44.96 85.49,45.47" fill="none" stroke="black" stroke-width="1.0" stroke-linecap="round" stroke-linejoin="round" stroke-opacity="0.85" />
  <polyline points="85.74,45.47 86.0,45.47 86.26,45.21 86.77,45.21 87.02,44.96 87.02,44.19 86.77,43.94 86.77,43.68" fill="none" stroke="black" stroke-width="1.0" stroke-linecap="round" stroke-linejoin="round" stroke-opacity="0.85" />
  <polyline points="85.49,46.23 85.23,46.49 84.98,46.49 84.72,46.74 84.47,46.74 84.21,47.0 83.7,47.0 83.45,47.25 83.19,47.25 82.94,47.51 82.68,47.51 82.43,47.76 82.17,47.76 81.92,48.02 81.41,48.02 81.15,48.27 80.9,48.27 80.64,48.53 80.13,48.53 79.88,48.78 79.37,48.78 79.11,49.04 78.6,49.04 78.35,49.29 78.09,49.29 77.84,49.55 77.58,49.55 77.33,49.8 76.82,49.8 76.56,50.06" fill="none" stroke="black" stroke-width="1.0" stroke-linecap="round" stroke-linejoin="round" stroke-opacity="0.85" />
  <polyline points="77.58,50.31 77.33,50.31 77.07,50.57 76.82,50.57 76.56,50.82 75.54,50.82" fill="none" stroke="black" stroke-width="1.0" stroke-linecap="round" stroke-linejoin="round" stroke-opacity="0.85" />
  <polyline points="75.03,51.08 74.01,51.08 73.76,50.82 73.76,50.57" fill="none" stroke="black" stroke-width="1.0" stroke-linecap="round" stroke-linejoin="round" stroke-opacity="0.85" />
  <polyline points="74.01,50.06 75.03,50.06 75.29,49.8 75.54,49.8 75.8,49.55 76.05,49.55 76.31,49.29 76.82,49.29 77.07,49.04 77.33,49.04 77.58,48.78 77.84,48.78 78.09,48.53 78.6,48.53 78.86,48.27 79.11,48.27 79.37,48.02 79.88,48.02 80.13,47.76 80.39,47.76 80.64,47.51 80.9,47.51 81.15,47.25 81.66,47.25 81.92,47.0 82.17,47.0 82.43,46.74 82.94,46.74 83.19,46.49 83.45,46.49 83.7,46.23 84.21,46.23" fill="none" stroke="black" stroke-width="1.0" stroke-linecap="round" stroke-linejoin="round" stroke-opacity="0.85" />
  <polyline points="86.77,48.53 87.28,48.02 87.79,48.02 88.04,47.76 88.3,47.76 88.55,47.51 88.81,47.51 89.06,47.25 89.32,47.25 89.57,47.51 89.83,47.51" fill="none" stroke="black" stroke-width="1.0" stroke-linecap="round" stroke-linejoin="round" stroke-opacity="0.85" />
  <polyline points="90.08,47.76 89.83,48.02 89.57,48.02 89.32,48.27 89.06,48.27 88.81,48.53 88.3,48.53 88.04,48.78 87.02,48.78" fill="none" stroke="black" stroke-width="1.0" stroke-linecap="round" stroke-linejoin="round" stroke-opacity="0.85" />
  <polyline points="87.02,48.78 86.51,49.29 86.26,49.29 86.0,49.55 85.74,49.55 85.49,49.8" fill="none" stroke="black" stroke-width="1.0" stroke-linecap="round" stroke-linejoin="round" stroke-opacity="0.85" />
  <polyline points="85.23,50.06 85.23,50.57 85.74,51.08 85.74,51.33 86.0,51.59 86.0,51.84 86.51,52.35" fill="none" stroke="black" stroke-width="1.0" stroke-linecap="round" stroke-linejoin="round" stroke-opacity="0.85" />
  <polyline points="86.77,52.35 87.02,52.35 87.28,52.1 87.53,52.1 87.79,51.84 88.04,51.84 88.3,51.59 88.55,51.59 88.81,51.33 89.06,51.33 89.32,51.08 89.57,51.08 89.83,50.82 90.34,50.82 90.59,50.57 90.85,50.57 91.1,50.31 91.61,50.31 91.87,50.06 92.38,50.06 92.63,49.8 93.14,49.8" fill="none" stroke="black" stroke-width="1.0" stroke-linecap="round" stroke-linejoin="round" stroke-opacity="0.85" />
  <polyline points="91.61,51.33 91.36,51.59 90.85,51.59 90.59,51.84 90.34,51.84 90.08,52.1 89.57,52.1 89.06,52.61" fill="none" stroke="black" stroke-width="1.0" stroke-linecap="round" stroke-linejoin="round" stroke-opacity="0.85" />
  <polyline points="89.06,52.61 88.3,52.61 88.04,52.86 87.53,52.86" fill="none" stroke="black" stroke-width="1.0" stroke-linecap="round" stroke-linejoin="round" stroke-opacity="0.85" />
  <polyline points="87.28,53.37 87.02,53.63 86.51,53.63 86.26,53.88 86.0,53.88 85.49,53.37 85.49,53.12 85.23,52.86 85.23,52.61 84.98,52.35 84.98,52.1 84.72,51.84 84.72,51.59 84.47,51.33 84.47,51.08 84.21,50.82 84.21,50.57" fill="none" stroke="black" stroke-width="1.0" stroke-linecap="round" stroke-linejoin="round" stroke-opacity="0.85" />
  <polyline points="82.94,50.57 82.68,50.57 82.43,50.82 82.17,50.82 81.92,51.08 81.41,51.08 81.15,51.33" fill="none" stroke="black" stroke-width="1.0" stroke-linecap="round" stroke-linejoin="round" stroke-opacity="0.85" />
  <polyline points="80.9,51.33 80.64,51.33 80.39,51.59 80.13,51.59 79.88,51.84 79.62,51.84 79.11,52.35 78.86,52.35 77.84,53.37 77.58,53.37 77.07,53.88 76.56,53.88" fill="none" stroke="black" stroke-width="1.0" stroke-linecap="round" stroke-linejoin="round" stroke-opacity="0.85" />
  <polyline points="77.33,56.43 77.33,56.69 76.82,57.2 76.56,57.2 76.31,57.45 75.54,57.45" fill="none" stroke="black" stroke-width="1.0" stroke-linecap="round" stroke-linejoin="round" stroke-opacity="0.85" />
  <polyline points="78.6,60.26 78.35,60.51 78.35,61.02 78.86,61.53 79.62,61.53" fill="none" stroke="black" stroke-width="1.0" stroke-linecap="round" stroke-linejoin="round" stroke-opacity="0.85" />
  <polyline points="80.13,61.53 80.39,61.53 80.64,61.28 82.17,61.28 82.43,61.02 83.19,61.02 83.45,60.77 83.96,60.77 84.21,60.51 84.72,60.51 84.98,60.26 85.23,60.26 85.49,60.0 85.74,60.0 86.0,59.75 86.51,59.75 87.02,59.24 87.28,59.24 87.53,58.98 87.79,58.98 88.04,58.73 88.3,58.73" fill="none" stroke="black" stroke-width="1.0" stroke-linecap="round" stroke-linejoin="round" stroke-opacity="0.85" />
  <polyline points="88.04,57.45 86.0,57.45" fill="none" stroke="black" stroke-width="1.0" stroke-linecap="round" stroke-linejoin="round" stroke-opacity="0.85" />
  <polyline points="85.74,58.98 84.72,58.98 84.47,59.24 84.21,59.24 83.96,59.49 83.7,59.49" fill="none" stroke="black" stroke-width="1.0" stroke-linecap="round" stroke-linejoin="round" stroke-opacity="0.85" />
  <polyline points="83.19,59.75 82.94,59.75 82.68,60.0 82.43,60.0 82.17,60.26 81.92,60.26 81.66,60.51 81.15,60.51 80.9,60.77 80.64,60.77" fill="none" stroke="black" stroke-width="1.0" stroke-linecap="round" stroke-linejoin="round" stroke-opacity="0.85" />
  <polyline points="81.92,58.73 82.17,58.73 82.43,58.47 82.94,58.47 83.19,58.22 83.7,58.22" fill="none" stroke="black" stroke-width="1.0" stroke-linecap="round" stroke-linejoin="round" stroke-opacity="0.85" />
  <polyline points="85.49,55.92 85.49,55.67 85.23,55.41 85.23,54.9 84.98,54.65 84.98,53.63 84.72,53.37 84.72,53.12" fill="none" stroke="black" stroke-width="1.0" stroke-linecap="round" stroke-linejoin="round" stroke-opacity="0.85" />
  <polyline points="89.06,52.61 89.57,53.12 89.57,53.63 90.34,54.39 90.85,54.39 91.36,53.88 91.61,53.88 91.87,53.63 92.12,53.63 92.38,53.37 92.63,53.37 93.65,52.35 93.91,52.35 94.42,51.84 94.67,51.84 94.93,51.59 95.18,51.59 95.44,51.33 95.69,51.33 95.95,51.08 96.2,51.08 96.46,50.82 96.97,50.82 97.22,50.57 97.48,50.57 97.73,50.31 97.99,50.31 98.24,50.06 98.75,50.06 99.01,49.8 99.26,49.8 99.52,49.55" fill="none" stroke="black" stroke-width="1.0" stroke-linecap="round" stroke-linejoin="round" stroke-opacity="0.85" />
  <polyline points="100.03,49.29 100.54,49.29 100.79,49.04 101.05,49.04 101.3,48.78" fill="none" stroke="black" stroke-width="1.0" stroke-linecap="round" stroke-linejoin="round" stroke-opacity="0.85" />
  <polyline points="99.52,48.53 99.52,47.51 99.26,47.25" fill="none" stroke="black" stroke-width="1.0" stroke-linecap="round" stroke-linejoin="round" stroke-opacity="0.85" />
  <polyline points="99.26,47.25 99.77,46.74 100.03,46.74 100.28,46.49 100.54,46.49 100.79,46.23 101.3,46.23 101.56,45.98 101.81,45.98 102.07,45.72 102.58,45.72 102.83,45.47 103.09,45.47 103.34,45.21 103.85,45.21 104.11,44.96 104.36,44.96 104.62,44.7 105.13,44.7 105.38,44.45 106.15,44.45 106.4,44.19 107.17,44.19 107.42,43.94 107.68,43.94" fill="none" stroke="black" stroke-width="1.0" stroke-linecap="round" stroke-linejoin="round" stroke-opacity="0.85" />
  <polyline points="107.68,43.94 107.93,43.68 108.19,43.68 108.44,43.43 108.95,43.43 109.21,43.17 109.46,43.17 109.97,42.66 110.23,42.66 110.74,42.15 110.99,42.15" fill="none" stroke="black" stroke-width="1.0" stroke-linecap="round" stroke-linejoin="round" stroke-opacity="0.85" />
  <polyline points="110.99,40.88 111.25,40.62 111.25,40.11 111.5,39.86 111.5,39.6" fill="none" stroke="black" stroke-width="1.0" stroke-linecap="round" stroke-linejoin="round" stroke-opacity="0.85" />
  <polyline points="113.54,38.84 113.54,42.15 113.8,42.41 113.8,42.92 114.31,43.43" fill="none" stroke="black" stroke-width="1.0" stroke-linecap="round" stroke-linejoin="round" stroke-opacity="0.85" />
  <polyline points="115.07,44.7 114.82,44.96 112.52,44.96 112.27,44.7 112.01,44.7 111.76,44.45 111.5,44.45 111.25,44.7 109.97,44.7" fill="none" stroke="black" stroke-width="1.0" stroke-linecap="round" stroke-linejoin="round" stroke-opacity="0.85" />
  <polyline points="109.97,44.7 109.72,44.45 108.19,44.45 107.68,43.94" fill="none" stroke="black" stroke-width="1.0" stroke-linecap="round" stroke-linejoin="round" stroke-opacity="0.85" />
  <polyline points="108.7,45.47 108.44,45.47 108.19,45.72 107.93,45.72 107.68,45.98 107.42,45.98" fill="none" stroke="black" stroke-width="1.0" stroke-linecap="round" stroke-linejoin="round" stroke-opacity="0.85" />
  <polyline points="115.33,44.7 115.58,44.96 116.35,44.96 116.6,45.21 117.88,45.21 118.13,45.47 119.15,45.47 119.41,45.72 120.43,45.72 120.68,45.98 121.19,45.98" fill="none" stroke="black" stroke-width="1.0" stroke-linecap="round" stroke-linejoin="round" stroke-opacity="0.85" />
  <polyline points="121.45,46.23 121.45,46.49 122.72,47.76 122.98,47.76 124.26,49.04" fill="none" stroke="black" stroke-width="1.0" stroke-linecap="round" stroke-linejoin="round" stroke-opacity="0.85" />
  <polyline points="124.51,49.29 124.51,49.55 130.63,55.67" fill="none" stroke="black" stroke-width="1.0" stroke-linecap="round" stroke-linejoin="round" stroke-opacity="0.85" />
  <polyline points="130.89,55.92 137.77,62.81 137.77,63.06 138.03,63.32" fill="none" stroke="black" stroke-width="1.0" stroke-linecap="round" stroke-linejoin="round" stroke-opacity="0.85" />
  <polyline points="138.28,63.57 139.56,64.85 139.56,65.1 140.32,65.87" fill="none" stroke="black" stroke-width="1.0" stroke-linecap="round" stroke-linejoin="round" stroke-opacity="0.85" />
  <polyline points="141.6,66.38 142.36,66.38 142.62,66.63 143.13,66.63 143.38,66.38 143.89,66.38" fill="none" stroke="black" stroke-width="1.0" stroke-linecap="round" stroke-linejoin="round" stroke-opacity="0.85" />
  <polyline points="145.17,66.12 145.42,66.12 145.68,65.87 145.42,65.61 145.68,65.36" fill="none" stroke="black" stroke-width="1.0" stroke-linecap="round" stroke-linejoin="round" stroke-opacity="0.85" />
  <polyline points="147.97,63.57 148.23,63.32 148.23,63.06 148.48,62.81 148.48,62.55 148.74,62.3 148.74,62.04" fill="none" stroke="black" stroke-width="1.0" stroke-linecap="round" stroke-linejoin="round" stroke-opacity="0.85" />
  <polyline points="148.99,61.53 148.99,60.0 148.74,59.75 148.74,59.49 148.48,59.24 148.48,58.73" fill="none" stroke="black" stroke-width="1.0" stroke-linecap="round" stroke-linejoin="round" stroke-opacity="0.85" />
  <polyline points="148.48,58.47 148.23,58.22 148.23,57.96 146.19,55.92 146.19,55.67 143.64,53.12 143.64,52.86 139.56,48.78 139.56,48.53 135.73,44.7 135.73,44.45 133.95,42.66" fill="none" stroke="black" stroke-width="1.0" stroke-linecap="round" stroke-linejoin="round" stroke-opacity="0.85" />
  <polyline points="133.69,42.41 133.69,39.6 133.44,39.35 133.44,38.58 133.18,38.33 133.18,38.07 132.67,37.56 132.67,37.31 131.91,36.54 131.65,36.54 131.14,36.03 130.63,36.03 130.38,35.78 129.61,35.78 129.36,35.52 128.08,35.52 127.83,35.27 127.06,35.27 126.81,35.01 125.02,35.01 124.77,34.76 123.49,34.76 123.23,34.5 122.21,34.5 121.96,34.24 120.68,34.24 120.43,33.99 119.41,33.99 119.15,33.73" fill="none" stroke="black" stroke-width="1.0" stroke-linecap="round" stroke-linejoin="round" stroke-opacity="0.85" />
  <polyline points="118.9,33.48 117.62,32.2 117.37,32.2 117.11,31.95 116.09,31.95 115.84,31.69 114.05,31.69 113.8,31.95 112.78,31.95 112.52,32.2 111.5,32.2 111.25,32.46 110.48,32.46 110.23,32.71 109.46,32.71 109.21,32.97" fill="none" stroke="black" stroke-width="1.0" stroke-linecap="round" stroke-linejoin="round" stroke-opacity="0.85" />
  <polyline points="108.95,32.97 108.7,32.97 107.93,32.2 107.17,32.2 106.91,31.95 105.89,31.95 105.64,32.2 105.13,32.2 104.87,32.46 104.36,32.46 104.11,32.71 103.85,32.71 103.6,32.97 103.09,32.97 102.83,33.22 102.58,33.22 102.32,33.48 102.07,33.48 101.81,33.73 101.3,33.73 101.05,33.99 100.79,33.99 100.28,34.5 99.77,34.5 99.52,34.76 99.26,34.76 99.01,35.01 98.5,35.01 98.24,35.27 97.99,35.27 97.73,35.52 97.48,35.52 97.22,35.78 96.97,35.78 96.71,36.03 95.69,36.03" fill="none" stroke="black" stroke-width="1.0" stroke-linecap="round" stroke-linejoin="round" stroke-opacity="0.85" />
  <polyline points="95.69,36.03 95.18,36.54 94.67,36.54 94.42,36.8 94.16,36.8 93.91,37.05 93.65,37.05 93.4,37.31" fill="none" stroke="black" stroke-width="1.0" stroke-linecap="round" stroke-linejoin="round" stroke-opacity="0.85" />
  <polyline points="92.89,37.82 92.89,38.07 92.63,38.33 92.63,38.84 92.38,39.09 92.38,39.6 92.12,39.86 92.12,42.41 92.38,42.66 92.38,43.17 92.63,43.43 92.63,43.94 92.89,44.19 92.89,44.45 93.14,44.7 93.14,44.96 93.65,45.47 93.65,45.72 94.93,47.0 95.18,47.0 95.69,47.51 96.2,47.51 96.46,47.76" fill="none" stroke="black" stroke-width="1.0" stroke-linecap="round" stroke-linejoin="round" stroke-opacity="0.85" />
  <polyline points="96.46,48.02 96.2,48.27 95.44,48.27 95.18,48.02 94.67,48.02 94.16,47.51 93.91,47.51 92.38,45.98 92.38,45.72 91.87,45.21 91.87,44.96 91.61,44.7 91.61,44.45 91.1,43.94" fill="none" stroke="black" stroke-width="1.0" stroke-linecap="round" stroke-linejoin="round" stroke-opacity="0.85" />
  <polyline points="91.1,43.94 91.1,43.43 90.85,43.17 90.85,42.15 90.59,41.9" fill="none" stroke="black" stroke-width="1.0" stroke-linecap="round" stroke-linejoin="round" stroke-opacity="0.85" />
  <polyline points="90.59,41.64 90.59,40.37 90.85,40.11 90.85,39.86 91.1,39.6 91.1,38.84 92.38,37.56 92.63,37.56" fill="none" stroke="black" stroke-width="1.0" stroke-linecap="round" stroke-linejoin="round" stroke-opacity="0.85" />
  <polyline points="93.65,35.78 92.89,35.78 92.63,36.03 91.61,36.03 91.36,36.29 89.57,36.29" fill="none" stroke="black" stroke-width="1.0" stroke-linecap="round" stroke-linejoin="round" stroke-opacity="0.85" />
  <polyline points="90.08,36.8 89.57,36.8 89.32,37.05 88.81,37.05 88.55,37.31 88.3,37.31" fill="none" stroke="black" stroke-width="1.0" stroke-linecap="round" stroke-linejoin="round" stroke-opacity="0.85" />
  <polyline points="87.79,37.31 87.53,37.31 87.02,37.82 86.77,37.82 86.51,38.07 86.26,38.07 86.0,38.33 85.49,38.33" fill="none" stroke="black" stroke-width="1.0" stroke-linecap="round" stroke-linejoin="round" stroke-opacity="0.85" />
  <polyline points="85.23,38.58 84.98,38.84 84.72,38.84 84.47,39.09 84.21,39.09 83.7,39.6 83.19,39.6 82.94,39.86 82.43,39.86" fill="none" stroke="black" stroke-width="1.0" stroke-linecap="round" stroke-linejoin="round" stroke-opacity="0.85" />
  <polyline points="82.17,40.11 82.17,40.37 82.43,40.62 82.43,41.39 82.68,41.64 82.68,41.9 82.94,42.15 83.45,41.64" fill="none" stroke="black" stroke-width="1.0" stroke-linecap="round" stroke-linejoin="round" stroke-opacity="0.85" />
  <polyline points="83.45,41.39 83.19,41.13 83.45,40.88 83.7,40.88 83.96,40.62 84.47,40.62 84.72,40.37 84.98,40.37 85.23,40.11 86.51,40.11 86.77,39.86 87.79,39.86 88.04,40.11" fill="none" stroke="black" stroke-width="1.0" stroke-linecap="round" stroke-linejoin="round" stroke-opacity="0.85" />
  <polyline points="88.04,40.11 87.79,40.37 87.53,40.37 87.28,40.62 86.77,40.62 86.51,40.88 85.74,40.88 85.49,41.13 84.98,41.13 84.72,41.39 84.47,41.39 84.21,41.64 83.7,41.64" fill="none" stroke="black" stroke-width="1.0" stroke-linecap="round" stroke-linejoin="round" stroke-opacity="0.85" />
  <polyline points="90.34,47.51 90.59,47.51 90.85,47.25 91.1,47.25 91.36,47.0 91.61,47.0" fill="none" stroke="black" stroke-width="1.0" stroke-linecap="round" stroke-linejoin="round" stroke-opacity="0.85" />
  <polyline points="92.38,51.84 92.63,51.59 92.63,51.33 92.89,51.08 93.91,51.08 94.16,50.82 94.42,50.82 94.67,50.57 95.18,50.57 95.44,50.31 95.69,50.31 95.95,50.06 96.46,50.06 96.71,49.8 96.97,49.8 97.22,49.55 97.99,49.55 98.24,49.29 98.75,49.29 99.01,49.04 99.26,49.04" fill="none" stroke="black" stroke-width="1.0" stroke-linecap="round" stroke-linejoin="round" stroke-opacity="0.85" />
  <polyline points="99.26,47.25 98.5,47.25 98.24,47.51 97.99,47.51 97.73,47.76 96.97,47.76 96.71,48.02" fill="none" stroke="black" stroke-width="1.0" stroke-linecap="round" stroke-linejoin="round" stroke-opacity="0.85" />
  <polyline points="95.69,36.03 95.18,35.52 94.16,35.52" fill="none" stroke="black" stroke-width="1.0" stroke-linecap="round" stroke-linejoin="round" stroke-opacity="0.85" />
  <polyline points="113.8,38.07 114.05,37.82 114.05,37.31 115.07,36.29" fill="none" stroke="black" stroke-width="1.0" stroke-linecap="round" stroke-linejoin="round" stroke-opacity="0.85" />
  <polyline points="114.56,36.03 114.82,35.78 115.07,35.78 116.35,34.5 116.6,34.5 117.37,33.73 118.64,33.73" fill="none" stroke="black" stroke-width="1.0" stroke-linecap="round" stroke-linejoin="round" stroke-opacity="0.85" />
  <polyline points="115.84,42.41 115.84,41.64 116.09,41.39 116.86,42.15 116.86,42.41 116.6,42.66" fill="none" stroke="black" stroke-width="1.0" stroke-linecap="round" stroke-linejoin="round" stroke-opacity="0.85" />
  <polyline points="121.7,45.98 122.21,45.98 122.47,46.23 123.74,46.23 124.0,46.49 124.77,46.49 125.02,46.74 125.53,46.74" fill="none" stroke="black" stroke-width="1.0" stroke-linecap="round" stroke-linejoin="round" stroke-opacity="0.85" />
  <polyline points="127.06,47.25 129.61,47.25 130.12,46.74 130.12,45.98" fill="none" stroke="black" stroke-width="1.0" stroke-linecap="round" stroke-linejoin="round" stroke-opacity="0.85" />
  <polyline points="128.08,48.78 128.34,48.53 128.85,48.53 129.36,48.02 129.61,48.02 130.12,47.51 130.38,47.51 132.93,44.96 132.93,44.45 133.18,44.19" fill="none" stroke="black" stroke-width="1.0" stroke-linecap="round" stroke-linejoin="round" stroke-opacity="0.85" />
  <polyline points="128.34,40.11 128.08,39.86 128.08,39.6 128.59,39.09" fill="none" stroke="black" stroke-width="1.0" stroke-linecap="round" stroke-linejoin="round" stroke-opacity="0.85" />
  <polyline points="127.32,49.04 126.3,49.04 126.04,49.29 125.28,49.29 125.02,49.04 124.77,49.04" fill="none" stroke="black" stroke-width="1.0" stroke-linecap="round" stroke-linejoin="round" stroke-opacity="0.85" />
  <polyline points="129.1,56.43 128.85,56.43 128.59,56.69 128.34,56.69 128.08,56.94 127.83,56.94 127.32,57.45 127.06,57.45 126.04,58.47 126.04,58.73 125.28,59.49" fill="none" stroke="black" stroke-width="1.0" stroke-linecap="round" stroke-linejoin="round" stroke-opacity="0.85" />
  <polyline points="123.23,64.08 123.23,64.85 122.98,65.1 122.98,68.16 123.23,68.42 123.23,69.69 122.72,70.2" fill="none" stroke="black" stroke-width="1.0" stroke-linecap="round" stroke-linejoin="round" stroke-opacity="0.85" />
  <polyline points="122.72,70.46 122.72,71.22 122.47,71.48 122.47,73.01 122.72,73.27" fill="none" stroke="black" stroke-width="1.0" stroke-linecap="round" stroke-linejoin="round" stroke-opacity="0.85" />
  <polyline points="122.72,73.52 122.72,74.03 122.47,74.29 122.47,74.54 122.21,74.8 122.21,75.05 121.96,75.31 121.96,75.56 121.45,76.07 121.45,76.33 121.19,76.58 121.19,76.84 120.94,77.09 120.94,77.35 120.43,77.86 120.43,78.11 120.17,78.37 120.17,78.62 119.92,78.88 119.92,79.13 119.66,79.39 119.66,79.64 119.41,79.9 119.41,80.15 118.9,80.66 118.9,80.92 118.64,81.17 118.64,81.43 118.39,81.68 118.39,81.94 117.88,82.45 117.88,82.7 117.62,82.96 117.62,83.21 117.37,83.47 117.37,83.72 116.86,84.23 116.86,84.49 116.6,84.74 116.6,85.0 116.35,85.25 116.35,85.51 116.09,85.76 116.09,86.02 115.58,86.53 115.58,86.78 115.33,87.04 115.33,87.29 115.07,87.55 115.07,87.8 114.56,88.31 114.56,88.57 114.31,88.82 114.31,89.08 114.05,89.33 114.05,89.59 113.54,90.1 113.54,90.35 113.29,90.61 113.29,90.86 113.03,91.12 113.03,91.37 112.78,91.63 112.78,91.88 112.27,92.39 112.27,92.65 112.01,92.9 112.01,93.16 111.76,93.41 111.76,93.67 111.5,93.92 111.5,94.18 110.99,94.69 110.99,94.94 110.74,95.2 110.74,95.45 110.48,95.71 110.48,95.96 110.23,96.22 110.23,96.47 109.97,96.73" fill="none" stroke="black" stroke-width="1.0" stroke-linecap="round" stroke-linejoin="round" stroke-opacity="0.85" />
  <polyline points="109.97,96.98 109.72,97.24 109.46,97.24 109.21,97.49 108.44,97.49 108.19,97.75 107.68,97.75 107.42,98.0 107.17,98.0 106.4,98.77 106.4,99.02 106.15,99.28 106.15,99.53 105.64,100.04 105.64,100.3 105.38,100.55 105.38,100.81 104.87,101.32 104.87,101.57 104.62,101.83 104.62,102.08 104.11,102.59 102.83,102.59" fill="none" stroke="black" stroke-width="1.0" stroke-linecap="round" stroke-linejoin="round" stroke-opacity="0.85" />
  <polyline points="102.58,102.59 102.32,102.34 100.54,102.34 100.28,102.59 99.52,102.59 99.26,102.85 98.75,102.85 98.5,103.1 98.24,103.1 96.2,105.14 96.2,105.4 95.69,105.91 95.69,106.16 95.44,106.42 95.44,106.93 95.18,107.18 95.18,107.44 94.93,107.69 94.93,108.46 94.67,108.71 94.67,109.73 94.42,109.99 94.42,112.54 94.67,112.8 94.67,113.82 94.93,114.07 94.93,114.58 95.18,114.84 95.18,115.09 95.44,115.35 95.44,115.6 95.69,115.86 95.69,116.11 96.2,116.62 96.2,116.88 97.73,118.41 97.99,118.41 98.24,118.66 98.5,118.66 98.75,118.92 99.01,118.92 99.26,119.17 100.03,119.17 100.28,119.43 101.3,119.43 101.56,119.68 102.58,119.68" fill="none" stroke="black" stroke-width="1.0" stroke-linecap="round" stroke-linejoin="round" stroke-opacity="0.85" />
  <polyline points="102.83,119.43 100.79,117.39 100.79,117.13 100.54,116.88 100.54,116.62 100.28,116.37 100.28,116.11" fill="none" stroke="black" stroke-width="1.0" stroke-linecap="round" stroke-linejoin="round" stroke-opacity="0.85" />
  <polyline points="103.09,119.68 103.85,119.68 104.11,119.94 106.4,119.94 106.66,120.19 107.93,120.19 108.19,120.45 109.46,120.45 109.72,120.7 110.99,120.7 111.25,120.96 112.27,120.96 112.52,121.21 113.29,121.21 113.54,121.47 114.31,121.47 114.56,121.21" fill="none" stroke="black" stroke-width="1.0" stroke-linecap="round" stroke-linejoin="round" stroke-opacity="0.85" />
  <polyline points="114.56,121.21 115.07,121.21 115.33,121.47 115.84,121.47 116.09,121.72 116.6,121.72 117.11,122.23 117.11,122.74 116.86,123.0 116.86,124.27" fill="none" stroke="black" stroke-width="1.0" stroke-linecap="round" stroke-linejoin="round" stroke-opacity="0.85" />
  <polyline points="116.86,124.53 116.35,125.04 116.35,126.06" fill="none" stroke="black" stroke-width="1.0" stroke-linecap="round" stroke-linejoin="round" stroke-opacity="0.85" />
  <polyline points="116.09,126.31 115.07,126.31 114.82,126.06 113.8,126.06 113.54,125.8 112.27,125.8 112.01,125.55 110.74,125.55" fill="none" stroke="black" stroke-width="1.0" stroke-linecap="round" stroke-linejoin="round" stroke-opacity="0.85" />
  <polyline points="110.48,125.8 110.48,127.08 110.23,127.33 109.72,127.33 109.46,127.59 105.38,127.59 105.13,127.33 104.87,127.33 104.36,126.82 104.36,125.8" fill="none" stroke="black" stroke-width="1.0" stroke-linecap="round" stroke-linejoin="round" stroke-opacity="0.85" />
  <polyline points="104.11,125.55 103.34,125.55 102.07,126.06 99.52,126.31 99.26,126.57 97.22,126.82 96.97,127.08 95.69,127.08 95.44,127.33 94.67,127.33 93.4,127.84 92.12,127.84 91.87,128.1 90.85,128.1 89.57,128.61 88.55,128.61 88.3,128.86 87.28,128.86 87.02,129.12 86.0,129.12 85.74,129.37 84.72,129.37 84.47,129.63 83.45,129.63 83.19,129.88 82.17,129.88 80.9,130.39 79.62,130.39 79.37,130.65 78.35,130.65 77.07,131.16 76.05,131.16 75.8,131.41 74.78,131.41 74.52,131.67 73.5,131.67 73.25,131.92 69.68,132.43 68.4,132.94 67.38,132.94 67.13,133.2 66.11,133.2 65.85,133.45 64.83,133.45 64.58,133.71 61.01,134.22 59.73,134.73 58.46,134.73 58.2,134.98 57.18,134.98 55.91,135.49 54.89,135.49 54.63,135.75 53.61,135.75 53.36,136.0 52.34,136.0 52.08,136.26 51.06,136.26 50.81,136.51 49.53,136.51 49.28,136.77 48.51,136.77 47.23,137.28 45.96,137.28 45.7,137.53 44.68,137.53 43.41,138.04 40.86,138.3 39.84,138.81 38.31,139.06 37.29,139.83" fill="none" stroke="black" stroke-width="1.0" stroke-linecap="round" stroke-linejoin="round" stroke-opacity="0.85" />
  <polyline points="37.03,140.34 37.03,140.59 36.78,140.85 36.78,142.12" fill="none" stroke="black" stroke-width="1.0" stroke-linecap="round" stroke-linejoin="round" stroke-opacity="0.85" />
  <polyline points="37.03,142.38 82.17,150.8 88.81,150.8 154.86,135.49" fill="none" stroke="black" stroke-width="1.0" stroke-linecap="round" stroke-linejoin="round" stroke-opacity="0.85" />
  <polyline points="154.86,135.49 155.11,135.24 155.11,133.96 154.86,133.71" fill="none" stroke="black" stroke-width="1.0" stroke-linecap="round" stroke-linejoin="round" stroke-opacity="0.85" />
  <polyline points="154.86,133.45 154.86,133.2 154.35,132.69 154.09,132.69 153.84,132.43 153.33,132.43 153.07,132.18 152.31,132.18 152.05,131.92 151.03,131.92" fill="none" stroke="black" stroke-width="1.0" stroke-linecap="round" stroke-linejoin="round" stroke-opacity="0.85" />
  <polyline points="150.78,132.18 150.78,133.45 150.52,133.71 150.27,133.71 150.01,133.96 146.44,133.96" fill="none" stroke="black" stroke-width="1.0" stroke-linecap="round" stroke-linejoin="round" stroke-opacity="0.85" />
  <polyline points="145.93,133.71 145.17,133.71 144.91,133.45 144.66,133.45 144.4,133.2 144.66,132.94 144.66,131.41" fill="none" stroke="black" stroke-width="1.0" stroke-linecap="round" stroke-linejoin="round" stroke-opacity="0.85" />
  <polyline points="144.91,131.16 145.17,131.41 145.68,131.41 145.93,131.67 146.95,131.67 147.21,131.92 148.74,131.92 148.99,131.67 149.76,131.67 150.01,131.41 150.27,131.41" fill="none" stroke="black" stroke-width="1.0" stroke-linecap="round" stroke-linejoin="round" stroke-opacity="0.85" />
  <polyline points="148.99,130.39 145.68,130.39 145.42,130.65 144.91,130.65" fill="none" stroke="black" stroke-width="1.0" stroke-linecap="round" stroke-linejoin="round" stroke-opacity="0.85" />
  <polyline points="144.4,130.65 143.64,130.65 143.38,130.39 142.11,130.39 141.85,130.14 140.83,130.14 140.58,129.88 139.56,129.88 139.3,129.63 138.28,129.63" fill="none" stroke="black" stroke-width="1.0" stroke-linecap="round" stroke-linejoin="round" stroke-opacity="0.85" />
  <polyline points="138.03,129.37 138.03,129.12 137.01,128.1 136.75,128.1 136.5,127.84 135.73,127.84" fill="none" stroke="black" stroke-width="1.0" stroke-linecap="round" stroke-linejoin="round" stroke-opacity="0.85" />
  <polyline points="135.48,127.59 135.48,125.29 134.97,124.78 134.71,124.78" fill="none" stroke="black" stroke-width="1.0" stroke-linecap="round" stroke-linejoin="round" stroke-opacity="0.85" />
  <polyline points="134.46,124.78 134.2,125.04 133.95,125.04 133.69,125.29 133.18,125.29 132.93,125.55 131.91,125.55 131.65,125.8 130.12,125.8 129.87,126.06 124.51,126.06 124.26,125.8 121.7,125.8 121.45,125.55 119.92,125.55 119.66,125.29 118.9,125.29 118.64,125.04 117.88,125.04 117.62,124.78 117.37,124.78 117.11,124.53" fill="none" stroke="black" stroke-width="1.0" stroke-linecap="round" stroke-linejoin="round" stroke-opacity="0.85" />
  <polyline points="115.84,127.59 115.33,127.59 115.07,127.84 114.56,127.84 114.31,128.1 113.8,128.1 113.03,128.86 113.03,131.16 113.8,131.92 114.05,131.92 114.31,132.18 114.82,132.18 115.07,132.43 115.58,132.43 115.84,132.69 116.35,132.69 116.6,132.94 117.62,132.94 117.88,133.2 118.9,133.2 119.15,133.45 120.43,133.45 120.68,133.71 122.98,133.71" fill="none" stroke="black" stroke-width="1.0" stroke-linecap="round" stroke-linejoin="round" stroke-opacity="0.85" />
  <polyline points="123.49,133.96 130.63,133.96" fill="none" stroke="black" stroke-width="1.0" stroke-linecap="round" stroke-linejoin="round" stroke-opacity="0.85" />
  <polyline points="131.4,133.71 133.18,133.71 133.44,133.45 134.46,133.45 134.71,133.2 135.48,133.2 135.73,132.94 136.24,132.94 136.5,132.69 136.75,132.69 137.01,132.43 137.26,132.43 138.03,131.67 138.03,130.14" fill="none" stroke="black" stroke-width="1.0" stroke-linecap="round" stroke-linejoin="round" stroke-opacity="0.85" />
  <polyline points="134.46,124.53 134.46,114.33 134.71,114.07 134.71,112.54 134.97,112.29 134.97,111.78 135.22,111.52" fill="none" stroke="black" stroke-width="1.0" stroke-linecap="round" stroke-linejoin="round" stroke-opacity="0.85" />
  <polyline points="134.71,111.01 134.71,105.91 134.46,105.65 134.46,104.89 134.2,104.63 133.95,104.63 133.44,104.12 133.18,104.12 132.93,103.87 132.42,103.87 132.16,103.61 131.14,103.61 130.89,103.36 129.87,103.36 129.61,103.1 127.57,103.1 127.32,102.85 124.77,102.85 124.51,103.1 122.47,103.1 122.21,103.36 121.19,103.36" fill="none" stroke="black" stroke-width="1.0" stroke-linecap="round" stroke-linejoin="round" stroke-opacity="0.85" />
  <polyline points="120.94,103.1 120.94,102.85 121.19,102.59 121.19,102.34 121.45,102.08 121.45,101.83 121.7,101.57 121.7,101.32 121.96,101.06 121.96,100.81 122.47,100.3 122.47,100.04 122.72,99.79 122.72,99.53 122.98,99.28 122.98,99.02 123.23,98.77 123.23,98.51 123.49,98.26 123.49,98.0 124.0,97.49 124.0,97.24 124.26,96.98 124.26,96.73 124.51,96.47 124.51,96.22 124.77,95.96 124.77,95.71 125.28,95.2 125.28,94.94 125.53,94.69 125.53,94.43 125.79,94.18 125.79,93.92 126.3,93.41 126.3,93.16 126.55,92.9 126.55,92.65 126.81,92.39 126.81,92.14 127.06,91.88 127.06,91.63 127.32,91.37 127.32,91.12 127.83,90.61 127.83,90.35 128.08,90.1 128.08,89.84 128.34,89.59 128.34,89.33 128.85,88.82 128.85,88.57 129.1,88.31 129.1,88.06 129.36,87.8 129.36,87.55 129.61,87.29 129.61,87.04 129.87,86.78 129.87,86.53 130.38,86.02 130.38,85.76 130.63,85.51 130.63,85.25 130.89,85.0 130.89,84.74 131.4,84.23 131.4,83.98 131.65,83.72 131.65,83.47 131.91,83.21 131.91,82.96 132.16,82.7 132.16,82.45 132.42,82.19 132.42,81.94 132.93,81.43 132.93,81.17 133.18,80.92 133.18,80.66 133.44,80.41 133.44,80.15 133.95,79.64" fill="none" stroke="black" stroke-width="1.0" stroke-linecap="round" stroke-linejoin="round" stroke-opacity="0.85" />
  <polyline points="134.2,79.13 134.2,78.11 133.95,77.86 133.95,77.35 133.44,76.84" fill="none" stroke="black" stroke-width="1.0" stroke-linecap="round" stroke-linejoin="round" stroke-opacity="0.85" />
  <polyline points="132.93,76.58 133.18,76.33 132.16,75.31" fill="none" stroke="black" stroke-width="1.0" stroke-linecap="round" stroke-linejoin="round" stroke-opacity="0.85" />
  <polyline points="131.4,74.8 130.89,74.29 130.63,74.29 130.12,73.78 129.87,73.78 129.61,73.52 129.36,73.52 129.1,73.27 128.85,73.27 128.59,73.01 128.34,73.01 128.08,72.76 127.57,72.76" fill="none" stroke="black" stroke-width="1.0" stroke-linecap="round" stroke-linejoin="round" stroke-opacity="0.85" />
  <polyline points="127.06,72.5 126.3,72.5 126.04,72.24 124.77,72.24" fill="none" stroke="black" stroke-width="1.0" stroke-linecap="round" stroke-linejoin="round" stroke-opacity="0.85" />
  <polyline points="124.26,72.5 124.0,72.5 123.49,73.01 123.23,73.01 122.98,73.27" fill="none" stroke="black" stroke-width="1.0" stroke-linecap="round" stroke-linejoin="round" stroke-opacity="0.85" />
  <polyline points="122.47,70.2 122.21,70.2 121.96,69.95 121.96,69.69 121.45,69.18 121.45,68.93 120.94,68.42 120.94,68.16 120.68,67.91 120.68,67.4 120.43,67.14 120.43,66.38 120.17,66.12 120.17,62.81 120.43,62.55 120.43,61.53 120.68,61.28 120.68,61.02 120.94,60.77 120.94,60.26 121.19,60.0 121.19,59.75 121.45,59.49 121.45,59.24 121.7,58.98 121.7,58.73 122.21,58.22 122.21,57.96 124.0,56.18 124.26,56.18 124.51,55.92 125.02,55.92 125.28,55.67 126.04,55.67 126.3,55.41 127.06,55.41 127.32,55.67 129.36,55.67 129.61,55.92 130.38,55.92" fill="none" stroke="black" stroke-width="1.0" stroke-linecap="round" stroke-linejoin="round" stroke-opacity="0.85" />
  <polyline points="138.03,63.83 137.77,64.08 137.77,64.59 137.52,64.85 137.52,65.61 137.26,65.87 137.26,68.16 137.52,68.42 137.52,69.44 137.77,69.69 137.77,70.2 138.03,70.46 138.03,70.97 138.28,71.22 138.28,71.48 138.79,71.99 138.79,72.24 140.07,73.52 140.07,73.78" fill="none" stroke="black" stroke-width="1.0" stroke-linecap="round" stroke-linejoin="round" stroke-opacity="0.85" />
  <polyline points="140.07,74.03 139.81,74.29 139.56,74.29 139.3,74.54 139.05,74.54 138.54,75.05 138.54,75.31 138.28,75.56 138.28,76.07 137.77,76.58 137.77,76.84 135.48,79.13 135.22,79.13 134.97,79.39 134.46,79.39" fill="none" stroke="black" stroke-width="1.0" stroke-linecap="round" stroke-linejoin="round" stroke-opacity="0.85" />
  <polyline points="140.32,74.03 141.6,74.03 141.85,74.29 145.68,74.29 145.93,74.03 146.95,74.03 147.21,73.78 147.72,73.78 147.97,73.52 148.48,73.52 148.99,73.01 149.25,73.01 149.76,72.5 150.01,72.5 151.54,70.97 151.54,70.71 152.05,70.2 152.05,69.95 152.31,69.69 152.31,69.44 152.56,69.18 152.56,68.67 152.82,68.42 152.82,67.91" fill="none" stroke="black" stroke-width="1.0" stroke-linecap="round" stroke-linejoin="round" stroke-opacity="0.85" />
  <polyline points="153.07,67.65 153.33,67.4 153.33,65.87 153.07,65.61 153.07,64.85" fill="none" stroke="black" stroke-width="1.0" stroke-linecap="round" stroke-linejoin="round" stroke-opacity="0.85" />
  <polyline points="152.31,62.3 151.8,61.79 151.8,61.53 151.03,60.77 151.03,60.51 148.99,58.47 148.74,58.47" fill="none" stroke="black" stroke-width="1.0" stroke-linecap="round" stroke-linejoin="round" stroke-opacity="0.85" />
  <polyline points="115.33,98.51 115.07,98.26 114.82,98.26 114.56,98.0 114.31,98.0 114.05,97.75 113.8,97.75" fill="none" stroke="black" stroke-width="1.0" stroke-linecap="round" stroke-linejoin="round" stroke-opacity="0.85" />
  <polyline points="112.27,97.24 111.5,97.24 111.25,96.98 110.23,96.98" fill="none" stroke="black" stroke-width="1.0" stroke-linecap="round" stroke-linejoin="round" stroke-opacity="0.85" />
  <polyline points="102.58,102.85 101.05,104.38" fill="none" stroke="black" stroke-width="1.0" stroke-linecap="round" stroke-linejoin="round" stroke-opacity="0.85" />
  <polyline points="117.11,105.14 116.86,105.14 116.6,105.4 116.35,105.4 116.09,105.65 115.84,105.65 114.05,107.44 114.05,107.69 113.8,107.95 113.8,108.2 113.29,108.71 113.29,108.97 113.03,109.22 113.03,109.73 112.78,109.99 112.78,110.24 112.52,110.5 112.52,110.76 112.27,111.01 112.27,112.03 112.01,112.29 112.01,113.31 111.76,113.56 111.76,115.35 112.01,115.6 112.01,116.62 112.27,116.88" fill="none" stroke="black" stroke-width="1.0" stroke-linecap="round" stroke-linejoin="round" stroke-opacity="0.85" />
  <polyline points="112.27,117.64 112.27,118.15 112.78,118.66 112.78,118.92 113.03,119.17 113.03,119.43 113.54,119.94 113.54,120.19 114.56,121.21" fill="none" stroke="black" stroke-width="1.0" stroke-linecap="round" stroke-linejoin="round" stroke-opacity="0.85" />
  <polyline points="110.48,125.29 109.97,124.78 109.72,124.78 109.46,124.53 108.44,124.53 108.19,124.27 106.4,124.27 106.15,124.53 105.13,124.53 104.87,124.78 104.87,125.04" fill="none" stroke="black" stroke-width="1.0" stroke-linecap="round" stroke-linejoin="round" stroke-opacity="0.85" />
  <polyline points="116.09,127.84 116.09,128.61 116.86,129.37" fill="none" stroke="black" stroke-width="1.0" stroke-linecap="round" stroke-linejoin="round" stroke-opacity="0.85" />
  <polyline points="121.45,130.65 122.72,130.65" fill="none" stroke="black" stroke-width="1.0" stroke-linecap="round" stroke-linejoin="round" stroke-opacity="0.85" />
  <polyline points="123.49,130.9 129.1,130.9" fill="none" stroke="black" stroke-width="1.0" stroke-linecap="round" stroke-linejoin="round" stroke-opacity="0.85" />
  <polyline points="130.89,139.32 130.38,139.32 130.12,139.57 129.36,139.57" fill="none" stroke="black" stroke-width="1.0" stroke-linecap="round" stroke-linejoin="round" stroke-opacity="0.85" />
  <polyline points="127.57,140.08 126.81,140.08 126.55,140.34 125.79,140.34 125.53,140.59 124.77,140.59" fill="none" stroke="black" stroke-width="1.0" stroke-linecap="round" stroke-linejoin="round" stroke-opacity="0.85" />
  <polyline points="124.26,140.85 123.49,140.85 123.23,141.1 122.47,141.1 122.21,141.36 121.45,141.36" fill="none" stroke="black" stroke-width="1.0" stroke-linecap="round" stroke-linejoin="round" stroke-opacity="0.85" />
  <polyline points="119.66,141.87 118.9,141.87 118.64,142.12 118.13,142.12" fill="none" stroke="black" stroke-width="1.0" stroke-linecap="round" stroke-linejoin="round" stroke-opacity="0.85" />
  <polyline points="116.35,142.63 115.58,142.63 115.33,142.89 114.56,142.89" fill="none" stroke="black" stroke-width="1.0" stroke-linecap="round" stroke-linejoin="round" stroke-opacity="0.85" />
  <polyline points="111.76,143.65 110.99,143.65 110.74,143.91 109.97,143.91 109.72,144.16 108.7,144.16 108.44,144.42 107.68,144.42 107.42,144.67 106.66,144.67 106.4,144.93 105.64,144.93" fill="none" stroke="black" stroke-width="1.0" stroke-linecap="round" stroke-linejoin="round" stroke-opacity="0.85" />
  <polyline points="104.87,145.18 104.36,145.18 104.11,145.44 103.34,145.44" fill="none" stroke="black" stroke-width="1.0" stroke-linecap="round" stroke-linejoin="round" stroke-opacity="0.85" />
  <polyline points="100.54,146.2 99.77,146.2 99.52,146.46 99.01,146.46" fill="none" stroke="black" stroke-width="1.0" stroke-linecap="round" stroke-linejoin="round" stroke-opacity="0.85" />
  <polyline points="98.5,146.71 97.48,146.71 97.22,146.97 96.46,146.97 96.2,147.22 95.44,147.22 95.18,147.48 94.16,147.48 93.91,147.73 92.89,147.73 92.63,147.99 91.87,147.99 91.61,148.24 90.85,148.24" fill="none" stroke="black" stroke-width="1.0" stroke-linecap="round" stroke-linejoin="round" stroke-opacity="0.85" />
  <polyline points="88.81,148.76 82.94,148.76" fill="none" stroke="black" stroke-width="1.0" stroke-linecap="round" stroke-linejoin="round" stroke-opacity="0.85" />
  <polyline points="82.68,152.84 83.96,152.84" fill="none" stroke="black" stroke-width="1.0" stroke-linecap="round" stroke-linejoin="round" stroke-opacity="0.85" />
  <polyline points="87.53,152.84 88.81,152.84" fill="none" stroke="black" stroke-width="1.0" stroke-linecap="round" stroke-linejoin="round" stroke-opacity="0.85" />
  <polyline points="79.88,152.33 78.86,152.33 78.6,152.07 77.84,152.07" fill="none" stroke="black" stroke-width="1.0" stroke-linecap="round" stroke-linejoin="round" stroke-opacity="0.85" />
  <polyline points="75.29,151.56 74.52,151.56 74.27,151.31 73.25,151.31" fill="none" stroke="black" stroke-width="1.0" stroke-linecap="round" stroke-linejoin="round" stroke-opacity="0.85" />
  <polyline points="71.21,150.8 70.44,150.8 70.19,150.54 69.17,150.54 68.91,150.29 67.89,150.29" fill="none" stroke="black" stroke-width="1.0" stroke-linecap="round" stroke-linejoin="round" stroke-opacity="0.85" />
  <polyline points="67.13,150.03 66.11,150.03 65.85,149.78 64.83,149.78 64.58,149.52 63.56,149.52" fill="none" stroke="black" stroke-width="1.0" stroke-linecap="round" stroke-linejoin="round" stroke-opacity="0.85" />
  <polyline points="62.79,145.18 63.56,145.18 63.81,145.44 64.83,145.44 65.09,145.69 65.85,145.69" fill="none" stroke="black" stroke-width="1.0" stroke-linecap="round" stroke-linejoin="round" stroke-opacity="0.85" />
  <polyline points="60.5,144.67 59.48,144.67 59.22,144.42 58.46,144.42" fill="none" stroke="black" stroke-width="1.0" stroke-linecap="round" stroke-linejoin="round" stroke-opacity="0.85" />
  <polyline points="56.16,143.91 55.4,143.91 55.14,143.65 54.12,143.65 53.87,143.4 52.85,143.4" fill="none" stroke="black" stroke-width="1.0" stroke-linecap="round" stroke-linejoin="round" stroke-opacity="0.85" />
  <polyline points="52.08,143.14 51.06,143.14 50.81,142.89 49.79,142.89 49.53,142.63 48.51,142.63" fill="none" stroke="black" stroke-width="1.0" stroke-linecap="round" stroke-linejoin="round" stroke-opacity="0.85" />
  <polyline points="46.21,142.12 45.45,142.12 45.19,141.87 44.17,141.87" fill="none" stroke="black" stroke-width="1.0" stroke-linecap="round" stroke-linejoin="round" stroke-opacity="0.85" />
  <polyline points="40.86,141.1 40.09,141.1 39.84,140.85 39.07,140.85" fill="none" stroke="black" stroke-width="1.0" stroke-linecap="round" stroke-linejoin="round" stroke-opacity="0.85" />
  <polyline points="36.78,142.63 36.78,143.91" fill="none" stroke="black" stroke-width="1.0" stroke-linecap="round" stroke-linejoin="round" stroke-opacity="0.85" />
  <polyline points="37.03,144.16 37.29,144.16 37.54,144.42 37.8,144.42 38.05,144.67 38.31,144.67" fill="none" stroke="black" stroke-width="1.0" stroke-linecap="round" stroke-linejoin="round" stroke-opacity="0.85" />
  <polyline points="36.78,144.42 35.76,220.16 36.52,220.93 37.03,220.93 38.56,221.69 40.6,221.95 42.9,222.71 43.92,222.71 45.7,223.48" fill="none" stroke="black" stroke-width="1.0" stroke-linecap="round" stroke-linejoin="round" stroke-opacity="0.85" />
  <polyline points="45.7,223.73 45.45,223.99 45.19,223.99 44.94,224.24 44.43,224.24 44.17,224.5 43.41,224.5 43.15,224.76 42.64,224.76 42.39,225.01 41.88,225.01 41.62,225.27 41.11,225.27 40.86,225.52 40.35,225.52 40.09,225.78 39.58,225.78 39.07,226.29" fill="none" stroke="black" stroke-width="1.0" stroke-linecap="round" stroke-linejoin="round" stroke-opacity="0.85" />
  <polyline points="39.07,226.29 38.82,226.29 38.56,226.54 38.31,226.54 36.01,228.84 36.01,229.09 35.76,229.35" fill="none" stroke="black" stroke-width="1.0" stroke-linecap="round" stroke-linejoin="round" stroke-opacity="0.85" />
  <polyline points="35.76,229.6 35.5,229.86 35.5,233.17" fill="none" stroke="black" stroke-width="1.0" stroke-linecap="round" stroke-linejoin="round" stroke-opacity="0.85" />
  <polyline points="35.76,233.43 36.01,233.43 36.27,233.68 36.52,233.68 36.78,233.94 37.03,233.94 37.29,234.19 37.8,234.19 38.05,234.45 38.56,234.45" fill="none" stroke="black" stroke-width="1.0" stroke-linecap="round" stroke-linejoin="round" stroke-opacity="0.85" />
  <polyline points="40.09,234.96 40.86,234.96 41.11,235.21 41.37,235.21" fill="none" stroke="black" stroke-width="1.0" stroke-linecap="round" stroke-linejoin="round" stroke-opacity="0.85" />
  <polyline points="40.86,236.74 40.35,236.74 40.09,236.49 39.58,236.49" fill="none" stroke="black" stroke-width="1.0" stroke-linecap="round" stroke-linejoin="round" stroke-opacity="0.85" />
  <polyline points="35.5,233.68 35.5,240.57 35.25,240.82 35.25,248.73" fill="none" stroke="black" stroke-width="1.0" stroke-linecap="round" stroke-linejoin="round" stroke-opacity="0.85" />
  <polyline points="34.99,248.98 34.74,248.98 33.97,249.75 33.97,251.53 34.99,252.55 35.25,252.55 35.5,252.81 35.76,252.81 36.01,253.06 36.52,253.06 36.78,253.32 37.29,253.32 37.54,253.57 38.05,253.57 38.31,253.83" fill="none" stroke="black" stroke-width="1.0" stroke-linecap="round" stroke-linejoin="round" stroke-opacity="0.85" />
  <polyline points="38.56,254.08 38.56,254.85 38.82,255.1 38.82,255.36 39.84,256.38 40.09,256.38 40.86,257.14 41.37,257.14" fill="none" stroke="black" stroke-width="1.0" stroke-linecap="round" stroke-linejoin="round" stroke-opacity="0.85" />
  <polyline points="41.62,257.14 41.88,257.4 42.13,257.4 42.39,257.65 43.15,257.65 43.41,257.91 45.19,257.91 45.45,257.65 45.96,257.65 46.21,257.4 46.47,257.4 46.72,257.14 46.98,257.14 47.49,256.63 47.49,256.38" fill="none" stroke="black" stroke-width="1.0" stroke-linecap="round" stroke-linejoin="round" stroke-opacity="0.85" />
  <polyline points="47.49,256.12 47.23,255.87 46.21,255.87 45.96,255.61 44.94,255.61 44.68,255.36 44.17,255.36 43.92,255.1 42.9,255.1 42.64,254.85 42.39,254.85 42.13,254.59 41.37,254.59 41.11,254.34 40.6,254.34" fill="none" stroke="black" stroke-width="1.0" stroke-linecap="round" stroke-linejoin="round" stroke-opacity="0.85" />
  <polyline points="40.09,254.34 39.84,254.08 39.33,254.08 39.07,253.83 38.82,253.83" fill="none" stroke="black" stroke-width="1.0" stroke-linecap="round" stroke-linejoin="round" stroke-opacity="0.85" />
  <polyline points="41.11,252.04 42.13,252.04 42.39,252.3 43.15,252.3 43.41,252.55 43.92,252.55 44.17,252.81" fill="none" stroke="black" stroke-width="1.0" stroke-linecap="round" stroke-linejoin="round" stroke-opacity="0.85" />
  <polyline points="44.17,252.81 45.45,252.81 45.7,253.06 46.21,253.06 46.47,253.32 47.23,253.32 47.49,253.57" fill="none" stroke="black" stroke-width="1.0" stroke-linecap="round" stroke-linejoin="round" stroke-opacity="0.85" />
  <polyline points="47.49,253.57 48.51,253.57 48.77,253.83 49.53,253.83 49.79,254.08 50.3,254.08 50.55,254.34 51.57,254.34 51.83,254.59" fill="none" stroke="black" stroke-width="1.0" stroke-linecap="round" stroke-linejoin="round" stroke-opacity="0.85" />
  <polyline points="51.83,254.59 52.85,254.59 53.1,254.85 53.87,254.85 54.12,255.1 54.89,255.1 55.14,255.36" fill="none" stroke="black" stroke-width="1.0" stroke-linecap="round" stroke-linejoin="round" stroke-opacity="0.85" />
  <polyline points="55.14,255.36 56.16,255.36 56.42,255.61 57.18,255.61 57.44,255.87 58.2,255.87 58.46,256.12" fill="none" stroke="black" stroke-width="1.0" stroke-linecap="round" stroke-linejoin="round" stroke-opacity="0.85" />
  <polyline points="59.48,256.38 60.24,256.38 60.5,256.63 61.26,256.63 61.52,256.89 62.28,256.89 62.54,257.14" fill="none" stroke="black" stroke-width="1.0" stroke-linecap="round" stroke-linejoin="round" stroke-opacity="0.85" />
  <polyline points="62.54,257.14 63.56,257.14 63.81,257.4 64.58,257.4 64.83,257.65 65.6,257.65 65.85,257.91 66.87,257.91 67.13,258.16 67.89,258.16 68.15,258.42 68.91,258.42 69.17,258.67 70.19,258.67 70.44,258.93 71.46,258.93 71.72,259.18 72.48,259.18 72.74,259.44 73.5,259.44 73.76,259.69 74.78,259.69 75.03,259.95 75.8,259.95 76.05,260.2 76.82,260.2 77.07,260.46 78.09,260.46 78.35,260.71 79.11,260.71 79.37,260.97 80.9,260.97 81.15,261.22 85.74,261.22 86.0,260.97 87.28,260.97 87.53,260.71 88.3,260.71 88.55,260.46 89.06,260.46 89.32,260.2 89.83,260.2 90.08,259.95 90.59,259.95 91.36,259.44 91.87,259.44 92.12,259.18 92.63,259.18 92.89,258.93 93.4,258.93 93.65,258.67 94.16,258.67 94.42,258.93 94.42,260.97" fill="none" stroke="black" stroke-width="1.0" stroke-linecap="round" stroke-linejoin="round" stroke-opacity="0.85" />
  <polyline points="94.42,261.22 94.16,261.48 93.65,261.48 93.4,261.73 92.89,261.73 92.63,261.99 92.12,261.99 91.87,262.24 91.1,262.24 90.85,262.5 90.59,262.5 90.34,262.76 89.83,262.76 89.57,263.01 89.32,263.01" fill="none" stroke="black" stroke-width="1.0" stroke-linecap="round" stroke-linejoin="round" stroke-opacity="0.85" />
  <polyline points="89.06,263.27 89.06,264.29 87.02,266.33 86.26,266.33 86.0,266.58 84.98,266.58" fill="none" stroke="black" stroke-width="1.0" stroke-linecap="round" stroke-linejoin="round" stroke-opacity="0.85" />
  <polyline points="84.98,266.58 84.72,266.84 83.7,266.84 83.45,267.09 82.43,267.09 82.17,266.84 81.66,266.84 81.41,266.58 80.9,266.58 80.64,266.33 80.39,266.33 80.13,266.07 79.88,266.07 78.86,265.05 78.86,264.8 78.35,264.29 78.35,263.78" fill="none" stroke="black" stroke-width="1.0" stroke-linecap="round" stroke-linejoin="round" stroke-opacity="0.85" />
  <polyline points="78.09,263.52 77.84,263.27 77.07,263.27 76.82,263.01 76.05,263.01 75.8,262.76 75.03,262.76 74.78,262.5 74.01,262.5 73.76,262.24 72.99,262.24 72.74,261.99 71.97,261.99 71.72,261.73 70.95,261.73 70.7,261.48 69.68,261.48 69.42,261.22 68.66,261.22 68.4,260.97 67.64,260.97 67.38,260.71 66.62,260.71 66.36,260.46 65.6,260.46 65.34,260.2 64.58,260.2 64.32,259.95 63.56,259.95 63.3,259.69 62.28,259.69 62.03,259.44 61.26,259.44 61.01,259.18 60.5,259.18 60.24,258.93 59.48,258.93 59.22,258.67" fill="none" stroke="black" stroke-width="1.0" stroke-linecap="round" stroke-linejoin="round" stroke-opacity="0.85" />
  <polyline points="59.22,258.67 57.95,258.67 57.69,258.42 57.18,258.42 56.93,258.16 56.16,258.16 55.91,257.91 54.89,257.91 54.63,257.65 54.12,257.65 53.87,257.4 53.1,257.4 52.85,257.14 51.83,257.14 51.57,256.89 50.81,256.89 50.55,256.63 50.04,256.63 49.79,256.38 48.77,256.38 48.51,256.12 47.74,256.12" fill="none" stroke="black" stroke-width="1.0" stroke-linecap="round" stroke-linejoin="round" stroke-opacity="0.85" />
  <polyline points="52.34,251.79 51.57,251.79 51.32,251.53 51.06,251.53 50.3,250.77 50.3,245.67 50.55,245.41 50.55,244.9" fill="none" stroke="black" stroke-width="1.0" stroke-linecap="round" stroke-linejoin="round" stroke-opacity="0.85" />
  <polyline points="51.32,244.65 51.57,244.39 52.34,244.39 52.59,244.65" fill="none" stroke="black" stroke-width="1.0" stroke-linecap="round" stroke-linejoin="round" stroke-opacity="0.85" />
  <polyline points="52.59,244.65 52.34,244.9 51.57,244.9 51.32,244.65" fill="none" stroke="black" stroke-width="1.0" stroke-linecap="round" stroke-linejoin="round" stroke-opacity="0.85" />
  <polyline points="52.59,244.65 53.1,244.65 53.36,244.9 53.87,244.9 54.38,245.41 54.89,245.41" fill="none" stroke="black" stroke-width="1.0" stroke-linecap="round" stroke-linejoin="round" stroke-opacity="0.85" />
  <polyline points="56.42,245.92 57.18,245.92 57.44,246.18 57.95,246.18" fill="none" stroke="black" stroke-width="1.0" stroke-linecap="round" stroke-linejoin="round" stroke-opacity="0.85" />
  <polyline points="56.93,248.47 56.93,249.49 57.18,249.75" fill="none" stroke="black" stroke-width="1.0" stroke-linecap="round" stroke-linejoin="round" stroke-opacity="0.85" />
  <polyline points="58.46,250.51 58.71,250.77 59.73,250.77" fill="none" stroke="black" stroke-width="1.0" stroke-linecap="round" stroke-linejoin="round" stroke-opacity="0.85" />
  <polyline points="59.99,250.51 59.73,250.26 58.71,250.26" fill="none" stroke="black" stroke-width="1.0" stroke-linecap="round" stroke-linejoin="round" stroke-opacity="0.85" />
  <polyline points="61.26,251.28 61.52,251.53 62.03,251.53 62.28,251.28 61.77,250.77" fill="none" stroke="black" stroke-width="1.0" stroke-linecap="round" stroke-linejoin="round" stroke-opacity="0.85" />
  <polyline points="62.79,254.34 63.05,254.59 63.81,254.59 64.07,254.85 65.09,254.85 65.34,254.59 65.34,250.77 65.6,250.51 65.6,249.75 65.34,249.49 65.34,247.96 65.09,247.71" fill="none" stroke="black" stroke-width="1.0" stroke-linecap="round" stroke-linejoin="round" stroke-opacity="0.85" />
  <polyline points="64.07,247.45 63.81,247.2 63.3,247.2 63.05,246.94 62.28,246.94" fill="none" stroke="black" stroke-width="1.0" stroke-linecap="round" stroke-linejoin="round" stroke-opacity="0.85" />
  <polyline points="61.26,241.84 62.79,241.84 63.05,241.59 63.05,241.33 63.3,241.08 63.3,239.8 63.05,239.55 63.05,239.29 62.54,238.78 62.28,238.78 62.03,238.53 61.77,238.53" fill="none" stroke="black" stroke-width="1.0" stroke-linecap="round" stroke-linejoin="round" stroke-opacity="0.85" />
  <polyline points="61.77,238.53 61.52,238.27 61.01,238.27 60.75,238.53 60.24,238.53 59.99,238.27" fill="none" stroke="black" stroke-width="1.0" stroke-linecap="round" stroke-linejoin="round" stroke-opacity="0.85" />
  <polyline points="57.95,241.08 57.69,240.82 57.18,240.82 56.93,241.08 56.67,241.08" fill="none" stroke="black" stroke-width="1.0" stroke-linecap="round" stroke-linejoin="round" stroke-opacity="0.85" />
  <polyline points="56.42,240.57 55.4,240.57 55.14,240.31 54.63,240.31 54.38,240.06 53.87,240.06" fill="none" stroke="black" stroke-width="1.0" stroke-linecap="round" stroke-linejoin="round" stroke-opacity="0.85" />
  <polyline points="53.61,239.8 53.36,239.55 53.36,239.04 53.1,238.78 53.1,238.27 52.85,238.02" fill="none" stroke="black" stroke-width="1.0" stroke-linecap="round" stroke-linejoin="round" stroke-opacity="0.85" />
  <polyline points="54.38,236.74 55.14,236.74 55.4,237.0 55.65,237.0" fill="none" stroke="black" stroke-width="1.0" stroke-linecap="round" stroke-linejoin="round" stroke-opacity="0.85" />
  <polyline points="57.95,241.08 58.71,241.08 58.97,241.33 59.48,241.33 59.73,241.59 61.01,241.59 61.26,241.84" fill="none" stroke="black" stroke-width="1.0" stroke-linecap="round" stroke-linejoin="round" stroke-opacity="0.85" />
  <polyline points="64.32,232.15 65.09,232.15 65.34,232.41 66.11,232.41 66.36,232.66 67.13,232.66" fill="none" stroke="black" stroke-width="1.0" stroke-linecap="round" stroke-linejoin="round" stroke-opacity="0.85" />
  <polyline points="68.91,233.17 69.42,233.17 69.68,233.43 70.7,233.43 70.95,233.68 71.72,233.68" fill="none" stroke="black" stroke-width="1.0" stroke-linecap="round" stroke-linejoin="round" stroke-opacity="0.85" />
  <polyline points="72.23,233.94 72.99,233.94 73.25,234.19 74.01,234.19 74.27,234.45 75.03,234.45" fill="none" stroke="black" stroke-width="1.0" stroke-linecap="round" stroke-linejoin="round" stroke-opacity="0.85" />
  <polyline points="75.8,234.7 76.56,234.7 76.82,234.96 77.58,234.96 77.84,235.21 78.6,235.21" fill="none" stroke="black" stroke-width="1.0" stroke-linecap="round" stroke-linejoin="round" stroke-opacity="0.85" />
  <polyline points="81.92,235.98 83.45,235.98" fill="none" stroke="black" stroke-width="1.0" stroke-linecap="round" stroke-linejoin="round" stroke-opacity="0.85" />
  <polyline points="84.47,235.98 86.26,235.98" fill="none" stroke="black" stroke-width="1.0" stroke-linecap="round" stroke-linejoin="round" stroke-opacity="0.85" />
  <polyline points="85.49,240.06 82.17,240.06" fill="none" stroke="black" stroke-width="1.0" stroke-linecap="round" stroke-linejoin="round" stroke-opacity="0.85" />
  <polyline points="82.43,243.88 84.98,243.88" fill="none" stroke="black" stroke-width="1.0" stroke-linecap="round" stroke-linejoin="round" stroke-opacity="0.85" />
  <polyline points="84.98,245.67 82.43,245.67" fill="none" stroke="black" stroke-width="1.0" stroke-linecap="round" stroke-linejoin="round" stroke-opacity="0.85" />
  <polyline points="81.66,245.41 80.39,245.41 80.13,245.16 79.37,245.16" fill="none" stroke="black" stroke-width="1.0" stroke-linecap="round" stroke-linejoin="round" stroke-opacity="0.85" />
  <polyline points="77.33,244.65 76.82,244.65 76.56,244.39 76.05,244.39" fill="none" stroke="black" stroke-width="1.0" stroke-linecap="round" stroke-linejoin="round" stroke-opacity="0.85" />
  <polyline points="79.88,231.64 79.88,233.68 80.64,234.45 80.9,234.45 81.15,234.7 85.74,234.7 86.51,233.94 86.51,231.64" fill="none" stroke="black" stroke-width="1.0" stroke-linecap="round" stroke-linejoin="round" stroke-opacity="0.85" />
  <polyline points="86.51,231.39 86.77,231.13 87.53,231.13 87.79,230.88 88.3,230.88 88.55,230.62 89.32,230.62 89.57,230.37 90.08,230.37 90.34,230.11 90.85,230.11 91.1,229.86 91.61,229.86 91.87,229.6" fill="none" stroke="black" stroke-width="1.0" stroke-linecap="round" stroke-linejoin="round" stroke-opacity="0.85" />
  <polyline points="92.12,229.35 93.4,229.35 93.65,229.09 94.16,229.09 94.42,228.84 94.93,228.84 95.18,228.58 95.95,228.58 96.2,228.33 96.97,228.33 97.22,228.07 97.73,228.07 97.99,227.82 98.75,227.82 99.01,227.56 99.52,227.56 99.77,227.31 100.54,227.31 100.79,227.05 101.56,227.05 101.81,226.8 102.32,226.8 102.58,226.54 103.09,226.54 103.34,226.29 104.11,226.29 104.36,226.03 104.87,226.03 105.13,225.78 105.89,225.78 106.15,225.52 106.66,225.52 106.91,225.27 107.68,225.27 107.93,225.01 108.44,225.01 108.7,224.76 109.46,224.76 109.72,224.5 110.23,224.5 110.48,224.24 111.25,224.24 111.5,223.99 112.01,223.99 112.27,223.73 113.03,223.73 113.29,223.48 113.8,223.48 114.05,223.22 114.82,223.22 115.07,222.97 115.58,222.97 115.84,222.71 116.35,222.71 116.6,222.46 117.37,222.46 117.62,222.2 118.13,222.2 118.39,221.95 119.15,221.95 119.41,221.69 120.17,221.69 120.43,221.44 120.94,221.44 121.19,221.18 121.7,221.18 121.96,220.93 122.72,220.93 122.98,220.67 123.74,220.67 124.0,220.42 124.51,220.42 124.77,220.16 125.28,220.16 125.53,219.91 126.3,219.91 126.55,219.65 127.06,219.65 127.32,219.4 127.83,219.4 128.08,219.14 128.85,219.14 129.1,218.89 129.61,218.89 129.87,218.63 130.38,218.63 130.63,218.38 131.14,218.38 131.4,218.12 132.16,218.12 132.42,217.87 132.93,217.87 133.18,217.61 133.69,217.61" fill="none" stroke="black" stroke-width="1.0" stroke-linecap="round" stroke-linejoin="round" stroke-opacity="0.85" />
  <polyline points="133.95,217.61 134.2,217.36 134.97,217.36 135.22,217.1 135.73,217.1 135.99,216.85 136.5,216.85 136.75,216.59 137.52,216.59 137.77,216.34 138.28,216.34 138.54,216.08 139.05,216.08 139.3,215.83 139.81,215.83 140.07,215.57" fill="none" stroke="black" stroke-width="1.0" stroke-linecap="round" stroke-linejoin="round" stroke-opacity="0.85" />
  <polyline points="140.32,215.32 140.32,210.22 140.58,209.96 140.58,199.25 140.83,199.0 140.83,190.58 141.09,190.33 141.09,182.16" fill="none" stroke="black" stroke-width="1.0" stroke-linecap="round" stroke-linejoin="round" stroke-opacity="0.85" />
  <polyline points="141.34,180.12 141.34,170.43 141.6,170.18 141.6,162.78 141.85,162.53 141.85,156.66" fill="none" stroke="black" stroke-width="1.0" stroke-linecap="round" stroke-linejoin="round" stroke-opacity="0.85" />
  <polyline points="141.6,156.41 141.34,156.41 141.09,156.66 140.32,156.66 140.07,156.92 139.3,156.92 139.05,157.17 138.28,157.17 138.03,157.43 137.26,157.43 137.01,157.68 136.24,157.68 135.99,157.94 135.22,157.94 134.97,158.19 134.2,158.19 133.95,158.45 133.18,158.45 132.93,158.7 132.16,158.7 131.91,158.96 131.14,158.96 130.89,159.21 130.12,159.21 129.87,159.47 129.1,159.47 128.85,159.72 128.08,159.72 127.83,159.98 127.06,159.98 126.81,160.23 126.04,160.23 125.79,160.49 125.02,160.49 124.77,160.74 123.74,160.74 123.49,161.0 122.72,161.0 122.47,161.25 121.7,161.25 121.45,161.51 120.68,161.51 120.43,161.76 119.66,161.76 119.41,162.02 118.64,162.02 118.39,162.27 117.62,162.27 117.37,162.53 116.6,162.53 116.35,162.78 115.58,162.78 115.33,163.04 114.56,163.04 114.31,163.29 113.29,163.29 113.03,163.55 112.27,163.55 112.01,163.8 111.5,163.8 111.25,164.06" fill="none" stroke="black" stroke-width="1.0" stroke-linecap="round" stroke-linejoin="round" stroke-opacity="0.85" />
  <polyline points="111.25,164.06 110.23,164.06 109.97,164.31 109.21,164.31 108.95,164.57 108.44,164.57 108.19,164.82" fill="none" stroke="black" stroke-width="1.0" stroke-linecap="round" stroke-linejoin="round" stroke-opacity="0.85" />
  <polyline points="108.19,164.82 106.91,164.82 106.66,165.08 105.89,165.08 105.64,165.33 105.13,165.33 104.87,165.59" fill="none" stroke="black" stroke-width="1.0" stroke-linecap="round" stroke-linejoin="round" stroke-opacity="0.85" />
  <polyline points="102.83,166.1 101.81,166.1 101.56,166.35 101.05,166.35 100.79,166.61" fill="none" stroke="black" stroke-width="1.0" stroke-linecap="round" stroke-linejoin="round" stroke-opacity="0.85" />
  <polyline points="100.79,166.61 99.77,166.61 99.52,166.86" fill="none" stroke="black" stroke-width="1.0" stroke-linecap="round" stroke-linejoin="round" stroke-opacity="0.85" />
  <polyline points="98.75,167.12 97.99,167.12 97.73,167.37 97.48,167.37" fill="none" stroke="black" stroke-width="1.0" stroke-linecap="round" stroke-linejoin="round" stroke-opacity="0.85" />
  <polyline points="94.67,168.14 94.16,168.14 93.91,168.39 93.65,168.39 93.4,168.65 93.4,171.45 93.14,171.71 93.14,181.14" fill="none" stroke="black" stroke-width="1.0" stroke-linecap="round" stroke-linejoin="round" stroke-opacity="0.85" />
  <polyline points="92.89,182.42 92.89,185.22" fill="none" stroke="black" stroke-width="1.0" stroke-linecap="round" stroke-linejoin="round" stroke-opacity="0.85" />
  <polyline points="96.2,188.03 96.46,187.78 96.71,187.78 96.97,187.52 97.73,187.52 98.5,188.29 98.5,188.54 98.75,188.8 98.75,189.82" fill="none" stroke="black" stroke-width="1.0" stroke-linecap="round" stroke-linejoin="round" stroke-opacity="0.85" />
  <polyline points="97.99,188.54 97.73,188.8 97.22,188.8 96.97,189.05 96.97,189.31 96.46,189.82" fill="none" stroke="black" stroke-width="1.0" stroke-linecap="round" stroke-linejoin="round" stroke-opacity="0.85" />
  <polyline points="98.5,200.27 98.5,205.12 98.24,205.37 98.24,206.14" fill="none" stroke="black" stroke-width="1.0" stroke-linecap="round" stroke-linejoin="round" stroke-opacity="0.85" />
  <polyline points="97.99,206.65 96.71,207.92 96.2,207.92 95.95,207.67 95.69,207.67 95.44,207.41" fill="none" stroke="black" stroke-width="1.0" stroke-linecap="round" stroke-linejoin="round" stroke-opacity="0.85" />
  <polyline points="92.38,208.69 92.38,216.08" fill="none" stroke="black" stroke-width="1.0" stroke-linecap="round" stroke-linejoin="round" stroke-opacity="0.85" />
  <polyline points="92.12,217.61 92.12,225.27" fill="none" stroke="black" stroke-width="1.0" stroke-linecap="round" stroke-linejoin="round" stroke-opacity="0.85" />
  <polyline points="86.26,231.39 86.0,231.13 85.74,231.13 85.49,231.39 82.17,231.39 81.92,231.13 80.64,231.13 80.39,231.39" fill="none" stroke="black" stroke-width="1.0" stroke-linecap="round" stroke-linejoin="round" stroke-opacity="0.85" />
  <polyline points="80.39,231.39 80.64,231.64 80.9,231.64 81.15,231.9 81.92,231.9" fill="none" stroke="black" stroke-width="1.0" stroke-linecap="round" stroke-linejoin="round" stroke-opacity="0.85" />
  <polyline points="82.68,232.15 83.96,232.15" fill="none" stroke="black" stroke-width="1.0" stroke-linecap="round" stroke-linejoin="round" stroke-opacity="0.85" />
  <polyline points="79.88,231.13 79.62,230.88 79.11,230.88 78.86,230.62 77.84,230.62 77.58,230.37 76.82,230.37 76.56,230.11 75.8,230.11 75.54,229.86 74.52,229.86 74.27,229.6 73.25,229.6 72.99,229.35 72.23,229.35 71.97,229.09 71.21,229.09 70.95,228.84 69.93,228.84 69.68,228.58 68.91,228.58 68.66,228.33 67.89,228.33 67.64,228.07 66.62,228.07 66.36,227.82 65.34,227.82 65.09,227.56 64.32,227.56 64.07,227.31 63.3,227.31 63.05,227.05 62.28,227.05 62.03,226.8 61.01,226.8 60.75,226.54 59.99,226.54 59.73,226.29 58.71,226.29 58.46,226.03 57.44,226.03 57.18,225.78 56.67,225.78 56.42,225.52 55.4,225.52 55.14,225.27 54.89,225.27" fill="none" stroke="black" stroke-width="1.0" stroke-linecap="round" stroke-linejoin="round" stroke-opacity="0.85" />
  <polyline points="54.63,225.52 54.63,227.82" fill="none" stroke="black" stroke-width="1.0" stroke-linecap="round" stroke-linejoin="round" stroke-opacity="0.85" />
  <polyline points="54.12,229.86 53.36,229.86 53.1,229.6 52.34,229.6" fill="none" stroke="black" stroke-width="1.0" stroke-linecap="round" stroke-linejoin="round" stroke-opacity="0.85" />
  <polyline points="50.55,229.09 49.79,229.09 49.53,228.84 48.77,228.84" fill="none" stroke="black" stroke-width="1.0" stroke-linecap="round" stroke-linejoin="round" stroke-opacity="0.85" />
  <polyline points="46.98,228.33 46.21,228.33 45.96,228.07 45.19,228.07 44.94,227.82 44.17,227.82" fill="none" stroke="black" stroke-width="1.0" stroke-linecap="round" stroke-linejoin="round" stroke-opacity="0.85" />
  <polyline points="45.96,223.73 46.21,223.48 47.23,223.48 47.49,223.73 48.26,223.73 48.51,223.99 49.28,223.99 49.53,224.24 50.55,224.24 50.81,224.5 51.83,224.5 52.08,224.76 52.85,224.76 53.1,225.01 53.87,225.01 54.12,225.27 54.38,225.27" fill="none" stroke="black" stroke-width="1.0" stroke-linecap="round" stroke-linejoin="round" stroke-opacity="0.85" />
  <polyline points="57.18,230.62 57.95,230.62 58.2,230.88 58.97,230.88" fill="none" stroke="black" stroke-width="1.0" stroke-linecap="round" stroke-linejoin="round" stroke-opacity="0.85" />
  <polyline points="60.75,231.39 61.52,231.39 61.77,231.64 62.54,231.64 62.79,231.9 63.56,231.9" fill="none" stroke="black" stroke-width="1.0" stroke-linecap="round" stroke-linejoin="round" stroke-opacity="0.85" />
  <polyline points="55.4,252.55 54.63,252.55 54.38,252.3 53.61,252.3 53.36,252.04 52.85,252.04" fill="none" stroke="black" stroke-width="1.0" stroke-linecap="round" stroke-linejoin="round" stroke-opacity="0.85" />
  <polyline points="55.4,252.55 55.65,252.81 56.67,252.81 56.93,253.06 57.69,253.06 57.95,253.32 58.46,253.32 58.71,253.57 59.73,253.57 59.99,253.83 60.75,253.83 61.01,254.08 61.77,254.08 62.03,254.34 62.79,254.34" fill="none" stroke="black" stroke-width="1.0" stroke-linecap="round" stroke-linejoin="round" stroke-opacity="0.85" />
  <polyline points="78.6,263.52 79.37,263.52 79.62,263.78 80.9,263.78 81.15,264.03 84.47,264.03 84.72,263.78 86.0,263.78 86.26,263.52 87.53,263.52 87.79,263.27 88.3,263.27 88.55,263.01 88.81,263.01" fill="none" stroke="black" stroke-width="1.0" stroke-linecap="round" stroke-linejoin="round" stroke-opacity="0.85" />
  <polyline points="94.67,261.22 95.18,261.22 95.95,260.71 96.71,260.71 96.97,260.46 97.48,260.46 97.73,260.2 98.24,260.2 98.5,259.95 99.01,259.95 99.26,259.69 100.03,259.69 100.28,259.44 100.79,259.44 101.05,259.18 101.56,259.18 101.81,258.93 102.32,258.93 102.58,258.67 103.09,258.67 103.34,258.42 103.85,258.42 104.11,258.16 104.87,258.16 105.13,257.91 105.64,257.91 105.89,257.65 106.4,257.65 106.66,257.4 107.17,257.4 107.42,257.14 108.19,257.14 108.44,256.89 108.95,256.89 109.21,256.63 109.72,256.63 109.97,256.38 110.48,256.38 110.74,256.12 111.5,256.12 111.76,255.87 112.27,255.87 112.52,255.61 113.03,255.61 113.29,255.36 113.8,255.36 114.05,255.1 114.56,255.1 114.82,254.85 115.33,254.85 115.58,254.59 116.35,254.59 116.6,254.34 117.11,254.34 117.37,254.08 117.88,254.08 118.13,253.83 118.9,253.83 119.15,253.57 119.66,253.57 119.92,253.32 120.43,253.32 120.68,253.06 121.19,253.06 121.45,252.81 122.21,252.81 122.47,252.55 122.98,252.55 123.23,252.3 123.74,252.3 124.0,252.04 124.51,252.04 124.77,251.79 125.28,251.79 125.53,251.53 126.04,251.53 126.3,251.28 126.81,251.28 127.06,251.02 127.57,251.02 127.83,250.77 128.59,250.77 128.85,250.51 129.36,250.51 129.61,250.26 130.12,250.26 130.38,250.0 130.89,250.0 131.14,249.75 131.65,249.75 131.91,249.49 132.67,249.49 132.93,249.24 133.44,249.24 133.69,248.98 134.2,248.98 134.46,248.73 134.97,248.73 135.22,248.47 135.73,248.47 135.99,248.22 136.5,248.22 136.75,247.96 137.26,247.96 137.52,247.71 138.28,247.71 138.54,247.45 139.05,247.45 139.3,247.2 139.81,247.2 140.07,246.94 140.58,246.94 140.83,246.69 141.6,246.69 141.85,246.43 142.11,246.43" fill="none" stroke="black" stroke-width="1.0" stroke-linecap="round" stroke-linejoin="round" stroke-opacity="0.85" />
  <polyline points="142.36,246.69 142.62,246.94 142.62,247.2 142.87,247.45 143.38,247.45 143.64,247.71 144.15,247.71 144.4,247.96 146.19,247.96 146.44,247.71" fill="none" stroke="black" stroke-width="1.0" stroke-linecap="round" stroke-linejoin="round" stroke-opacity="0.85" />
  <polyline points="146.7,247.71 147.21,247.71 147.46,247.45 147.72,247.45 147.97,247.2 148.23,247.2 148.99,246.43 148.99,246.18 149.25,245.92 149.25,245.67 149.5,245.41 149.5,245.16 149.76,244.9 149.76,244.39" fill="none" stroke="black" stroke-width="1.0" stroke-linecap="round" stroke-linejoin="round" stroke-opacity="0.85" />
  <polyline points="150.01,244.14 150.27,243.88 150.52,243.88 150.78,243.63 151.29,243.63 151.54,243.37 151.8,243.37 152.31,242.86 152.56,242.86 153.07,242.35 153.07,241.84 153.33,241.59 153.33,241.33 153.58,241.08 153.58,240.06 153.33,239.8 153.33,239.55 152.82,239.04 152.56,239.04" fill="none" stroke="black" stroke-width="1.0" stroke-linecap="round" stroke-linejoin="round" stroke-opacity="0.85" />
  <polyline points="152.31,238.78 152.31,233.94 152.56,233.68 152.56,219.65 150.01,217.1 149.76,217.1 149.25,216.59 148.48,216.59 148.23,216.34 147.46,216.34 147.21,216.08 146.44,216.08 146.19,215.83 145.42,215.83 145.17,215.57 144.15,215.57 143.89,215.32" fill="none" stroke="black" stroke-width="1.0" stroke-linecap="round" stroke-linejoin="round" stroke-opacity="0.85" />
  <polyline points="143.89,215.06 147.21,213.79 147.97,213.79 152.56,212.26 153.07,211.75 153.33,195.43 153.58,195.17 153.58,185.73 153.84,185.48 153.84,176.55 154.09,176.3 154.09,164.82 154.35,164.57 154.6,148.76 154.86,148.5 154.86,138.3 155.11,138.04 154.86,137.53" fill="none" stroke="black" stroke-width="1.0" stroke-linecap="round" stroke-linejoin="round" stroke-opacity="0.85" />
  <polyline points="154.86,137.28 154.86,137.02 155.11,136.77 155.11,135.75 154.86,135.49" fill="none" stroke="black" stroke-width="1.0" stroke-linecap="round" stroke-linejoin="round" stroke-opacity="0.85" />
  <polyline points="153.07,134.22 152.56,134.22 152.31,134.47 151.54,134.47" fill="none" stroke="black" stroke-width="1.0" stroke-linecap="round" stroke-linejoin="round" stroke-opacity="0.85" />
  <polyline points="149.76,134.98 149.25,134.98 148.99,135.24 148.48,135.24" fill="none" stroke="black" stroke-width="1.0" stroke-linecap="round" stroke-linejoin="round" stroke-opacity="0.85" />
  <polyline points="145.68,136.0 144.91,136.0 144.66,136.26 143.89,136.26" fill="none" stroke="black" stroke-width="1.0" stroke-linecap="round" stroke-linejoin="round" stroke-opacity="0.85" />
  <polyline points="143.38,136.51 142.62,136.51 142.36,136.77 141.6,136.77 141.34,137.02 140.58,137.02" fill="none" stroke="black" stroke-width="1.0" stroke-linecap="round" stroke-linejoin="round" stroke-opacity="0.85" />
  <polyline points="140.07,137.28 139.3,137.28 139.05,137.53 138.03,137.53 137.77,137.79 137.26,137.79" fill="none" stroke="black" stroke-width="1.0" stroke-linecap="round" stroke-linejoin="round" stroke-opacity="0.85" />
  <polyline points="135.48,138.3 134.71,138.3 134.46,138.55 133.69,138.55 133.44,138.81 132.93,138.81" fill="none" stroke="black" stroke-width="1.0" stroke-linecap="round" stroke-linejoin="round" stroke-opacity="0.85" />
  <polyline points="129.61,143.65 128.85,143.65 128.59,143.91 128.08,143.91" fill="none" stroke="black" stroke-width="1.0" stroke-linecap="round" stroke-linejoin="round" stroke-opacity="0.85" />
  <polyline points="126.04,144.42 125.53,144.42 125.28,144.67 124.77,144.67" fill="none" stroke="black" stroke-width="1.0" stroke-linecap="round" stroke-linejoin="round" stroke-opacity="0.85" />
  <polyline points="115.07,146.97 114.56,146.97 114.31,147.22 113.54,147.22" fill="none" stroke="black" stroke-width="1.0" stroke-linecap="round" stroke-linejoin="round" stroke-opacity="0.85" />
  <polyline points="138.79,141.36 139.3,141.36 139.56,141.1 140.32,141.1 140.58,140.85 141.09,140.85" fill="none" stroke="black" stroke-width="1.0" stroke-linecap="round" stroke-linejoin="round" stroke-opacity="0.85" />
  <polyline points="143.13,140.34 143.64,140.34 143.89,140.08 144.4,140.08" fill="none" stroke="black" stroke-width="1.0" stroke-linecap="round" stroke-linejoin="round" stroke-opacity="0.85" />
  <polyline points="146.19,139.57 146.95,139.57 147.21,139.32 147.72,139.32" fill="none" stroke="black" stroke-width="1.0" stroke-linecap="round" stroke-linejoin="round" stroke-opacity="0.85" />
  <polyline points="150.52,138.55 151.03,138.55 151.29,138.3 151.8,138.3" fill="none" stroke="black" stroke-width="1.0" stroke-linecap="round" stroke-linejoin="round" stroke-opacity="0.85" />
  <polyline points="149.5,146.71 149.25,146.71 148.99,146.46 147.97,146.46" fill="none" stroke="black" stroke-width="1.0" stroke-linecap="round" stroke-linejoin="round" stroke-opacity="0.85" />
  <polyline points="147.46,146.71 146.7,147.48 146.7,147.73 146.44,147.99" fill="none" stroke="black" stroke-width="1.0" stroke-linecap="round" stroke-linejoin="round" stroke-opacity="0.85" />
  <polyline points="145.68,150.54 145.68,151.56 145.93,151.82 145.93,152.33" fill="none" stroke="black" stroke-width="1.0" stroke-linecap="round" stroke-linejoin="round" stroke-opacity="0.85" />
  <polyline points="146.44,153.6 146.95,154.11 147.21,154.11 147.46,154.37 147.72,154.37" fill="none" stroke="black" stroke-width="1.0" stroke-linecap="round" stroke-linejoin="round" stroke-opacity="0.85" />
  <polyline points="149.5,152.33 149.25,152.58 148.99,152.58 148.74,152.84 147.72,152.84 146.7,151.82 146.7,151.56 146.44,151.31 146.44,150.03 146.7,149.78 146.7,149.27 146.95,149.01 146.95,148.76 147.21,148.5 147.21,148.24 147.72,147.73 147.97,147.73 148.23,147.48 148.48,147.48 148.99,147.99 149.25,147.99 149.76,148.5" fill="none" stroke="black" stroke-width="1.0" stroke-linecap="round" stroke-linejoin="round" stroke-opacity="0.85" />
  <polyline points="150.01,149.01 150.01,149.27 150.27,149.52 150.27,150.54" fill="none" stroke="black" stroke-width="1.0" stroke-linecap="round" stroke-linejoin="round" stroke-opacity="0.85" />
  <polyline points="142.36,188.8 142.36,191.86" fill="none" stroke="black" stroke-width="1.0" stroke-linecap="round" stroke-linejoin="round" stroke-opacity="0.85" />
  <polyline points="130.63,206.39 130.38,206.65 130.38,206.9 130.12,207.16 130.12,207.41 129.87,207.67" fill="none" stroke="black" stroke-width="1.0" stroke-linecap="round" stroke-linejoin="round" stroke-opacity="0.85" />
  <polyline points="129.61,208.18 129.36,208.43 129.36,208.69 129.1,208.94 129.1,209.2 128.59,209.71 128.59,209.96 128.34,210.22 128.34,210.47 128.08,210.73" fill="none" stroke="black" stroke-width="1.0" stroke-linecap="round" stroke-linejoin="round" stroke-opacity="0.85" />
  <polyline points="126.55,209.45 126.3,209.71 126.3,209.96 126.04,210.22 126.04,210.47 125.79,210.73" fill="none" stroke="black" stroke-width="1.0" stroke-linecap="round" stroke-linejoin="round" stroke-opacity="0.85" />
  <polyline points="126.81,208.94 127.06,208.69 127.06,208.43 127.57,207.92 127.57,207.67 127.83,207.41 127.83,207.16 128.08,206.9 128.08,206.65 128.34,206.39" fill="none" stroke="black" stroke-width="1.0" stroke-linecap="round" stroke-linejoin="round" stroke-opacity="0.85" />
  <polyline points="126.04,206.39 125.79,206.65 125.79,206.9 125.53,207.16 125.53,207.41 125.28,207.67" fill="none" stroke="black" stroke-width="1.0" stroke-linecap="round" stroke-linejoin="round" stroke-opacity="0.85" />
  <polyline points="123.74,206.39 123.49,206.65 123.49,206.9 123.23,207.16 123.23,207.41 122.98,207.67" fill="none" stroke="black" stroke-width="1.0" stroke-linecap="round" stroke-linejoin="round" stroke-opacity="0.85" />
  <polyline points="120.94,207.16 121.19,206.9 121.19,206.65 121.45,206.39 121.45,206.14 121.96,205.63" fill="none" stroke="black" stroke-width="1.0" stroke-linecap="round" stroke-linejoin="round" stroke-opacity="0.85" />
  <polyline points="118.9,206.65 118.9,206.9 118.64,207.16 118.64,207.41 118.13,207.92 118.13,208.18 117.88,208.43 117.88,208.69 117.62,208.94 117.62,209.2 117.37,209.45 117.37,209.71 116.86,210.22 116.86,210.47 116.6,210.73 116.6,210.98 116.09,211.49 116.09,211.75 115.84,212.0 115.84,212.26 115.58,212.51" fill="none" stroke="black" stroke-width="1.0" stroke-linecap="round" stroke-linejoin="round" stroke-opacity="0.85" />
  <polyline points="114.31,210.73 114.05,210.98 114.05,211.24 113.8,211.49 113.8,211.75 113.29,212.26 113.29,212.51 113.03,212.77 113.03,213.02 112.78,213.28 112.78,213.53 112.27,214.04" fill="none" stroke="black" stroke-width="1.0" stroke-linecap="round" stroke-linejoin="round" stroke-opacity="0.85" />
  <polyline points="111.76,210.98 111.5,211.24 111.5,211.49 111.25,211.75 111.25,212.0 110.99,212.26 110.99,212.51 110.48,213.02 110.48,213.28 110.23,213.53 110.23,213.79 109.72,214.3 109.72,214.55 109.46,214.81 109.46,215.06 109.21,215.32 109.21,215.57 108.95,215.83" fill="none" stroke="black" stroke-width="1.0" stroke-linecap="round" stroke-linejoin="round" stroke-opacity="0.85" />
  <polyline points="110.74,216.85 110.48,217.1 110.48,217.36 110.23,217.61 110.23,217.87 109.97,218.12" fill="none" stroke="black" stroke-width="1.0" stroke-linecap="round" stroke-linejoin="round" stroke-opacity="0.85" />
  <polyline points="106.66,215.83 106.4,216.08 106.4,216.34 106.15,216.59 106.15,216.85 105.89,217.1" fill="none" stroke="black" stroke-width="1.0" stroke-linecap="round" stroke-linejoin="round" stroke-opacity="0.85" />
  <polyline points="102.58,218.63 102.58,218.89 102.07,219.4 102.07,219.65 101.81,219.91" fill="none" stroke="black" stroke-width="1.0" stroke-linecap="round" stroke-linejoin="round" stroke-opacity="0.85" />
  <polyline points="106.4,212.0 106.66,211.75 106.66,211.49 106.91,211.24 106.91,210.98 107.42,210.47 107.42,210.22 107.93,209.71" fill="none" stroke="black" stroke-width="1.0" stroke-linecap="round" stroke-linejoin="round" stroke-opacity="0.85" />
  <polyline points="112.01,210.47 112.27,210.22 112.27,209.96 112.52,209.71 112.52,209.45 112.78,209.2 112.78,208.94 113.03,208.69" fill="none" stroke="black" stroke-width="1.0" stroke-linecap="round" stroke-linejoin="round" stroke-opacity="0.85" />
  <polyline points="121.45,214.55 121.19,214.81 121.19,215.06 120.68,215.57" fill="none" stroke="black" stroke-width="1.0" stroke-linecap="round" stroke-linejoin="round" stroke-opacity="0.85" />
  <polyline points="125.28,224.76 125.79,224.76 126.04,224.5 126.55,224.5" fill="none" stroke="black" stroke-width="1.0" stroke-linecap="round" stroke-linejoin="round" stroke-opacity="0.85" />
  <polyline points="129.61,220.67 130.12,220.67 130.38,220.42 130.89,220.42" fill="none" stroke="black" stroke-width="1.0" stroke-linecap="round" stroke-linejoin="round" stroke-opacity="0.85" />
  <polyline points="133.18,219.65 133.69,219.65 133.95,219.4 133.95,217.87" fill="none" stroke="black" stroke-width="1.0" stroke-linecap="round" stroke-linejoin="round" stroke-opacity="0.85" />
  <polyline points="140.58,215.57 142.36,215.57 142.62,215.32 143.64,215.32" fill="none" stroke="black" stroke-width="1.0" stroke-linecap="round" stroke-linejoin="round" stroke-opacity="0.85" />
  <polyline points="142.36,233.17 142.36,236.74" fill="none" stroke="black" stroke-width="1.0" stroke-linecap="round" stroke-linejoin="round" stroke-opacity="0.85" />
  <polyline points="145.42,242.86 146.19,242.86 146.44,242.61 146.95,242.61 147.21,242.35 147.46,242.35 147.72,242.1 148.23,242.1 148.48,241.84 148.99,241.84 149.25,241.59 150.01,241.59 150.27,241.33 150.52,241.33 150.78,241.08 151.03,241.08 151.29,240.82 151.54,240.82 152.31,240.06 152.31,239.29" fill="none" stroke="black" stroke-width="1.0" stroke-linecap="round" stroke-linejoin="round" stroke-opacity="0.85" />
  <polyline points="149.5,244.14 149.25,244.39 148.74,244.39 148.48,244.65 147.97,244.65 147.72,244.9 146.95,244.9 146.7,245.16 145.93,245.16 145.68,245.41" fill="none" stroke="black" stroke-width="1.0" stroke-linecap="round" stroke-linejoin="round" stroke-opacity="0.85" />
  <polyline points="145.17,245.92 145.17,246.18 145.42,246.43 145.42,246.69 146.19,247.45" fill="none" stroke="black" stroke-width="1.0" stroke-linecap="round" stroke-linejoin="round" stroke-opacity="0.85" />
  <polyline points="144.91,245.67 144.15,245.67 143.89,245.92 143.38,245.92 143.13,246.18 142.87,246.18 142.62,246.43" fill="none" stroke="black" stroke-width="1.0" stroke-linecap="round" stroke-linejoin="round" stroke-opacity="0.85" />
  <polyline points="116.86,227.31 116.35,227.31 116.09,227.56 115.58,227.56" fill="none" stroke="black" stroke-width="1.0" stroke-linecap="round" stroke-linejoin="round" stroke-opacity="0.85" />
  <polyline points="111.5,228.84 110.99,228.84 110.74,229.09 110.23,229.09" fill="none" stroke="black" stroke-width="1.0" stroke-linecap="round" stroke-linejoin="round" stroke-opacity="0.85" />
  <polyline points="105.38,230.62 104.87,230.62 104.62,230.88 104.11,230.88" fill="none" stroke="black" stroke-width="1.0" stroke-linecap="round" stroke-linejoin="round" stroke-opacity="0.85" />
  <polyline points="93.65,233.94 93.14,233.94 92.89,234.19 92.38,234.19" fill="none" stroke="black" stroke-width="1.0" stroke-linecap="round" stroke-linejoin="round" stroke-opacity="0.85" />
  <polyline points="62.03,197.72 60.24,197.72" fill="none" stroke="black" stroke-width="1.0" stroke-linecap="round" stroke-linejoin="round" stroke-opacity="0.85" />
  <polyline points="62.28,189.56 62.28,188.54 62.79,188.03 63.3,188.54 63.3,189.82" fill="none" stroke="black" stroke-width="1.0" stroke-linecap="round" stroke-linejoin="round" stroke-opacity="0.85" />
  <polyline points="65.09,189.56 64.58,189.56 64.32,189.31 64.32,188.54 64.83,188.03 65.09,188.29 65.09,189.05 65.34,189.31" fill="none" stroke="black" stroke-width="1.0" stroke-linecap="round" stroke-linejoin="round" stroke-opacity="0.85" />
  <polyline points="66.36,188.29 66.36,190.33" fill="none" stroke="black" stroke-width="1.0" stroke-linecap="round" stroke-linejoin="round" stroke-opacity="0.85" />
  <polyline points="61.26,189.31 61.52,189.05 61.52,188.8 61.77,188.54 61.77,188.29 61.26,187.78 61.01,187.78 60.75,188.03 60.75,188.29 60.5,188.54 60.5,188.8 61.01,189.31" fill="none" stroke="black" stroke-width="1.0" stroke-linecap="round" stroke-linejoin="round" stroke-opacity="0.85" />
  <polyline points="59.48,188.8 59.48,187.27" fill="none" stroke="black" stroke-width="1.0" stroke-linecap="round" stroke-linejoin="round" stroke-opacity="0.85" />
  <polyline points="58.46,187.52 58.46,188.8" fill="none" stroke="black" stroke-width="1.0" stroke-linecap="round" stroke-linejoin="round" stroke-opacity="0.85" />
  <polyline points="56.67,188.54 56.67,187.27 56.93,187.01" fill="none" stroke="black" stroke-width="1.0" stroke-linecap="round" stroke-linejoin="round" stroke-opacity="0.85" />
  <polyline points="55.91,187.01 55.91,188.29" fill="none" stroke="black" stroke-width="1.0" stroke-linecap="round" stroke-linejoin="round" stroke-opacity="0.85" />
  <polyline points="53.1,182.16 53.1,181.91 53.36,181.65 53.36,181.4 53.87,180.89" fill="none" stroke="black" stroke-width="1.0" stroke-linecap="round" stroke-linejoin="round" stroke-opacity="0.85" />
  <polyline points="54.12,180.38 55.65,178.85" fill="none" stroke="black" stroke-width="1.0" stroke-linecap="round" stroke-linejoin="round" stroke-opacity="0.85" />
  <polyline points="56.67,178.34 56.93,178.08 57.44,178.08 57.69,177.83 57.95,177.83" fill="none" stroke="black" stroke-width="1.0" stroke-linecap="round" stroke-linejoin="round" stroke-opacity="0.85" />
  <polyline points="57.18,148.24 56.16,148.24 55.91,147.99 55.14,147.99" fill="none" stroke="black" stroke-width="1.0" stroke-linecap="round" stroke-linejoin="round" stroke-opacity="0.85" />
  <polyline points="53.1,147.48 52.08,147.48 51.83,147.22 51.06,147.22" fill="none" stroke="black" stroke-width="1.0" stroke-linecap="round" stroke-linejoin="round" stroke-opacity="0.85" />
  <polyline points="47.74,146.46 46.98,146.46 46.72,146.2 45.7,146.2" fill="none" stroke="black" stroke-width="1.0" stroke-linecap="round" stroke-linejoin="round" stroke-opacity="0.85" />
  <polyline points="43.41,145.69 42.64,145.69 42.39,145.44 41.37,145.44" fill="none" stroke="black" stroke-width="1.0" stroke-linecap="round" stroke-linejoin="round" stroke-opacity="0.85" />
  <polyline points="72.48,146.97 73.5,146.97 73.76,147.22 74.78,147.22" fill="none" stroke="black" stroke-width="1.0" stroke-linecap="round" stroke-linejoin="round" stroke-opacity="0.85" />
  <polyline points="117.37,104.89 117.88,104.38 118.13,104.38 118.39,104.12 118.64,104.12" fill="none" stroke="black" stroke-width="1.0" stroke-linecap="round" stroke-linejoin="round" stroke-opacity="0.85" />
  <polyline points="118.9,104.12 119.15,103.87 119.66,103.87 119.92,103.61 120.43,103.61 120.68,103.36" fill="none" stroke="black" stroke-width="1.0" stroke-linecap="round" stroke-linejoin="round" stroke-opacity="0.85" />
  <polyline points="118.9,104.38 119.15,104.63 119.66,104.63 119.92,104.89 120.68,104.89 120.94,105.14 122.21,105.14" fill="none" stroke="black" stroke-width="1.0" stroke-linecap="round" stroke-linejoin="round" stroke-opacity="0.85" />
  <polyline points="122.72,105.4 124.77,105.4" fill="none" stroke="black" stroke-width="1.0" stroke-linecap="round" stroke-linejoin="round" stroke-opacity="0.85" />
  <polyline points="79.37,49.55 79.11,49.8 78.6,49.8 78.35,50.06 78.09,50.06" fill="none" stroke="black" stroke-width="1.0" stroke-linecap="round" stroke-linejoin="round" stroke-opacity="0.85" />
  <polyline points="35.25,249.24 35.25,249.49 36.27,250.51 36.52,250.51 36.78,250.77 37.03,250.77 37.29,251.02" fill="none" stroke="black" stroke-width="1.0" stroke-linecap="round" stroke-linejoin="round" stroke-opacity="0.85" />
  <polyline points="37.29,251.02 38.05,251.02 38.31,251.28 38.82,251.28 39.07,251.53 40.09,251.53 40.35,251.79 40.86,251.79 41.11,252.04" fill="none" stroke="black" stroke-width="1.0" stroke-linecap="round" stroke-linejoin="round" stroke-opacity="0.85" />
</svg>
