<svg
  xmlns="http://www.w3.org/2000/svg"
  width="12in"
  height="12in"
  viewBox="0 0 304.8 304.8"
>
  <rect x="0" y="0" width="304.8" height="304.8" fill="white" />
  <rect x="179.8421406371233" y="89.46201128870254" width="124.95785936287672" height="215.33798871129747" fill="#1d4ed8" />
  <rect x="0" y="163.50302201330504" width="179.8421406371233" height="52.24826487561472" fill="#f7c600" />
  <rect x="103.49727570089605" y="215.75128688891976" width="76.34486493622724" height="43.9332280668155" fill="#d62828" />
  <rect x="0" y="215.75128688891976" width="103.49727570089605" height="43.9332280668155" fill="#e5e5e5" />
  <line x1="103.49727570089605" y1="215.75128688891976" x2="103.49727570089605" y2="259.68451495573527" stroke="black" stroke-width="5.510591653242578" stroke-linecap="square" />
  <line x1="0" y1="259.68451495573527" x2="179.8421406371233" y2="259.68451495573527" stroke="black" stroke-width="5.510591653242578" stroke-linecap="square" />
  <line x1="0" y1="215.75128688891976" x2="179.8421406371233" y2="215.75128688891976" stroke="black" stroke-width="5.510591653242578" stroke-linecap="square" />
  <line x1="0" y1="163.50302201330504" x2="179.8421406371233" y2="163.50302201330504" stroke="black" stroke-width="5.510591653242578" stroke-linecap="square" />
  <line x1="246.989786369513" y1="0" x2="246.989786369513" y2="45.26986494512068" stroke="black" stroke-width="5.510591653242578" stroke-linecap="square" />
  <line x1="179.8421406371233" y1="45.26986494512068" x2="304.8" y2="45.26986494512068" stroke="black" stroke-width="5.510591653242578" stroke-linecap="square" />
  <line x1="179.8421406371233" y1="89.46201128870254" x2="304.8" y2="89.46201128870254" stroke="black" stroke-width="5.510591653242578" stroke-linecap="square" />
  <line x1="179.8421406371233" y1="0" x2="179.8421406371233" y2="304.8" stroke="black" stroke-width="5.510591653242578" stroke-linecap="square" />
  <line x1="0" y1="0" x2="304.8" y2="0" stroke="black" stroke-width="5.510591653242578" stroke-linecap="square" />
  <line x1="0" y1="304.8" x2="304.8" y2="304.8" stroke="black" stroke-width="5.510591653242578" stroke-linecap="square" />
  <line x1="0" y1="0" x2="0" y2="304.8" stroke="black" stroke-width="5.510591653242578" stroke-linecap="square" />
  <line x1="304.8" y1="0" x2="304.8" y2="304.8" stroke="black" stroke-width="5.510591653242578" stroke-linecap="square" />
</svg>
