<svg
  xmlns="http://www.w3.org/2000/svg"
  width="8.267716535433072in"
  height="11.692913385826772in"
  viewBox="0 0 210.0 297.0"
>
  <rect x="0" y="0" width="210.0" height="297.0" fill="white" />
  <line x1="37.82215138924244" y1="111.81774760952857" x2="37.82215138924244" y2="179.91717833006115" stroke="black" stroke-width="1.0" stroke-linecap="square" />
  <line x1="66.71339415240226" y1="111.81774760952857" x2="66.71339415240226" y2="179.91717833006115" stroke="black" stroke-width="1.0" stroke-linecap="square" />
  <line x1="10.0" y1="179.91717833006115" x2="120.7793894837231" y2="179.91717833006115" stroke="black" stroke-width="1.0" stroke-linecap="square" />
  <line x1="10.0" y1="111.81774760952857" x2="120.7793894837231" y2="111.81774760952857" stroke="black" stroke-width="1.0" stroke-linecap="square" />
  <line x1="120.7793894837231" y1="53.888112750229865" x2="164.04465501423917" y2="53.888112750229865" stroke="black" stroke-width="1.0" stroke-linecap="square" />
  <line x1="164.04465501423917" y1="10.0" x2="164.04465501423917" y2="92.77400333420334" stroke="black" stroke-width="1.0" stroke-linecap="square" />
  <line x1="162.43518509460606" y1="231.7244972620791" x2="200.0" y2="231.7244972620791" stroke="black" stroke-width="1.0" stroke-linecap="square" />
  <line x1="162.43518509460606" y1="92.77400333420334" x2="162.43518509460606" y2="287.0" stroke="black" stroke-width="1.0" stroke-linecap="square" />
  <line x1="120.7793894837231" y1="92.77400333420334" x2="200.0" y2="92.77400333420334" stroke="black" stroke-width="1.0" stroke-linecap="square" />
  <line x1="120.7793894837231" y1="10.0" x2="120.7793894837231" y2="287.0" stroke="black" stroke-width="1.0" stroke-linecap="square" />
  <line x1="10.0" y1="10.0" x2="200.0" y2="10.0" stroke="black" stroke-width="1.0" stroke-linecap="square" />
  <line x1="10.0" y1="287.0" x2="200.0" y2="287.0" stroke="black" stroke-width="1.0" stroke-linecap="square" />
  <line x1="10.0" y1="10.0" x2="10.0" y2="287.0" stroke="black" stroke-width="1.0" stroke-linecap="square" />
  <line x1="200.0" y1="10.0" x2="200.0" y2="287.0" stroke="black" stroke-width="1.0" stroke-linecap="square" />
</svg>
