<svg
  xmlns="http://www.w3.org/2000/svg"
  width="12in"
  height="12in"
  viewBox="0 0 304.8 304.8"
>
  <rect x="0" y="0" width="304.8" height="304.8" fill="white" />
  <line x1="182.84" y1="97.46" x2="301.8" y2="97.46" stroke="#1d4ed8" stroke-width="10.0" stroke-linecap="round" stroke-opacity="0.55" />
  <line x1="301.8" y1="97.46" x2="301.8" y2="104.96" stroke="#999999" stroke-width="1.0" stroke-dasharray="4,3" />
  <line x1="301.8" y1="104.96" x2="182.84" y2="104.96" stroke="#1d4ed8" stroke-width="10.0" stroke-linecap="round" stroke-opacity="0.55" />
  <line x1="182.84" y1="104.96" x2="182.84" y2="112.46" stroke="#999999" stroke-width="1.0" stroke-dasharray="4,3" />
  <line x1="182.84" y1="112.46" x2="301.8" y2="112.46" stroke="#1d4ed8" stroke-width="10.0" stroke-linecap="round" stroke-opacity="0.55" />
  <line x1="301.8" y1="112.46" x2="301.8" y2="119.96" stroke="#999999" stroke-width="1.0" stroke-dasharray="4,3" />
  <line x1="301.8" y1="119.96" x2="182.84" y2="119.96" stroke="#1d4ed8" stroke-width="10.0" stroke-linecap="round" stroke-opacity="0.55" />
  <line x1="182.84" y1="119.96" x2="182.84" y2="127.46" stroke="#999999" stroke-width="1.0" stroke-dasharray="4,3" />
  <line x1="182.84" y1="127.46" x2="301.8" y2="127.46" stroke="#1d4ed8" stroke-width="10.0" stroke-linecap="round" stroke-opacity="0.55" />
  <line x1="301.8" y1="127.46" x2="301.8" y2="134.96" stroke="#999999" stroke-width="1.0" stroke-dasharray="4,3" />
  <line x1="301.8" y1="134.96" x2="182.84" y2="134.96" stroke="#1d4ed8" stroke-width="10.0" stroke-linecap="round" stroke-opacity="0.55" />
  <line x1="182.84" y1="134.96" x2="182.84" y2="142.46" stroke="#999999" stroke-width="1.0" stroke-dasharray="4,3" />
  <line x1="182.84" y1="142.46" x2="301.8" y2="142.46" stroke="#1d4ed8" stroke-width="10.0" stroke-linecap="round" stroke-opacity="0.55" />
  <line x1="301.8" y1="142.46" x2="301.8" y2="149.96" stroke="#999999" stroke-width="1.0" stroke-dasharray="4,3" />
  <line x1="301.8" y1="149.96" x2="182.84" y2="149.96" stroke="#1d4ed8" stroke-width="10.0" stroke-linecap="round" stroke-opacity="0.55" />
  <line x1="182.84" y1="149.96" x2="182.84" y2="157.46" stroke="#999999" stroke-width="1.0" stroke-dasharray="4,3" />
  <line x1="182.84" y1="157.46" x2="301.8" y2="157.46" stroke="#1d4ed8" stroke-width="10.0" stroke-linecap="round" stroke-opacity="0.55" />
  <line x1="301.8" y1="157.46" x2="301.8" y2="164.96" stroke="#999999" stroke-width="1.0" stroke-dasharray="4,3" />
  <line x1="301.8" y1="164.96" x2="182.84" y2="164.96" stroke="#1d4ed8" stroke-width="10.0" stroke-linecap="round" stroke-opacity="0.55" />
  <line x1="182.84" y1="164.96" x2="182.84" y2="172.46" stroke="#999999" stroke-width="1.0" stroke-dasharray="4,3" />
  <line x1="182.84" y1="172.46" x2="301.8" y2="172.46" stroke="#1d4ed8" stroke-width="10.0" stroke-linecap="round" stroke-opacity="0.55" />
  <line x1="301.8" y1="172.46" x2="301.8" y2="179.96" stroke="#999999" stroke-width="1.0" stroke-dasharray="4,3" />
  <line x1="301.8" y1="179.96" x2="182.84" y2="179.96" stroke="#1d4ed8" stroke-width="10.0" stroke-linecap="round" stroke-opacity="0.55" />
  <line x1="182.84" y1="179.96" x2="182.84" y2="187.46" stroke="#999999" stroke-width="1.0" stroke-dasharray="4,3" />
  <line x1="182.84" y1="187.46" x2="301.8" y2="187.46" stroke="#1d4ed8" stroke-width="10.0" stroke-linecap="round" stroke-opacity="0.55" />
  <line x1="301.8" y1="187.46" x2="301.8" y2="194.96" stroke="#999999" stroke-width="1.0" stroke-dasharray="4,3" />
  <line x1="301.8" y1="194.96" x2="182.84" y2="194.96" stroke="#1d4ed8" stroke-width="10.0" stroke-linecap="round" stroke-opacity="0.55" />
  <line x1="182.84" y1="194.96" x2="182.84" y2="202.46" stroke="#999999" stroke-width="1.0" stroke-dasharray="4,3" />
  <line x1="182.84" y1="202.46" x2="301.8" y2="202.46" stroke="#1d4ed8" stroke-width="10.0" stroke-linecap="round" stroke-opacity="0.55" />
  <line x1="301.8" y1="202.46" x2="301.8" y2="209.96" stroke="#999999" stroke-width="1.0" stroke-dasharray="4,3" />
  <line x1="301.8" y1="209.96" x2="182.84" y2="209.96" stroke="#1d4ed8" stroke-width="10.0" stroke-linecap="round" stroke-opacity="0.55" />
  <line x1="182.84" y1="209.96" x2="182.84" y2="217.46" stroke="#999999" stroke-width="1.0" stroke-dasharray="4,3" />
  <line x1="182.84" y1="217.46" x2="301.8" y2="217.46" stroke="#1d4ed8" stroke-width="10.0" stroke-linecap="round" stroke-opacity="0.55" />
  <line x1="301.8" y1="217.46" x2="301.8" y2="224.96" stroke="#999999" stroke-width="1.0" stroke-dasharray="4,3" />
  <line x1="301.8" y1="224.96" x2="182.84" y2="224.96" stroke="#1d4ed8" stroke-width="10.0" stroke-linecap="round" stroke-opacity="0.55" />
  <line x1="182.84" y1="224.96" x2="182.84" y2="232.46" stroke="#999999" stroke-width="1.0" stroke-dasharray="4,3" />
  <line x1="182.84" y1="232.46" x2="301.8" y2="232.46" stroke="#1d4ed8" stroke-width="10.0" stroke-linecap="round" stroke-opacity="0.55" />
  <line x1="301.8" y1="232.46" x2="301.8" y2="239.96" stroke="#999999" stroke-width="1.0" stroke-dasharray="4,3" />
  <line x1="301.8" y1="239.96" x2="182.84" y2="239.96" stroke="#1d4ed8" stroke-width="10.0" stroke-linecap="round" stroke-opacity="0.55" />
  <line x1="182.84" y1="239.96" x2="182.84" y2="247.46" stroke="#999999" stroke-width="1.0" stroke-dasharray="4,3" />
  <line x1="182.84" y1="247.46" x2="301.8" y2="247.46" stroke="#1d4ed8" stroke-width="10.0" stroke-linecap="round" stroke-opacity="0.55" />
  <line x1="301.8" y1="247.46" x2="301.8" y2="254.96" stroke="#999999" stroke-width="1.0" stroke-dasharray="4,3" />
  <line x1="301.8" y1="254.96" x2="182.84" y2="254.96" stroke="#1d4ed8" stroke-width="10.0" stroke-linecap="round" stroke-opacity="0.55" />
  <line x1="182.84" y1="254.96" x2="182.84" y2="262.46" stroke="#999999" stroke-width="1.0" stroke-dasharray="4,3" />
  <line x1="182.84" y1="262.46" x2="301.8" y2="262.46" stroke="#1d4ed8" stroke-width="10.0" stroke-linecap="round" stroke-opacity="0.55" />
  <line x1="301.8" y1="262.46" x2="301.8" y2="269.96" stroke="#999999" stroke-width="1.0" stroke-dasharray="4,3" />
  <line x1="301.8" y1="269.96" x2="182.84" y2="269.96" stroke="#1d4ed8" stroke-width="10.0" stroke-linecap="round" stroke-opacity="0.55" />
  <line x1="182.84" y1="269.96" x2="182.84" y2="277.46" stroke="#999999" stroke-width="1.0" stroke-dasharray="4,3" />
  <line x1="182.84" y1="277.46" x2="301.8" y2="277.46" stroke="#1d4ed8" stroke-width="10.0" stroke-linecap="round" stroke-opacity="0.55" />
  <line x1="301.8" y1="277.46" x2="301.8" y2="284.96" stroke="#999999" stroke-width="1.0" stroke-dasharray="4,3" />
  <line x1="301.8" y1="284.96" x2="182.84" y2="284.96" stroke="#1d4ed8" stroke-width="10.0" stroke-linecap="round" stroke-opacity="0.55" />
  <line x1="182.84" y1="284.96" x2="182.84" y2="292.46" stroke="#999999" stroke-width="1.0" stroke-dasharray="4,3" />
  <line x1="182.84" y1="292.46" x2="301.8" y2="292.46" stroke="#1d4ed8" stroke-width="10.0" stroke-linecap="round" stroke-opacity="0.55" />
  <line x1="301.8" y1="292.46" x2="301.8" y2="296.8" stroke="#999999" stroke-width="1.0" stroke-dasharray="4,3" />
  <line x1="301.8" y1="296.8" x2="182.84" y2="296.8" stroke="#1d4ed8" stroke-width="10.0" stroke-linecap="round" stroke-opacity="0.55" />
  <line x1="182.84" y1="296.8" x2="3.0" y2="171.5" stroke="#999999" stroke-width="1.0" stroke-dasharray="4,3" />
  <line x1="3.0" y1="171.5" x2="176.84" y2="171.5" stroke="#f7c600" stroke-width="10.0" stroke-linecap="round" stroke-opacity="0.55" />
  <line x1="176.84" y1="171.5" x2="176.84" y2="179.0" stroke="#999999" stroke-width="1.0" stroke-dasharray="4,3" />
  <line x1="176.84" y1="179.0" x2="3.0" y2="179.0" stroke="#f7c600" stroke-width="10.0" stroke-linecap="round" stroke-opacity="0.55" />
  <line x1="3.0" y1="179.0" x2="3.0" y2="186.5" stroke="#999999" stroke-width="1.0" stroke-dasharray="4,3" />
  <line x1="3.0" y1="186.5" x2="176.84" y2="186.5" stroke="#f7c600" stroke-width="10.0" stroke-linecap="round" stroke-opacity="0.55" />
  <line x1="176.84" y1="186.5" x2="176.84" y2="194.0" stroke="#999999" stroke-width="1.0" stroke-dasharray="4,3" />
  <line x1="176.84" y1="194.0" x2="3.0" y2="194.0" stroke="#f7c600" stroke-width="10.0" stroke-linecap="round" stroke-opacity="0.55" />
  <line x1="3.0" y1="194.0" x2="3.0" y2="201.5" stroke="#999999" stroke-width="1.0" stroke-dasharray="4,3" />
  <line x1="3.0" y1="201.5" x2="176.84" y2="201.5" stroke="#f7c600" stroke-width="10.0" stroke-linecap="round" stroke-opacity="0.55" />
  <line x1="176.84" y1="201.5" x2="176.84" y2="207.75" stroke="#999999" stroke-width="1.0" stroke-dasharray="4,3" />
  <line x1="176.84" y1="207.75" x2="3.0" y2="207.75" stroke="#f7c600" stroke-width="10.0" stroke-linecap="round" stroke-opacity="0.55" />
  <line x1="3.0" y1="207.75" x2="106.5" y2="223.75" stroke="#999999" stroke-width="1.0" stroke-dasharray="4,3" />
  <line x1="106.5" y1="223.75" x2="176.84" y2="223.75" stroke="#d62828" stroke-width="10.0" stroke-linecap="round" stroke-opacity="0.55" />
  <line x1="176.84" y1="223.75" x2="176.84" y2="231.25" stroke="#999999" stroke-width="1.0" stroke-dasharray="4,3" />
  <line x1="176.84" y1="231.25" x2="106.5" y2="231.25" stroke="#d62828" stroke-width="10.0" stroke-linecap="round" stroke-opacity="0.55" />
  <line x1="106.5" y1="231.25" x2="106.5" y2="238.75" stroke="#999999" stroke-width="1.0" stroke-dasharray="4,3" />
  <line x1="106.5" y1="238.75" x2="176.84" y2="238.75" stroke="#d62828" stroke-width="10.0" stroke-linecap="round" stroke-opacity="0.55" />
  <line x1="176.84" y1="238.75" x2="176.84" y2="246.25" stroke="#999999" stroke-width="1.0" stroke-dasharray="4,3" />
  <line x1="176.84" y1="246.25" x2="106.5" y2="246.25" stroke="#d62828" stroke-width="10.0" stroke-linecap="round" stroke-opacity="0.55" />
  <line x1="106.5" y1="246.25" x2="106.5" y2="251.68" stroke="#999999" stroke-width="1.0" stroke-dasharray="4,3" />
  <line x1="106.5" y1="251.68" x2="176.84" y2="251.68" stroke="#d62828" stroke-width="10.0" stroke-linecap="round" stroke-opacity="0.55" />
  <line x1="176.84" y1="251.68" x2="3.0" y2="223.75" stroke="#999999" stroke-width="1.0" stroke-dasharray="4,3" />
  <line x1="3.0" y1="223.75" x2="100.5" y2="223.75" stroke="#e5e5e5" stroke-width="10.0" stroke-linecap="round" stroke-opacity="0.55" />
  <line x1="100.5" y1="223.75" x2="100.5" y2="231.25" stroke="#999999" stroke-width="1.0" stroke-dasharray="4,3" />
  <line x1="100.5" y1="231.25" x2="3.0" y2="231.25" stroke="#e5e5e5" stroke-width="10.0" stroke-linecap="round" stroke-opacity="0.55" />
  <line x1="3.0" y1="231.25" x2="3.0" y2="238.75" stroke="#999999" stroke-width="1.0" stroke-dasharray="4,3" />
  <line x1="3.0" y1="238.75" x2="100.5" y2="238.75" stroke="#e5e5e5" stroke-width="10.0" stroke-linecap="round" stroke-opacity="0.55" />
  <line x1="100.5" y1="238.75" x2="100.5" y2="246.25" stroke="#999999" stroke-width="1.0" stroke-dasharray="4,3" />
  <line x1="100.5" y1="246.25" x2="3.0" y2="246.25" stroke="#e5e5e5" stroke-width="10.0" stroke-linecap="round" stroke-opacity="0.55" />
  <line x1="3.0" y1="246.25" x2="3.0" y2="251.68" stroke="#999999" stroke-width="1.0" stroke-dasharray="4,3" />
  <line x1="3.0" y1="251.68" x2="100.5" y2="251.68" stroke="#e5e5e5" stroke-width="10.0" stroke-linecap="round" stroke-opacity="0.55" />
  <line x1="100.5" y1="251.68" x2="103.5" y2="215.75" stroke="#999999" stroke-width="1.0" stroke-dasharray="4,3" />
  <line x1="103.5" y1="215.75" x2="103.5" y2="259.68" stroke="black" stroke-width="10.0" stroke-linecap="round" stroke-opacity="0.55" />
  <line x1="103.5" y1="259.68" x2="0" y2="259.68" stroke="#999999" stroke-width="1.0" stroke-dasharray="4,3" />
  <line x1="0" y1="259.68" x2="179.84" y2="259.68" stroke="black" stroke-width="10.0" stroke-linecap="round" stroke-opacity="0.55" />
  <line x1="179.84" y1="259.68" x2="0" y2="215.75" stroke="#999999" stroke-width="1.0" stroke-dasharray="4,3" />
  <line x1="0" y1="215.75" x2="179.84" y2="215.75" stroke="black" stroke-width="10.0" stroke-linecap="round" stroke-opacity="0.55" />
  <line x1="179.84" y1="215.75" x2="0" y2="163.5" stroke="#999999" stroke-width="1.0" stroke-dasharray="4,3" />
  <line x1="0" y1="163.5" x2="179.84" y2="163.5" stroke="black" stroke-width="10.0" stroke-linecap="round" stroke-opacity="0.55" />
  <line x1="179.84" y1="163.5" x2="246.99" y2="0" stroke="#999999" stroke-width="1.0" stroke-dasharray="4,3" />
  <line x1="246.99" y1="0" x2="246.99" y2="45.27" stroke="black" stroke-width="10.0" stroke-linecap="round" stroke-opacity="0.55" />
  <line x1="246.99" y1="45.27" x2="179.84" y2="45.27" stroke="#999999" stroke-width="1.0" stroke-dasharray="4,3" />
  <line x1="179.84" y1="45.27" x2="304.8" y2="45.27" stroke="black" stroke-width="10.0" stroke-linecap="round" stroke-opacity="0.55" />
  <line x1="304.8" y1="45.27" x2="179.84" y2="89.46" stroke="#999999" stroke-width="1.0" stroke-dasharray="4,3" />
  <line x1="179.84" y1="89.46" x2="304.8" y2="89.46" stroke="black" stroke-width="10.0" stroke-linecap="round" stroke-opacity="0.55" />
  <line x1="304.8" y1="89.46" x2="179.84" y2="0" stroke="#999999" stroke-width="1.0" stroke-dasharray="4,3" />
  <line x1="179.84" y1="0" x2="179.84" y2="304.8" stroke="black" stroke-width="10.0" stroke-linecap="round" stroke-opacity="0.55" />
  <line x1="179.84" y1="304.8" x2="0" y2="0" stroke="#999999" stroke-width="1.0" stroke-dasharray="4,3" />
  <line x1="0" y1="0" x2="304.8" y2="0" stroke="black" stroke-width="10.0" stroke-linecap="round" stroke-opacity="0.55" />
  <line x1="304.8" y1="0" x2="0" y2="304.8" stroke="#999999" stroke-width="1.0" stroke-dasharray="4,3" />
  <line x1="0" y1="304.8" x2="304.8" y2="304.8" stroke="black" stroke-width="10.0" stroke-linecap="round" stroke-opacity="0.55" />
  <line x1="304.8" y1="304.8" x2="0" y2="0" stroke="#999999" stroke-width="1.0" stroke-dasharray="4,3" />
  <line x1="0" y1="0" x2="0" y2="304.8" stroke="black" stroke-width="10.0" stroke-linecap="round" stroke-opacity="0.55" />
  <line x1="0" y1="304.8" x2="304.8" y2="0" stroke="#999999" stroke-width="1.0" stroke-dasharray="4,3" />
  <line x1="304.8" y1="0" x2="304.8" y2="304.8" stroke="black" stroke-width="10.0" stroke-linecap="round" stroke-opacity="0.55" />
</svg>
