<svg
  xmlns="http://www.w3.org/2000/svg"
  width="12in"
  height="12in"
  viewBox="0 0 304.8 304.8"
>
  <rect x="0" y="0" width="304.8" height="304.8" fill="white" />
  <line x1="3.0" y1="8.0" x2="150.56" y2="8.0" stroke="#d62828" stroke-width="10.0" stroke-linecap="round" stroke-opacity="0.55" />
  <line x1="150.56" y1="8.0" x2="150.56" y2="15.5" stroke="#999999" stroke-width="1.0" stroke-dasharray="4,3" />
  <line x1="150.56" y1="15.5" x2="3.0" y2="15.5" stroke="#d62828" stroke-width="10.0" stroke-linecap="round" stroke-opacity="0.55" />
  <line x1="3.0" y1="15.5" x2="3.0" y2="23.0" stroke="#999999" stroke-width="1.0" stroke-dasharray="4,3" />
  <line x1="3.0" y1="23.0" x2="150.56" y2="23.0" stroke="#d62828" stroke-width="10.0" stroke-linecap="round" stroke-opacity="0.55" />
  <line x1="150.56" y1="23.0" x2="150.56" y2="30.5" stroke="#999999" stroke-width="1.0" stroke-dasharray="4,3" />
  <line x1="150.56" y1="30.5" x2="3.0" y2="30.5" stroke="#d62828" stroke-width="10.0" stroke-linecap="round" stroke-opacity="0.55" />
  <line x1="3.0" y1="30.5" x2="3.0" y2="38.0" stroke="#999999" stroke-width="1.0" stroke-dasharray="4,3" />
  <line x1="3.0" y1="38.0" x2="150.56" y2="38.0" stroke="#d62828" stroke-width="10.0" stroke-linecap="round" stroke-opacity="0.55" />
  <line x1="150.56" y1="38.0" x2="150.56" y2="45.5" stroke="#999999" stroke-width="1.0" stroke-dasharray="4,3" />
  <line x1="150.56" y1="45.5" x2="3.0" y2="45.5" stroke="#d62828" stroke-width="10.0" stroke-linecap="round" stroke-opacity="0.55" />
  <line x1="3.0" y1="45.5" x2="3.0" y2="53.0" stroke="#999999" stroke-width="1.0" stroke-dasharray="4,3" />
  <line x1="3.0" y1="53.0" x2="150.56" y2="53.0" stroke="#d62828" stroke-width="10.0" stroke-linecap="round" stroke-opacity="0.55" />
  <line x1="150.56" y1="53.0" x2="150.56" y2="60.5" stroke="#999999" stroke-width="1.0" stroke-dasharray="4,3" />
  <line x1="150.56" y1="60.5" x2="3.0" y2="60.5" stroke="#d62828" stroke-width="10.0" stroke-linecap="round" stroke-opacity="0.55" />
  <line x1="3.0" y1="60.5" x2="3.0" y2="68.0" stroke="#999999" stroke-width="1.0" stroke-dasharray="4,3" />
  <line x1="3.0" y1="68.0" x2="150.56" y2="68.0" stroke="#d62828" stroke-width="10.0" stroke-linecap="round" stroke-opacity="0.55" />
  <line x1="150.56" y1="68.0" x2="150.56" y2="68.42" stroke="#999999" stroke-width="1.0" stroke-dasharray="4,3" />
  <line x1="150.56" y1="68.42" x2="3.0" y2="68.42" stroke="#d62828" stroke-width="10.0" stroke-linecap="round" stroke-opacity="0.55" />
  <line x1="3.0" y1="68.42" x2="156.56" y2="8.0" stroke="#999999" stroke-width="1.0" stroke-dasharray="4,3" />
  <line x1="156.56" y1="8.0" x2="231.8" y2="8.0" stroke="#f7c600" stroke-width="10.0" stroke-linecap="round" stroke-opacity="0.55" />
  <line x1="231.8" y1="8.0" x2="231.8" y2="15.5" stroke="#999999" stroke-width="1.0" stroke-dasharray="4,3" />
  <line x1="231.8" y1="15.5" x2="156.56" y2="15.5" stroke="#f7c600" stroke-width="10.0" stroke-linecap="round" stroke-opacity="0.55" />
  <line x1="156.56" y1="15.5" x2="156.56" y2="23.0" stroke="#999999" stroke-width="1.0" stroke-dasharray="4,3" />
  <line x1="156.56" y1="23.0" x2="231.8" y2="23.0" stroke="#f7c600" stroke-width="10.0" stroke-linecap="round" stroke-opacity="0.55" />
  <line x1="231.8" y1="23.0" x2="231.8" y2="30.5" stroke="#999999" stroke-width="1.0" stroke-dasharray="4,3" />
  <line x1="231.8" y1="30.5" x2="156.56" y2="30.5" stroke="#f7c600" stroke-width="10.0" stroke-linecap="round" stroke-opacity="0.55" />
  <line x1="156.56" y1="30.5" x2="156.56" y2="38.0" stroke="#999999" stroke-width="1.0" stroke-dasharray="4,3" />
  <line x1="156.56" y1="38.0" x2="231.8" y2="38.0" stroke="#f7c600" stroke-width="10.0" stroke-linecap="round" stroke-opacity="0.55" />
  <line x1="231.8" y1="38.0" x2="231.8" y2="45.5" stroke="#999999" stroke-width="1.0" stroke-dasharray="4,3" />
  <line x1="231.8" y1="45.5" x2="156.56" y2="45.5" stroke="#f7c600" stroke-width="10.0" stroke-linecap="round" stroke-opacity="0.55" />
  <line x1="156.56" y1="45.5" x2="156.56" y2="53.0" stroke="#999999" stroke-width="1.0" stroke-dasharray="4,3" />
  <line x1="156.56" y1="53.0" x2="231.8" y2="53.0" stroke="#f7c600" stroke-width="10.0" stroke-linecap="round" stroke-opacity="0.55" />
  <line x1="231.8" y1="53.0" x2="231.8" y2="60.5" stroke="#999999" stroke-width="1.0" stroke-dasharray="4,3" />
  <line x1="231.8" y1="60.5" x2="156.56" y2="60.5" stroke="#f7c600" stroke-width="10.0" stroke-linecap="round" stroke-opacity="0.55" />
  <line x1="156.56" y1="60.5" x2="156.56" y2="68.0" stroke="#999999" stroke-width="1.0" stroke-dasharray="4,3" />
  <line x1="156.56" y1="68.0" x2="231.8" y2="68.0" stroke="#f7c600" stroke-width="10.0" stroke-linecap="round" stroke-opacity="0.55" />
  <line x1="231.8" y1="68.0" x2="231.8" y2="68.42" stroke="#999999" stroke-width="1.0" stroke-dasharray="4,3" />
  <line x1="231.8" y1="68.42" x2="156.56" y2="68.42" stroke="#f7c600" stroke-width="10.0" stroke-linecap="round" stroke-opacity="0.55" />
  <line x1="156.56" y1="68.42" x2="3.0" y2="84.42" stroke="#999999" stroke-width="1.0" stroke-dasharray="4,3" />
  <line x1="3.0" y1="84.42" x2="231.8" y2="84.42" stroke="#1d4ed8" stroke-width="10.0" stroke-linecap="round" stroke-opacity="0.55" />
  <line x1="231.8" y1="84.42" x2="231.8" y2="91.92" stroke="#999999" stroke-width="1.0" stroke-dasharray="4,3" />
  <line x1="231.8" y1="91.92" x2="3.0" y2="91.92" stroke="#1d4ed8" stroke-width="10.0" stroke-linecap="round" stroke-opacity="0.55" />
  <line x1="3.0" y1="91.92" x2="3.0" y2="99.42" stroke="#999999" stroke-width="1.0" stroke-dasharray="4,3" />
  <line x1="3.0" y1="99.42" x2="231.8" y2="99.42" stroke="#1d4ed8" stroke-width="10.0" stroke-linecap="round" stroke-opacity="0.55" />
  <line x1="231.8" y1="99.42" x2="231.8" y2="106.92" stroke="#999999" stroke-width="1.0" stroke-dasharray="4,3" />
  <line x1="231.8" y1="106.92" x2="3.0" y2="106.92" stroke="#1d4ed8" stroke-width="10.0" stroke-linecap="round" stroke-opacity="0.55" />
  <line x1="3.0" y1="106.92" x2="3.0" y2="114.42" stroke="#999999" stroke-width="1.0" stroke-dasharray="4,3" />
  <line x1="3.0" y1="114.42" x2="231.8" y2="114.42" stroke="#1d4ed8" stroke-width="10.0" stroke-linecap="round" stroke-opacity="0.55" />
  <line x1="231.8" y1="114.42" x2="231.8" y2="121.92" stroke="#999999" stroke-width="1.0" stroke-dasharray="4,3" />
  <line x1="231.8" y1="121.92" x2="3.0" y2="121.92" stroke="#1d4ed8" stroke-width="10.0" stroke-linecap="round" stroke-opacity="0.55" />
  <line x1="3.0" y1="121.92" x2="3.0" y2="129.42" stroke="#999999" stroke-width="1.0" stroke-dasharray="4,3" />
  <line x1="3.0" y1="129.42" x2="231.8" y2="129.42" stroke="#1d4ed8" stroke-width="10.0" stroke-linecap="round" stroke-opacity="0.55" />
  <line x1="231.8" y1="129.42" x2="231.8" y2="136.92" stroke="#999999" stroke-width="1.0" stroke-dasharray="4,3" />
  <line x1="231.8" y1="136.92" x2="3.0" y2="136.92" stroke="#1d4ed8" stroke-width="10.0" stroke-linecap="round" stroke-opacity="0.55" />
  <line x1="3.0" y1="136.92" x2="3.0" y2="144.42" stroke="#999999" stroke-width="1.0" stroke-dasharray="4,3" />
  <line x1="3.0" y1="144.42" x2="231.8" y2="144.42" stroke="#1d4ed8" stroke-width="10.0" stroke-linecap="round" stroke-opacity="0.55" />
  <line x1="231.8" y1="144.42" x2="231.8" y2="151.92" stroke="#999999" stroke-width="1.0" stroke-dasharray="4,3" />
  <line x1="231.8" y1="151.92" x2="3.0" y2="151.92" stroke="#1d4ed8" stroke-width="10.0" stroke-linecap="round" stroke-opacity="0.55" />
  <line x1="3.0" y1="151.92" x2="3.0" y2="159.42" stroke="#999999" stroke-width="1.0" stroke-dasharray="4,3" />
  <line x1="3.0" y1="159.42" x2="231.8" y2="159.42" stroke="#1d4ed8" stroke-width="10.0" stroke-linecap="round" stroke-opacity="0.55" />
  <line x1="231.8" y1="159.42" x2="231.8" y2="166.92" stroke="#999999" stroke-width="1.0" stroke-dasharray="4,3" />
  <line x1="231.8" y1="166.92" x2="3.0" y2="166.92" stroke="#1d4ed8" stroke-width="10.0" stroke-linecap="round" stroke-opacity="0.55" />
  <line x1="3.0" y1="166.92" x2="3.0" y2="174.42" stroke="#999999" stroke-width="1.0" stroke-dasharray="4,3" />
  <line x1="3.0" y1="174.42" x2="231.8" y2="174.42" stroke="#1d4ed8" stroke-width="10.0" stroke-linecap="round" stroke-opacity="0.55" />
  <line x1="231.8" y1="174.42" x2="231.8" y2="181.92" stroke="#999999" stroke-width="1.0" stroke-dasharray="4,3" />
  <line x1="231.8" y1="181.92" x2="3.0" y2="181.92" stroke="#1d4ed8" stroke-width="10.0" stroke-linecap="round" stroke-opacity="0.55" />
  <line x1="3.0" y1="181.92" x2="3.0" y2="189.42" stroke="#999999" stroke-width="1.0" stroke-dasharray="4,3" />
  <line x1="3.0" y1="189.42" x2="231.8" y2="189.42" stroke="#1d4ed8" stroke-width="10.0" stroke-linecap="round" stroke-opacity="0.55" />
  <line x1="231.8" y1="189.42" x2="231.8" y2="196.92" stroke="#999999" stroke-width="1.0" stroke-dasharray="4,3" />
  <line x1="231.8" y1="196.92" x2="3.0" y2="196.92" stroke="#1d4ed8" stroke-width="10.0" stroke-linecap="round" stroke-opacity="0.55" />
  <line x1="3.0" y1="196.92" x2="3.0" y2="204.42" stroke="#999999" stroke-width="1.0" stroke-dasharray="4,3" />
  <line x1="3.0" y1="204.42" x2="231.8" y2="204.42" stroke="#1d4ed8" stroke-width="10.0" stroke-linecap="round" stroke-opacity="0.55" />
  <line x1="231.8" y1="204.42" x2="231.8" y2="211.92" stroke="#999999" stroke-width="1.0" stroke-dasharray="4,3" />
  <line x1="231.8" y1="211.92" x2="3.0" y2="211.92" stroke="#1d4ed8" stroke-width="10.0" stroke-linecap="round" stroke-opacity="0.55" />
  <line x1="3.0" y1="211.92" x2="3.0" y2="219.42" stroke="#999999" stroke-width="1.0" stroke-dasharray="4,3" />
  <line x1="3.0" y1="219.42" x2="231.8" y2="219.42" stroke="#1d4ed8" stroke-width="10.0" stroke-linecap="round" stroke-opacity="0.55" />
  <line x1="231.8" y1="219.42" x2="231.8" y2="226.92" stroke="#999999" stroke-width="1.0" stroke-dasharray="4,3" />
  <line x1="231.8" y1="226.92" x2="3.0" y2="226.92" stroke="#1d4ed8" stroke-width="10.0" stroke-linecap="round" stroke-opacity="0.55" />
  <line x1="3.0" y1="226.92" x2="3.0" y2="234.42" stroke="#999999" stroke-width="1.0" stroke-dasharray="4,3" />
  <line x1="3.0" y1="234.42" x2="231.8" y2="234.42" stroke="#1d4ed8" stroke-width="10.0" stroke-linecap="round" stroke-opacity="0.55" />
  <line x1="231.8" y1="234.42" x2="231.8" y2="241.92" stroke="#999999" stroke-width="1.0" stroke-dasharray="4,3" />
  <line x1="231.8" y1="241.92" x2="3.0" y2="241.92" stroke="#1d4ed8" stroke-width="10.0" stroke-linecap="round" stroke-opacity="0.55" />
  <line x1="3.0" y1="241.92" x2="3.0" y2="249.42" stroke="#999999" stroke-width="1.0" stroke-dasharray="4,3" />
  <line x1="3.0" y1="249.42" x2="231.8" y2="249.42" stroke="#1d4ed8" stroke-width="10.0" stroke-linecap="round" stroke-opacity="0.55" />
  <line x1="231.8" y1="249.42" x2="231.8" y2="256.92" stroke="#999999" stroke-width="1.0" stroke-dasharray="4,3" />
  <line x1="231.8" y1="256.92" x2="3.0" y2="256.92" stroke="#1d4ed8" stroke-width="10.0" stroke-linecap="round" stroke-opacity="0.55" />
  <line x1="3.0" y1="256.92" x2="3.0" y2="264.42" stroke="#999999" stroke-width="1.0" stroke-dasharray="4,3" />
  <line x1="3.0" y1="264.42" x2="231.8" y2="264.42" stroke="#1d4ed8" stroke-width="10.0" stroke-linecap="round" stroke-opacity="0.55" />
  <line x1="231.8" y1="264.42" x2="231.8" y2="271.92" stroke="#999999" stroke-width="1.0" stroke-dasharray="4,3" />
  <line x1="231.8" y1="271.92" x2="3.0" y2="271.92" stroke="#1d4ed8" stroke-width="10.0" stroke-linecap="round" stroke-opacity="0.55" />
  <line x1="3.0" y1="271.92" x2="3.0" y2="279.42" stroke="#999999" stroke-width="1.0" stroke-dasharray="4,3" />
  <line x1="3.0" y1="279.42" x2="231.8" y2="279.42" stroke="#1d4ed8" stroke-width="10.0" stroke-linecap="round" stroke-opacity="0.55" />
  <line x1="231.8" y1="279.42" x2="231.8" y2="286.92" stroke="#999999" stroke-width="1.0" stroke-dasharray="4,3" />
  <line x1="231.8" y1="286.92" x2="3.0" y2="286.92" stroke="#1d4ed8" stroke-width="10.0" stroke-linecap="round" stroke-opacity="0.55" />
  <line x1="3.0" y1="286.92" x2="3.0" y2="294.42" stroke="#999999" stroke-width="1.0" stroke-dasharray="4,3" />
  <line x1="3.0" y1="294.42" x2="231.8" y2="294.42" stroke="#1d4ed8" stroke-width="10.0" stroke-linecap="round" stroke-opacity="0.55" />
  <line x1="231.8" y1="294.42" x2="231.8" y2="296.8" stroke="#999999" stroke-width="1.0" stroke-dasharray="4,3" />
  <line x1="231.8" y1="296.8" x2="3.0" y2="296.8" stroke="#1d4ed8" stroke-width="10.0" stroke-linecap="round" stroke-opacity="0.55" />
  <line x1="3.0" y1="296.8" x2="237.8" y2="8.0" stroke="#999999" stroke-width="1.0" stroke-dasharray="4,3" />
  <line x1="237.8" y1="8.0" x2="301.8" y2="8.0" stroke="#d62828" stroke-width="10.0" stroke-linecap="round" stroke-opacity="0.55" />
  <line x1="301.8" y1="8.0" x2="301.8" y2="15.5" stroke="#999999" stroke-width="1.0" stroke-dasharray="4,3" />
  <line x1="301.8" y1="15.5" x2="237.8" y2="15.5" stroke="#d62828" stroke-width="10.0" stroke-linecap="round" stroke-opacity="0.55" />
  <line x1="237.8" y1="15.5" x2="237.8" y2="23.0" stroke="#999999" stroke-width="1.0" stroke-dasharray="4,3" />
  <line x1="237.8" y1="23.0" x2="301.8" y2="23.0" stroke="#d62828" stroke-width="10.0" stroke-linecap="round" stroke-opacity="0.55" />
  <line x1="301.8" y1="23.0" x2="301.8" y2="30.5" stroke="#999999" stroke-width="1.0" stroke-dasharray="4,3" />
  <line x1="301.8" y1="30.5" x2="237.8" y2="30.5" stroke="#d62828" stroke-width="10.0" stroke-linecap="round" stroke-opacity="0.55" />
  <line x1="237.8" y1="30.5" x2="237.8" y2="38.0" stroke="#999999" stroke-width="1.0" stroke-dasharray="4,3" />
  <line x1="237.8" y1="38.0" x2="301.8" y2="38.0" stroke="#d62828" stroke-width="10.0" stroke-linecap="round" stroke-opacity="0.55" />
  <line x1="301.8" y1="38.0" x2="301.8" y2="45.5" stroke="#999999" stroke-width="1.0" stroke-dasharray="4,3" />
  <line x1="301.8" y1="45.5" x2="237.8" y2="45.5" stroke="#d62828" stroke-width="10.0" stroke-linecap="round" stroke-opacity="0.55" />
  <line x1="237.8" y1="45.5" x2="237.8" y2="53.0" stroke="#999999" stroke-width="1.0" stroke-dasharray="4,3" />
  <line x1="237.8" y1="53.0" x2="301.8" y2="53.0" stroke="#d62828" stroke-width="10.0" stroke-linecap="round" stroke-opacity="0.55" />
  <line x1="301.8" y1="53.0" x2="301.8" y2="60.5" stroke="#999999" stroke-width="1.0" stroke-dasharray="4,3" />
  <line x1="301.8" y1="60.5" x2="237.8" y2="60.5" stroke="#d62828" stroke-width="10.0" stroke-linecap="round" stroke-opacity="0.55" />
  <line x1="237.8" y1="60.5" x2="237.8" y2="68.0" stroke="#999999" stroke-width="1.0" stroke-dasharray="4,3" />
  <line x1="237.8" y1="68.0" x2="301.8" y2="68.0" stroke="#d62828" stroke-width="10.0" stroke-linecap="round" stroke-opacity="0.55" />
  <line x1="301.8" y1="68.0" x2="301.8" y2="75.5" stroke="#999999" stroke-width="1.0" stroke-dasharray="4,3" />
  <line x1="301.8" y1="75.5" x2="237.8" y2="75.5" stroke="#d62828" stroke-width="10.0" stroke-linecap="round" stroke-opacity="0.55" />
  <line x1="237.8" y1="75.5" x2="237.8" y2="83.0" stroke="#999999" stroke-width="1.0" stroke-dasharray="4,3" />
  <line x1="237.8" y1="83.0" x2="301.8" y2="83.0" stroke="#d62828" stroke-width="10.0" stroke-linecap="round" stroke-opacity="0.55" />
  <line x1="301.8" y1="83.0" x2="301.8" y2="90.5" stroke="#999999" stroke-width="1.0" stroke-dasharray="4,3" />
  <line x1="301.8" y1="90.5" x2="237.8" y2="90.5" stroke="#d62828" stroke-width="10.0" stroke-linecap="round" stroke-opacity="0.55" />
  <line x1="237.8" y1="90.5" x2="237.8" y2="98.0" stroke="#999999" stroke-width="1.0" stroke-dasharray="4,3" />
  <line x1="237.8" y1="98.0" x2="301.8" y2="98.0" stroke="#d62828" stroke-width="10.0" stroke-linecap="round" stroke-opacity="0.55" />
  <line x1="301.8" y1="98.0" x2="301.8" y2="105.5" stroke="#999999" stroke-width="1.0" stroke-dasharray="4,3" />
  <line x1="301.8" y1="105.5" x2="237.8" y2="105.5" stroke="#d62828" stroke-width="10.0" stroke-linecap="round" stroke-opacity="0.55" />
  <line x1="237.8" y1="105.5" x2="237.8" y2="113.0" stroke="#999999" stroke-width="1.0" stroke-dasharray="4,3" />
  <line x1="237.8" y1="113.0" x2="301.8" y2="113.0" stroke="#d62828" stroke-width="10.0" stroke-linecap="round" stroke-opacity="0.55" />
  <line x1="301.8" y1="113.0" x2="301.8" y2="120.5" stroke="#999999" stroke-width="1.0" stroke-dasharray="4,3" />
  <line x1="301.8" y1="120.5" x2="237.8" y2="120.5" stroke="#d62828" stroke-width="10.0" stroke-linecap="round" stroke-opacity="0.55" />
  <line x1="237.8" y1="120.5" x2="237.8" y2="128.0" stroke="#999999" stroke-width="1.0" stroke-dasharray="4,3" />
  <line x1="237.8" y1="128.0" x2="301.8" y2="128.0" stroke="#d62828" stroke-width="10.0" stroke-linecap="round" stroke-opacity="0.55" />
  <line x1="301.8" y1="128.0" x2="301.8" y2="135.5" stroke="#999999" stroke-width="1.0" stroke-dasharray="4,3" />
  <line x1="301.8" y1="135.5" x2="237.8" y2="135.5" stroke="#d62828" stroke-width="10.0" stroke-linecap="round" stroke-opacity="0.55" />
  <line x1="237.8" y1="135.5" x2="237.8" y2="143.0" stroke="#999999" stroke-width="1.0" stroke-dasharray="4,3" />
  <line x1="237.8" y1="143.0" x2="301.8" y2="143.0" stroke="#d62828" stroke-width="10.0" stroke-linecap="round" stroke-opacity="0.55" />
  <line x1="301.8" y1="143.0" x2="301.8" y2="150.5" stroke="#999999" stroke-width="1.0" stroke-dasharray="4,3" />
  <line x1="301.8" y1="150.5" x2="237.8" y2="150.5" stroke="#d62828" stroke-width="10.0" stroke-linecap="round" stroke-opacity="0.55" />
  <line x1="237.8" y1="150.5" x2="237.8" y2="158.0" stroke="#999999" stroke-width="1.0" stroke-dasharray="4,3" />
  <line x1="237.8" y1="158.0" x2="301.8" y2="158.0" stroke="#d62828" stroke-width="10.0" stroke-linecap="round" stroke-opacity="0.55" />
  <line x1="301.8" y1="158.0" x2="301.8" y2="165.5" stroke="#999999" stroke-width="1.0" stroke-dasharray="4,3" />
  <line x1="301.8" y1="165.5" x2="237.8" y2="165.5" stroke="#d62828" stroke-width="10.0" stroke-linecap="round" stroke-opacity="0.55" />
  <line x1="237.8" y1="165.5" x2="237.8" y2="173.0" stroke="#999999" stroke-width="1.0" stroke-dasharray="4,3" />
  <line x1="237.8" y1="173.0" x2="301.8" y2="173.0" stroke="#d62828" stroke-width="10.0" stroke-linecap="round" stroke-opacity="0.55" />
  <line x1="301.8" y1="173.0" x2="301.8" y2="180.5" stroke="#999999" stroke-width="1.0" stroke-dasharray="4,3" />
  <line x1="301.8" y1="180.5" x2="237.8" y2="180.5" stroke="#d62828" stroke-width="10.0" stroke-linecap="round" stroke-opacity="0.55" />
  <line x1="237.8" y1="180.5" x2="237.8" y2="188.0" stroke="#999999" stroke-width="1.0" stroke-dasharray="4,3" />
  <line x1="237.8" y1="188.0" x2="301.8" y2="188.0" stroke="#d62828" stroke-width="10.0" stroke-linecap="round" stroke-opacity="0.55" />
  <line x1="301.8" y1="188.0" x2="301.8" y2="195.5" stroke="#999999" stroke-width="1.0" stroke-dasharray="4,3" />
  <line x1="301.8" y1="195.5" x2="237.8" y2="195.5" stroke="#d62828" stroke-width="10.0" stroke-linecap="round" stroke-opacity="0.55" />
  <line x1="237.8" y1="195.5" x2="237.8" y2="197.26" stroke="#999999" stroke-width="1.0" stroke-dasharray="4,3" />
  <line x1="237.8" y1="197.26" x2="301.8" y2="197.26" stroke="#d62828" stroke-width="10.0" stroke-linecap="round" stroke-opacity="0.55" />
  <line x1="301.8" y1="197.26" x2="153.56" y2="0" stroke="#999999" stroke-width="1.0" stroke-dasharray="4,3" />
  <line x1="153.56" y1="0" x2="153.56" y2="76.42" stroke="black" stroke-width="10.0" stroke-linecap="round" stroke-opacity="0.55" />
  <line x1="153.56" y1="76.42" x2="0" y2="76.42" stroke="#999999" stroke-width="1.0" stroke-dasharray="4,3" />
  <line x1="0" y1="76.42" x2="234.8" y2="76.42" stroke="black" stroke-width="10.0" stroke-linecap="round" stroke-opacity="0.55" />
  <line x1="234.8" y1="76.42" x2="234.8" y2="205.26" stroke="#999999" stroke-width="1.0" stroke-dasharray="4,3" />
  <line x1="234.8" y1="205.26" x2="304.8" y2="205.26" stroke="black" stroke-width="10.0" stroke-linecap="round" stroke-opacity="0.55" />
  <line x1="304.8" y1="205.26" x2="234.8" y2="0" stroke="#999999" stroke-width="1.0" stroke-dasharray="4,3" />
  <line x1="234.8" y1="0" x2="234.8" y2="304.8" stroke="black" stroke-width="10.0" stroke-linecap="round" stroke-opacity="0.55" />
  <line x1="234.8" y1="304.8" x2="0" y2="0" stroke="#999999" stroke-width="1.0" stroke-dasharray="4,3" />
  <line x1="0" y1="0" x2="304.8" y2="0" stroke="black" stroke-width="10.0" stroke-linecap="round" stroke-opacity="0.55" />
  <line x1="304.8" y1="0" x2="0" y2="304.8" stroke="#999999" stroke-width="1.0" stroke-dasharray="4,3" />
  <line x1="0" y1="304.8" x2="304.8" y2="304.8" stroke="black" stroke-width="10.0" stroke-linecap="round" stroke-opacity="0.55" />
  <line x1="304.8" y1="304.8" x2="0" y2="0" stroke="#999999" stroke-width="1.0" stroke-dasharray="4,3" />
  <line x1="0" y1="0" x2="0" y2="304.8" stroke="black" stroke-width="10.0" stroke-linecap="round" stroke-opacity="0.55" />
  <line x1="0" y1="304.8" x2="304.8" y2="0" stroke="#999999" stroke-width="1.0" stroke-dasharray="4,3" />
  <line x1="304.8" y1="0" x2="304.8" y2="304.8" stroke="black" stroke-width="10.0" stroke-linecap="round" stroke-opacity="0.55" />
</svg>
