<svg
  xmlns="http://www.w3.org/2000/svg"
  width="8.2677in"
  height="11.6929in"
  viewBox="0 0 210.0 297.0"
>
  <rect x="0" y="0" width="210.0" height="297.0" fill="white" />
  <polyline points="58.08,10.0 58.08,207.92" fill="none" stroke="black" stroke-width="1.0" stroke-linecap="round" stroke-linejoin="round" stroke-opacity="0.55" />
  <line x1="58.08" y1="207.92" x2="58.08" y2="161.44" stroke="#999999" stroke-width="1.0" stroke-dasharray="4,3" />
  <polyline points="58.08,161.44 10.0,161.44" fill="none" stroke="black" stroke-width="1.0" stroke-linecap="round" stroke-linejoin="round" stroke-opacity="0.55" />
  <line x1="10.0" y1="161.44" x2="10.0" y2="117.45" stroke="#999999" stroke-width="1.0" stroke-dasharray="4,3" />
  <polyline points="10.0,117.45 58.08,117.45" fill="none" stroke="black" stroke-width="1.0" stroke-linecap="round" stroke-linejoin="round" stroke-opacity="0.55" />
  <line x1="58.08" y1="117.45" x2="58.08" y2="59.73" stroke="#999999" stroke-width="1.0" stroke-dasharray="4,3" />
  <polyline points="58.08,59.73 10.0,59.73" fill="none" stroke="black" stroke-width="1.0" stroke-linecap="round" stroke-linejoin="round" stroke-opacity="0.55" />
  <line x1="10.0" y1="59.73" x2="128.5" y2="10.0" stroke="#999999" stroke-width="1.0" stroke-dasharray="4,3" />
  <polyline points="128.5,10.0 128.5,287.0" fill="none" stroke="black" stroke-width="1.0" stroke-linecap="round" stroke-linejoin="round" stroke-opacity="0.55" />
  <line x1="128.5" y1="287.0" x2="165.13" y2="287.0" stroke="#999999" stroke-width="1.0" stroke-dasharray="4,3" />
  <polyline points="165.13,287.0 165.13,194.33" fill="none" stroke="black" stroke-width="1.0" stroke-linecap="round" stroke-linejoin="round" stroke-opacity="0.55" />
  <line x1="165.13" y1="194.33" x2="200.0" y2="194.33" stroke="#999999" stroke-width="1.0" stroke-dasharray="4,3" />
  <polyline points="200.0,194.33 128.5,194.33" fill="none" stroke="black" stroke-width="1.0" stroke-linecap="round" stroke-linejoin="round" stroke-opacity="0.55" />
  <line x1="128.5" y1="194.33" x2="128.5" y2="207.92" stroke="#999999" stroke-width="1.0" stroke-dasharray="4,3" />
  <polyline points="128.5,207.92 10.0,207.92" fill="none" stroke="black" stroke-width="1.0" stroke-linecap="round" stroke-linejoin="round" stroke-opacity="0.55" />
  <line x1="10.0" y1="207.92" x2="200.0" y2="287.0" stroke="#999999" stroke-width="1.0" stroke-dasharray="4,3" />
  <polyline points="200.0,287.0 10.0,287.0 10.0,10.0 200.0,10.0 200.0,287.0" fill="none" stroke="black" stroke-width="1.0" stroke-linecap="round" stroke-linejoin="round" stroke-opacity="0.55" />
</svg>
