<svg
  xmlns="http://www.w3.org/2000/svg"
  width="12.0in"
  height="12.0in"
  viewBox="0 0 304.8 304.8"
>
  <rect x="0" y="0" width="304.8" height="304.8" fill="white" />
  <line x1="124.24" y1="137.75" x2="301.8" y2="137.75" stroke="#f7c600" stroke-width="10.0" stroke-linecap="round" stroke-opacity="0.55" />
  <line x1="301.8" y1="137.75" x2="301.8" y2="145.25" stroke="#999999" stroke-width="1.0" stroke-dasharray="4,3" />
  <line x1="301.8" y1="145.25" x2="124.24" y2="145.25" stroke="#f7c600" stroke-width="10.0" stroke-linecap="round" stroke-opacity="0.55" />
  <line x1="124.24" y1="145.25" x2="124.24" y2="152.75" stroke="#999999" stroke-width="1.0" stroke-dasharray="4,3" />
  <line x1="124.24" y1="152.75" x2="301.8" y2="152.75" stroke="#f7c600" stroke-width="10.0" stroke-linecap="round" stroke-opacity="0.55" />
  <line x1="301.8" y1="152.75" x2="301.8" y2="160.25" stroke="#999999" stroke-width="1.0" stroke-dasharray="4,3" />
  <line x1="301.8" y1="160.25" x2="124.24" y2="160.25" stroke="#f7c600" stroke-width="10.0" stroke-linecap="round" stroke-opacity="0.55" />
  <line x1="124.24" y1="160.25" x2="124.24" y2="167.75" stroke="#999999" stroke-width="1.0" stroke-dasharray="4,3" />
  <line x1="124.24" y1="167.75" x2="301.8" y2="167.75" stroke="#f7c600" stroke-width="10.0" stroke-linecap="round" stroke-opacity="0.55" />
  <line x1="301.8" y1="167.75" x2="301.8" y2="175.25" stroke="#999999" stroke-width="1.0" stroke-dasharray="4,3" />
  <line x1="301.8" y1="175.25" x2="124.24" y2="175.25" stroke="#f7c600" stroke-width="10.0" stroke-linecap="round" stroke-opacity="0.55" />
  <line x1="124.24" y1="175.25" x2="124.24" y2="182.75" stroke="#999999" stroke-width="1.0" stroke-dasharray="4,3" />
  <line x1="124.24" y1="182.75" x2="301.8" y2="182.75" stroke="#f7c600" stroke-width="10.0" stroke-linecap="round" stroke-opacity="0.55" />
  <line x1="301.8" y1="182.75" x2="301.8" y2="190.25" stroke="#999999" stroke-width="1.0" stroke-dasharray="4,3" />
  <line x1="301.8" y1="190.25" x2="124.24" y2="190.25" stroke="#f7c600" stroke-width="10.0" stroke-linecap="round" stroke-opacity="0.55" />
  <line x1="124.24" y1="190.25" x2="124.24" y2="197.75" stroke="#999999" stroke-width="1.0" stroke-dasharray="4,3" />
  <line x1="124.24" y1="197.75" x2="301.8" y2="197.75" stroke="#f7c600" stroke-width="10.0" stroke-linecap="round" stroke-opacity="0.55" />
  <line x1="301.8" y1="197.75" x2="301.8" y2="205.25" stroke="#999999" stroke-width="1.0" stroke-dasharray="4,3" />
  <line x1="301.8" y1="205.25" x2="124.24" y2="205.25" stroke="#f7c600" stroke-width="10.0" stroke-linecap="round" stroke-opacity="0.55" />
  <line x1="124.24" y1="205.25" x2="124.24" y2="212.75" stroke="#999999" stroke-width="1.0" stroke-dasharray="4,3" />
  <line x1="124.24" y1="212.75" x2="301.8" y2="212.75" stroke="#f7c600" stroke-width="10.0" stroke-linecap="round" stroke-opacity="0.55" />
  <line x1="301.8" y1="212.75" x2="301.8" y2="220.25" stroke="#999999" stroke-width="1.0" stroke-dasharray="4,3" />
  <line x1="301.8" y1="220.25" x2="124.24" y2="220.25" stroke="#f7c600" stroke-width="10.0" stroke-linecap="round" stroke-opacity="0.55" />
  <line x1="124.24" y1="220.25" x2="124.24" y2="227.75" stroke="#999999" stroke-width="1.0" stroke-dasharray="4,3" />
  <line x1="124.24" y1="227.75" x2="301.8" y2="227.75" stroke="#f7c600" stroke-width="10.0" stroke-linecap="round" stroke-opacity="0.55" />
  <line x1="301.8" y1="227.75" x2="301.8" y2="235.25" stroke="#999999" stroke-width="1.0" stroke-dasharray="4,3" />
  <line x1="301.8" y1="235.25" x2="124.24" y2="235.25" stroke="#f7c600" stroke-width="10.0" stroke-linecap="round" stroke-opacity="0.55" />
  <line x1="124.24" y1="235.25" x2="124.24" y2="242.75" stroke="#999999" stroke-width="1.0" stroke-dasharray="4,3" />
  <line x1="124.24" y1="242.75" x2="301.8" y2="242.75" stroke="#f7c600" stroke-width="10.0" stroke-linecap="round" stroke-opacity="0.55" />
  <line x1="301.8" y1="242.75" x2="301.8" y2="250.25" stroke="#999999" stroke-width="1.0" stroke-dasharray="4,3" />
  <line x1="301.8" y1="250.25" x2="124.24" y2="250.25" stroke="#f7c600" stroke-width="10.0" stroke-linecap="round" stroke-opacity="0.55" />
  <line x1="124.24" y1="250.25" x2="124.24" y2="257.75" stroke="#999999" stroke-width="1.0" stroke-dasharray="4,3" />
  <line x1="124.24" y1="257.75" x2="301.8" y2="257.75" stroke="#f7c600" stroke-width="10.0" stroke-linecap="round" stroke-opacity="0.55" />
  <line x1="301.8" y1="257.75" x2="301.8" y2="265.25" stroke="#999999" stroke-width="1.0" stroke-dasharray="4,3" />
  <line x1="301.8" y1="265.25" x2="124.24" y2="265.25" stroke="#f7c600" stroke-width="10.0" stroke-linecap="round" stroke-opacity="0.55" />
  <line x1="124.24" y1="265.25" x2="124.24" y2="272.75" stroke="#999999" stroke-width="1.0" stroke-dasharray="4,3" />
  <line x1="124.24" y1="272.75" x2="301.8" y2="272.75" stroke="#f7c600" stroke-width="10.0" stroke-linecap="round" stroke-opacity="0.55" />
  <line x1="301.8" y1="272.75" x2="301.8" y2="280.25" stroke="#999999" stroke-width="1.0" stroke-dasharray="4,3" />
  <line x1="301.8" y1="280.25" x2="124.24" y2="280.25" stroke="#f7c600" stroke-width="10.0" stroke-linecap="round" stroke-opacity="0.55" />
  <line x1="124.24" y1="280.25" x2="124.24" y2="287.75" stroke="#999999" stroke-width="1.0" stroke-dasharray="4,3" />
  <line x1="124.24" y1="287.75" x2="301.8" y2="287.75" stroke="#f7c600" stroke-width="10.0" stroke-linecap="round" stroke-opacity="0.55" />
  <line x1="301.8" y1="287.75" x2="301.8" y2="295.25" stroke="#999999" stroke-width="1.0" stroke-dasharray="4,3" />
  <line x1="301.8" y1="295.25" x2="124.24" y2="295.25" stroke="#f7c600" stroke-width="10.0" stroke-linecap="round" stroke-opacity="0.55" />
  <line x1="124.24" y1="295.25" x2="124.24" y2="296.8" stroke="#999999" stroke-width="1.0" stroke-dasharray="4,3" />
  <line x1="124.24" y1="296.8" x2="301.8" y2="296.8" stroke="#f7c600" stroke-width="10.0" stroke-linecap="round" stroke-opacity="0.55" />
  <line x1="301.8" y1="296.8" x2="3.0" y2="137.75" stroke="#999999" stroke-width="1.0" stroke-dasharray="4,3" />
  <line x1="3.0" y1="137.75" x2="118.24" y2="137.75" stroke="#d62828" stroke-width="10.0" stroke-linecap="round" stroke-opacity="0.55" />
  <line x1="118.24" y1="137.75" x2="118.24" y2="145.25" stroke="#999999" stroke-width="1.0" stroke-dasharray="4,3" />
  <line x1="118.24" y1="145.25" x2="3.0" y2="145.25" stroke="#d62828" stroke-width="10.0" stroke-linecap="round" stroke-opacity="0.55" />
  <line x1="3.0" y1="145.25" x2="3.0" y2="152.75" stroke="#999999" stroke-width="1.0" stroke-dasharray="4,3" />
  <line x1="3.0" y1="152.75" x2="118.24" y2="152.75" stroke="#d62828" stroke-width="10.0" stroke-linecap="round" stroke-opacity="0.55" />
  <line x1="118.24" y1="152.75" x2="118.24" y2="160.25" stroke="#999999" stroke-width="1.0" stroke-dasharray="4,3" />
  <line x1="118.24" y1="160.25" x2="3.0" y2="160.25" stroke="#d62828" stroke-width="10.0" stroke-linecap="round" stroke-opacity="0.55" />
  <line x1="3.0" y1="160.25" x2="3.0" y2="167.75" stroke="#999999" stroke-width="1.0" stroke-dasharray="4,3" />
  <line x1="3.0" y1="167.75" x2="118.24" y2="167.75" stroke="#d62828" stroke-width="10.0" stroke-linecap="round" stroke-opacity="0.55" />
  <line x1="118.24" y1="167.75" x2="118.24" y2="175.25" stroke="#999999" stroke-width="1.0" stroke-dasharray="4,3" />
  <line x1="118.24" y1="175.25" x2="3.0" y2="175.25" stroke="#d62828" stroke-width="10.0" stroke-linecap="round" stroke-opacity="0.55" />
  <line x1="3.0" y1="175.25" x2="3.0" y2="182.75" stroke="#999999" stroke-width="1.0" stroke-dasharray="4,3" />
  <line x1="3.0" y1="182.75" x2="118.24" y2="182.75" stroke="#d62828" stroke-width="10.0" stroke-linecap="round" stroke-opacity="0.55" />
  <line x1="118.24" y1="182.75" x2="118.24" y2="190.25" stroke="#999999" stroke-width="1.0" stroke-dasharray="4,3" />
  <line x1="118.24" y1="190.25" x2="3.0" y2="190.25" stroke="#d62828" stroke-width="10.0" stroke-linecap="round" stroke-opacity="0.55" />
  <line x1="3.0" y1="190.25" x2="3.0" y2="197.75" stroke="#999999" stroke-width="1.0" stroke-dasharray="4,3" />
  <line x1="3.0" y1="197.75" x2="118.24" y2="197.75" stroke="#d62828" stroke-width="10.0" stroke-linecap="round" stroke-opacity="0.55" />
  <line x1="118.24" y1="197.75" x2="118.24" y2="205.25" stroke="#999999" stroke-width="1.0" stroke-dasharray="4,3" />
  <line x1="118.24" y1="205.25" x2="3.0" y2="205.25" stroke="#d62828" stroke-width="10.0" stroke-linecap="round" stroke-opacity="0.55" />
  <line x1="3.0" y1="205.25" x2="3.0" y2="212.75" stroke="#999999" stroke-width="1.0" stroke-dasharray="4,3" />
  <line x1="3.0" y1="212.75" x2="118.24" y2="212.75" stroke="#d62828" stroke-width="10.0" stroke-linecap="round" stroke-opacity="0.55" />
  <line x1="118.24" y1="212.75" x2="118.24" y2="219.08" stroke="#999999" stroke-width="1.0" stroke-dasharray="4,3" />
  <line x1="118.24" y1="219.08" x2="3.0" y2="219.08" stroke="#d62828" stroke-width="10.0" stroke-linecap="round" stroke-opacity="0.55" />
  <line x1="3.0" y1="219.08" x2="51.97" y2="235.08" stroke="#999999" stroke-width="1.0" stroke-dasharray="4,3" />
  <line x1="51.97" y1="235.08" x2="118.25" y2="235.08" stroke="#1d4ed8" stroke-width="10.0" stroke-linecap="round" stroke-opacity="0.55" />
  <line x1="118.25" y1="235.08" x2="118.25" y2="242.58" stroke="#999999" stroke-width="1.0" stroke-dasharray="4,3" />
  <line x1="118.25" y1="242.58" x2="51.97" y2="242.58" stroke="#1d4ed8" stroke-width="10.0" stroke-linecap="round" stroke-opacity="0.55" />
  <line x1="51.97" y1="242.58" x2="51.97" y2="250.08" stroke="#999999" stroke-width="1.0" stroke-dasharray="4,3" />
  <line x1="51.97" y1="250.08" x2="118.25" y2="250.08" stroke="#1d4ed8" stroke-width="10.0" stroke-linecap="round" stroke-opacity="0.55" />
  <line x1="118.25" y1="250.08" x2="118.25" y2="257.58" stroke="#999999" stroke-width="1.0" stroke-dasharray="4,3" />
  <line x1="118.25" y1="257.58" x2="51.97" y2="257.58" stroke="#1d4ed8" stroke-width="10.0" stroke-linecap="round" stroke-opacity="0.55" />
  <line x1="51.97" y1="257.58" x2="51.97" y2="265.08" stroke="#999999" stroke-width="1.0" stroke-dasharray="4,3" />
  <line x1="51.97" y1="265.08" x2="118.25" y2="265.08" stroke="#1d4ed8" stroke-width="10.0" stroke-linecap="round" stroke-opacity="0.55" />
  <line x1="118.25" y1="265.08" x2="118.25" y2="272.58" stroke="#999999" stroke-width="1.0" stroke-dasharray="4,3" />
  <line x1="118.25" y1="272.58" x2="51.97" y2="272.58" stroke="#1d4ed8" stroke-width="10.0" stroke-linecap="round" stroke-opacity="0.55" />
  <line x1="51.97" y1="272.58" x2="51.97" y2="280.08" stroke="#999999" stroke-width="1.0" stroke-dasharray="4,3" />
  <line x1="51.97" y1="280.08" x2="118.25" y2="280.08" stroke="#1d4ed8" stroke-width="10.0" stroke-linecap="round" stroke-opacity="0.55" />
  <line x1="118.25" y1="280.08" x2="118.25" y2="287.58" stroke="#999999" stroke-width="1.0" stroke-dasharray="4,3" />
  <line x1="118.25" y1="287.58" x2="51.97" y2="287.58" stroke="#1d4ed8" stroke-width="10.0" stroke-linecap="round" stroke-opacity="0.55" />
  <line x1="51.97" y1="287.58" x2="51.97" y2="295.08" stroke="#999999" stroke-width="1.0" stroke-dasharray="4,3" />
  <line x1="51.97" y1="295.08" x2="118.25" y2="295.08" stroke="#1d4ed8" stroke-width="10.0" stroke-linecap="round" stroke-opacity="0.55" />
  <line x1="118.25" y1="295.08" x2="118.25" y2="296.8" stroke="#999999" stroke-width="1.0" stroke-dasharray="4,3" />
  <line x1="118.25" y1="296.8" x2="51.97" y2="296.8" stroke="#1d4ed8" stroke-width="10.0" stroke-linecap="round" stroke-opacity="0.55" />
  <line x1="51.97" y1="296.8" x2="94.1" y2="0.0" stroke="#999999" stroke-width="1.0" stroke-dasharray="4,3" />
  <line x1="94.1" y1="0.0" x2="94.1" y2="129.75" stroke="black" stroke-width="10.0" stroke-linecap="round" stroke-opacity="0.55" />
  <line x1="94.1" y1="129.75" x2="48.97" y2="227.08" stroke="#999999" stroke-width="1.0" stroke-dasharray="4,3" />
  <line x1="48.97" y1="227.08" x2="48.97" y2="304.8" stroke="black" stroke-width="10.0" stroke-linecap="round" stroke-opacity="0.55" />
  <line x1="48.97" y1="304.8" x2="0.0" y2="227.08" stroke="#999999" stroke-width="1.0" stroke-dasharray="4,3" />
  <line x1="0.0" y1="227.08" x2="121.24" y2="227.08" stroke="black" stroke-width="10.0" stroke-linecap="round" stroke-opacity="0.55" />
  <line x1="121.24" y1="227.08" x2="121.24" y2="129.75" stroke="#999999" stroke-width="1.0" stroke-dasharray="4,3" />
  <line x1="121.24" y1="129.75" x2="121.24" y2="304.8" stroke="black" stroke-width="10.0" stroke-linecap="round" stroke-opacity="0.55" />
  <line x1="121.24" y1="304.8" x2="0.0" y2="129.75" stroke="#999999" stroke-width="1.0" stroke-dasharray="4,3" />
  <line x1="0.0" y1="129.75" x2="304.8" y2="129.75" stroke="black" stroke-width="10.0" stroke-linecap="round" stroke-opacity="0.55" />
  <line x1="304.8" y1="129.75" x2="0.0" y2="0.0" stroke="#999999" stroke-width="1.0" stroke-dasharray="4,3" />
  <line x1="0.0" y1="0.0" x2="304.8" y2="0.0" stroke="black" stroke-width="10.0" stroke-linecap="round" stroke-opacity="0.55" />
  <line x1="304.8" y1="0.0" x2="0.0" y2="304.8" stroke="#999999" stroke-width="1.0" stroke-dasharray="4,3" />
  <line x1="0.0" y1="304.8" x2="304.8" y2="304.8" stroke="black" stroke-width="10.0" stroke-linecap="round" stroke-opacity="0.55" />
  <line x1="304.8" y1="304.8" x2="0.0" y2="0.0" stroke="#999999" stroke-width="1.0" stroke-dasharray="4,3" />
  <line x1="0.0" y1="0.0" x2="0.0" y2="304.8" stroke="black" stroke-width="10.0" stroke-linecap="round" stroke-opacity="0.55" />
  <line x1="0.0" y1="304.8" x2="304.8" y2="0.0" stroke="#999999" stroke-width="1.0" stroke-dasharray="4,3" />
  <line x1="304.8" y1="0.0" x2="304.8" y2="304.8" stroke="black" stroke-width="10.0" stroke-linecap="round" stroke-opacity="0.55" />
</svg>
