<svg
  xmlns="http://www.w3.org/2000/svg"
  width="8.267716535433072in"
  height="11.692913385826772in"
  viewBox="0 0 210.0 297.0"
>
  <rect x="0" y="0" width="210.0" height="297.0" fill="white" />
  <line x1="76.5" y1="85.32" x2="133.97" y2="85.32" stroke="#d62828" stroke-width="4.0" stroke-linecap="round" stroke-opacity="0.85" />
  <line x1="133.97" y1="85.32" x2="130.65" y2="82.47" stroke="#999999" stroke-width="1.0" stroke-dasharray="4,3" />
  <line x1="130.65" y1="82.47" x2="79.83" y2="82.47" stroke="#d62828" stroke-width="4.0" stroke-linecap="round" stroke-opacity="0.85" />
  <line x1="79.83" y1="82.47" x2="83.62" y2="79.15" stroke="#999999" stroke-width="1.0" stroke-dasharray="4,3" />
  <line x1="83.62" y1="79.15" x2="126.85" y2="79.15" stroke="#d62828" stroke-width="4.0" stroke-linecap="round" stroke-opacity="0.85" />
  <line x1="126.85" y1="79.15" x2="123.05" y2="75.82" stroke="#999999" stroke-width="1.0" stroke-dasharray="4,3" />
  <line x1="123.05" y1="75.82" x2="87.42" y2="75.82" stroke="#d62828" stroke-width="4.0" stroke-linecap="round" stroke-opacity="0.85" />
  <line x1="87.42" y1="75.82" x2="91.22" y2="72.5" stroke="#999999" stroke-width="1.0" stroke-dasharray="4,3" />
  <line x1="91.22" y1="72.5" x2="119.25" y2="72.5" stroke="#d62828" stroke-width="4.0" stroke-linecap="round" stroke-opacity="0.85" />
  <line x1="119.25" y1="72.5" x2="115.92" y2="69.65" stroke="#999999" stroke-width="1.0" stroke-dasharray="4,3" />
  <line x1="115.92" y1="69.65" x2="94.55" y2="69.65" stroke="#d62828" stroke-width="4.0" stroke-linecap="round" stroke-opacity="0.85" />
  <line x1="94.55" y1="69.65" x2="98.83" y2="66.32" stroke="#999999" stroke-width="1.0" stroke-dasharray="4,3" />
  <line x1="98.83" y1="66.32" x2="111.65" y2="66.32" stroke="#d62828" stroke-width="4.0" stroke-linecap="round" stroke-opacity="0.85" />
  <line x1="111.65" y1="66.32" x2="107.85" y2="63.0" stroke="#999999" stroke-width="1.0" stroke-dasharray="4,3" />
  <line x1="107.85" y1="63.0" x2="102.62" y2="63.0" stroke="#d62828" stroke-width="4.0" stroke-linecap="round" stroke-opacity="0.85" />
  <line x1="102.62" y1="63.0" x2="72.7" y2="88.65" stroke="#999999" stroke-width="1.0" stroke-dasharray="4,3" />
  <line x1="72.7" y1="88.65" x2="137.77" y2="88.65" stroke="#d62828" stroke-width="4.0" stroke-linecap="round" stroke-opacity="0.85" />
  <line x1="137.77" y1="88.65" x2="142.05" y2="91.97" stroke="#999999" stroke-width="1.0" stroke-dasharray="4,3" />
  <line x1="142.05" y1="91.97" x2="68.42" y2="91.97" stroke="#d62828" stroke-width="4.0" stroke-linecap="round" stroke-opacity="0.85" />
  <line x1="68.42" y1="91.97" x2="64.62" y2="95.3" stroke="#999999" stroke-width="1.0" stroke-dasharray="4,3" />
  <line x1="64.62" y1="95.3" x2="145.85" y2="95.3" stroke="#d62828" stroke-width="4.0" stroke-linecap="round" stroke-opacity="0.85" />
  <line x1="145.85" y1="95.3" x2="149.17" y2="98.15" stroke="#999999" stroke-width="1.0" stroke-dasharray="4,3" />
  <line x1="149.17" y1="98.15" x2="61.3" y2="98.15" stroke="#d62828" stroke-width="4.0" stroke-linecap="round" stroke-opacity="0.85" />
  <line x1="61.3" y1="98.15" x2="57.5" y2="101.47" stroke="#999999" stroke-width="1.0" stroke-dasharray="4,3" />
  <line x1="57.5" y1="101.47" x2="152.97" y2="101.47" stroke="#d62828" stroke-width="4.0" stroke-linecap="round" stroke-opacity="0.85" />
  <line x1="152.97" y1="101.47" x2="156.78" y2="104.8" stroke="#999999" stroke-width="1.0" stroke-dasharray="4,3" />
  <line x1="156.78" y1="104.8" x2="53.7" y2="104.8" stroke="#d62828" stroke-width="4.0" stroke-linecap="round" stroke-opacity="0.85" />
  <line x1="53.7" y1="104.8" x2="49.9" y2="108.12" stroke="#999999" stroke-width="1.0" stroke-dasharray="4,3" />
  <line x1="49.9" y1="108.12" x2="160.57" y2="108.12" stroke="#d62828" stroke-width="4.0" stroke-linecap="round" stroke-opacity="0.85" />
  <line x1="160.57" y1="108.12" x2="163.9" y2="110.97" stroke="#999999" stroke-width="1.0" stroke-dasharray="4,3" />
  <line x1="163.9" y1="110.97" x2="46.57" y2="110.97" stroke="#d62828" stroke-width="4.0" stroke-linecap="round" stroke-opacity="0.85" />
  <line x1="46.57" y1="110.97" x2="44.67" y2="112.4" stroke="#999999" stroke-width="1.0" stroke-dasharray="4,3" />
  <line x1="44.67" y1="112.4" x2="165.8" y2="112.4" stroke="#d62828" stroke-width="4.0" stroke-linecap="round" stroke-opacity="0.85" />
  <line x1="165.8" y1="112.4" x2="44.2" y2="205.03" stroke="#999999" stroke-width="1.0" stroke-dasharray="4,3" />
  <line x1="44.2" y1="205.03" x2="33.27" y2="205.03" stroke="#d62828" stroke-width="4.0" stroke-linecap="round" stroke-opacity="0.85" />
  <line x1="33.27" y1="205.03" x2="31.85" y2="208.35" stroke="#999999" stroke-width="1.0" stroke-dasharray="4,3" />
  <line x1="31.85" y1="208.35" x2="46.57" y2="208.35" stroke="#d62828" stroke-width="4.0" stroke-linecap="round" stroke-opacity="0.85" />
  <line x1="46.57" y1="208.35" x2="46.57" y2="211.67" stroke="#999999" stroke-width="1.0" stroke-dasharray="4,3" />
  <line x1="46.57" y1="211.67" x2="31.85" y2="211.67" stroke="#d62828" stroke-width="4.0" stroke-linecap="round" stroke-opacity="0.85" />
  <line x1="31.85" y1="211.67" x2="32.8" y2="214.52" stroke="#999999" stroke-width="1.0" stroke-dasharray="4,3" />
  <line x1="32.8" y1="214.52" x2="45.15" y2="214.52" stroke="#d62828" stroke-width="4.0" stroke-linecap="round" stroke-opacity="0.85" />
  <line x1="45.15" y1="214.52" x2="43.25" y2="216.42" stroke="#999999" stroke-width="1.0" stroke-dasharray="4,3" />
  <line x1="43.25" y1="216.42" x2="34.22" y2="216.42" stroke="#d62828" stroke-width="4.0" stroke-linecap="round" stroke-opacity="0.85" />
  <line x1="34.22" y1="216.42" x2="162.47" y2="219.27" stroke="#999999" stroke-width="1.0" stroke-dasharray="4,3" />
  <line x1="162.47" y1="219.27" x2="181.95" y2="219.27" stroke="#f1c40f" stroke-width="4.0" stroke-linecap="round" stroke-opacity="0.85" />
  <line x1="181.95" y1="219.27" x2="181.95" y2="222.12" stroke="#999999" stroke-width="1.0" stroke-dasharray="4,3" />
  <line x1="181.95" y1="222.12" x2="162.47" y2="222.12" stroke="#f1c40f" stroke-width="4.0" stroke-linecap="round" stroke-opacity="0.85" />
  <line x1="162.47" y1="222.12" x2="163.9" y2="225.45" stroke="#999999" stroke-width="1.0" stroke-dasharray="4,3" />
  <line x1="163.9" y1="225.45" x2="180.05" y2="225.45" stroke="#f1c40f" stroke-width="4.0" stroke-linecap="round" stroke-opacity="0.85" />
  <line x1="180.05" y1="225.45" x2="176.72" y2="228.3" stroke="#999999" stroke-width="1.0" stroke-dasharray="4,3" />
  <line x1="176.72" y1="228.3" x2="166.75" y2="228.3" stroke="#f1c40f" stroke-width="4.0" stroke-linecap="round" stroke-opacity="0.85" />
  <line x1="166.75" y1="228.3" x2="162.95" y2="215.95" stroke="#999999" stroke-width="1.0" stroke-dasharray="4,3" />
  <line x1="162.95" y1="215.95" x2="181.0" y2="215.95" stroke="#f1c40f" stroke-width="4.0" stroke-linecap="round" stroke-opacity="0.85" />
  <line x1="181.0" y1="215.95" x2="178.62" y2="212.62" stroke="#999999" stroke-width="1.0" stroke-dasharray="4,3" />
  <line x1="178.62" y1="212.62" x2="164.85" y2="212.62" stroke="#f1c40f" stroke-width="4.0" stroke-linecap="round" stroke-opacity="0.85" />
  <line x1="164.85" y1="212.62" x2="169.6" y2="81.05" stroke="#999999" stroke-width="1.0" stroke-dasharray="4,3" />
  <line x1="169.6" y1="81.05" x2="154.88" y2="81.05" stroke="#f1c40f" stroke-width="4.0" stroke-linecap="round" stroke-opacity="0.85" />
  <line x1="154.88" y1="81.05" x2="150.6" y2="78.67" stroke="#999999" stroke-width="1.0" stroke-dasharray="4,3" />
  <line x1="150.6" y1="78.67" x2="173.88" y2="78.67" stroke="#f1c40f" stroke-width="4.0" stroke-linecap="round" stroke-opacity="0.85" />
  <line x1="173.88" y1="78.67" x2="177.2" y2="75.35" stroke="#999999" stroke-width="1.0" stroke-dasharray="4,3" />
  <line x1="177.2" y1="75.35" x2="147.28" y2="75.35" stroke="#f1c40f" stroke-width="4.0" stroke-linecap="round" stroke-opacity="0.85" />
  <line x1="147.28" y1="75.35" x2="145.38" y2="72.03" stroke="#999999" stroke-width="1.0" stroke-dasharray="4,3" />
  <line x1="145.38" y1="72.03" x2="179.57" y2="72.03" stroke="#f1c40f" stroke-width="4.0" stroke-linecap="round" stroke-opacity="0.85" />
  <line x1="179.57" y1="72.03" x2="181.0" y2="68.7" stroke="#999999" stroke-width="1.0" stroke-dasharray="4,3" />
  <line x1="181.0" y1="68.7" x2="143.95" y2="68.7" stroke="#f1c40f" stroke-width="4.0" stroke-linecap="round" stroke-opacity="0.85" />
  <line x1="143.95" y1="68.7" x2="143.47" y2="65.85" stroke="#999999" stroke-width="1.0" stroke-dasharray="4,3" />
  <line x1="143.47" y1="65.85" x2="181.95" y2="65.85" stroke="#f1c40f" stroke-width="4.0" stroke-linecap="round" stroke-opacity="0.85" />
  <line x1="181.95" y1="65.85" x2="181.95" y2="62.52" stroke="#999999" stroke-width="1.0" stroke-dasharray="4,3" />
  <line x1="181.95" y1="62.52" x2="143.47" y2="62.52" stroke="#f1c40f" stroke-width="4.0" stroke-linecap="round" stroke-opacity="0.85" />
  <line x1="143.47" y1="62.52" x2="143.47" y2="59.2" stroke="#999999" stroke-width="1.0" stroke-dasharray="4,3" />
  <line x1="143.47" y1="59.2" x2="181.47" y2="59.2" stroke="#f1c40f" stroke-width="4.0" stroke-linecap="round" stroke-opacity="0.85" />
  <line x1="181.47" y1="59.2" x2="180.53" y2="55.88" stroke="#999999" stroke-width="1.0" stroke-dasharray="4,3" />
  <line x1="180.53" y1="55.88" x2="144.42" y2="55.88" stroke="#f1c40f" stroke-width="4.0" stroke-linecap="round" stroke-opacity="0.85" />
  <line x1="144.42" y1="55.88" x2="145.85" y2="53.02" stroke="#999999" stroke-width="1.0" stroke-dasharray="4,3" />
  <line x1="145.85" y1="53.02" x2="179.1" y2="53.02" stroke="#f1c40f" stroke-width="4.0" stroke-linecap="round" stroke-opacity="0.85" />
  <line x1="179.1" y1="53.02" x2="176.25" y2="49.7" stroke="#999999" stroke-width="1.0" stroke-dasharray="4,3" />
  <line x1="176.25" y1="49.7" x2="148.22" y2="49.7" stroke="#f1c40f" stroke-width="4.0" stroke-linecap="round" stroke-opacity="0.85" />
  <line x1="148.22" y1="49.7" x2="152.03" y2="46.38" stroke="#999999" stroke-width="1.0" stroke-dasharray="4,3" />
  <line x1="152.03" y1="46.38" x2="172.45" y2="46.38" stroke="#f1c40f" stroke-width="4.0" stroke-linecap="round" stroke-opacity="0.85" />
  <line x1="172.45" y1="46.38" x2="156.3" y2="119.52" stroke="#999999" stroke-width="1.0" stroke-dasharray="4,3" />
  <line x1="156.3" y1="119.52" x2="55.12" y2="119.52" stroke="#1d3557" stroke-width="4.0" stroke-linecap="round" stroke-opacity="0.85" />
  <line x1="55.12" y1="119.52" x2="55.12" y2="122.85" stroke="#999999" stroke-width="1.0" stroke-dasharray="4,3" />
  <line x1="55.12" y1="122.85" x2="156.3" y2="122.85" stroke="#1d3557" stroke-width="4.0" stroke-linecap="round" stroke-opacity="0.85" />
  <line x1="156.3" y1="122.85" x2="156.3" y2="126.17" stroke="#999999" stroke-width="1.0" stroke-dasharray="4,3" />
  <line x1="156.3" y1="126.17" x2="55.12" y2="126.17" stroke="#1d3557" stroke-width="4.0" stroke-linecap="round" stroke-opacity="0.85" />
  <line x1="55.12" y1="126.17" x2="55.12" y2="129.02" stroke="#999999" stroke-width="1.0" stroke-dasharray="4,3" />
  <line x1="55.12" y1="129.02" x2="156.3" y2="129.02" stroke="#1d3557" stroke-width="4.0" stroke-linecap="round" stroke-opacity="0.85" />
  <line x1="156.3" y1="129.02" x2="156.3" y2="132.35" stroke="#999999" stroke-width="1.0" stroke-dasharray="4,3" />
  <line x1="156.3" y1="132.35" x2="55.12" y2="132.35" stroke="#1d3557" stroke-width="4.0" stroke-linecap="round" stroke-opacity="0.85" />
  <line x1="55.12" y1="132.35" x2="55.12" y2="135.68" stroke="#999999" stroke-width="1.0" stroke-dasharray="4,3" />
  <line x1="55.12" y1="135.68" x2="156.3" y2="135.68" stroke="#1d3557" stroke-width="4.0" stroke-linecap="round" stroke-opacity="0.85" />
  <line x1="156.3" y1="135.68" x2="156.3" y2="139.0" stroke="#999999" stroke-width="1.0" stroke-dasharray="4,3" />
  <line x1="156.3" y1="139.0" x2="55.12" y2="139.0" stroke="#1d3557" stroke-width="4.0" stroke-linecap="round" stroke-opacity="0.85" />
  <line x1="55.12" y1="139.0" x2="55.12" y2="141.85" stroke="#999999" stroke-width="1.0" stroke-dasharray="4,3" />
  <line x1="55.12" y1="141.85" x2="156.3" y2="141.85" stroke="#1d3557" stroke-width="4.0" stroke-linecap="round" stroke-opacity="0.85" />
  <line x1="156.3" y1="141.85" x2="156.3" y2="145.18" stroke="#999999" stroke-width="1.0" stroke-dasharray="4,3" />
  <line x1="156.3" y1="145.18" x2="55.12" y2="145.18" stroke="#1d3557" stroke-width="4.0" stroke-linecap="round" stroke-opacity="0.85" />
  <line x1="55.12" y1="145.18" x2="55.12" y2="148.5" stroke="#999999" stroke-width="1.0" stroke-dasharray="4,3" />
  <line x1="55.12" y1="148.5" x2="90.27" y2="148.5" stroke="#1d3557" stroke-width="4.0" stroke-linecap="round" stroke-opacity="0.85" />
  <line x1="90.27" y1="148.5" x2="89.8" y2="151.82" stroke="#999999" stroke-width="1.0" stroke-dasharray="4,3" />
  <line x1="89.8" y1="151.82" x2="55.12" y2="151.82" stroke="#1d3557" stroke-width="4.0" stroke-linecap="round" stroke-opacity="0.85" />
  <line x1="55.12" y1="151.82" x2="55.12" y2="154.68" stroke="#999999" stroke-width="1.0" stroke-dasharray="4,3" />
  <line x1="55.12" y1="154.68" x2="89.8" y2="154.68" stroke="#1d3557" stroke-width="4.0" stroke-linecap="round" stroke-opacity="0.85" />
  <line x1="89.8" y1="154.68" x2="89.8" y2="158.0" stroke="#999999" stroke-width="1.0" stroke-dasharray="4,3" />
  <line x1="89.8" y1="158.0" x2="55.12" y2="158.0" stroke="#1d3557" stroke-width="4.0" stroke-linecap="round" stroke-opacity="0.85" />
  <line x1="55.12" y1="158.0" x2="55.12" y2="161.32" stroke="#999999" stroke-width="1.0" stroke-dasharray="4,3" />
  <line x1="55.12" y1="161.32" x2="89.8" y2="161.32" stroke="#1d3557" stroke-width="4.0" stroke-linecap="round" stroke-opacity="0.85" />
  <line x1="89.8" y1="161.32" x2="89.8" y2="164.65" stroke="#999999" stroke-width="1.0" stroke-dasharray="4,3" />
  <line x1="89.8" y1="164.65" x2="55.12" y2="164.65" stroke="#1d3557" stroke-width="4.0" stroke-linecap="round" stroke-opacity="0.85" />
  <line x1="55.12" y1="164.65" x2="55.12" y2="167.5" stroke="#999999" stroke-width="1.0" stroke-dasharray="4,3" />
  <line x1="55.12" y1="167.5" x2="89.8" y2="167.5" stroke="#1d3557" stroke-width="4.0" stroke-linecap="round" stroke-opacity="0.85" />
  <line x1="89.8" y1="167.5" x2="89.8" y2="170.82" stroke="#999999" stroke-width="1.0" stroke-dasharray="4,3" />
  <line x1="89.8" y1="170.82" x2="55.12" y2="170.82" stroke="#1d3557" stroke-width="4.0" stroke-linecap="round" stroke-opacity="0.85" />
  <line x1="55.12" y1="170.82" x2="55.12" y2="174.15" stroke="#999999" stroke-width="1.0" stroke-dasharray="4,3" />
  <line x1="55.12" y1="174.15" x2="89.8" y2="174.15" stroke="#1d3557" stroke-width="4.0" stroke-linecap="round" stroke-opacity="0.85" />
  <line x1="89.8" y1="174.15" x2="89.8" y2="177.0" stroke="#999999" stroke-width="1.0" stroke-dasharray="4,3" />
  <line x1="89.8" y1="177.0" x2="55.12" y2="177.0" stroke="#1d3557" stroke-width="4.0" stroke-linecap="round" stroke-opacity="0.85" />
  <line x1="55.12" y1="177.0" x2="55.12" y2="180.32" stroke="#999999" stroke-width="1.0" stroke-dasharray="4,3" />
  <line x1="55.12" y1="180.32" x2="89.8" y2="180.32" stroke="#1d3557" stroke-width="4.0" stroke-linecap="round" stroke-opacity="0.85" />
  <line x1="89.8" y1="180.32" x2="89.8" y2="183.65" stroke="#999999" stroke-width="1.0" stroke-dasharray="4,3" />
  <line x1="89.8" y1="183.65" x2="55.12" y2="183.65" stroke="#1d3557" stroke-width="4.0" stroke-linecap="round" stroke-opacity="0.85" />
  <line x1="55.12" y1="183.65" x2="55.12" y2="186.97" stroke="#999999" stroke-width="1.0" stroke-dasharray="4,3" />
  <line x1="55.12" y1="186.97" x2="89.8" y2="186.97" stroke="#1d3557" stroke-width="4.0" stroke-linecap="round" stroke-opacity="0.85" />
  <line x1="89.8" y1="186.97" x2="89.8" y2="188.4" stroke="#999999" stroke-width="1.0" stroke-dasharray="4,3" />
  <line x1="89.8" y1="188.4" x2="55.12" y2="188.4" stroke="#1d3557" stroke-width="4.0" stroke-linecap="round" stroke-opacity="0.85" />
  <line x1="55.12" y1="188.4" x2="121.62" y2="188.4" stroke="#999999" stroke-width="1.0" stroke-dasharray="4,3" />
  <line x1="121.62" y1="188.4" x2="156.3" y2="188.4" stroke="#1d3557" stroke-width="4.0" stroke-linecap="round" stroke-opacity="0.85" />
  <line x1="156.3" y1="188.4" x2="156.3" y2="186.97" stroke="#999999" stroke-width="1.0" stroke-dasharray="4,3" />
  <line x1="156.3" y1="186.97" x2="121.62" y2="186.97" stroke="#1d3557" stroke-width="4.0" stroke-linecap="round" stroke-opacity="0.85" />
  <line x1="121.62" y1="186.97" x2="121.62" y2="183.65" stroke="#999999" stroke-width="1.0" stroke-dasharray="4,3" />
  <line x1="121.62" y1="183.65" x2="156.3" y2="183.65" stroke="#1d3557" stroke-width="4.0" stroke-linecap="round" stroke-opacity="0.85" />
  <line x1="156.3" y1="183.65" x2="156.3" y2="180.32" stroke="#999999" stroke-width="1.0" stroke-dasharray="4,3" />
  <line x1="156.3" y1="180.32" x2="121.62" y2="180.32" stroke="#1d3557" stroke-width="4.0" stroke-linecap="round" stroke-opacity="0.85" />
  <line x1="121.62" y1="180.32" x2="121.62" y2="177.0" stroke="#999999" stroke-width="1.0" stroke-dasharray="4,3" />
  <line x1="121.62" y1="177.0" x2="156.3" y2="177.0" stroke="#1d3557" stroke-width="4.0" stroke-linecap="round" stroke-opacity="0.85" />
  <line x1="156.3" y1="177.0" x2="156.3" y2="174.15" stroke="#999999" stroke-width="1.0" stroke-dasharray="4,3" />
  <line x1="156.3" y1="174.15" x2="121.62" y2="174.15" stroke="#1d3557" stroke-width="4.0" stroke-linecap="round" stroke-opacity="0.85" />
  <line x1="121.62" y1="174.15" x2="121.62" y2="170.82" stroke="#999999" stroke-width="1.0" stroke-dasharray="4,3" />
  <line x1="121.62" y1="170.82" x2="156.3" y2="170.82" stroke="#1d3557" stroke-width="4.0" stroke-linecap="round" stroke-opacity="0.85" />
  <line x1="156.3" y1="170.82" x2="156.3" y2="167.5" stroke="#999999" stroke-width="1.0" stroke-dasharray="4,3" />
  <line x1="156.3" y1="167.5" x2="121.62" y2="167.5" stroke="#1d3557" stroke-width="4.0" stroke-linecap="round" stroke-opacity="0.85" />
  <line x1="121.62" y1="167.5" x2="121.62" y2="164.65" stroke="#999999" stroke-width="1.0" stroke-dasharray="4,3" />
  <line x1="121.62" y1="164.65" x2="156.3" y2="164.65" stroke="#1d3557" stroke-width="4.0" stroke-linecap="round" stroke-opacity="0.85" />
  <line x1="156.3" y1="164.65" x2="156.3" y2="161.32" stroke="#999999" stroke-width="1.0" stroke-dasharray="4,3" />
  <line x1="156.3" y1="161.32" x2="121.62" y2="161.32" stroke="#1d3557" stroke-width="4.0" stroke-linecap="round" stroke-opacity="0.85" />
  <line x1="121.62" y1="161.32" x2="121.62" y2="158.0" stroke="#999999" stroke-width="1.0" stroke-dasharray="4,3" />
  <line x1="121.62" y1="158.0" x2="156.3" y2="158.0" stroke="#1d3557" stroke-width="4.0" stroke-linecap="round" stroke-opacity="0.85" />
  <line x1="156.3" y1="158.0" x2="156.3" y2="154.68" stroke="#999999" stroke-width="1.0" stroke-dasharray="4,3" />
  <line x1="156.3" y1="154.68" x2="121.62" y2="154.68" stroke="#1d3557" stroke-width="4.0" stroke-linecap="round" stroke-opacity="0.85" />
  <line x1="121.62" y1="154.68" x2="121.62" y2="151.82" stroke="#999999" stroke-width="1.0" stroke-dasharray="4,3" />
  <line x1="121.62" y1="151.82" x2="156.3" y2="151.82" stroke="#1d3557" stroke-width="4.0" stroke-linecap="round" stroke-opacity="0.85" />
  <line x1="156.3" y1="151.82" x2="156.3" y2="148.5" stroke="#999999" stroke-width="1.0" stroke-dasharray="4,3" />
  <line x1="156.3" y1="148.5" x2="121.15" y2="148.5" stroke="#1d3557" stroke-width="4.0" stroke-linecap="round" stroke-opacity="0.85" />
  <line x1="121.15" y1="148.5" x2="92.17" y2="149.45" stroke="#999999" stroke-width="1.0" stroke-dasharray="4,3" />
  <line x1="92.17" y1="149.45" x2="91.7" y2="189.82" stroke="#000000" stroke-width="4.0" stroke-linecap="round" stroke-opacity="0.85" />
  <line x1="91.7" y1="189.82" x2="118.77" y2="190.3" stroke="#000000" stroke-width="4.0" stroke-linecap="round" stroke-opacity="0.85" />
  <line x1="118.77" y1="190.3" x2="119.25" y2="149.93" stroke="#000000" stroke-width="4.0" stroke-linecap="round" stroke-opacity="0.85" />
  <line x1="119.25" y1="149.93" x2="92.17" y2="149.45" stroke="#000000" stroke-width="4.0" stroke-linecap="round" stroke-opacity="0.85" />
  <line x1="92.17" y1="149.45" x2="53.23" y2="116.2" stroke="#999999" stroke-width="1.0" stroke-dasharray="4,3" />
  <line x1="53.23" y1="116.2" x2="53.7" y2="191.25" stroke="#000000" stroke-width="4.0" stroke-linecap="round" stroke-opacity="0.85" />
  <line x1="53.7" y1="191.25" x2="92.65" y2="191.25" stroke="#000000" stroke-width="4.0" stroke-linecap="round" stroke-opacity="0.85" />
  <line x1="92.65" y1="191.25" x2="91.7" y2="148.97" stroke="#000000" stroke-width="4.0" stroke-linecap="round" stroke-opacity="0.85" />
  <line x1="91.7" y1="148.97" x2="119.72" y2="149.93" stroke="#000000" stroke-width="4.0" stroke-linecap="round" stroke-opacity="0.85" />
  <line x1="119.72" y1="149.93" x2="117.82" y2="191.72" stroke="#000000" stroke-width="4.0" stroke-linecap="round" stroke-opacity="0.85" />
  <line x1="117.82" y1="191.72" x2="157.72" y2="190.3" stroke="#000000" stroke-width="4.0" stroke-linecap="round" stroke-opacity="0.85" />
  <line x1="157.72" y1="190.3" x2="157.25" y2="115.72" stroke="#000000" stroke-width="4.0" stroke-linecap="round" stroke-opacity="0.85" />
  <line x1="157.25" y1="115.72" x2="53.23" y2="116.2" stroke="#000000" stroke-width="4.0" stroke-linecap="round" stroke-opacity="0.85" />
  <line x1="53.23" y1="116.2" x2="39.45" y2="114.3" stroke="#999999" stroke-width="1.0" stroke-dasharray="4,3" />
  <line x1="39.45" y1="114.3" x2="171.03" y2="114.77" stroke="#000000" stroke-width="4.0" stroke-linecap="round" stroke-opacity="0.85" />
  <line x1="171.03" y1="114.77" x2="105.95" y2="59.2" stroke="#000000" stroke-width="4.0" stroke-linecap="round" stroke-opacity="0.85" />
  <line x1="105.95" y1="59.2" x2="39.45" y2="114.3" stroke="#000000" stroke-width="4.0" stroke-linecap="round" stroke-opacity="0.85" />
  <line x1="39.45" y1="114.3" x2="103.57" y2="58.72" stroke="#999999" stroke-width="1.0" stroke-dasharray="4,3" />
  <line x1="103.57" y1="58.72" x2="171.5" y2="114.77" stroke="#000000" stroke-width="4.0" stroke-linecap="round" stroke-opacity="0.85" />
  <line x1="171.5" y1="114.77" x2="158.2" y2="116.67" stroke="#000000" stroke-width="4.0" stroke-linecap="round" stroke-opacity="0.85" />
  <line x1="158.2" y1="116.67" x2="156.78" y2="191.72" stroke="#000000" stroke-width="4.0" stroke-linecap="round" stroke-opacity="0.85" />
  <line x1="156.78" y1="191.72" x2="52.75" y2="191.25" stroke="#000000" stroke-width="4.0" stroke-linecap="round" stroke-opacity="0.85" />
  <line x1="52.75" y1="191.25" x2="52.75" y2="116.67" stroke="#000000" stroke-width="4.0" stroke-linecap="round" stroke-opacity="0.85" />
  <line x1="52.75" y1="116.67" x2="38.97" y2="114.3" stroke="#000000" stroke-width="4.0" stroke-linecap="round" stroke-opacity="0.85" />
  <line x1="38.97" y1="114.3" x2="103.57" y2="58.72" stroke="#000000" stroke-width="4.0" stroke-linecap="round" stroke-opacity="0.85" />
  <line x1="103.57" y1="58.72" x2="156.3" y2="42.58" stroke="#999999" stroke-width="1.0" stroke-dasharray="4,3" />
  <line x1="156.3" y1="42.58" x2="144.42" y2="51.12" stroke="#000000" stroke-width="4.0" stroke-linecap="round" stroke-opacity="0.85" />
  <line x1="144.42" y1="51.12" x2="141.57" y2="67.75" stroke="#000000" stroke-width="4.0" stroke-linecap="round" stroke-opacity="0.85" />
  <line x1="141.57" y1="67.75" x2="149.17" y2="80.1" stroke="#000000" stroke-width="4.0" stroke-linecap="round" stroke-opacity="0.85" />
  <line x1="149.17" y1="80.1" x2="164.85" y2="84.38" stroke="#000000" stroke-width="4.0" stroke-linecap="round" stroke-opacity="0.85" />
  <line x1="164.85" y1="84.38" x2="173.4" y2="81.05" stroke="#000000" stroke-width="4.0" stroke-linecap="round" stroke-opacity="0.85" />
  <line x1="173.4" y1="81.05" x2="180.05" y2="74.88" stroke="#000000" stroke-width="4.0" stroke-linecap="round" stroke-opacity="0.85" />
  <line x1="180.05" y1="74.88" x2="183.38" y2="59.2" stroke="#000000" stroke-width="4.0" stroke-linecap="round" stroke-opacity="0.85" />
  <line x1="183.38" y1="59.2" x2="179.57" y2="50.65" stroke="#000000" stroke-width="4.0" stroke-linecap="round" stroke-opacity="0.85" />
  <line x1="179.57" y1="50.65" x2="173.4" y2="44.95" stroke="#000000" stroke-width="4.0" stroke-linecap="round" stroke-opacity="0.85" />
  <line x1="173.4" y1="44.95" x2="156.3" y2="42.58" stroke="#000000" stroke-width="4.0" stroke-linecap="round" stroke-opacity="0.85" />
  <line x1="156.3" y1="42.58" x2="156.3" y2="42.1" stroke="#999999" stroke-width="1.0" stroke-dasharray="4,3" />
  <line x1="156.3" y1="42.1" x2="173.4" y2="44.48" stroke="#000000" stroke-width="4.0" stroke-linecap="round" stroke-opacity="0.85" />
  <line x1="173.4" y1="44.48" x2="180.05" y2="50.65" stroke="#000000" stroke-width="4.0" stroke-linecap="round" stroke-opacity="0.85" />
  <line x1="180.05" y1="50.65" x2="183.85" y2="59.2" stroke="#000000" stroke-width="4.0" stroke-linecap="round" stroke-opacity="0.85" />
  <line x1="183.85" y1="59.2" x2="180.53" y2="74.88" stroke="#000000" stroke-width="4.0" stroke-linecap="round" stroke-opacity="0.85" />
  <line x1="180.53" y1="74.88" x2="173.4" y2="81.53" stroke="#000000" stroke-width="4.0" stroke-linecap="round" stroke-opacity="0.85" />
  <line x1="173.4" y1="81.53" x2="164.85" y2="84.85" stroke="#000000" stroke-width="4.0" stroke-linecap="round" stroke-opacity="0.85" />
  <line x1="164.85" y1="84.85" x2="149.17" y2="80.57" stroke="#000000" stroke-width="4.0" stroke-linecap="round" stroke-opacity="0.85" />
  <line x1="149.17" y1="80.57" x2="141.1" y2="67.75" stroke="#000000" stroke-width="4.0" stroke-linecap="round" stroke-opacity="0.85" />
  <line x1="141.1" y1="67.75" x2="143.95" y2="51.12" stroke="#000000" stroke-width="4.0" stroke-linecap="round" stroke-opacity="0.85" />
  <line x1="143.95" y1="51.12" x2="156.3" y2="42.1" stroke="#000000" stroke-width="4.0" stroke-linecap="round" stroke-opacity="0.85" />
  <line x1="156.3" y1="42.1" x2="10.0" y2="29.75" stroke="#999999" stroke-width="1.0" stroke-dasharray="4,3" />
  <line x1="10.0" y1="29.75" x2="10.0" y2="266.77" stroke="#000000" stroke-width="4.0" stroke-linecap="round" stroke-opacity="0.85" />
  <line x1="10.0" y1="266.77" x2="199.52" y2="266.77" stroke="#000000" stroke-width="4.0" stroke-linecap="round" stroke-opacity="0.85" />
  <line x1="199.52" y1="266.77" x2="199.52" y2="29.75" stroke="#000000" stroke-width="4.0" stroke-linecap="round" stroke-opacity="0.85" />
  <line x1="199.52" y1="29.75" x2="10.0" y2="29.75" stroke="#000000" stroke-width="4.0" stroke-linecap="round" stroke-opacity="0.85" />
  <line x1="10.0" y1="29.75" x2="34.7" y2="201.22" stroke="#999999" stroke-width="1.0" stroke-dasharray="4,3" />
  <line x1="34.7" y1="201.22" x2="42.3" y2="201.22" stroke="#000000" stroke-width="4.0" stroke-linecap="round" stroke-opacity="0.85" />
  <line x1="42.3" y1="201.22" x2="47.05" y2="205.03" stroke="#000000" stroke-width="4.0" stroke-linecap="round" stroke-opacity="0.85" />
  <line x1="47.05" y1="205.03" x2="48.48" y2="207.88" stroke="#000000" stroke-width="4.0" stroke-linecap="round" stroke-opacity="0.85" />
  <line x1="48.48" y1="207.88" x2="48.48" y2="213.1" stroke="#000000" stroke-width="4.0" stroke-linecap="round" stroke-opacity="0.85" />
  <line x1="48.48" y1="213.1" x2="44.2" y2="218.32" stroke="#000000" stroke-width="4.0" stroke-linecap="round" stroke-opacity="0.85" />
  <line x1="44.2" y1="218.32" x2="39.92" y2="220.22" stroke="#000000" stroke-width="4.0" stroke-linecap="round" stroke-opacity="0.85" />
  <line x1="39.92" y1="220.22" x2="32.8" y2="218.32" stroke="#000000" stroke-width="4.0" stroke-linecap="round" stroke-opacity="0.85" />
  <line x1="32.8" y1="218.32" x2="29.47" y2="213.57" stroke="#000000" stroke-width="4.0" stroke-linecap="round" stroke-opacity="0.85" />
  <line x1="29.47" y1="213.57" x2="29.47" y2="206.92" stroke="#000000" stroke-width="4.0" stroke-linecap="round" stroke-opacity="0.85" />
  <line x1="29.47" y1="206.92" x2="30.9" y2="204.07" stroke="#000000" stroke-width="4.0" stroke-linecap="round" stroke-opacity="0.85" />
  <line x1="30.9" y1="204.07" x2="34.7" y2="201.22" stroke="#000000" stroke-width="4.0" stroke-linecap="round" stroke-opacity="0.85" />
  <line x1="34.7" y1="201.22" x2="34.7" y2="201.7" stroke="#999999" stroke-width="1.0" stroke-dasharray="4,3" />
  <line x1="34.7" y1="201.7" x2="31.38" y2="204.07" stroke="#000000" stroke-width="4.0" stroke-linecap="round" stroke-opacity="0.85" />
  <line x1="31.38" y1="204.07" x2="29.95" y2="206.92" stroke="#000000" stroke-width="4.0" stroke-linecap="round" stroke-opacity="0.85" />
  <line x1="29.95" y1="206.92" x2="29.95" y2="213.57" stroke="#000000" stroke-width="4.0" stroke-linecap="round" stroke-opacity="0.85" />
  <line x1="29.95" y1="213.57" x2="32.8" y2="217.85" stroke="#000000" stroke-width="4.0" stroke-linecap="round" stroke-opacity="0.85" />
  <line x1="32.8" y1="217.85" x2="39.92" y2="219.75" stroke="#000000" stroke-width="4.0" stroke-linecap="round" stroke-opacity="0.85" />
  <line x1="39.92" y1="219.75" x2="46.57" y2="215.47" stroke="#000000" stroke-width="4.0" stroke-linecap="round" stroke-opacity="0.85" />
  <line x1="46.57" y1="215.47" x2="48.0" y2="212.62" stroke="#000000" stroke-width="4.0" stroke-linecap="round" stroke-opacity="0.85" />
  <line x1="48.0" y1="212.62" x2="48.0" y2="207.88" stroke="#000000" stroke-width="4.0" stroke-linecap="round" stroke-opacity="0.85" />
  <line x1="48.0" y1="207.88" x2="46.57" y2="205.03" stroke="#000000" stroke-width="4.0" stroke-linecap="round" stroke-opacity="0.85" />
  <line x1="46.57" y1="205.03" x2="42.3" y2="201.7" stroke="#000000" stroke-width="4.0" stroke-linecap="round" stroke-opacity="0.85" />
  <line x1="42.3" y1="201.7" x2="34.7" y2="201.7" stroke="#000000" stroke-width="4.0" stroke-linecap="round" stroke-opacity="0.85" />
  <line x1="34.7" y1="201.7" x2="167.22" y2="208.35" stroke="#999999" stroke-width="1.0" stroke-dasharray="4,3" />
  <line x1="167.22" y1="208.35" x2="175.78" y2="208.35" stroke="#000000" stroke-width="4.0" stroke-linecap="round" stroke-opacity="0.85" />
  <line x1="175.78" y1="208.35" x2="178.62" y2="209.78" stroke="#000000" stroke-width="4.0" stroke-linecap="round" stroke-opacity="0.85" />
  <line x1="178.62" y1="209.78" x2="183.85" y2="216.9" stroke="#000000" stroke-width="4.0" stroke-linecap="round" stroke-opacity="0.85" />
  <line x1="183.85" y1="216.9" x2="183.85" y2="222.6" stroke="#000000" stroke-width="4.0" stroke-linecap="round" stroke-opacity="0.85" />
  <line x1="183.85" y1="222.6" x2="181.95" y2="226.4" stroke="#000000" stroke-width="4.0" stroke-linecap="round" stroke-opacity="0.85" />
  <line x1="181.95" y1="226.4" x2="173.4" y2="232.1" stroke="#000000" stroke-width="4.0" stroke-linecap="round" stroke-opacity="0.85" />
  <line x1="173.4" y1="232.1" x2="169.6" y2="232.1" stroke="#000000" stroke-width="4.0" stroke-linecap="round" stroke-opacity="0.85" />
  <line x1="169.6" y1="232.1" x2="164.38" y2="229.72" stroke="#000000" stroke-width="4.0" stroke-linecap="round" stroke-opacity="0.85" />
  <line x1="164.38" y1="229.72" x2="160.1" y2="223.55" stroke="#000000" stroke-width="4.0" stroke-linecap="round" stroke-opacity="0.85" />
  <line x1="160.1" y1="223.55" x2="160.1" y2="215.95" stroke="#000000" stroke-width="4.0" stroke-linecap="round" stroke-opacity="0.85" />
  <line x1="160.1" y1="215.95" x2="162.0" y2="212.15" stroke="#000000" stroke-width="4.0" stroke-linecap="round" stroke-opacity="0.85" />
  <line x1="162.0" y1="212.15" x2="167.22" y2="208.35" stroke="#000000" stroke-width="4.0" stroke-linecap="round" stroke-opacity="0.85" />
  <line x1="167.22" y1="208.35" x2="167.22" y2="208.82" stroke="#999999" stroke-width="1.0" stroke-dasharray="4,3" />
  <line x1="167.22" y1="208.82" x2="162.47" y2="212.15" stroke="#000000" stroke-width="4.0" stroke-linecap="round" stroke-opacity="0.85" />
  <line x1="162.47" y1="212.15" x2="160.57" y2="215.95" stroke="#000000" stroke-width="4.0" stroke-linecap="round" stroke-opacity="0.85" />
  <line x1="160.57" y1="215.95" x2="160.57" y2="223.55" stroke="#000000" stroke-width="4.0" stroke-linecap="round" stroke-opacity="0.85" />
  <line x1="160.57" y1="223.55" x2="164.38" y2="229.25" stroke="#000000" stroke-width="4.0" stroke-linecap="round" stroke-opacity="0.85" />
  <line x1="164.38" y1="229.25" x2="169.6" y2="231.62" stroke="#000000" stroke-width="4.0" stroke-linecap="round" stroke-opacity="0.85" />
  <line x1="169.6" y1="231.62" x2="173.4" y2="231.62" stroke="#000000" stroke-width="4.0" stroke-linecap="round" stroke-opacity="0.85" />
  <line x1="173.4" y1="231.62" x2="181.47" y2="226.4" stroke="#000000" stroke-width="4.0" stroke-linecap="round" stroke-opacity="0.85" />
  <line x1="181.47" y1="226.4" x2="183.38" y2="222.6" stroke="#000000" stroke-width="4.0" stroke-linecap="round" stroke-opacity="0.85" />
  <line x1="183.38" y1="222.6" x2="183.38" y2="216.9" stroke="#000000" stroke-width="4.0" stroke-linecap="round" stroke-opacity="0.85" />
  <line x1="183.38" y1="216.9" x2="178.62" y2="210.25" stroke="#000000" stroke-width="4.0" stroke-linecap="round" stroke-opacity="0.85" />
  <line x1="178.62" y1="210.25" x2="175.78" y2="208.82" stroke="#000000" stroke-width="4.0" stroke-linecap="round" stroke-opacity="0.85" />
  <line x1="175.78" y1="208.82" x2="167.22" y2="208.82" stroke="#000000" stroke-width="4.0" stroke-linecap="round" stroke-opacity="0.85" />
</svg>
