ISO-10303-21;
HEADER;
FILE_DESCRIPTION (( 'STEP AP203' ),
    '1' );
FILE_NAME ('Easel Triangle.STEP',
    '2026-07-24T02:35:00',
    ( '' ),
    ( '' ),
    'SwSTEP 2.0',
    'SolidWorks 2025',
    '' );
FILE_SCHEMA (( 'CONFIG_CONTROL_DESIGN' ));
ENDSEC;

DATA;
#1 = VERTEX_POINT ( 'NONE', #228 ) ;
#2 = FACE_OUTER_BOUND ( 'NONE', #980, .T. ) ;
#3 = LINE ( 'NONE', #317, #529 ) ;
#4 = DIRECTION ( 'NONE',  ( -1.000000000000000000, -0.000000000000000000, -0.000000000000000000 ) ) ;
#5 = ADVANCED_FACE ( 'NONE', ( #1203 ), #880, .T. ) ;
#6 = EDGE_LOOP ( 'NONE', ( #1094, #385, #107, #664 ) ) ;
#7 = ORIENTED_EDGE ( 'NONE', *, *, #1152, .T. ) ;
#8 = DIRECTION ( 'NONE',  ( -0.000000000000000000, -1.000000000000000000, -0.000000000000000000 ) ) ;
#9 = ADVANCED_FACE ( 'NONE', ( #1090 ), #120, .T. ) ;
#10 = DIRECTION ( 'NONE',  ( 0.000000000000000000, 0.000000000000000000, 1.000000000000000000 ) ) ;
#11 = DIRECTION ( 'NONE',  ( 1.000000000000000000, 0.000000000000000000, 0.000000000000000000 ) ) ;
#12 = AXIS2_PLACEMENT_3D ( 'NONE', #1332, #695, #793 ) ;
#13 = ADVANCED_FACE ( 'NONE', ( #1397 ), #1197, .T. ) ;
#14 = AXIS2_PLACEMENT_3D ( 'NONE', #91, #957, #206 ) ;
#15 = ORIENTED_EDGE ( 'NONE', *, *, #1062, .T. ) ;
#16 = CC_DESIGN_APPROVAL ( #528, ( #238 ) ) ;
#17 = ORIENTED_EDGE ( 'NONE', *, *, #1113, .F. ) ;
#18 = LINE ( 'NONE', #984, #462 ) ;
#19 = VECTOR ( 'NONE', #1361, 1000.000000000000000 ) ;
#20 = LINE ( 'NONE', #132, #1145 ) ;
#21 = ORIENTED_EDGE ( 'NONE', *, *, #1037, .F. ) ;
#22 = EDGE_LOOP ( 'NONE', ( #493, #775, #1313, #809 ) ) ;
#23 = ADVANCED_FACE ( 'NONE', ( #782 ), #814, .T. ) ;
#24 = PLANE ( 'NONE',  #776 ) ;
#25 = DIRECTION ( 'NONE',  ( -0.000000000000000000, -1.000000000000000000, -0.000000000000000000 ) ) ;
#26 = LINE ( 'NONE', #889, #717 ) ;
#27 = ORIENTED_EDGE ( 'NONE', *, *, #72, .T. ) ;
#28 = EDGE_CURVE ( 'NONE', #46, #677, #374, .T. ) ;
#29 = COORDINATED_UNIVERSAL_TIME_OFFSET ( 8, 0, .AHEAD. ) ;
#30 = ORIENTED_EDGE ( 'NONE', *, *, #810, .T. ) ;
#31 = CARTESIAN_POINT ( 'NONE',  ( -15.00000000000000000, 6.349999999999999645, -314.2500000000000568 ) ) ;
#32 = CALENDAR_DATE ( 2026, 24, 7 ) ;
#33 = CARTESIAN_POINT ( 'NONE',  ( -246.5049999999999955, 6.349999999999999645, -642.1200000000000045 ) ) ;
#34 = PLANE ( 'NONE',  #716 ) ;
#35 = AXIS2_PLACEMENT_3D ( 'NONE', #395, #188, #1067 ) ;
#36 = AXIS2_PLACEMENT_3D ( 'NONE', #377, #791, #149 ) ;
#37 = PLANE ( 'NONE',  #64 ) ;
#38 = ORIENTED_EDGE ( 'NONE', *, *, #1351, .T. ) ;
#39 = DIRECTION ( 'NONE',  ( 0.000000000000000000, 1.000000000000000000, 0.000000000000000000 ) ) ;
#40 =( NAMED_UNIT ( * ) SI_UNIT ( $, .STERADIAN. ) SOLID_ANGLE_UNIT ( ) );
#41 = VECTOR ( 'NONE', #200, 1000.000000000000000 ) ;
#42 = FACE_BOUND ( 'NONE', #968, .T. ) ;
#43 = VECTOR ( 'NONE', #669, 1000.000000000000000 ) ;
#44 = DIRECTION ( 'NONE',  ( -0.000000000000000000, -1.000000000000000000, -0.000000000000000000 ) ) ;
#45 = CARTESIAN_POINT ( 'NONE',  ( 246.5049999999999955, 6.349999999999999645, -625.6200000000000045 ) ) ;
#46 = VERTEX_POINT ( 'NONE', #67 ) ;
#47 = ORIENTED_EDGE ( 'NONE', *, *, #1078, .F. ) ;
#48 = DIRECTION ( 'NONE',  ( -0.000000000000000000, -0.000000000000000000, 1.000000000000000000 ) ) ;
#49 = CARTESIAN_POINT ( 'NONE',  ( -15.00000000000000000, 6.349999999999999645, -221.2500000000000284 ) ) ;
#50 = CARTESIAN_POINT ( 'NONE',  ( -15.00000000000000000, 6.349999999999999645, -221.2500000000000284 ) ) ;
#51 = CARTESIAN_POINT ( 'NONE',  ( -15.00000000000000000, 6.349999999999999645, -144.7500000000000284 ) ) ;
#52 = VERTEX_POINT ( 'NONE', #790 ) ;
#53 = ORIENTED_EDGE ( 'NONE', *, *, #1301, .T. ) ;
#54 = CARTESIAN_POINT ( 'NONE',  ( 15.00000000000000000, 6.349999999999999645, -161.2500000000000284 ) ) ;
#55 = CARTESIAN_POINT ( 'NONE',  ( 276.5049999999999955, 0.000000000000000000, -625.6200000000000045 ) ) ;
#56 = CARTESIAN_POINT ( 'NONE',  ( -293.8597459706173822, 0.000000000000000000, -620.5219509599029379 ) ) ;
#57 = EDGE_CURVE ( 'NONE', #344, #379, #1012, .T. ) ;
#58 = CC_DESIGN_PERSON_AND_ORGANIZATION_ASSIGNMENT ( #1010, #905, ( #238 ) ) ;
#59 = DIRECTION ( 'NONE',  ( 0.000000000000000000, 0.000000000000000000, -1.000000000000000000 ) ) ;
#60 = VECTOR ( 'NONE', #430, 1000.000000000000000 ) ;
#61 = ORIENTED_EDGE ( 'NONE', *, *, #274, .F. ) ;
#62 = VECTOR ( 'NONE', #1042, 1000.000000000000000 ) ;
#63 = ORIENTED_EDGE ( 'NONE', *, *, #508, .T. ) ;
#64 = AXIS2_PLACEMENT_3D ( 'NONE', #45, #926, #59 ) ;
#65 = CARTESIAN_POINT ( 'NONE',  ( 32.35474597061718782, 6.349999999999999645, 13.34804904009695825 ) ) ;
#66 = PLANE ( 'NONE',  #1319 ) ;
#67 = CARTESIAN_POINT ( 'NONE',  ( 15.00000000000000000, 6.349999999999999645, -161.2500000000000284 ) ) ;
#68 = AXIS2_PLACEMENT_3D ( 'NONE', #671, #239, #1299 ) ;
#69 = LINE ( 'NONE', #324, #732 ) ;
#70 = ORIENTED_EDGE ( 'NONE', *, *, #907, .T. ) ;
#71 = ORIENTED_EDGE ( 'NONE', *, *, #1315, .F. ) ;
#72 = EDGE_CURVE ( 'NONE', #1164, #135, #258, .T. ) ;
#73 = CARTESIAN_POINT ( 'NONE',  ( -15.00000000000000000, 6.349999999999999645, -68.25000000000000000 ) ) ;
#74 = CYLINDRICAL_SURFACE ( 'NONE', #35, 35.00000000000036238 ) ;
#75 = LINE ( 'NONE', #1043, #202 ) ;
#76 = ORIENTED_EDGE ( 'NONE', *, *, #670, .F. ) ;
#77 = EDGE_CURVE ( 'NONE', #1258, #959, #899, .T. ) ;
#78 = EDGE_LOOP ( 'NONE', ( #1261, #265, #1293, #63 ) ) ;
#79 = DIRECTION ( 'NONE',  ( -0.000000000000000000, -1.000000000000000000, -0.000000000000000000 ) ) ;
#80 = DIRECTION ( 'NONE',  ( -0.000000000000000000, -1.000000000000000000, -0.000000000000000000 ) ) ;
#81 = CARTESIAN_POINT ( 'NONE',  ( 15.00000000000000000, 6.349999999999999645, -297.7500000000000568 ) ) ;
#82 = EDGE_LOOP ( 'NONE', ( #171, #314, #694, #885, #586, #1350 ) ) ;
#83 = ORIENTED_EDGE ( 'NONE', *, *, #72, .F. ) ;
#84 = CIRCLE ( 'NONE', #922, 35.00000000000005684 ) ;
#85 =( GEOMETRIC_REPRESENTATION_CONTEXT ( 3 ) GLOBAL_UNCERTAINTY_ASSIGNED_CONTEXT ( ( #944 ) ) GLOBAL_UNIT_ASSIGNED_CONTEXT ( ( #883, #1110, #40 ) ) REPRESENTATION_CONTEXT ( 'NONE', 'WORKASPACE' ) );
#86 = CARTESIAN_POINT ( 'NONE',  ( -15.00000000000000000, 0.000000000000000000, -314.2500000000000568 ) ) ;
#87 = PLANE ( 'NONE',  #1014 ) ;
#88 = VERTEX_POINT ( 'NONE', #146 ) ;
#89 = ORIENTED_EDGE ( 'NONE', *, *, #323, .T. ) ;
#90 = CARTESIAN_POINT ( 'NONE',  ( -15.00000000000000000, 0.000000000000000000, -390.7500000000000568 ) ) ;
#91 = CARTESIAN_POINT ( 'NONE',  ( -15.00000000000000000, 6.349999999999999645, -390.7500000000000568 ) ) ;
#92 = DIRECTION ( 'NONE',  ( -0.000000000000000000, -1.000000000000000000, -0.000000000000000000 ) ) ;
#93 = ORIENTED_EDGE ( 'NONE', *, *, #567, .T. ) ;
#94 = EDGE_LOOP ( 'NONE', ( #495, #434, #1306, #1172 ) ) ;
#95 = DIRECTION ( 'NONE',  ( 0.000000000000000000, 0.000000000000000000, -1.000000000000000000 ) ) ;
#96 = LINE ( 'NONE', #218, #894 ) ;
#97 = CARTESIAN_POINT ( 'NONE',  ( 15.00000000000000000, 0.000000000000000000, -8.250000000000000000 ) ) ;
#98 = ORIENTED_EDGE ( 'NONE', *, *, #176, .F. ) ;
#99 = CC_DESIGN_PERSON_AND_ORGANIZATION_ASSIGNMENT ( #347, #668, ( #1143 ) ) ;
#100 = VERTEX_POINT ( 'NONE', #56 ) ;
#101 = VECTOR ( 'NONE', #1092, 1000.000000000000000 ) ;
#102 = DIRECTION ( 'NONE',  ( -0.000000000000000000, -0.000000000000000000, 1.000000000000000000 ) ) ;
#103 = CARTESIAN_POINT ( 'NONE',  ( -15.00000000000000000, 0.000000000000000000, -237.7500000000000568 ) ) ;
#104 = CARTESIAN_POINT ( 'NONE',  ( -261.5049999999997112, 6.349999999999999645, -633.8699999999996635 ) ) ;
#105 = EDGE_LOOP ( 'NONE', ( #208, #961, #799, #542 ) ) ;
#106 = AXIS2_PLACEMENT_3D ( 'NONE', #1241, #691, #916 ) ;
#107 = ORIENTED_EDGE ( 'NONE', *, *, #1257, .F. ) ;
#108 = VECTOR ( 'NONE', #332, 1000.000000000000000 ) ;
#109 = ADVANCED_FACE ( 'NONE', ( #282 ), #822, .T. ) ;
#110 = FACE_OUTER_BOUND ( 'NONE', #387, .T. ) ;
#111 = CARTESIAN_POINT ( 'NONE',  ( -246.5049999999999955, 6.349999999999999645, -625.6200000000000045 ) ) ;
#112 = LINE ( 'NONE', #432, #403 ) ;
#113 = ORIENTED_EDGE ( 'NONE', *, *, #1078, .T. ) ;
#114 = DATE_TIME_ROLE ( 'classification_date' ) ;
#115 = EDGE_LOOP ( 'NONE', ( #555, #954, #142, #518 ) ) ;
#116 = EDGE_CURVE ( 'NONE', #1080, #456, #478, .T. ) ;
#117 = LINE ( 'NONE', #1309, #595 ) ;
#118 = ADVANCED_FACE ( 'NONE', ( #1142 ), #174, .T. ) ;
#119 = CARTESIAN_POINT ( 'NONE',  ( -15.00000000000000000, 0.000000000000000000, -161.2500000000000284 ) ) ;
#120 = PLANE ( 'NONE',  #785 ) ;
#121 = DATE_AND_TIME ( #365, #1033 ) ;
#122 = ORIENTED_EDGE ( 'NONE', *, *, #1369, .T. ) ;
#123 = LINE ( 'NONE', #549, #397 ) ;
#124 = DIRECTION ( 'NONE',  ( 0.000000000000000000, 0.000000000000000000, -1.000000000000000000 ) ) ;
#125 = DIRECTION ( 'NONE',  ( 0.000000000000000000, 0.000000000000000000, 1.000000000000000000 ) ) ;
#126 = CIRCLE ( 'NONE', #924, 35.00000000000036238 ) ;
#127 = ADVANCED_FACE ( 'NONE', ( #565 ), #583, .T. ) ;
#128 = VERTEX_POINT ( 'NONE', #168 ) ;
#129 = VERTEX_POINT ( 'NONE', #1340 ) ;
#130 = CARTESIAN_POINT ( 'NONE',  ( 246.5049999999999955, 6.349999999999999645, -625.6200000000000045 ) ) ;
#131 = COORDINATED_UNIVERSAL_TIME_OFFSET ( 8, 0, .AHEAD. ) ;
#132 = CARTESIAN_POINT ( 'NONE',  ( 276.5049999999999955, 6.349999999999999645, -642.1200000000000045 ) ) ;
#133 = EDGE_CURVE ( 'NONE', #293, #1390, #159, .T. ) ;
#134 = DIRECTION ( 'NONE',  ( 0.000000000000000000, 0.000000000000000000, 1.000000000000000000 ) ) ;
#135 = VERTEX_POINT ( 'NONE', #1226 ) ;
#136 = DIRECTION ( 'NONE',  ( 1.000000000000000000, 0.000000000000000000, 0.000000000000000000 ) ) ;
#137 = CARTESIAN_POINT ( 'NONE',  ( 15.00000000000000000, 6.349999999999999645, 8.250000000000000000 ) ) ;
#138 = CARTESIAN_POINT ( 'NONE',  ( -32.35474597061718782, 6.349999999999999645, 13.34804904009695825 ) ) ;
#139 = ORIENTED_EDGE ( 'NONE', *, *, #116, .T. ) ;
#140 = LINE ( 'NONE', #1236, #777 ) ;
#141 = EDGE_CURVE ( 'NONE', #993, #194, #704, .T. ) ;
#142 = ORIENTED_EDGE ( 'NONE', *, *, #554, .T. ) ;
#143 = CARTESIAN_POINT ( 'NONE',  ( 0.000000000000000000, 0.000000000000000000, -6.591949208711866959E-14 ) ) ;
#144 = APPROVAL_ROLE ( '' ) ;
#145 = DIRECTION ( 'NONE',  ( 0.000000000000000000, 0.000000000000000000, -1.000000000000000000 ) ) ;
#146 = CARTESIAN_POINT ( 'NONE',  ( 15.00000000000000000, 0.000000000000000000, -68.25000000000000000 ) ) ;
#147 = VECTOR ( 'NONE', #779, 1000.000000000000000 ) ;
#148 = VECTOR ( 'NONE', #1388, 1000.000000000000227 ) ;
#149 = DIRECTION ( 'NONE',  ( 1.000000000000000000, 0.000000000000000000, -0.000000000000000000 ) ) ;
#150 = EDGE_LOOP ( 'NONE', ( #233, #71, #1344, #353, #209, #679 ) ) ;
#151 = ADVANCED_BREP_SHAPE_REPRESENTATION ( 'Easel Triangle', ( #1170, #1232 ), #85 ) ;
#152 = VERTEX_POINT ( 'NONE', #367 ) ;
#153 = PLANE ( 'NONE',  #872 ) ;
#154 = EDGE_CURVE ( 'NONE', #677, #1281, #697, .T. ) ;
#155 = VECTOR ( 'NONE', #1285, 1000.000000000000000 ) ;
#156 = EDGE_CURVE ( 'NONE', #327, #693, #908, .T. ) ;
#157 = PLANE ( 'NONE',  #484 ) ;
#158 = AXIS2_PLACEMENT_3D ( 'NONE', #898, #477, #482 ) ;
#159 = LINE ( 'NONE', #1219, #603 ) ;
#160 = PLANE ( 'NONE',  #851 ) ;
#161 = VERTEX_POINT ( 'NONE', #251 ) ;
#162 = ORIENTED_EDGE ( 'NONE', *, *, #551, .F. ) ;
#163 = EDGE_CURVE ( 'NONE', #201, #763, #1002, .T. ) ;
#164 = LINE ( 'NONE', #587, #1076 ) ;
#165 = ADVANCED_FACE ( 'NONE', ( #1235 ), #34, .T. ) ;
#166 = FACE_BOUND ( 'NONE', #1267, .T. ) ;
#167 = PRODUCT_RELATED_PRODUCT_CATEGORY ( 'detail', '', ( #1060 ) ) ;
#168 = CARTESIAN_POINT ( 'NONE',  ( 15.00000000000000000, 6.349999999999999645, -84.75000000000001421 ) ) ;
#169 = LINE ( 'NONE', #486, #946 ) ;
#170 = ORIENTED_EDGE ( 'NONE', *, *, #598, .F. ) ;
#171 = ORIENTED_EDGE ( 'NONE', *, *, #1255, .T. ) ;
#172 = CYLINDRICAL_SURFACE ( 'NONE', #12, 35.00000000000036238 ) ;
#173 = LINE ( 'NONE', #594, #1182 ) ;
#174 = CYLINDRICAL_SURFACE ( 'NONE', #1372, 35.00000000000005684 ) ;
#175 = CARTESIAN_POINT ( 'NONE',  ( 246.5049999999999955, 6.349999999999999645, -625.6200000000000045 ) ) ;
#176 = EDGE_CURVE ( 'NONE', #992, #46, #631, .T. ) ;
#177 = VECTOR ( 'NONE', #407, 1000.000000000000000 ) ;
#178 = ORIENTED_EDGE ( 'NONE', *, *, #261, .T. ) ;
#179 = VECTOR ( 'NONE', #226, 1000.000000000000000 ) ;
#180 = LINE ( 'NONE', #388, #464 ) ;
#181 = LINE ( 'NONE', #604, #572 ) ;
#182 = LINE ( 'NONE', #618, #624 ) ;
#183 = EDGE_CURVE ( 'NONE', #832, #186, #503, .T. ) ;
#184 = VECTOR ( 'NONE', #491, 1000.000000000000000 ) ;
#185 = EDGE_LOOP ( 'NONE', ( #802, #947, #739, #53 ) ) ;
#186 = VERTEX_POINT ( 'NONE', #837 ) ;
#187 = DIRECTION ( 'NONE',  ( 1.000000000000000000, 0.000000000000000000, -0.000000000000000000 ) ) ;
#188 = DIRECTION ( 'NONE',  ( -0.000000000000000000, -1.000000000000000000, -0.000000000000000000 ) ) ;
#189 = LINE ( 'NONE', #290, #335 ) ;
#190 = ORIENTED_EDGE ( 'NONE', *, *, #280, .T. ) ;
#191 = EDGE_LOOP ( 'NONE', ( #1185, #475, #1342, #1280 ) ) ;
#192 = LINE ( 'NONE', #617, #849 ) ;
#193 = CARTESIAN_POINT ( 'NONE',  ( -246.5049999999999955, 6.349999999999999645, -625.6200000000000045 ) ) ;
#194 = VERTEX_POINT ( 'NONE', #97 ) ;
#195 = ORIENTED_EDGE ( 'NONE', *, *, #929, .T. ) ;
#196 = VECTOR ( 'NONE', #1199, 1000.000000000000000 ) ;
#197 = APPROVAL_PERSON_ORGANIZATION ( #877, #1100, #235 ) ;
#198 = PLANE ( 'NONE',  #504 ) ;
#199 = DIRECTION ( 'NONE',  ( 0.000000000000000000, 1.000000000000000000, -0.000000000000000000 ) ) ;
#200 = DIRECTION ( 'NONE',  ( -0.000000000000000000, -0.000000000000000000, 1.000000000000000000 ) ) ;
#201 = VERTEX_POINT ( 'NONE', #81 ) ;
#202 = VECTOR ( 'NONE', #744, 1000.000000000000000 ) ;
#203 = ORIENTED_EDGE ( 'NONE', *, *, #156, .T. ) ;
#204 = DIRECTION ( 'NONE',  ( -0.000000000000000000, -1.000000000000000000, -0.000000000000000000 ) ) ;
#205 = ADVANCED_FACE ( 'NONE', ( #611 ), #207, .T. ) ;
#206 = DIRECTION ( 'NONE',  ( 1.000000000000000000, 0.000000000000000000, -0.000000000000000000 ) ) ;
#207 = PLANE ( 'NONE',  #900 ) ;
#208 = ORIENTED_EDGE ( 'NONE', *, *, #860, .T. ) ;
#209 = ORIENTED_EDGE ( 'NONE', *, *, #778, .F. ) ;
#210 = DIRECTION ( 'NONE',  ( 0.000000000000000000, 0.000000000000000000, 1.000000000000000000 ) ) ;
#211 = CARTESIAN_POINT ( 'NONE',  ( -15.00000000000000000, 6.349999999999999645, -390.7500000000000568 ) ) ;
#212 = CARTESIAN_POINT ( 'NONE',  ( -15.00000000000000000, 0.000000000000000000, 8.250000000000000000 ) ) ;
#213 = VERTEX_POINT ( 'NONE', #847 ) ;
#214 = ADVANCED_FACE ( 'NONE', ( #1278 ), #425, .T. ) ;
#215 = ORIENTED_EDGE ( 'NONE', *, *, #368, .T. ) ;
#216 = AXIS2_PLACEMENT_3D ( 'NONE', #680, #481, #570 ) ;
#217 = LINE ( 'NONE', #1294, #619 ) ;
#218 = CARTESIAN_POINT ( 'NONE',  ( -15.00000000000000000, 0.000000000000000000, -8.250000000000000000 ) ) ;
#219 = LINE ( 'NONE', #1311, #224 ) ;
#220 = EDGE_CURVE ( 'NONE', #1131, #520, #1154, .T. ) ;
#221 = ORIENTED_EDGE ( 'NONE', *, *, #1289, .F. ) ;
#222 = VECTOR ( 'NONE', #938, 1000.000000000000000 ) ;
#223 = VERTEX_POINT ( 'NONE', #1389 ) ;
#224 = VECTOR ( 'NONE', #342, 1000.000000000000000 ) ;
#225 = CARTESIAN_POINT ( 'NONE',  ( -15.00000000000000000, 0.000000000000000000, -390.7500000000000568 ) ) ;
#226 = DIRECTION ( 'NONE',  ( 1.000000000000000000, 0.000000000000000000, 0.000000000000000000 ) ) ;
#227 = FACE_BOUND ( 'NONE', #1286, .T. ) ;
#228 = CARTESIAN_POINT ( 'NONE',  ( 15.00000000000000000, 6.349999999999999645, -221.2500000000000284 ) ) ;
#229 = ORIENTED_EDGE ( 'NONE', *, *, #422, .T. ) ;
#230 = LINE ( 'NONE', #660, #196 ) ;
#231 = CARTESIAN_POINT ( 'NONE',  ( 15.00000000000000000, 0.000000000000000000, -221.2500000000000284 ) ) ;
#232 = ORIENTED_EDGE ( 'NONE', *, *, #394, .T. ) ;
#233 = ORIENTED_EDGE ( 'NONE', *, *, #917, .F. ) ;
#234 = CARTESIAN_POINT ( 'NONE',  ( 15.00000000000000000, 6.349999999999999645, -144.7500000000000284 ) ) ;
#235 = APPROVAL_ROLE ( '' ) ;
#236 = VECTOR ( 'NONE', #401, 1000.000000000000000 ) ;
#237 = FACE_BOUND ( 'NONE', #547, .T. ) ;
#238 = SECURITY_CLASSIFICATION ( '', '', #571 ) ;
#239 = DIRECTION ( 'NONE',  ( -1.000000000000000000, 0.000000000000000000, 0.000000000000000000 ) ) ;
#240 = ORIENTED_EDGE ( 'NONE', *, *, #1392, .F. ) ;
#241 = PLANE ( 'NONE',  #216 ) ;
#242 = CALENDAR_DATE ( 2026, 24, 7 ) ;
#243 = LINE ( 'NONE', #281, #548 ) ;
#244 = EDGE_CURVE ( 'NONE', #864, #920, #1263, .T. ) ;
#245 = VERTEX_POINT ( 'NONE', #958 ) ;
#246 = FACE_OUTER_BOUND ( 'NONE', #499, .T. ) ;
#247 = ORIENTED_EDGE ( 'NONE', *, *, #1200, .F. ) ;
#248 = LINE ( 'NONE', #580, #1139 ) ;
#249 = PERSON_AND_ORGANIZATION ( #738, #574 ) ;
#250 = DIRECTION ( 'NONE',  ( 1.000000000000000000, -0.000000000000000000, 0.000000000000000000 ) ) ;
#251 = CARTESIAN_POINT ( 'NONE',  ( -15.00000000000000000, 6.349999999999999645, -374.2500000000000568 ) ) ;
#252 = CARTESIAN_POINT ( 'NONE',  ( 15.00000000000000000, 6.349999999999999645, -68.25000000000000000 ) ) ;
#253 = ORIENTED_EDGE ( 'NONE', *, *, #608, .T. ) ;
#254 = EDGE_CURVE ( 'NONE', #1, #569, #318, .T. ) ;
#255 = CARTESIAN_POINT ( 'NONE',  ( 15.00000000000000000, 6.349999999999999645, -144.7500000000000284 ) ) ;
#256 = DIRECTION ( 'NONE',  ( -0.000000000000000000, -1.000000000000000000, -0.000000000000000000 ) ) ;
#257 = CARTESIAN_POINT ( 'NONE',  ( 15.00000000000000000, 0.000000000000000000, -84.75000000000001421 ) ) ;
#258 = LINE ( 'NONE', #1026, #354 ) ;
#259 = VECTOR ( 'NONE', #204, 1000.000000000000000 ) ;
#260 = VECTOR ( 'NONE', #1041, 1000.000000000000000 ) ;
#261 = EDGE_CURVE ( 'NONE', #600, #700, #75, .T. ) ;
#262 = DIRECTION ( 'NONE',  ( 1.000000000000000000, -0.000000000000000000, -0.000000000000000000 ) ) ;
#263 = VERTEX_POINT ( 'NONE', #409 ) ;
#264 = EDGE_CURVE ( 'NONE', #850, #439, #1162, .T. ) ;
#265 = ORIENTED_EDGE ( 'NONE', *, *, #613, .F. ) ;
#266 = DIRECTION ( 'NONE',  ( -0.000000000000000000, -1.000000000000000000, -0.000000000000000000 ) ) ;
#267 = PLANE ( 'NONE',  #1095 ) ;
#268 = DIRECTION ( 'NONE',  ( -1.000000000000000000, 0.000000000000000000, 0.000000000000000000 ) ) ;
#269 = LINE ( 'NONE', #473, #1097 ) ;
#270 = ORIENTED_EDGE ( 'NONE', *, *, #1367, .F. ) ;
#271 = ORIENTED_EDGE ( 'NONE', *, *, #863, .T. ) ;
#272 = DIRECTION ( 'NONE',  ( 0.000000000000000000, 0.000000000000000000, -1.000000000000000000 ) ) ;
#273 = DIRECTION ( 'NONE',  ( 1.000000000000000000, 0.000000000000000000, -0.000000000000000000 ) ) ;
#274 = EDGE_CURVE ( 'NONE', #223, #993, #925, .T. ) ;
#275 = CARTESIAN_POINT ( 'NONE',  ( 15.00000000000000000, 0.000000000000000000, -221.2500000000000284 ) ) ;
#276 = DIRECTION ( 'NONE',  ( 0.000000000000000000, 0.000000000000000000, -1.000000000000000000 ) ) ;
#277 = ORIENTED_EDGE ( 'NONE', *, *, #360, .F. ) ;
#278 = ORIENTED_EDGE ( 'NONE', *, *, #1367, .T. ) ;
#279 = CARTESIAN_POINT ( 'NONE',  ( -15.00000000000000000, 0.000000000000000000, 8.250000000000000000 ) ) ;
#280 = EDGE_CURVE ( 'NONE', #439, #88, #182, .T. ) ;
#281 = CARTESIAN_POINT ( 'NONE',  ( -276.5049999999999955, 6.349999999999999645, -625.6200000000000045 ) ) ;
#282 = FACE_OUTER_BOUND ( 'NONE', #1057, .T. ) ;
#283 = VECTOR ( 'NONE', #509, 1000.000000000000000 ) ;
#284 = VERTEX_POINT ( 'NONE', #953 ) ;
#285 = VECTOR ( 'NONE', #590, 1000.000000000000000 ) ;
#286 = ORIENTED_EDGE ( 'NONE', *, *, #1300, .F. ) ;
#287 = CARTESIAN_POINT ( 'NONE',  ( -246.5049999999999955, 0.000000000000000000, -642.1200000000000045 ) ) ;
#288 = CARTESIAN_POINT ( 'NONE',  ( 15.00000000000000000, 6.349999999999999645, -237.7500000000000568 ) ) ;
#289 = AXIS2_PLACEMENT_3D ( 'NONE', #1064, #724, #964 ) ;
#290 = CARTESIAN_POINT ( 'NONE',  ( -15.00000000000000000, 6.349999999999999645, -221.2500000000000284 ) ) ;
#291 = VECTOR ( 'NONE', #1296, 1000.000000000000000 ) ;
#292 = VERTEX_POINT ( 'NONE', #296 ) ;
#293 = VERTEX_POINT ( 'NONE', #737 ) ;
#294 = CARTESIAN_POINT ( 'NONE',  ( -15.00000000000000000, 6.349999999999999645, -68.25000000000000000 ) ) ;
#295 = EDGE_CURVE ( 'NONE', #622, #392, #1256, .T. ) ;
#296 = CARTESIAN_POINT ( 'NONE',  ( -15.00000000000000000, 0.000000000000000000, -8.250000000000000000 ) ) ;
#297 = ORIENTED_EDGE ( 'NONE', *, *, #929, .F. ) ;
#298 = EDGE_LOOP ( 'NONE', ( #539, #411, #1045, #278 ) ) ;
#299 = EDGE_CURVE ( 'NONE', #1258, #391, #189, .T. ) ;
#300 = LINE ( 'NONE', #1375, #1116 ) ;
#301 = LINE ( 'NONE', #103, #830 ) ;
#302 = DIRECTION ( 'NONE',  ( 1.000000000000000000, 0.000000000000000000, 0.000000000000000000 ) ) ;
#303 = ORIENTED_EDGE ( 'NONE', *, *, #800, .F. ) ;
#304 = EDGE_LOOP ( 'NONE', ( #767, #658, #7, #122 ) ) ;
#305 = EDGE_CURVE ( 'NONE', #992, #591, #1370, .T. ) ;
#306 = CC_DESIGN_PERSON_AND_ORGANIZATION_ASSIGNMENT ( #1208, #674, ( #1118 ) ) ;
#307 = AXIS2_PLACEMENT_3D ( 'NONE', #1138, #489, #187 ) ;
#308 = LINE ( 'NONE', #389, #62 ) ;
#309 = CC_DESIGN_SECURITY_CLASSIFICATION ( #238, ( #1118 ) ) ;
#310 = DIRECTION ( 'NONE',  ( -0.000000000000000000, -1.000000000000000000, -0.000000000000000000 ) ) ;
#311 = DIRECTION ( 'NONE',  ( -0.000000000000000000, -0.000000000000000000, 1.000000000000000000 ) ) ;
#312 = ORIENTED_EDGE ( 'NONE', *, *, #429, .T. ) ;
#313 = VECTOR ( 'NONE', #945, 1000.000000000000000 ) ;
#314 = ORIENTED_EDGE ( 'NONE', *, *, #1289, .T. ) ;
#315 = CARTESIAN_POINT ( 'NONE',  ( -15.00000000000000000, 6.349999999999999645, -314.2500000000000568 ) ) ;
#316 = ADVANCED_FACE ( 'NONE', ( #402 ), #87, .T. ) ;
#317 = CARTESIAN_POINT ( 'NONE',  ( 15.00000000000000000, 6.349999999999999645, -84.75000000000001421 ) ) ;
#318 = LINE ( 'NONE', #396, #313 ) ;
#319 = EDGE_CURVE ( 'NONE', #186, #591, #842, .T. ) ;
#320 = ORIENTED_EDGE ( 'NONE', *, *, #183, .F. ) ;
#321 = ORIENTED_EDGE ( 'NONE', *, *, #821, .T. ) ;
#322 = LINE ( 'NONE', #225, #1365 ) ;
#323 = EDGE_CURVE ( 'NONE', #245, #832, #729, .T. ) ;
#324 = CARTESIAN_POINT ( 'NONE',  ( -15.00000000000000000, 6.349999999999999645, -221.2500000000000284 ) ) ;
#325 = FACE_BOUND ( 'NONE', #420, .T. ) ;
#326 = ORIENTED_EDGE ( 'NONE', *, *, #870, .T. ) ;
#327 = VERTEX_POINT ( 'NONE', #532 ) ;
#328 = CIRCLE ( 'NONE', #1032, 35.00000000000036238 ) ;
#329 = DIRECTION ( 'NONE',  ( -0.000000000000000000, -1.000000000000000000, -0.000000000000000000 ) ) ;
#330 = VECTOR ( 'NONE', #310, 1000.000000000000000 ) ;
#331 = CARTESIAN_POINT ( 'NONE',  ( 261.5049999999997112, 6.349999999999999645, -633.8699999999996635 ) ) ;
#332 = DIRECTION ( 'NONE',  ( -0.000000000000000000, -1.000000000000000000, -0.000000000000000000 ) ) ;
#333 = EDGE_LOOP ( 'NONE', ( #1136, #557, #792, #139 ) ) ;
#334 = EDGE_LOOP ( 'NONE', ( #935, #1363, #890, #1016 ) ) ;
#335 = VECTOR ( 'NONE', #719, 1000.000000000000000 ) ;
#336 = DIRECTION ( 'NONE',  ( 0.000000000000000000, 0.000000000000000000, -1.000000000000000000 ) ) ;
#337 = LINE ( 'NONE', #1190, #108 ) ;
#338 = ORIENTED_EDGE ( 'NONE', *, *, #1324, .T. ) ;
#339 = ORIENTED_EDGE ( 'NONE', *, *, #295, .F. ) ;
#340 = CARTESIAN_POINT ( 'NONE',  ( 15.00000000000000000, 6.349999999999999645, -314.2500000000000568 ) ) ;
#341 = CARTESIAN_POINT ( 'NONE',  ( -15.00000000000000000, 6.349999999999999645, -84.75000000000001421 ) ) ;
#342 = DIRECTION ( 'NONE',  ( -1.000000000000000000, -0.000000000000000000, -0.000000000000000000 ) ) ;
#343 = ORIENTED_EDGE ( 'NONE', *, *, #615, .T. ) ;
#344 = VERTEX_POINT ( 'NONE', #231 ) ;
#345 = DIRECTION ( 'NONE',  ( -0.9244213134462044845, 0.000000000000000000, -0.3813728297170554948 ) ) ;
#346 = ADVANCED_FACE ( 'NONE', ( #973 ), #1181, .T. ) ;
#347 = PERSON_AND_ORGANIZATION ( #738, #574 ) ;
#348 = VECTOR ( 'NONE', #1011, 1000.000000000000000 ) ;
#349 = CARTESIAN_POINT ( 'NONE',  ( -15.00000000000000000, 0.000000000000000000, -68.25000000000000000 ) ) ;
#350 = CIRCLE ( 'NONE', #621, 35.00000000000005684 ) ;
#351 = ORIENTED_EDGE ( 'NONE', *, *, #896, .F. ) ;
#352 = DIRECTION ( 'NONE',  ( -1.000000000000000000, 0.000000000000000000, 0.000000000000000000 ) ) ;
#353 = ORIENTED_EDGE ( 'NONE', *, *, #422, .F. ) ;
#354 = VECTOR ( 'NONE', #44, 1000.000000000000000 ) ;
#355 = LINE ( 'NONE', #54, #1297 ) ;
#356 = AXIS2_PLACEMENT_3D ( 'NONE', #50, #1329, #390 ) ;
#357 = PERSON_AND_ORGANIZATION_ROLE ( 'design_owner' ) ;
#358 = ADVANCED_FACE ( 'NONE', ( #656, #1202, #237, #444, #325, #227, #1317, #544, #979 ), #662, .T. ) ;
#359 = DIRECTION ( 'NONE',  ( 0.000000000000000000, -0.000000000000000000, 1.000000000000000000 ) ) ;
#360 = EDGE_CURVE ( 'NONE', #700, #128, #862, .T. ) ;
#361 = CARTESIAN_POINT ( 'NONE',  ( -15.00000000000000000, 6.349999999999999645, -161.2500000000000284 ) ) ;
#362 = DIRECTION ( 'NONE',  ( -0.000000000000000000, -1.000000000000000000, -0.000000000000000000 ) ) ;
#363 = EDGE_LOOP ( 'NONE', ( #1030, #1115, #446, #640 ) ) ;
#364 = CARTESIAN_POINT ( 'NONE',  ( -15.00000000000000000, 6.349999999999999645, -144.7500000000000284 ) ) ;
#365 = CALENDAR_DATE ( 2026, 24, 7 ) ;
#366 = DIRECTION ( 'NONE',  ( 0.000000000000000000, 0.000000000000000000, 1.000000000000000000 ) ) ;
#367 = CARTESIAN_POINT ( 'NONE',  ( -15.00000000000000000, 0.000000000000000000, -314.2500000000000568 ) ) ;
#368 = EDGE_CURVE ( 'NONE', #892, #1362, #112, .T. ) ;
#369 = DIRECTION ( 'NONE',  ( 0.9244213134462044845, 0.000000000000000000, -0.3813728297170554948 ) ) ;
#370 = ORIENTED_EDGE ( 'NONE', *, *, #1266, .T. ) ;
#371 = ORIENTED_EDGE ( 'NONE', *, *, #1300, .T. ) ;
#372 = PLANE ( 'NONE',  #848 ) ;
#373 = DIRECTION ( 'NONE',  ( 1.000000000000000000, 0.000000000000000000, -0.000000000000000000 ) ) ;
#374 = LINE ( 'NONE', #361, #184 ) ;
#375 = VECTOR ( 'NONE', #812, 1000.000000000000000 ) ;
#376 = VECTOR ( 'NONE', #79, 1000.000000000000000 ) ;
#377 = CARTESIAN_POINT ( 'NONE',  ( -15.00000000000000000, 6.349999999999999645, -314.2500000000000568 ) ) ;
#378 = EDGE_LOOP ( 'NONE', ( #247, #817, #1244, #927 ) ) ;
#379 = VERTEX_POINT ( 'NONE', #1089 ) ;
#380 = EDGE_CURVE ( 'NONE', #1102, #745, #1291, .T. ) ;
#381 = CARTESIAN_POINT ( 'NONE',  ( 276.5049999999999955, 6.349999999999999645, -625.6200000000000045 ) ) ;
#382 = DIRECTION ( 'NONE',  ( 0.000000000000000000, 0.000000000000000000, -1.000000000000000000 ) ) ;
#383 = DIRECTION ( 'NONE',  ( 0.000000000000000000, 0.000000000000000000, -1.000000000000000000 ) ) ;
#384 = FACE_OUTER_BOUND ( 'NONE', #1312, .T. ) ;
#385 = ORIENTED_EDGE ( 'NONE', *, *, #1227, .F. ) ;
#386 = EDGE_CURVE ( 'NONE', #693, #223, #1075, .T. ) ;
#387 = EDGE_LOOP ( 'NONE', ( #505, #514, #903, #1096 ) ) ;
#388 = CARTESIAN_POINT ( 'NONE',  ( 15.00000000000000000, 6.349999999999999645, -237.7500000000000568 ) ) ;
#389 = CARTESIAN_POINT ( 'NONE',  ( -15.00000000000000000, 0.000000000000000000, -374.2500000000000568 ) ) ;
#390 = DIRECTION ( 'NONE',  ( 0.000000000000000000, 0.000000000000000000, -1.000000000000000000 ) ) ;
#391 = VERTEX_POINT ( 'NONE', #878 ) ;
#392 = VERTEX_POINT ( 'NONE', #749 ) ;
#393 = LINE ( 'NONE', #65, #875 ) ;
#394 = EDGE_CURVE ( 'NONE', #292, #1271, #869, .T. ) ;
#395 = CARTESIAN_POINT ( 'NONE',  ( -261.5049999999997112, 6.349999999999999645, -633.8699999999996635 ) ) ;
#396 = CARTESIAN_POINT ( 'NONE',  ( 15.00000000000000000, 6.349999999999999645, -221.2500000000000284 ) ) ;
#397 = VECTOR ( 'NONE', #859, 1000.000000000000000 ) ;
#398 = ORIENTED_EDGE ( 'NONE', *, *, #57, .T. ) ;
#399 = AXIS2_PLACEMENT_3D ( 'NONE', #593, #1031, #930 ) ;
#400 = ORIENTED_EDGE ( 'NONE', *, *, #1360, .F. ) ;
#401 = DIRECTION ( 'NONE',  ( -1.000000000000000000, -0.000000000000000000, -0.000000000000000000 ) ) ;
#402 = FACE_OUTER_BOUND ( 'NONE', #1287, .T. ) ;
#403 = VECTOR ( 'NONE', #1093, 1000.000000000000227 ) ;
#404 = EDGE_CURVE ( 'NONE', #488, #824, #20, .T. ) ;
#405 = EDGE_LOOP ( 'NONE', ( #1331, #371, #232, #1383 ) ) ;
#406 = ORIENTED_EDGE ( 'NONE', *, *, #394, .F. ) ;
#407 = DIRECTION ( 'NONE',  ( -0.000000000000000000, -1.000000000000000000, -0.000000000000000000 ) ) ;
#408 = DIRECTION ( 'NONE',  ( -0.000000000000000000, -1.000000000000000000, -0.000000000000000000 ) ) ;
#409 = CARTESIAN_POINT ( 'NONE',  ( -261.5050000000001091, 6.349999999999999645, -668.8700000000001182 ) ) ;
#410 = EDGE_CURVE ( 'NONE', #1072, #1050, #219, .T. ) ;
#411 = ORIENTED_EDGE ( 'NONE', *, *, #1369, .F. ) ;
#412 = EDGE_CURVE ( 'NONE', #263, #1356, #761, .T. ) ;
#413 = ORIENTED_EDGE ( 'NONE', *, *, #1152, .F. ) ;
#414 = DIRECTION ( 'NONE',  ( 0.000000000000000000, 0.000000000000000000, -1.000000000000000000 ) ) ;
#415 = LINE ( 'NONE', #431, #711 ) ;
#416 = DIRECTION ( 'NONE',  ( 0.000000000000000000, 0.000000000000000000, -1.000000000000000000 ) ) ;
#417 = ORIENTED_EDGE ( 'NONE', *, *, #1307, .T. ) ;
#418 = AXIS2_PLACEMENT_3D ( 'NONE', #234, #1303, #210 ) ;
#419 = EDGE_CURVE ( 'NONE', #1050, #161, #1084, .T. ) ;
#420 = EDGE_LOOP ( 'NONE', ( #1107, #1040, #98, #1150 ) ) ;
#421 = APPROVAL_PERSON_ORGANIZATION ( #768, #528, #541 ) ;
#422 = EDGE_CURVE ( 'NONE', #284, #614, #26, .T. ) ;
#423 = DIRECTION ( 'NONE',  ( -1.000000000000000000, -0.000000000000000000, -0.000000000000000000 ) ) ;
#424 = PLANE ( 'NONE',  #1056 ) ;
#425 = PLANE ( 'NONE',  #289 ) ;
#426 = ORIENTED_EDGE ( 'NONE', *, *, #319, .T. ) ;
#427 = AXIS2_PLACEMENT_3D ( 'NONE', #560, #433, #1292 ) ;
#428 = ORIENTED_EDGE ( 'NONE', *, *, #1054, .F. ) ;
#429 = EDGE_CURVE ( 'NONE', #467, #850, #646, .T. ) ;
#430 = DIRECTION ( 'NONE',  ( -1.000000000000000000, -0.000000000000000000, -0.000000000000000000 ) ) ;
#431 = CARTESIAN_POINT ( 'NONE',  ( 32.35474597061718782, 6.349999999999999645, 13.34804904009695825 ) ) ;
#432 = CARTESIAN_POINT ( 'NONE',  ( 32.35474597061718782, 0.000000000000000000, 13.34804904009695825 ) ) ;
#433 = DIRECTION ( 'NONE',  ( 1.000000000000000000, -0.000000000000000000, 0.000000000000000000 ) ) ;
#434 = ORIENTED_EDGE ( 'NONE', *, *, #1324, .F. ) ;
#435 = LINE ( 'NONE', #1288, #965 ) ;
#436 = EDGE_CURVE ( 'NONE', #763, #1144, #337, .T. ) ;
#437 = CARTESIAN_POINT ( 'NONE',  ( 293.8597459706173822, 0.000000000000000000, -620.5219509599029379 ) ) ;
#438 = DIRECTION ( 'NONE',  ( 0.000000000000000000, 1.000000000000000000, 0.000000000000000000 ) ) ;
#439 = VERTEX_POINT ( 'NONE', #349 ) ;
#440 = EDGE_LOOP ( 'NONE', ( #912, #714, #277, #1065 ) ) ;
#441 = VECTOR ( 'NONE', #80, 1000.000000000000000 ) ;
#442 = CARTESIAN_POINT ( 'NONE',  ( -246.5049999999999955, 0.000000000000000000, -625.6200000000000045 ) ) ;
#443 = VECTOR ( 'NONE', #1284, 1000.000000000000000 ) ;
#444 = FACE_BOUND ( 'NONE', #440, .T. ) ;
#445 = VERTEX_POINT ( 'NONE', #1175 ) ;
#446 = ORIENTED_EDGE ( 'NONE', *, *, #163, .T. ) ;
#447 = CARTESIAN_POINT ( 'NONE',  ( -246.5049999999999955, 0.000000000000000000, -625.6200000000000045 ) ) ;
#448 = LINE ( 'NONE', #794, #989 ) ;
#449 = DIRECTION ( 'NONE',  ( -0.000000000000000000, -1.000000000000000000, -0.000000000000000000 ) ) ;
#450 = ORIENTED_EDGE ( 'NONE', *, *, #419, .T. ) ;
#451 = EDGE_CURVE ( 'NONE', #1356, #823, #636, .T. ) ;
#452 = ORIENTED_EDGE ( 'NONE', *, *, #545, .T. ) ;
#453 = FACE_OUTER_BOUND ( 'NONE', #6, .T. ) ;
#454 = DATE_AND_TIME ( #995, #1345 ) ;
#455 = DIRECTION ( 'NONE',  ( -1.000000000000000000, 0.000000000000000000, 0.000000000000000000 ) ) ;
#456 = VERTEX_POINT ( 'NONE', #55 ) ;
#457 = CARTESIAN_POINT ( 'NONE',  ( -246.5049999999999955, 6.349999999999999645, -642.1200000000000045 ) ) ;
#458 = ORIENTED_EDGE ( 'NONE', *, *, #1358, .T. ) ;
#459 = FACE_OUTER_BOUND ( 'NONE', #633, .T. ) ;
#460 = ADVANCED_FACE ( 'NONE', ( #1127 ), #675, .T. ) ;
#461 = DATE_AND_TIME ( #242, #506 ) ;
#462 = VECTOR ( 'NONE', #1179, 1000.000000000000000 ) ;
#463 = FACE_OUTER_BOUND ( 'NONE', #750, .T. ) ;
#464 = VECTOR ( 'NONE', #500, 1000.000000000000000 ) ;
#465 = DIRECTION ( 'NONE',  ( 0.000000000000000000, 0.000000000000000000, -1.000000000000000000 ) ) ;
#466 = CARTESIAN_POINT ( 'NONE',  ( 246.5049999999999955, 6.349999999999999645, -642.1200000000000045 ) ) ;
#467 = VERTEX_POINT ( 'NONE', #257 ) ;
#468 = CARTESIAN_POINT ( 'NONE',  ( -15.00000000000000000, 6.349999999999999645, -297.7500000000000568 ) ) ;
#469 = VECTOR ( 'NONE', #92, 1000.000000000000000 ) ;
#470 = APPLICATION_PROTOCOL_DEFINITION ( 'international standard', 'config_control_design', 1994, #796 ) ;
#471 = DIRECTION ( 'NONE',  ( -0.000000000000000000, -1.000000000000000000, -0.000000000000000000 ) ) ;
#472 = CARTESIAN_POINT ( 'NONE',  ( -246.5049999999999955, 6.349999999999999645, -642.1200000000000045 ) ) ;
#473 = CARTESIAN_POINT ( 'NONE',  ( -246.5049999999999955, 0.000000000000000000, -625.6200000000000045 ) ) ;
#474 = VERTEX_POINT ( 'NONE', #1353 ) ;
#475 = ORIENTED_EDGE ( 'NONE', *, *, #853, .F. ) ;
#476 = DIRECTION ( 'NONE',  ( 1.000000000000000000, -0.000000000000000000, 0.000000000000000000 ) ) ;
#477 = DIRECTION ( 'NONE',  ( 0.000000000000000000, 0.000000000000000000, 1.000000000000000000 ) ) ;
#478 = LINE ( 'NONE', #596, #647 ) ;
#479 = CARTESIAN_POINT ( 'NONE',  ( 32.35474597061718782, 6.349999999999999645, 13.34804904009695825 ) ) ;
#480 = ORIENTED_EDGE ( 'NONE', *, *, #502, .T. ) ;
#481 = DIRECTION ( 'NONE',  ( -1.000000000000000000, 0.000000000000000000, 0.000000000000000000 ) ) ;
#482 = DIRECTION ( 'NONE',  ( 1.000000000000000000, 0.000000000000000000, -0.000000000000000000 ) ) ;
#483 = DIRECTION ( 'NONE',  ( 0.000000000000000000, -0.000000000000000000, 1.000000000000000000 ) ) ;
#484 = AXIS2_PLACEMENT_3D ( 'NONE', #582, #813, #273 ) ;
#485 = APPROVAL_PERSON_ORGANIZATION ( #1216, #511, #144 ) ;
#486 = CARTESIAN_POINT ( 'NONE',  ( 293.8597459706173822, 6.349999999999999645, -620.5219509599029379 ) ) ;
#487 = ORIENTED_EDGE ( 'NONE', *, *, #436, .F. ) ;
#488 = VERTEX_POINT ( 'NONE', #1234 ) ;
#489 = DIRECTION ( 'NONE',  ( 0.000000000000000000, 0.000000000000000000, 1.000000000000000000 ) ) ;
#490 = LINE ( 'NONE', #931, #1276 ) ;
#491 = DIRECTION ( 'NONE',  ( -1.000000000000000000, -0.000000000000000000, -0.000000000000000000 ) ) ;
#492 = CARTESIAN_POINT ( 'NONE',  ( -15.00000000000000000, 6.349999999999999645, -144.7500000000000284 ) ) ;
#493 = ORIENTED_EDGE ( 'NONE', *, *, #1019, .F. ) ;
#494 = ADVANCED_FACE ( 'NONE', ( #463 ), #696, .T. ) ;
#495 = ORIENTED_EDGE ( 'NONE', *, *, #860, .F. ) ;
#496 = DIRECTION ( 'NONE',  ( -0.000000000000000000, -1.000000000000000000, -0.000000000000000000 ) ) ;
#497 = LINE ( 'NONE', #709, #283 ) ;
#498 = CARTESIAN_POINT ( 'NONE',  ( -15.00000000000000000, 0.000000000000000000, -68.25000000000000000 ) ) ;
#499 = EDGE_LOOP ( 'NONE', ( #607, #601, #975, #1130 ) ) ;
#500 = DIRECTION ( 'NONE',  ( -0.000000000000000000, -1.000000000000000000, -0.000000000000000000 ) ) ;
#501 = PLANE ( 'NONE',  #804 ) ;
#502 = EDGE_CURVE ( 'NONE', #513, #1144, #1133, .T. ) ;
#503 = LINE ( 'NONE', #517, #41 ) ;
#504 = AXIS2_PLACEMENT_3D ( 'NONE', #1368, #95, #1275 ) ;
#505 = ORIENTED_EDGE ( 'NONE', *, *, #870, .F. ) ;
#506 = LOCAL_TIME ( 10, 35, 0.000000000000000000, #780 ) ;
#507 = ORIENTED_EDGE ( 'NONE', *, *, #419, .F. ) ;
#508 = EDGE_CURVE ( 'NONE', #1356, #100, #795, .T. ) ;
#509 = DIRECTION ( 'NONE',  ( 1.000000000000000000, 0.000000000000000000, 0.000000000000000000 ) ) ;
#510 = ADVANCED_FACE ( 'NONE', ( #1327, #166, #588, #1339, #923, #1025, #42, #682, #1225 ), #66, .F. ) ;
#511 = APPROVAL ( #1316, 'UNSPECIFIED' ) ;
#512 = DIRECTION ( 'NONE',  ( 0.000000000000000000, 0.000000000000000000, -1.000000000000000000 ) ) ;
#513 = VERTEX_POINT ( 'NONE', #906 ) ;
#514 = ORIENTED_EDGE ( 'NONE', *, *, #305, .F. ) ;
#515 = LINE ( 'NONE', #723, #177 ) ;
#516 = PLANE ( 'NONE',  #14 ) ;
#517 = CARTESIAN_POINT ( 'NONE',  ( -15.00000000000000000, 0.000000000000000000, -144.7500000000000284 ) ) ;
#518 = ORIENTED_EDGE ( 'NONE', *, *, #1117, .T. ) ;
#519 = EDGE_CURVE ( 'NONE', #1379, #850, #689, .T. ) ;
#520 = VERTEX_POINT ( 'NONE', #33 ) ;
#521 = DIRECTION ( 'NONE',  ( -0.000000000000000000, -0.000000000000000000, 1.000000000000000000 ) ) ;
#522 = LINE ( 'NONE', #728, #1077 ) ;
#523 = DIRECTION ( 'NONE',  ( -1.000000000000000000, 0.000000000000000000, 0.000000000000000000 ) ) ;
#524 = ADVANCED_FACE ( 'NONE', ( #789 ), #267, .T. ) ;
#525 = ORIENTED_EDGE ( 'NONE', *, *, #254, .F. ) ;
#526 = VECTOR ( 'NONE', #266, 1000.000000000000000 ) ;
#527 = EDGE_LOOP ( 'NONE', ( #663, #1066, #713, #844 ) ) ;
#528 = APPROVAL ( #651, 'UNSPECIFIED' ) ;
#529 = VECTOR ( 'NONE', #743, 1000.000000000000000 ) ;
#530 = DIRECTION ( 'NONE',  ( 1.000000000000000000, 0.000000000000000000, -0.000000000000000000 ) ) ;
#531 = DIRECTION ( 'NONE',  ( -1.000000000000000000, -0.000000000000000000, -0.000000000000000000 ) ) ;
#532 = CARTESIAN_POINT ( 'NONE',  ( -15.00000000000000000, 6.349999999999999645, -8.250000000000000000 ) ) ;
#533 = EDGE_LOOP ( 'NONE', ( #312, #1250, #190, #38 ) ) ;
#534 = AXIS2_PLACEMENT_3D ( 'NONE', #104, #559, #538 ) ;
#535 = VERTEX_POINT ( 'NONE', #573 ) ;
#536 = CARTESIAN_POINT ( 'NONE',  ( -32.35474597061718782, 6.349999999999999645, 13.34804904009695825 ) ) ;
#537 = DIRECTION ( 'NONE',  ( 0.000000000000000000, 0.000000000000000000, -1.000000000000000000 ) ) ;
#538 = DIRECTION ( 'NONE',  ( 0.000000000000000000, 0.000000000000000000, 1.000000000000000000 ) ) ;
#539 = ORIENTED_EDGE ( 'NONE', *, *, #801, .F. ) ;
#540 = ADVANCED_FACE ( 'NONE', ( #805 ), #157, .T. ) ;
#541 = APPROVAL_ROLE ( '' ) ;
#542 = ORIENTED_EDGE ( 'NONE', *, *, #1218, .T. ) ;
#543 = DIRECTION ( 'NONE',  ( 0.000000000000000000, 0.000000000000000000, -1.000000000000000000 ) ) ;
#544 = FACE_BOUND ( 'NONE', #561, .T. ) ;
#545 = EDGE_CURVE ( 'NONE', #128, #1379, #781, .T. ) ;
#546 = ORIENTED_EDGE ( 'NONE', *, *, #1113, .T. ) ;
#547 = EDGE_LOOP ( 'NONE', ( #955, #240, #1249, #1015 ) ) ;
#548 = VECTOR ( 'NONE', #840, 1000.000000000000000 ) ;
#549 = CARTESIAN_POINT ( 'NONE',  ( 246.5049999999999955, 0.000000000000000000, -625.6200000000000045 ) ) ;
#550 = VECTOR ( 'NONE', #1336, 1000.000000000000000 ) ;
#551 = EDGE_CURVE ( 'NONE', #391, #632, #1020, .T. ) ;
#552 = APPROVAL_STATUS ( 'not_yet_approved' ) ;
#553 = CARTESIAN_POINT ( 'NONE',  ( -15.00000000000000000, 6.349999999999999645, 8.250000000000000000 ) ) ;
#554 = EDGE_CURVE ( 'NONE', #488, #52, #173, .T. ) ;
#555 = ORIENTED_EDGE ( 'NONE', *, *, #751, .F. ) ;
#556 = CLOSED_SHELL ( 'NONE', ( #358, #510, #118, #1009, #969, #759, #659, #1108, #915, #540, #1158, #214, #346, #1052, #836, #1246, #127, #13, #576, #1156, #460, #934, #1169, #819, #494, #23, #316, #5, #1211, #960, #676, #205, #1274, #879, #1194, #165, #9, #109, #524, #1059 ) ) ;
#557 = ORIENTED_EDGE ( 'NONE', *, *, #751, .T. ) ;
#558 = CARTESIAN_POINT ( 'NONE',  ( 15.00000000000000000, 0.000000000000000000, -390.7500000000000568 ) ) ;
#559 = DIRECTION ( 'NONE',  ( 0.000000000000000000, 1.000000000000000000, 0.000000000000000000 ) ) ;
#560 = CARTESIAN_POINT ( 'NONE',  ( -15.00000000000000000, 6.349999999999999645, -68.25000000000000000 ) ) ;
#561 = EDGE_LOOP ( 'NONE', ( #507, #997, #413, #1105 ) ) ;
#562 = EDGE_CURVE ( 'NONE', #722, #129, #490, .T. ) ;
#563 = CARTESIAN_POINT ( 'NONE',  ( 15.00000000000000000, 0.000000000000000000, 8.250000000000000000 ) ) ;
#564 = CARTESIAN_POINT ( 'NONE',  ( -293.8597459706173822, 6.349999999999999645, -620.5219509599029379 ) ) ;
#565 = FACE_OUTER_BOUND ( 'NONE', #1229, .T. ) ;
#566 = APPLICATION_CONTEXT ( 'configuration controlled 3d designs of mechanical parts and assemblies' ) ;
#567 = EDGE_CURVE ( 'NONE', #622, #1164, #243, .T. ) ;
#568 = DIRECTION ( 'NONE',  ( 0.000000000000000000, 0.000000000000000000, 1.000000000000000000 ) ) ;
#569 = VERTEX_POINT ( 'NONE', #288 ) ;
#570 = DIRECTION ( 'NONE',  ( 0.000000000000000000, 0.000000000000000000, 1.000000000000000000 ) ) ;
#571 = SECURITY_CLASSIFICATION_LEVEL ( 'unclassified' ) ;
#572 = VECTOR ( 'NONE', #629, 1000.000000000000000 ) ;
#573 = CARTESIAN_POINT ( 'NONE',  ( -246.5049999999999955, 0.000000000000000000, -642.1200000000000045 ) ) ;
#574 = ORGANIZATION ( 'UNSPECIFIED', 'UNSPECIFIED', '' ) ;
#575 = DIRECTION ( 'NONE',  ( -0.000000000000000000, -1.000000000000000000, -0.000000000000000000 ) ) ;
#576 = ADVANCED_FACE ( 'NONE', ( #956 ), #501, .T. ) ;
#577 = LINE ( 'NONE', #466, #1253 ) ;
#578 = ORIENTED_EDGE ( 'NONE', *, *, #305, .T. ) ;
#579 = EDGE_LOOP ( 'NONE', ( #1384, #1146, #911, #731 ) ) ;
#580 = CARTESIAN_POINT ( 'NONE',  ( 15.00000000000000000, 0.000000000000000000, -144.7500000000000284 ) ) ;
#581 = VECTOR ( 'NONE', #884, 1000.000000000000000 ) ;
#582 = CARTESIAN_POINT ( 'NONE',  ( 246.5049999999999955, 6.349999999999999645, -642.1200000000000045 ) ) ;
#583 = PLANE ( 'NONE',  #106 ) ;
#584 = DIRECTION ( 'NONE',  ( -0.000000000000000000, -1.000000000000000000, -0.000000000000000000 ) ) ;
#585 = ORIENTED_EDGE ( 'NONE', *, *, #907, .F. ) ;
#586 = ORIENTED_EDGE ( 'NONE', *, *, #412, .T. ) ;
#587 = CARTESIAN_POINT ( 'NONE',  ( 15.00000000000000000, 6.349999999999999645, -221.2500000000000284 ) ) ;
#588 = FACE_BOUND ( 'NONE', #533, .T. ) ;
#589 = DIRECTION ( 'NONE',  ( 1.000000000000000000, 0.000000000000000000, 0.000000000000000000 ) ) ;
#590 = DIRECTION ( 'NONE',  ( -0.000000000000000000, -1.000000000000000000, -0.000000000000000000 ) ) ;
#591 = VERTEX_POINT ( 'NONE', #1159 ) ;
#592 = ORIENTED_EDGE ( 'NONE', *, *, #133, .T. ) ;
#593 = CARTESIAN_POINT ( 'NONE',  ( -246.5049999999999955, 6.349999999999999645, -625.6200000000000045 ) ) ;
#594 = CARTESIAN_POINT ( 'NONE',  ( 246.5049999999999955, 6.349999999999999645, -642.1200000000000045 ) ) ;
#595 = VECTOR ( 'NONE', #8, 1000.000000000000000 ) ;
#596 = CARTESIAN_POINT ( 'NONE',  ( 246.5049999999999955, 0.000000000000000000, -625.6200000000000045 ) ) ;
#597 = AXIS2_PLACEMENT_3D ( 'NONE', #815, #369, #808 ) ;
#598 = EDGE_CURVE ( 'NONE', #632, #344, #497, .T. ) ;
#599 = DIRECTION ( 'NONE',  ( -0.000000000000000000, -1.000000000000000000, -0.000000000000000000 ) ) ;
#600 = VERTEX_POINT ( 'NONE', #294 ) ;
#601 = ORIENTED_EDGE ( 'NONE', *, *, #638, .F. ) ;
#602 = CARTESIAN_POINT ( 'NONE',  ( -15.00000000000000000, 6.349999999999999645, -8.250000000000000000 ) ) ;
#603 = VECTOR ( 'NONE', #1335, 1000.000000000000000 ) ;
#604 = CARTESIAN_POINT ( 'NONE',  ( 276.5049999999999955, 0.000000000000000000, -625.6200000000000045 ) ) ;
#605 = CARTESIAN_POINT ( 'NONE',  ( 15.00000000000000000, 6.349999999999999645, -297.7500000000000568 ) ) ;
#606 = ORIENTED_EDGE ( 'NONE', *, *, #1224, .F. ) ;
#607 = ORIENTED_EDGE ( 'NONE', *, *, #1351, .F. ) ;
#608 = EDGE_CURVE ( 'NONE', #1212, #1102, #1268, .T. ) ;
#609 = DIRECTION ( 'NONE',  ( 1.000000000000000000, 0.000000000000000000, 0.000000000000000000 ) ) ;
#610 = CARTESIAN_POINT ( 'NONE',  ( 15.00000000000000000, 6.349999999999999645, -68.25000000000000000 ) ) ;
#611 = FACE_OUTER_BOUND ( 'NONE', #363, .T. ) ;
#612 = ORIENTED_EDGE ( 'NONE', *, *, #771, .F. ) ;
#613 = EDGE_CURVE ( 'NONE', #823, #213, #515, .T. ) ;
#614 = VERTEX_POINT ( 'NONE', #734 ) ;
#615 = EDGE_CURVE ( 'NONE', #152, #1390, #300, .T. ) ;
#616 = CC_DESIGN_PERSON_AND_ORGANIZATION_ASSIGNMENT ( #249, #681, ( #1118 ) ) ;
#617 = CARTESIAN_POINT ( 'NONE',  ( -15.00000000000000000, 6.349999999999999645, 8.250000000000000000 ) ) ;
#618 = CARTESIAN_POINT ( 'NONE',  ( -15.00000000000000000, 0.000000000000000000, -68.25000000000000000 ) ) ;
#619 = VECTOR ( 'NONE', #1186, 1000.000000000000000 ) ;
#620 = ORIENTED_EDGE ( 'NONE', *, *, #244, .T. ) ;
#621 = AXIS2_PLACEMENT_3D ( 'NONE', #1376, #1381, #1295 ) ;
#622 = VERTEX_POINT ( 'NONE', #1148 ) ;
#623 = CARTESIAN_POINT ( 'NONE',  ( 15.00000000000000000, 6.349999999999999645, -68.25000000000000000 ) ) ;
#624 = VECTOR ( 'NONE', #829, 1000.000000000000000 ) ;
#625 = CARTESIAN_POINT ( 'NONE',  ( -15.00000000000000000, 6.349999999999999645, -374.2500000000000568 ) ) ;
#626 = DIRECTION ( 'NONE',  ( 0.000000000000000000, 0.000000000000000000, 1.000000000000000000 ) ) ;
#627 = ORIENTED_EDGE ( 'NONE', *, *, #1392, .T. ) ;
#628 = VERTEX_POINT ( 'NONE', #1141 ) ;
#629 = DIRECTION ( 'NONE',  ( 0.000000000000000000, 0.000000000000000000, -1.000000000000000000 ) ) ;
#630 = CARTESIAN_POINT ( 'NONE',  ( -32.35474597061718782, 0.000000000000000000, 13.34804904009695825 ) ) ;
#631 = LINE ( 'NONE', #1168, #1393 ) ;
#632 = VERTEX_POINT ( 'NONE', #1047 ) ;
#633 = EDGE_LOOP ( 'NONE', ( #999, #17, #657, #1214 ) ) ;
#634 = LINE ( 'NONE', #1073, #752 ) ;
#635 = FACE_OUTER_BOUND ( 'NONE', #22, .T. ) ;
#636 = LINE ( 'NONE', #138, #1188 ) ;
#637 = ORIENTED_EDGE ( 'NONE', *, *, #295, .T. ) ;
#638 = EDGE_CURVE ( 'NONE', #700, #88, #1166, .T. ) ;
#639 = VECTOR ( 'NONE', #1352, 1000.000000000000000 ) ;
#640 = ORIENTED_EDGE ( 'NONE', *, *, #436, .T. ) ;
#641 = CIRCLE ( 'NONE', #667, 35.00000000000036238 ) ;
#642 = LOCAL_TIME ( 10, 35, 0.000000000000000000, #29 ) ;
#643 = DESIGN_CONTEXT ( 'detailed design', #566, 'design' ) ;
#644 = CARTESIAN_POINT ( 'NONE',  ( -261.5050000000001091, 6.349999999999999645, -668.8700000000001182 ) ) ;
#645 = DIRECTION ( 'NONE',  ( 1.000000000000000000, 0.000000000000000000, 0.000000000000000000 ) ) ;
#646 = LINE ( 'NONE', #996, #1373 ) ;
#647 = VECTOR ( 'NONE', #589, 1000.000000000000000 ) ;
#648 = EDGE_LOOP ( 'NONE', ( #939, #343, #1355, #480 ) ) ;
#649 = AXIS2_PLACEMENT_3D ( 'NONE', #1099, #455, #125 ) ;
#650 = PRODUCT_DEFINITION_SHAPE ( 'NONE', 'NONE',  #1143 ) ;
#651 = APPROVAL_STATUS ( 'not_yet_approved' ) ;
#652 = ORIENTED_EDGE ( 'NONE', *, *, #244, .F. ) ;
#653 = EDGE_CURVE ( 'NONE', #456, #824, #181, .T. ) ;
#654 = CARTESIAN_POINT ( 'NONE',  ( -15.00000000000000000, 6.349999999999999645, 8.250000000000000000 ) ) ;
#655 = CARTESIAN_POINT ( 'NONE',  ( 15.00000000000000000, 6.349999999999999645, -297.7500000000000568 ) ) ;
#656 = FACE_OUTER_BOUND ( 'NONE', #82, .T. ) ;
#657 = ORIENTED_EDGE ( 'NONE', *, *, #981, .T. ) ;
#658 = ORIENTED_EDGE ( 'NONE', *, *, #608, .F. ) ;
#659 = ADVANCED_FACE ( 'NONE', ( #942 ), #74, .T. ) ;
#660 = CARTESIAN_POINT ( 'NONE',  ( -261.5050000000001091, 6.349999999999999645, -668.8700000000001182 ) ) ;
#661 = EDGE_CURVE ( 'NONE', #327, #292, #951, .T. ) ;
#662 = PLANE ( 'NONE',  #950 ) ;
#663 = ORIENTED_EDGE ( 'NONE', *, *, #801, .T. ) ;
#664 = ORIENTED_EDGE ( 'NONE', *, *, #1224, .T. ) ;
#665 = VECTOR ( 'NONE', #1240, 1000.000000000000000 ) ;
#666 = CARTESIAN_POINT ( 'NONE',  ( -15.00000000000000000, 6.349999999999999645, -144.7500000000000284 ) ) ;
#667 = AXIS2_PLACEMENT_3D ( 'NONE', #331, #199, #1063 ) ;
#668 = PERSON_AND_ORGANIZATION_ROLE ( 'creator' ) ;
#669 = DIRECTION ( 'NONE',  ( 0.000000000000000000, 0.000000000000000000, -1.000000000000000000 ) ) ;
#670 = EDGE_CURVE ( 'NONE', #129, #1102, #308, .T. ) ;
#671 = CARTESIAN_POINT ( 'NONE',  ( 15.00000000000000000, 6.349999999999999645, -221.2500000000000284 ) ) ;
#672 = EDGE_LOOP ( 'NONE', ( #707, #1323, #652, #47 ) ) ;
#673 = FACE_OUTER_BOUND ( 'NONE', #967, .T. ) ;
#674 = PERSON_AND_ORGANIZATION_ROLE ( 'creator' ) ;
#675 = PLANE ( 'NONE',  #1082 ) ;
#676 = ADVANCED_FACE ( 'NONE', ( #937 ), #198, .T. ) ;
#677 = VERTEX_POINT ( 'NONE', #1247 ) ;
#678 = CARTESIAN_POINT ( 'NONE',  ( -276.5049999999999955, 6.349999999999999645, -625.6200000000000045 ) ) ;
#679 = ORIENTED_EDGE ( 'NONE', *, *, #368, .F. ) ;
#680 = CARTESIAN_POINT ( 'NONE',  ( 276.5049999999999955, 6.349999999999999645, -625.6200000000000045 ) ) ;
#681 = PERSON_AND_ORGANIZATION_ROLE ( 'design_supplier' ) ;
#682 = FACE_BOUND ( 'NONE', #648, .T. ) ;
#683 = CARTESIAN_POINT ( 'NONE',  ( 15.00000000000000000, 6.349999999999999645, -297.7500000000000568 ) ) ;
#684 = EDGE_CURVE ( 'NONE', #569, #1258, #1254, .T. ) ;
#685 = CARTESIAN_POINT ( 'NONE',  ( -15.00000000000000000, 6.349999999999999645, -374.2500000000000568 ) ) ;
#686 = ORIENTED_EDGE ( 'NONE', *, *, #1037, .T. ) ;
#687 = DIRECTION ( 'NONE',  ( 1.000000000000000000, -0.000000000000000000, 0.000000000000000000 ) ) ;
#688 = VECTOR ( 'NONE', #701, 1000.000000000000000 ) ;
#689 = LINE ( 'NONE', #1334, #665 ) ;
#690 = VECTOR ( 'NONE', #609, 1000.000000000000000 ) ;
#691 = DIRECTION ( 'NONE',  ( 0.000000000000000000, 0.000000000000000000, 1.000000000000000000 ) ) ;
#692 = PLANE ( 'NONE',  #597 ) ;
#693 = VERTEX_POINT ( 'NONE', #1153 ) ;
#694 = ORIENTED_EDGE ( 'NONE', *, *, #1257, .T. ) ;
#695 = DIRECTION ( 'NONE',  ( -0.000000000000000000, -1.000000000000000000, -0.000000000000000000 ) ) ;
#696 = PLANE ( 'NONE',  #158 ) ;
#697 = LINE ( 'NONE', #710, #971 ) ;
#698 = DIRECTION ( 'NONE',  ( -1.000000000000000000, 0.000000000000000000, -0.000000000000000000 ) ) ;
#699 = ORIENTED_EDGE ( 'NONE', *, *, #598, .T. ) ;
#700 = VERTEX_POINT ( 'NONE', #623 ) ;
#701 = DIRECTION ( 'NONE',  ( -0.000000000000000000, -1.000000000000000000, -0.000000000000000000 ) ) ;
#702 = EDGE_CURVE ( 'NONE', #392, #135, #827, .T. ) ;
#703 = DIRECTION ( 'NONE',  ( -1.000000000000000000, -0.000000000000000000, -0.000000000000000000 ) ) ;
#704 = LINE ( 'NONE', #1354, #735 ) ;
#705 = CARTESIAN_POINT ( 'NONE',  ( 15.00000000000000000, 0.000000000000000000, -374.2500000000000568 ) ) ;
#706 = EDGE_LOOP ( 'NONE', ( #286, #865, #15, #1308 ) ) ;
#707 = ORIENTED_EDGE ( 'NONE', *, *, #554, .F. ) ;
#708 = LINE ( 'NONE', #279, #690 ) ;
#709 = CARTESIAN_POINT ( 'NONE',  ( -15.00000000000000000, 0.000000000000000000, -221.2500000000000284 ) ) ;
#710 = CARTESIAN_POINT ( 'NONE',  ( -15.00000000000000000, 6.349999999999999645, -144.7500000000000284 ) ) ;
#711 = VECTOR ( 'NONE', #861, 1000.000000000000227 ) ;
#712 = EDGE_CURVE ( 'NONE', #693, #1271, #192, .T. ) ;
#713 = ORIENTED_EDGE ( 'NONE', *, *, #670, .T. ) ;
#714 = ORIENTED_EDGE ( 'NONE', *, *, #545, .F. ) ;
#715 = LINE ( 'NONE', #1147, #376 ) ;
#716 = AXIS2_PLACEMENT_3D ( 'NONE', #1021, #268, #1036 ) ;
#717 = VECTOR ( 'NONE', #1305, 1000.000000000000000 ) ;
#718 = CARTESIAN_POINT ( 'NONE',  ( -276.5049999999999955, 0.000000000000000000, -625.6200000000000045 ) ) ;
#719 = DIRECTION ( 'NONE',  ( -0.000000000000000000, -0.000000000000000000, 1.000000000000000000 ) ) ;
#720 = EDGE_CURVE ( 'NONE', #1144, #152, #1380, .T. ) ;
#721 = ORIENTED_EDGE ( 'NONE', *, *, #429, .F. ) ;
#722 = VERTEX_POINT ( 'NONE', #90 ) ;
#723 = CARTESIAN_POINT ( 'NONE',  ( -32.35474597061718782, 6.349999999999999645, 13.34804904009695825 ) ) ;
#724 = DIRECTION ( 'NONE',  ( 0.000000000000000000, 0.000000000000000000, -1.000000000000000000 ) ) ;
#725 = ORIENTED_EDGE ( 'NONE', *, *, #1227, .T. ) ;
#726 = VERTEX_POINT ( 'NONE', #442 ) ;
#727 = DIRECTION ( 'NONE',  ( -0.000000000000000000, -1.000000000000000000, -0.000000000000000000 ) ) ;
#728 = CARTESIAN_POINT ( 'NONE',  ( 15.00000000000000000, 0.000000000000000000, -68.25000000000000000 ) ) ;
#729 = LINE ( 'NONE', #119, #1260 ) ;
#730 = VECTOR ( 'NONE', #543, 1000.000000000000000 ) ;
#731 = ORIENTED_EDGE ( 'NONE', *, *, #613, .T. ) ;
#732 = VECTOR ( 'NONE', #645, 1000.000000000000000 ) ;
#733 = ORIENTED_EDGE ( 'NONE', *, *, #254, .T. ) ;
#734 = CARTESIAN_POINT ( 'NONE',  ( -261.5050000000001091, 0.000000000000000000, -668.8700000000001182 ) ) ;
#735 = VECTOR ( 'NONE', #1248, 1000.000000000000000 ) ;
#736 = DIRECTION ( 'NONE',  ( -1.000000000000000000, 0.000000000000000000, -0.000000000000000000 ) ) ;
#737 = CARTESIAN_POINT ( 'NONE',  ( -15.00000000000000000, 6.349999999999999645, -297.7500000000000568 ) ) ;
#738 = PERSON ( 'UNSPECIFIED', 'UNSPECIFIED', 'UNSPECIFIED', ('UNSPECIFIED'), ('UNSPECIFIED'), ('UNSPECIFIED') ) ;
#739 = ORIENTED_EDGE ( 'NONE', *, *, #976, .T. ) ;
#740 = ORIENTED_EDGE ( 'NONE', *, *, #810, .F. ) ;
#741 = PLANE ( 'NONE',  #828 ) ;
#742 = CC_DESIGN_PERSON_AND_ORGANIZATION_ASSIGNMENT ( #1326, #357, ( #1060 ) ) ;
#743 = DIRECTION ( 'NONE',  ( -0.000000000000000000, -1.000000000000000000, -0.000000000000000000 ) ) ;
#744 = DIRECTION ( 'NONE',  ( 1.000000000000000000, 0.000000000000000000, 0.000000000000000000 ) ) ;
#745 = VERTEX_POINT ( 'NONE', #558 ) ;
#746 = EDGE_LOOP ( 'NONE', ( #874, #61, #627, #321 ) ) ;
#747 = LINE ( 'NONE', #447, #730 ) ;
#748 = CARTESIAN_POINT ( 'NONE',  ( -15.00000000000000000, 6.349999999999999645, -237.7500000000000568 ) ) ;
#749 = CARTESIAN_POINT ( 'NONE',  ( -276.5049999999999955, 0.000000000000000000, -642.1200000000000045 ) ) ;
#750 = EDGE_LOOP ( 'NONE', ( #839, #428, #1198, #871 ) ) ;
#751 = EDGE_CURVE ( 'NONE', #824, #445, #1081, .T. ) ;
#752 = VECTOR ( 'NONE', #48, 1000.000000000000000 ) ;
#753 = ORIENTED_EDGE ( 'NONE', *, *, #1282, .T. ) ;
#754 = CC_DESIGN_APPROVAL ( #1100, ( #1143 ) ) ;
#755 = CARTESIAN_POINT ( 'NONE',  ( 276.5049999999999955, 0.000000000000000000, -642.1200000000000045 ) ) ;
#756 = DIRECTION ( 'NONE',  ( 0.000000000000000000, 0.000000000000000000, 1.000000000000000000 ) ) ;
#757 = DIRECTION ( 'NONE',  ( 0.000000000000000000, -0.000000000000000000, 1.000000000000000000 ) ) ;
#758 = VECTOR ( 'NONE', #806, 1000.000000000000000 ) ;
#759 = ADVANCED_FACE ( 'NONE', ( #2 ), #741, .F. ) ;
#760 = ORIENTED_EDGE ( 'NONE', *, *, #562, .F. ) ;
#761 = CIRCLE ( 'NONE', #534, 35.00000000000036238 ) ;
#762 = EDGE_CURVE ( 'NONE', #1281, #186, #970, .T. ) ;
#763 = VERTEX_POINT ( 'NONE', #340 ) ;
#764 = CARTESIAN_POINT ( 'NONE',  ( -15.00000000000000000, 0.000000000000000000, -161.2500000000000284 ) ) ;
#765 = DATE_AND_TIME ( #32, #1366 ) ;
#766 = DIRECTION ( 'NONE',  ( -1.000000000000000000, -0.000000000000000000, -0.000000000000000000 ) ) ;
#767 = ORIENTED_EDGE ( 'NONE', *, *, #380, .F. ) ;
#768 = PERSON_AND_ORGANIZATION ( #738, #574 ) ;
#769 = ORIENTED_EDGE ( 'NONE', *, *, #264, .F. ) ;
#770 = CARTESIAN_POINT ( 'NONE',  ( 261.5049999999997112, 0.000000000000000000, -633.8699999999996635 ) ) ;
#771 = EDGE_CURVE ( 'NONE', #445, #1080, #123, .T. ) ;
#772 = LINE ( 'NONE', #137, #1035 ) ;
#773 = CARTESIAN_POINT ( 'NONE',  ( -15.00000000000000000, 6.349999999999999645, -374.2500000000000568 ) ) ;
#774 = ORIENTED_EDGE ( 'NONE', *, *, #412, .F. ) ;
#775 = ORIENTED_EDGE ( 'NONE', *, *, #712, .F. ) ;
#776 = AXIS2_PLACEMENT_3D ( 'NONE', #1346, #476, #1207 ) ;
#777 = VECTOR ( 'NONE', #362, 1000.000000000000000 ) ;
#778 = EDGE_CURVE ( 'NONE', #1362, #284, #328, .T. ) ;
#779 = DIRECTION ( 'NONE',  ( -0.000000000000000000, -1.000000000000000000, -0.000000000000000000 ) ) ;
#780 = COORDINATED_UNIVERSAL_TIME_OFFSET ( 8, 0, .AHEAD. ) ;
#781 = LINE ( 'NONE', #1111, #1252 ) ;
#782 = FACE_OUTER_BOUND ( 'NONE', #378, .T. ) ;
#783 = LINE ( 'NONE', #1129, #1007 ) ;
#784 = SHAPE_DEFINITION_REPRESENTATION ( #650, #151 ) ;
#785 = AXIS2_PLACEMENT_3D ( 'NONE', #1318, #986, #134 ) ;
#786 = ORIENTED_EDGE ( 'NONE', *, *, #299, .F. ) ;
#787 = LINE ( 'NONE', #1119, #147 ) ;
#788 = CARTESIAN_POINT ( 'NONE',  ( -15.00000000000000000, 0.000000000000000000, -297.7500000000000568 ) ) ;
#789 = FACE_OUTER_BOUND ( 'NONE', #1221, .T. ) ;
#790 = CARTESIAN_POINT ( 'NONE',  ( 246.5049999999999955, 6.349999999999999645, -642.1200000000000045 ) ) ;
#791 = DIRECTION ( 'NONE',  ( 0.000000000000000000, 0.000000000000000000, 1.000000000000000000 ) ) ;
#792 = ORIENTED_EDGE ( 'NONE', *, *, #771, .T. ) ;
#793 = DIRECTION ( 'NONE',  ( 0.000000000000000000, 0.000000000000000000, -1.000000000000000000 ) ) ;
#794 = CARTESIAN_POINT ( 'NONE',  ( 15.00000000000000000, 6.349999999999999645, -390.7500000000000568 ) ) ;
#795 = LINE ( 'NONE', #564, #1204 ) ;
#796 = APPLICATION_CONTEXT ( 'configuration controlled 3d designs of mechanical parts and assemblies' ) ;
#797 = DIRECTION ( 'NONE',  ( -0.000000000000000000, -0.000000000000000000, 1.000000000000000000 ) ) ;
#798 = CARTESIAN_POINT ( 'NONE',  ( 15.00000000000000000, 6.349999999999999645, -374.2500000000000568 ) ) ;
#799 = ORIENTED_EDGE ( 'NONE', *, *, #702, .T. ) ;
#800 = EDGE_CURVE ( 'NONE', #1004, #263, #230, .T. ) ;
#801 = EDGE_CURVE ( 'NONE', #745, #722, #322, .T. ) ;
#802 = ORIENTED_EDGE ( 'NONE', *, *, #826, .F. ) ;
#803 = DIRECTION ( 'NONE',  ( 0.000000000000000000, 0.000000000000000000, -1.000000000000000000 ) ) ;
#804 = AXIS2_PLACEMENT_3D ( 'NONE', #1262, #414, #820 ) ;
#805 = FACE_OUTER_BOUND ( 'NONE', #115, .T. ) ;
#806 = DIRECTION ( 'NONE',  ( -0.000000000000000000, -0.000000000000000000, 1.000000000000000000 ) ) ;
#807 = EDGE_CURVE ( 'NONE', #520, #622, #18, .T. ) ;
#808 = DIRECTION ( 'NONE',  ( -0.3813728297170554393, 0.000000000000000000, -0.9244213134462043735 ) ) ;
#809 = ORIENTED_EDGE ( 'NONE', *, *, #274, .T. ) ;
#810 = EDGE_CURVE ( 'NONE', #677, #832, #117, .T. ) ;
#811 = ORIENTED_EDGE ( 'NONE', *, *, #1117, .F. ) ;
#812 = DIRECTION ( 'NONE',  ( 0.000000000000000000, 0.000000000000000000, -1.000000000000000000 ) ) ;
#813 = DIRECTION ( 'NONE',  ( 0.000000000000000000, 0.000000000000000000, 1.000000000000000000 ) ) ;
#814 = PLANE ( 'NONE',  #356 ) ;
#815 = CARTESIAN_POINT ( 'NONE',  ( -32.35474597061718782, 6.349999999999999645, 13.34804904009695825 ) ) ;
#816 = ORIENTED_EDGE ( 'NONE', *, *, #684, .F. ) ;
#817 = ORIENTED_EDGE ( 'NONE', *, *, #77, .F. ) ;
#818 = FACE_OUTER_BOUND ( 'NONE', #706, .T. ) ;
#819 = ADVANCED_FACE ( 'NONE', ( #110 ), #854, .T. ) ;
#820 = DIRECTION ( 'NONE',  ( -1.000000000000000000, 0.000000000000000000, -0.000000000000000000 ) ) ;
#821 = EDGE_CURVE ( 'NONE', #1023, #194, #435, .T. ) ;
#822 = PLANE ( 'NONE',  #1187 ) ;
#823 = VERTEX_POINT ( 'NONE', #536 ) ;
#824 = VERTEX_POINT ( 'NONE', #755 ) ;
#825 = LINE ( 'NONE', #287, #1205 ) ;
#826 = EDGE_CURVE ( 'NONE', #1390, #513, #217, .T. ) ;
#827 = LINE ( 'NONE', #718, #943 ) ;
#828 = AXIS2_PLACEMENT_3D ( 'NONE', #644, #977, #530 ) ;
#829 = DIRECTION ( 'NONE',  ( 1.000000000000000000, 0.000000000000000000, 0.000000000000000000 ) ) ;
#830 = VECTOR ( 'NONE', #531, 1000.000000000000000 ) ;
#831 = ORIENTED_EDGE ( 'NONE', *, *, #1218, .F. ) ;
#832 = VERTEX_POINT ( 'NONE', #764 ) ;
#833 = VECTOR ( 'NONE', #311, 1000.000000000000000 ) ;
#834 = VECTOR ( 'NONE', #991, 1000.000000000000000 ) ;
#835 = DIRECTION ( 'NONE',  ( -0.000000000000000000, -0.000000000000000000, 1.000000000000000000 ) ) ;
#836 = ADVANCED_FACE ( 'NONE', ( #1173 ), #1386, .T. ) ;
#837 = CARTESIAN_POINT ( 'NONE',  ( -15.00000000000000000, 0.000000000000000000, -144.7500000000000284 ) ) ;
#838 = EDGE_LOOP ( 'NONE', ( #852, #933, #178, #843 ) ) ;
#839 = ORIENTED_EDGE ( 'NONE', *, *, #1266, .F. ) ;
#840 = DIRECTION ( 'NONE',  ( -0.000000000000000000, -0.000000000000000000, 1.000000000000000000 ) ) ;
#841 = LINE ( 'NONE', #630, #148 ) ;
#842 = LINE ( 'NONE', #1270, #902 ) ;
#843 = ORIENTED_EDGE ( 'NONE', *, *, #638, .T. ) ;
#844 = ORIENTED_EDGE ( 'NONE', *, *, #380, .T. ) ;
#845 = CARTESIAN_POINT ( 'NONE',  ( -15.00000000000000000, 6.349999999999999645, -8.250000000000000000 ) ) ;
#846 = LINE ( 'NONE', #655, #330 ) ;
#847 = CARTESIAN_POINT ( 'NONE',  ( -32.35474597061718782, 0.000000000000000000, 13.34804904009695825 ) ) ;
#848 = AXIS2_PLACEMENT_3D ( 'NONE', #364, #687, #803 ) ;
#849 = VECTOR ( 'NONE', #1051, 1000.000000000000000 ) ;
#850 = VERTEX_POINT ( 'NONE', #1087 ) ;
#851 = AXIS2_PLACEMENT_3D ( 'NONE', #51, #1106, #698 ) ;
#852 = ORIENTED_EDGE ( 'NONE', *, *, #280, .F. ) ;
#853 = EDGE_CURVE ( 'NONE', #763, #628, #1193, .T. ) ;
#854 = PLANE ( 'NONE',  #418 ) ;
#855 = LINE ( 'NONE', #625, #1183 ) ;
#856 = CARTESIAN_POINT ( 'NONE',  ( 246.5049999999999955, 6.349999999999999645, -625.6200000000000045 ) ) ;
#857 = ORIENTED_EDGE ( 'NONE', *, *, #1006, .T. ) ;
#858 = ORIENTED_EDGE ( 'NONE', *, *, #1264, .T. ) ;
#859 = DIRECTION ( 'NONE',  ( -0.000000000000000000, -0.000000000000000000, 1.000000000000000000 ) ) ;
#860 = EDGE_CURVE ( 'NONE', #726, #535, #747, .T. ) ;
#861 = DIRECTION ( 'NONE',  ( 0.3813728297170553838, 0.000000000000000000, -0.9244213134462043735 ) ) ;
#862 = LINE ( 'NONE', #1196, #581 ) ;
#863 = EDGE_CURVE ( 'NONE', #628, #293, #990, .T. ) ;
#864 = VERTEX_POINT ( 'NONE', #130 ) ;
#865 = ORIENTED_EDGE ( 'NONE', *, *, #821, .F. ) ;
#866 = DIRECTION ( 'NONE',  ( 0.000000000000000000, 1.000000000000000000, -0.000000000000000000 ) ) ;
#867 = EDGE_CURVE ( 'NONE', #1379, #600, #634, .T. ) ;
#868 = DIRECTION ( 'NONE',  ( 0.000000000000000000, 1.000000000000000000, 0.000000000000000000 ) ) ;
#869 = LINE ( 'NONE', #212, #834 ) ;
#870 = EDGE_CURVE ( 'NONE', #591, #245, #248, .T. ) ;
#871 = ORIENTED_EDGE ( 'NONE', *, *, #77, .T. ) ;
#872 = AXIS2_PLACEMENT_3D ( 'NONE', #468, #1103, #272 ) ;
#873 = APPROVAL_DATE_TIME ( #1322, #528 ) ;
#874 = ORIENTED_EDGE ( 'NONE', *, *, #141, .F. ) ;
#875 = VECTOR ( 'NONE', #496, 1000.000000000000000 ) ;
#876 = CARTESIAN_POINT ( 'NONE',  ( 246.5049999999999955, 0.000000000000000000, -642.1200000000000045 ) ) ;
#877 = PERSON_AND_ORGANIZATION ( #738, #574 ) ;
#878 = CARTESIAN_POINT ( 'NONE',  ( -15.00000000000000000, 6.349999999999999645, -221.2500000000000284 ) ) ;
#879 = ADVANCED_FACE ( 'NONE', ( #1109 ), #24, .T. ) ;
#880 = PLANE ( 'NONE',  #68 ) ;
#881 = EDGE_LOOP ( 'NONE', ( #753, #1265, #774, #686 ) ) ;
#882 = CARTESIAN_POINT ( 'NONE',  ( -15.00000000000000000, 6.349999999999999645, -297.7500000000000568 ) ) ;
#883 =( LENGTH_UNIT ( ) NAMED_UNIT ( * ) SI_UNIT ( .MILLI., .METRE. ) );
#884 = DIRECTION ( 'NONE',  ( 0.000000000000000000, 0.000000000000000000, -1.000000000000000000 ) ) ;
#885 = ORIENTED_EDGE ( 'NONE', *, *, #800, .T. ) ;
#886 = ORIENTED_EDGE ( 'NONE', *, *, #1017, .T. ) ;
#887 = PLANE ( 'NONE',  #1160 ) ;
#888 = DATE_TIME_ROLE ( 'creation_date' ) ;
#889 = CARTESIAN_POINT ( 'NONE',  ( -261.5050000000001091, 0.000000000000000000, -668.8700000000001182 ) ) ;
#890 = ORIENTED_EDGE ( 'NONE', *, *, #1358, .F. ) ;
#891 = CARTESIAN_POINT ( 'NONE',  ( 15.00000000000000000, 0.000000000000000000, -314.2500000000000568 ) ) ;
#892 = VERTEX_POINT ( 'NONE', #1024 ) ;
#893 = VECTOR ( 'NONE', #727, 1000.000000000000000 ) ;
#894 = VECTOR ( 'NONE', #1290, 1000.000000000000000 ) ;
#895 = LINE ( 'NONE', #1222, #987 ) ;
#896 = EDGE_CURVE ( 'NONE', #46, #245, #355, .T. ) ;
#897 = APPROVAL_DATE_TIME ( #461, #511 ) ;
#898 = CARTESIAN_POINT ( 'NONE',  ( -15.00000000000000000, 6.349999999999999645, -237.7500000000000568 ) ) ;
#899 = LINE ( 'NONE', #1112, #949 ) ;
#900 = AXIS2_PLACEMENT_3D ( 'NONE', #605, #523, #626 ) ;
#901 = DIRECTION ( 'NONE',  ( 0.000000000000000000, 0.000000000000000000, -1.000000000000000000 ) ) ;
#902 = VECTOR ( 'NONE', #302, 1000.000000000000000 ) ;
#903 = ORIENTED_EDGE ( 'NONE', *, *, #176, .T. ) ;
#904 = DIRECTION ( 'NONE',  ( 0.000000000000000000, 0.000000000000000000, 1.000000000000000000 ) ) ;
#905 = PERSON_AND_ORGANIZATION_ROLE ( 'classification_officer' ) ;
#906 = CARTESIAN_POINT ( 'NONE',  ( 15.00000000000000000, 0.000000000000000000, -297.7500000000000568 ) ) ;
#907 = EDGE_CURVE ( 'NONE', #864, #1080, #787, .T. ) ;
#908 = LINE ( 'NONE', #1128, #758 ) ;
#909 = EDGE_CURVE ( 'NONE', #628, #152, #1126, .T. ) ;
#910 = CARTESIAN_POINT ( 'NONE',  ( 15.00000000000000000, 6.349999999999999645, -390.7500000000000568 ) ) ;
#911 = ORIENTED_EDGE ( 'NONE', *, *, #1255, .F. ) ;
#912 = ORIENTED_EDGE ( 'NONE', *, *, #867, .F. ) ;
#913 = CARTESIAN_POINT ( 'NONE',  ( 276.5049999999999955, 6.349999999999999645, -625.6200000000000045 ) ) ;
#914 = DIRECTION ( 'NONE',  ( 0.3813728297170553838, -0.000000000000000000, 0.9244213134462043735 ) ) ;
#915 = ADVANCED_FACE ( 'NONE', ( #459 ), #241, .T. ) ;
#916 = DIRECTION ( 'NONE',  ( 1.000000000000000000, 0.000000000000000000, -0.000000000000000000 ) ) ;
#917 = EDGE_CURVE ( 'NONE', #213, #892, #84, .T. ) ;
#918 = PLANE ( 'NONE',  #1298 ) ;
#919 = ORIENTED_EDGE ( 'NONE', *, *, #1125, .F. ) ;
#920 = VERTEX_POINT ( 'NONE', #913 ) ;
#921 = LINE ( 'NONE', #381, #375 ) ;
#922 = AXIS2_PLACEMENT_3D ( 'NONE', #143, #39, #904 ) ;
#923 = FACE_OUTER_BOUND ( 'NONE', #150, .T. ) ;
#924 = AXIS2_PLACEMENT_3D ( 'NONE', #1083, #868, #756 ) ;
#925 = LINE ( 'NONE', #1069, #222 ) ;
#926 = DIRECTION ( 'NONE',  ( 1.000000000000000000, -0.000000000000000000, 0.000000000000000000 ) ) ;
#927 = ORIENTED_EDGE ( 'NONE', *, *, #551, .T. ) ;
#928 = ORIENTED_EDGE ( 'NONE', *, *, #712, .T. ) ;
#929 = EDGE_CURVE ( 'NONE', #161, #129, #1008, .T. ) ;
#930 = DIRECTION ( 'NONE',  ( -1.000000000000000000, 0.000000000000000000, -0.000000000000000000 ) ) ;
#931 = CARTESIAN_POINT ( 'NONE',  ( -15.00000000000000000, 0.000000000000000000, -374.2500000000000568 ) ) ;
#932 = DIRECTION ( 'NONE',  ( -0.000000000000000000, -1.000000000000000000, -0.000000000000000000 ) ) ;
#933 = ORIENTED_EDGE ( 'NONE', *, *, #1017, .F. ) ;
#934 = ADVANCED_FACE ( 'NONE', ( #673 ), #372, .T. ) ;
#935 = ORIENTED_EDGE ( 'NONE', *, *, #807, .F. ) ;
#936 = CARTESIAN_POINT ( 'NONE',  ( -15.00000000000000000, 6.349999999999999645, -390.7500000000000568 ) ) ;
#937 = FACE_OUTER_BOUND ( 'NONE', #185, .T. ) ;
#938 = DIRECTION ( 'NONE',  ( -0.000000000000000000, -1.000000000000000000, -0.000000000000000000 ) ) ;
#939 = ORIENTED_EDGE ( 'NONE', *, *, #720, .T. ) ;
#940 = EDGE_LOOP ( 'NONE', ( #974, #487, #1178, #1337 ) ) ;
#941 = PLANE ( 'NONE',  #307 ) ;
#942 = FACE_OUTER_BOUND ( 'NONE', #881, .T. ) ;
#943 = VECTOR ( 'NONE', #835, 1000.000000000000000 ) ;
#944 = UNCERTAINTY_MEASURE_WITH_UNIT (LENGTH_MEASURE( 1.000000000000000082E-05 ), #883, 'distance_accuracy_value', 'NONE');
#945 = DIRECTION ( 'NONE',  ( 0.000000000000000000, 0.000000000000000000, -1.000000000000000000 ) ) ;
#946 = VECTOR ( 'NONE', #584, 1000.000000000000000 ) ;
#947 = ORIENTED_EDGE ( 'NONE', *, *, #133, .F. ) ;
#948 = ORIENTED_EDGE ( 'NONE', *, *, #807, .T. ) ;
#949 = VECTOR ( 'NONE', #575, 1000.000000000000000 ) ;
#950 = AXIS2_PLACEMENT_3D ( 'NONE', #1396, #438, #757 ) ;
#951 = LINE ( 'NONE', #845, #259 ) ;
#952 = LINE ( 'NONE', #111, #1140 ) ;
#953 = CARTESIAN_POINT ( 'NONE',  ( 261.5050000000001091, 0.000000000000000000, -668.8700000000001182 ) ) ;
#954 = ORIENTED_EDGE ( 'NONE', *, *, #404, .F. ) ;
#955 = ORIENTED_EDGE ( 'NONE', *, *, #1062, .F. ) ;
#956 = FACE_OUTER_BOUND ( 'NONE', #838, .T. ) ;
#957 = DIRECTION ( 'NONE',  ( 0.000000000000000000, 0.000000000000000000, 1.000000000000000000 ) ) ;
#958 = CARTESIAN_POINT ( 'NONE',  ( 15.00000000000000000, 0.000000000000000000, -161.2500000000000284 ) ) ;
#959 = VERTEX_POINT ( 'NONE', #1233 ) ;
#960 = ADVANCED_FACE ( 'NONE', ( #1132 ), #153, .T. ) ;
#961 = ORIENTED_EDGE ( 'NONE', *, *, #1071, .T. ) ;
#962 = CARTESIAN_POINT ( 'NONE',  ( 15.00000000000000000, 6.349999999999999645, -374.2500000000000568 ) ) ;
#963 = CARTESIAN_POINT ( 'NONE',  ( -246.5049999999999955, 6.349999999999999645, -625.6200000000000045 ) ) ;
#964 = DIRECTION ( 'NONE',  ( -1.000000000000000000, 0.000000000000000000, -0.000000000000000000 ) ) ;
#965 = VECTOR ( 'NONE', #329, 1000.000000000000000 ) ;
#966 = AXIS2_PLACEMENT_3D ( 'NONE', #252, #352, #568 ) ;
#967 = EDGE_LOOP ( 'NONE', ( #320, #740, #1157, #1391 ) ) ;
#968 = EDGE_LOOP ( 'NONE', ( #89, #1378, #426, #326 ) ) ;
#969 = ADVANCED_FACE ( 'NONE', ( #453 ), #172, .T. ) ;
#970 = LINE ( 'NONE', #666, #1230 ) ;
#971 = VECTOR ( 'NONE', #797, 1000.000000000000000 ) ;
#972 = CARTESIAN_POINT ( 'NONE',  ( -15.00000000000000000, 0.000000000000000000, 8.250000000000000000 ) ) ;
#973 = FACE_OUTER_BOUND ( 'NONE', #746, .T. ) ;
#974 = ORIENTED_EDGE ( 'NONE', *, *, #720, .F. ) ;
#975 = ORIENTED_EDGE ( 'NONE', *, *, #360, .T. ) ;
#976 = EDGE_CURVE ( 'NONE', #293, #201, #895, .T. ) ;
#977 = DIRECTION ( 'NONE',  ( 0.000000000000000000, 0.000000000000000000, 1.000000000000000000 ) ) ;
#978 = CARTESIAN_POINT ( 'NONE',  ( -293.8597459706173822, 6.349999999999999645, -620.5219509599029379 ) ) ;
#979 = FACE_BOUND ( 'NONE', #334, .T. ) ;
#980 = EDGE_LOOP ( 'NONE', ( #229, #21, #303, #725 ) ) ;
#981 = EDGE_CURVE ( 'NONE', #920, #488, #921, .T. ) ;
#982 = CALENDAR_DATE ( 2026, 24, 7 ) ;
#983 = ORIENTED_EDGE ( 'NONE', *, *, #519, .T. ) ;
#984 = CARTESIAN_POINT ( 'NONE',  ( -246.5049999999999955, 6.349999999999999645, -642.1200000000000045 ) ) ;
#985 = CARTESIAN_POINT ( 'NONE',  ( 15.00000000000000000, 0.000000000000000000, -374.2500000000000568 ) ) ;
#986 = DIRECTION ( 'NONE',  ( -1.000000000000000000, 0.000000000000000000, 0.000000000000000000 ) ) ;
#987 = VECTOR ( 'NONE', #136, 1000.000000000000000 ) ;
#988 = ORIENTED_EDGE ( 'NONE', *, *, #1006, .F. ) ;
#989 = VECTOR ( 'NONE', #25, 1000.000000000000000 ) ;
#990 = LINE ( 'NONE', #882, #1343 ) ;
#991 = DIRECTION ( 'NONE',  ( -0.000000000000000000, -0.000000000000000000, 1.000000000000000000 ) ) ;
#992 = VERTEX_POINT ( 'NONE', #255 ) ;
#993 = VERTEX_POINT ( 'NONE', #563 ) ;
#994 = CARTESIAN_POINT ( 'NONE',  ( 261.5050000000001091, 6.349999999999999645, -668.8700000000001182 ) ) ;
#995 = CALENDAR_DATE ( 2026, 24, 7 ) ;
#996 = CARTESIAN_POINT ( 'NONE',  ( -15.00000000000000000, 0.000000000000000000, -84.75000000000001421 ) ) ;
#997 = ORIENTED_EDGE ( 'NONE', *, *, #410, .F. ) ;
#998 = CC_DESIGN_DATE_AND_TIME_ASSIGNMENT ( #454, #888, ( #1143 ) ) ;
#999 = ORIENTED_EDGE ( 'NONE', *, *, #653, .F. ) ;
#1000 = DIRECTION ( 'NONE',  ( -0.3813728297170554393, 0.000000000000000000, 0.9244213134462043735 ) ) ;
#1001 = CARTESIAN_POINT ( 'NONE',  ( 15.00000000000000000, 0.000000000000000000, -297.7500000000000568 ) ) ;
#1002 = LINE ( 'NONE', #683, #1210 ) ;
#1003 = CARTESIAN_POINT ( 'NONE',  ( 246.5049999999999955, 0.000000000000000000, -625.6200000000000045 ) ) ;
#1004 = VERTEX_POINT ( 'NONE', #994 ) ;
#1005 = VECTOR ( 'NONE', #1061, 1000.000000000000000 ) ;
#1006 = EDGE_CURVE ( 'NONE', #1, #344, #164, .T. ) ;
#1007 = VECTOR ( 'NONE', #1228, 1000.000000000000000 ) ;
#1008 = LINE ( 'NONE', #1018, #526 ) ;
#1009 = ADVANCED_FACE ( 'NONE', ( #1239 ), #887, .F. ) ;
#1010 = PERSON_AND_ORGANIZATION ( #738, #574 ) ;
#1011 = DIRECTION ( 'NONE',  ( -0.000000000000000000, -1.000000000000000000, -0.000000000000000000 ) ) ;
#1012 = LINE ( 'NONE', #275, #1259 ) ;
#1013 = CARTESIAN_POINT ( 'NONE',  ( 15.00000000000000000, 6.349999999999999645, -374.2500000000000568 ) ) ;
#1014 = AXIS2_PLACEMENT_3D ( 'NONE', #1149, #512, #1377 ) ;
#1015 = ORIENTED_EDGE ( 'NONE', *, *, #156, .F. ) ;
#1016 = ORIENTED_EDGE ( 'NONE', *, *, #567, .F. ) ;
#1017 = EDGE_CURVE ( 'NONE', #600, #439, #1357, .T. ) ;
#1018 = CARTESIAN_POINT ( 'NONE',  ( -15.00000000000000000, 6.349999999999999645, -374.2500000000000568 ) ) ;
#1019 = EDGE_CURVE ( 'NONE', #1271, #993, #708, .T. ) ;
#1020 = LINE ( 'NONE', #49, #348 ) ;
#1021 = CARTESIAN_POINT ( 'NONE',  ( 15.00000000000000000, 6.349999999999999645, -374.2500000000000568 ) ) ;
#1022 = LINE ( 'NONE', #1269, #1387 ) ;
#1023 = VERTEX_POINT ( 'NONE', #1046 ) ;
#1024 = CARTESIAN_POINT ( 'NONE',  ( 32.35474597061718782, 0.000000000000000000, 13.34804904009695825 ) ) ;
#1025 = FACE_BOUND ( 'NONE', #405, .T. ) ;
#1026 = CARTESIAN_POINT ( 'NONE',  ( -276.5049999999999955, 6.349999999999999645, -625.6200000000000045 ) ) ;
#1027 = LINE ( 'NONE', #798, #1163 ) ;
#1028 = EDGE_CURVE ( 'NONE', #1177, #892, #393, .T. ) ;
#1029 = ORIENTED_EDGE ( 'NONE', *, *, #762, .F. ) ;
#1030 = ORIENTED_EDGE ( 'NONE', *, *, #502, .F. ) ;
#1031 = DIRECTION ( 'NONE',  ( 0.000000000000000000, 0.000000000000000000, -1.000000000000000000 ) ) ;
#1032 = AXIS2_PLACEMENT_3D ( 'NONE', #770, #866, #336 ) ;
#1033 = LOCAL_TIME ( 10, 35, 0.000000000000000000, #1333 ) ;
#1034 = DIRECTION ( 'NONE',  ( -1.000000000000000000, -0.000000000000000000, -0.000000000000000000 ) ) ;
#1035 = VECTOR ( 'NONE', #124, 1000.000000000000000 ) ;
#1036 = DIRECTION ( 'NONE',  ( 0.000000000000000000, 0.000000000000000000, 1.000000000000000000 ) ) ;
#1037 = EDGE_CURVE ( 'NONE', #263, #614, #715, .T. ) ;
#1038 = LINE ( 'NONE', #175, #550 ) ;
#1039 = EDGE_LOOP ( 'NONE', ( #1238, #585, #620, #546 ) ) ;
#1040 = ORIENTED_EDGE ( 'NONE', *, *, #28, .F. ) ;
#1041 = DIRECTION ( 'NONE',  ( -1.000000000000000000, -0.000000000000000000, -0.000000000000000000 ) ) ;
#1042 = DIRECTION ( 'NONE',  ( 1.000000000000000000, 0.000000000000000000, 0.000000000000000000 ) ) ;
#1043 = CARTESIAN_POINT ( 'NONE',  ( -15.00000000000000000, 6.349999999999999645, -68.25000000000000000 ) ) ;
#1044 = ORIENTED_EDGE ( 'NONE', *, *, #1272, .T. ) ;
#1045 = ORIENTED_EDGE ( 'NONE', *, *, #410, .T. ) ;
#1046 = CARTESIAN_POINT ( 'NONE',  ( 15.00000000000000000, 6.349999999999999645, -8.250000000000000000 ) ) ;
#1047 = CARTESIAN_POINT ( 'NONE',  ( -15.00000000000000000, 0.000000000000000000, -221.2500000000000284 ) ) ;
#1048 = CARTESIAN_POINT ( 'NONE',  ( -276.5049999999999955, 6.349999999999999645, -642.1200000000000045 ) ) ;
#1049 = EDGE_LOOP ( 'NONE', ( #1101, #351, #1184, #30 ) ) ;
#1050 = VERTEX_POINT ( 'NONE', #936 ) ;
#1051 = DIRECTION ( 'NONE',  ( -0.000000000000000000, -1.000000000000000000, -0.000000000000000000 ) ) ;
#1052 = ADVANCED_FACE ( 'NONE', ( #818 ), #941, .T. ) ;
#1053 = VECTOR ( 'NONE', #145, 1000.000000000000000 ) ;
#1054 = EDGE_CURVE ( 'NONE', #569, #379, #180, .T. ) ;
#1055 = DIRECTION ( 'NONE',  ( -0.000000000000000000, -1.000000000000000000, -0.000000000000000000 ) ) ;
#1056 = AXIS2_PLACEMENT_3D ( 'NONE', #1068, #1074, #736 ) ;
#1057 = EDGE_LOOP ( 'NONE', ( #1124, #919, #948, #637 ) ) ;
#1058 = EDGE_LOOP ( 'NONE', ( #215, #606, #221, #1151 ) ) ;
#1059 = ADVANCED_FACE ( 'NONE', ( #1251 ), #1364, .T. ) ;
#1060 = PRODUCT ( 'Easel Triangle', 'Easel Triangle', '', ( #1310 ) ) ;
#1061 = DIRECTION ( 'NONE',  ( -1.000000000000000000, -0.000000000000000000, -0.000000000000000000 ) ) ;
#1062 = EDGE_CURVE ( 'NONE', #1023, #327, #1245, .T. ) ;
#1063 = DIRECTION ( 'NONE',  ( 0.000000000000000000, 0.000000000000000000, -1.000000000000000000 ) ) ;
#1064 = CARTESIAN_POINT ( 'NONE',  ( 246.5049999999999955, 6.349999999999999645, -625.6200000000000045 ) ) ;
#1065 = ORIENTED_EDGE ( 'NONE', *, *, #261, .F. ) ;
#1066 = ORIENTED_EDGE ( 'NONE', *, *, #562, .T. ) ;
#1067 = DIRECTION ( 'NONE',  ( 0.000000000000000000, 0.000000000000000000, -1.000000000000000000 ) ) ;
#1068 = CARTESIAN_POINT ( 'NONE',  ( -15.00000000000000000, 6.349999999999999645, 8.250000000000000000 ) ) ;
#1069 = CARTESIAN_POINT ( 'NONE',  ( 15.00000000000000000, 6.349999999999999645, 8.250000000000000000 ) ) ;
#1070 = ORIENTED_EDGE ( 'NONE', *, *, #661, .F. ) ;
#1071 = EDGE_CURVE ( 'NONE', #535, #392, #825, .T. ) ;
#1072 = VERTEX_POINT ( 'NONE', #910 ) ;
#1073 = CARTESIAN_POINT ( 'NONE',  ( -15.00000000000000000, 6.349999999999999645, -68.25000000000000000 ) ) ;
#1074 = DIRECTION ( 'NONE',  ( 0.000000000000000000, 0.000000000000000000, -1.000000000000000000 ) ) ;
#1075 = LINE ( 'NONE', #553, #1123 ) ;
#1076 = VECTOR ( 'NONE', #1325, 1000.000000000000000 ) ;
#1077 = VECTOR ( 'NONE', #537, 1000.000000000000000 ) ;
#1078 = EDGE_CURVE ( 'NONE', #52, #864, #1038, .T. ) ;
#1079 = ORIENTED_EDGE ( 'NONE', *, *, #702, .F. ) ;
#1080 = VERTEX_POINT ( 'NONE', #1003 ) ;
#1081 = LINE ( 'NONE', #876, #60 ) ;
#1082 = AXIS2_PLACEMENT_3D ( 'NONE', #1120, #366, #373 ) ;
#1083 = CARTESIAN_POINT ( 'NONE',  ( -261.5049999999997112, 0.000000000000000000, -633.8699999999996635 ) ) ;
#1084 = LINE ( 'NONE', #773, #291 ) ;
#1085 = EDGE_LOOP ( 'NONE', ( #406, #1070, #203, #928 ) ) ;
#1086 = EDGE_LOOP ( 'NONE', ( #831, #83, #458, #338 ) ) ;
#1087 = CARTESIAN_POINT ( 'NONE',  ( -15.00000000000000000, 0.000000000000000000, -84.75000000000001421 ) ) ;
#1088 = DIRECTION ( 'NONE',  ( 1.000000000000000000, 0.000000000000000000, 0.000000000000000000 ) ) ;
#1089 = CARTESIAN_POINT ( 'NONE',  ( 15.00000000000000000, 0.000000000000000000, -237.7500000000000568 ) ) ;
#1090 = FACE_OUTER_BOUND ( 'NONE', #94, .T. ) ;
#1091 = ORIENTED_EDGE ( 'NONE', *, *, #1307, .F. ) ;
#1092 = DIRECTION ( 'NONE',  ( -1.000000000000000000, -0.000000000000000000, -0.000000000000000000 ) ) ;
#1093 = DIRECTION ( 'NONE',  ( 0.3813728297170553838, 0.000000000000000000, -0.9244213134462043735 ) ) ;
#1094 = ORIENTED_EDGE ( 'NONE', *, *, #778, .T. ) ;
#1095 = AXIS2_PLACEMENT_3D ( 'NONE', #1217, #250, #382 ) ;
#1096 = ORIENTED_EDGE ( 'NONE', *, *, #896, .T. ) ;
#1097 = VECTOR ( 'NONE', #262, 1000.000000000000000 ) ;
#1098 = DIRECTION ( 'NONE',  ( 0.000000000000000000, 0.000000000000000000, -1.000000000000000000 ) ) ;
#1099 = CARTESIAN_POINT ( 'NONE',  ( 15.00000000000000000, 6.349999999999999645, 8.250000000000000000 ) ) ;
#1100 = APPROVAL ( #552, 'UNSPECIFIED' ) ;
#1101 = ORIENTED_EDGE ( 'NONE', *, *, #323, .F. ) ;
#1102 = VERTEX_POINT ( 'NONE', #705 ) ;
#1103 = DIRECTION ( 'NONE',  ( 1.000000000000000000, -0.000000000000000000, 0.000000000000000000 ) ) ;
#1104 = DIRECTION ( 'NONE',  ( 0.000000000000000000, 1.000000000000000000, 0.000000000000000000 ) ) ;
#1105 = ORIENTED_EDGE ( 'NONE', *, *, #1264, .F. ) ;
#1106 = DIRECTION ( 'NONE',  ( 0.000000000000000000, 0.000000000000000000, -1.000000000000000000 ) ) ;
#1107 = ORIENTED_EDGE ( 'NONE', *, *, #154, .F. ) ;
#1108 = ADVANCED_FACE ( 'NONE', ( #1135 ), #692, .F. ) ;
#1109 = FACE_OUTER_BOUND ( 'NONE', #1273, .T. ) ;
#1110 =( NAMED_UNIT ( * ) PLANE_ANGLE_UNIT ( ) SI_UNIT ( $, .RADIAN. ) );
#1111 = CARTESIAN_POINT ( 'NONE',  ( -15.00000000000000000, 6.349999999999999645, -84.75000000000001421 ) ) ;
#1112 = CARTESIAN_POINT ( 'NONE',  ( -15.00000000000000000, 6.349999999999999645, -237.7500000000000568 ) ) ;
#1113 = EDGE_CURVE ( 'NONE', #920, #456, #140, .T. ) ;
#1114 = CARTESIAN_POINT ( 'NONE',  ( -246.5049999999999955, 6.349999999999999645, -625.6200000000000045 ) ) ;
#1115 = ORIENTED_EDGE ( 'NONE', *, *, #1301, .F. ) ;
#1116 = VECTOR ( 'NONE', #521, 1000.000000000000000 ) ;
#1117 = EDGE_CURVE ( 'NONE', #52, #445, #577, .T. ) ;
#1118 = PRODUCT_DEFINITION_FORMATION_WITH_SPECIFIED_SOURCE ( 'ANY', '', #1060, .NOT_KNOWN. ) ;
#1119 = CARTESIAN_POINT ( 'NONE',  ( 246.5049999999999955, 6.349999999999999645, -625.6200000000000045 ) ) ;
#1120 = CARTESIAN_POINT ( 'NONE',  ( -15.00000000000000000, 6.349999999999999645, -161.2500000000000284 ) ) ;
#1121 = CARTESIAN_POINT ( 'NONE',  ( 0.000000000000000000, 6.349999999999999645, -6.591949208711866959E-14 ) ) ;
#1122 = PLANE ( 'NONE',  #36 ) ;
#1123 = VECTOR ( 'NONE', #11, 1000.000000000000000 ) ;
#1124 = ORIENTED_EDGE ( 'NONE', *, *, #1071, .F. ) ;
#1125 = EDGE_CURVE ( 'NONE', #520, #535, #1220, .T. ) ;
#1126 = LINE ( 'NONE', #31, #688 ) ;
#1127 = FACE_OUTER_BOUND ( 'NONE', #1049, .T. ) ;
#1128 = CARTESIAN_POINT ( 'NONE',  ( -15.00000000000000000, 6.349999999999999645, 8.250000000000000000 ) ) ;
#1129 = CARTESIAN_POINT ( 'NONE',  ( -15.00000000000000000, 0.000000000000000000, -221.2500000000000284 ) ) ;
#1130 = ORIENTED_EDGE ( 'NONE', *, *, #1360, .T. ) ;
#1131 = VERTEX_POINT ( 'NONE', #1114 ) ;
#1132 = FACE_OUTER_BOUND ( 'NONE', #1171, .T. ) ;
#1133 = LINE ( 'NONE', #1001, #1053 ) ;
#1134 = DIRECTION ( 'NONE',  ( 0.000000000000000000, 0.000000000000000000, -1.000000000000000000 ) ) ;
#1135 = FACE_OUTER_BOUND ( 'NONE', #78, .T. ) ;
#1136 = ORIENTED_EDGE ( 'NONE', *, *, #653, .T. ) ;
#1137 = EDGE_LOOP ( 'NONE', ( #1192, #1029, #1044, #578 ) ) ;
#1138 = CARTESIAN_POINT ( 'NONE',  ( -15.00000000000000000, 6.349999999999999645, -8.250000000000000000 ) ) ;
#1139 = VECTOR ( 'NONE', #1338, 1000.000000000000000 ) ;
#1140 = VECTOR ( 'NONE', #408, 1000.000000000000000 ) ;
#1141 = CARTESIAN_POINT ( 'NONE',  ( -15.00000000000000000, 6.349999999999999645, -314.2500000000000568 ) ) ;
#1142 = FACE_OUTER_BOUND ( 'NONE', #579, .T. ) ;
#1143 = PRODUCT_DEFINITION ( 'UNKNOWN', '', #1118, #643 ) ;
#1144 = VERTEX_POINT ( 'NONE', #891 ) ;
#1145 = VECTOR ( 'NONE', #449, 1000.000000000000000 ) ;
#1146 = ORIENTED_EDGE ( 'NONE', *, *, #1028, .F. ) ;
#1147 = CARTESIAN_POINT ( 'NONE',  ( -261.5050000000001091, 6.349999999999999645, -668.8700000000001182 ) ) ;
#1148 = CARTESIAN_POINT ( 'NONE',  ( -276.5049999999999955, 6.349999999999999645, -642.1200000000000045 ) ) ;
#1149 = CARTESIAN_POINT ( 'NONE',  ( -15.00000000000000000, 6.349999999999999645, -221.2500000000000284 ) ) ;
#1150 = ORIENTED_EDGE ( 'NONE', *, *, #1272, .F. ) ;
#1151 = ORIENTED_EDGE ( 'NONE', *, *, #1028, .T. ) ;
#1152 = EDGE_CURVE ( 'NONE', #1212, #1072, #1027, .T. ) ;
#1153 = CARTESIAN_POINT ( 'NONE',  ( -15.00000000000000000, 6.349999999999999645, 8.250000000000000000 ) ) ;
#1154 = LINE ( 'NONE', #193, #19 ) ;
#1155 = ORIENTED_EDGE ( 'NONE', *, *, #867, .T. ) ;
#1156 = ADVANCED_FACE ( 'NONE', ( #246 ), #1330, .T. ) ;
#1157 = ORIENTED_EDGE ( 'NONE', *, *, #154, .T. ) ;
#1158 = ADVANCED_FACE ( 'NONE', ( #1242 ), #37, .T. ) ;
#1159 = CARTESIAN_POINT ( 'NONE',  ( 15.00000000000000000, 0.000000000000000000, -144.7500000000000284 ) ) ;
#1160 = AXIS2_PLACEMENT_3D ( 'NONE', #1314, #345, #1000 ) ;
#1161 = LINE ( 'NONE', #963, #443 ) ;
#1162 = LINE ( 'NONE', #498, #833 ) ;
#1163 = VECTOR ( 'NONE', #901, 1000.000000000000000 ) ;
#1164 = VERTEX_POINT ( 'NONE', #678 ) ;
#1165 = EDGE_LOOP ( 'NONE', ( #769, #1191, #1155, #886 ) ) ;
#1166 = LINE ( 'NONE', #610, #893 ) ;
#1167 = DIRECTION ( 'NONE',  ( -0.000000000000000000, -1.000000000000000000, -0.000000000000000000 ) ) ;
#1168 = CARTESIAN_POINT ( 'NONE',  ( 15.00000000000000000, 6.349999999999999645, -144.7500000000000284 ) ) ;
#1169 = ADVANCED_FACE ( 'NONE', ( #1213 ), #160, .T. ) ;
#1170 = MANIFOLD_SOLID_BREP ( 'Boss-Extrude1', #556 ) ;
#1171 = EDGE_LOOP ( 'NONE', ( #1243, #1371, #271, #592 ) ) ;
#1172 = ORIENTED_EDGE ( 'NONE', *, *, #1125, .T. ) ;
#1173 = FACE_OUTER_BOUND ( 'NONE', #1085, .T. ) ;
#1174 = LINE ( 'NONE', #211, #1320 ) ;
#1175 = CARTESIAN_POINT ( 'NONE',  ( 246.5049999999999955, 0.000000000000000000, -642.1200000000000045 ) ) ;
#1176 = CC_DESIGN_DATE_AND_TIME_ASSIGNMENT ( #121, #114, ( #238 ) ) ;
#1177 = VERTEX_POINT ( 'NONE', #479 ) ;
#1178 = ORIENTED_EDGE ( 'NONE', *, *, #853, .T. ) ;
#1179 = DIRECTION ( 'NONE',  ( -1.000000000000000000, 0.000000000000000000, 0.000000000000000000 ) ) ;
#1180 = FACE_OUTER_BOUND ( 'NONE', #298, .T. ) ;
#1181 = PLANE ( 'NONE',  #649 ) ;
#1182 = VECTOR ( 'NONE', #1034, 1000.000000000000000 ) ;
#1183 = VECTOR ( 'NONE', #1277, 1000.000000000000000 ) ;
#1184 = ORIENTED_EDGE ( 'NONE', *, *, #28, .T. ) ;
#1185 = ORIENTED_EDGE ( 'NONE', *, *, #863, .F. ) ;
#1186 = DIRECTION ( 'NONE',  ( 1.000000000000000000, 0.000000000000000000, 0.000000000000000000 ) ) ;
#1187 = AXIS2_PLACEMENT_3D ( 'NONE', #472, #483, #1348 ) ;
#1188 = VECTOR ( 'NONE', #914, 1000.000000000000227 ) ;
#1189 = LINE ( 'NONE', #1395, #179 ) ;
#1190 = CARTESIAN_POINT ( 'NONE',  ( 15.00000000000000000, 6.349999999999999645, -314.2500000000000568 ) ) ;
#1191 = ORIENTED_EDGE ( 'NONE', *, *, #519, .F. ) ;
#1192 = ORIENTED_EDGE ( 'NONE', *, *, #319, .F. ) ;
#1193 = LINE ( 'NONE', #315, #101 ) ;
#1194 = ADVANCED_FACE ( 'NONE', ( #384 ), #918, .T. ) ;
#1195 = APPROVAL_DATE_TIME ( #765, #1100 ) ;
#1196 = CARTESIAN_POINT ( 'NONE',  ( 15.00000000000000000, 6.349999999999999645, -68.25000000000000000 ) ) ;
#1197 = PLANE ( 'NONE',  #427 ) ;
#1198 = ORIENTED_EDGE ( 'NONE', *, *, #684, .T. ) ;
#1199 = DIRECTION ( 'NONE',  ( -1.000000000000000000, -0.000000000000000000, -0.000000000000000000 ) ) ;
#1200 = EDGE_CURVE ( 'NONE', #959, #632, #783, .T. ) ;
#1201 = APPLICATION_PROTOCOL_DEFINITION ( 'international standard', 'config_control_design', 1994, #566 ) ;
#1202 = FACE_BOUND ( 'NONE', #672, .T. ) ;
#1203 = FACE_OUTER_BOUND ( 'NONE', #1231, .T. ) ;
#1204 = VECTOR ( 'NONE', #471, 1000.000000000000000 ) ;
#1205 = VECTOR ( 'NONE', #1321, 1000.000000000000000 ) ;
#1206 = ORIENTED_EDGE ( 'NONE', *, *, #1054, .T. ) ;
#1207 = DIRECTION ( 'NONE',  ( 0.000000000000000000, 0.000000000000000000, -1.000000000000000000 ) ) ;
#1208 = PERSON_AND_ORGANIZATION ( #738, #574 ) ;
#1209 = DIRECTION ( 'NONE',  ( -0.000000000000000000, -0.000000000000000000, 1.000000000000000000 ) ) ;
#1210 = VECTOR ( 'NONE', #1134, 1000.000000000000000 ) ;
#1211 = ADVANCED_FACE ( 'NONE', ( #1341 ), #1122, .T. ) ;
#1212 = VERTEX_POINT ( 'NONE', #1013 ) ;
#1213 = FACE_OUTER_BOUND ( 'NONE', #1137, .T. ) ;
#1214 = ORIENTED_EDGE ( 'NONE', *, *, #404, .T. ) ;
#1215 = DIRECTION ( 'NONE',  ( -0.000000000000000000, -1.000000000000000000, -0.000000000000000000 ) ) ;
#1216 = PERSON_AND_ORGANIZATION ( #738, #574 ) ;
#1217 = CARTESIAN_POINT ( 'NONE',  ( -276.5049999999999955, 6.349999999999999645, -625.6200000000000045 ) ) ;
#1218 = EDGE_CURVE ( 'NONE', #135, #726, #269, .T. ) ;
#1219 = CARTESIAN_POINT ( 'NONE',  ( -15.00000000000000000, 6.349999999999999645, -297.7500000000000568 ) ) ;
#1220 = LINE ( 'NONE', #457, #285 ) ;
#1221 = EDGE_LOOP ( 'NONE', ( #1079, #339, #93, #27 ) ) ;
#1222 = CARTESIAN_POINT ( 'NONE',  ( -15.00000000000000000, 6.349999999999999645, -297.7500000000000568 ) ) ;
#1223 = CARTESIAN_POINT ( 'NONE',  ( 0.000000000000000000, 0.000000000000000000, 0.000000000000000000 ) ) ;
#1224 = EDGE_CURVE ( 'NONE', #474, #1362, #169, .T. ) ;
#1225 = FACE_BOUND ( 'NONE', #105, .T. ) ;
#1226 = CARTESIAN_POINT ( 'NONE',  ( -276.5049999999999955, 0.000000000000000000, -625.6200000000000045 ) ) ;
#1227 = EDGE_CURVE ( 'NONE', #1004, #284, #1022, .T. ) ;
#1228 = DIRECTION ( 'NONE',  ( -0.000000000000000000, -0.000000000000000000, 1.000000000000000000 ) ) ;
#1229 = EDGE_LOOP ( 'NONE', ( #721, #400, #452, #983 ) ) ;
#1230 = VECTOR ( 'NONE', #1394, 1000.000000000000000 ) ;
#1231 = EDGE_LOOP ( 'NONE', ( #1237, #988, #733, #1206 ) ) ;
#1232 = AXIS2_PLACEMENT_3D ( 'NONE', #1223, #10, #1088 ) ;
#1233 = CARTESIAN_POINT ( 'NONE',  ( -15.00000000000000000, 0.000000000000000000, -237.7500000000000568 ) ) ;
#1234 = CARTESIAN_POINT ( 'NONE',  ( 276.5049999999999955, 6.349999999999999645, -642.1200000000000045 ) ) ;
#1235 = FACE_OUTER_BOUND ( 'NONE', #304, .T. ) ;
#1236 = CARTESIAN_POINT ( 'NONE',  ( 276.5049999999999955, 6.349999999999999645, -625.6200000000000045 ) ) ;
#1237 = ORIENTED_EDGE ( 'NONE', *, *, #57, .F. ) ;
#1238 = ORIENTED_EDGE ( 'NONE', *, *, #116, .F. ) ;
#1239 = FACE_OUTER_BOUND ( 'NONE', #1058, .T. ) ;
#1240 = DIRECTION ( 'NONE',  ( -0.000000000000000000, -1.000000000000000000, -0.000000000000000000 ) ) ;
#1241 = CARTESIAN_POINT ( 'NONE',  ( -15.00000000000000000, 6.349999999999999645, -84.75000000000001421 ) ) ;
#1242 = FACE_OUTER_BOUND ( 'NONE', #1302, .T. ) ;
#1243 = ORIENTED_EDGE ( 'NONE', *, *, #615, .F. ) ;
#1244 = ORIENTED_EDGE ( 'NONE', *, *, #299, .T. ) ;
#1245 = LINE ( 'NONE', #602, #260 ) ;
#1246 = ADVANCED_FACE ( 'NONE', ( #635 ), #424, .T. ) ;
#1247 = CARTESIAN_POINT ( 'NONE',  ( -15.00000000000000000, 6.349999999999999645, -161.2500000000000284 ) ) ;
#1248 = DIRECTION ( 'NONE',  ( 0.000000000000000000, 0.000000000000000000, -1.000000000000000000 ) ) ;
#1249 = ORIENTED_EDGE ( 'NONE', *, *, #386, .F. ) ;
#1250 = ORIENTED_EDGE ( 'NONE', *, *, #264, .T. ) ;
#1251 = FACE_OUTER_BOUND ( 'NONE', #1086, .T. ) ;
#1252 = VECTOR ( 'NONE', #703, 1000.000000000000000 ) ;
#1253 = VECTOR ( 'NONE', #599, 1000.000000000000000 ) ;
#1254 = LINE ( 'NONE', #1359, #236 ) ;
#1255 = EDGE_CURVE ( 'NONE', #823, #1177, #350, .T. ) ;
#1256 = LINE ( 'NONE', #1048, #469 ) ;
#1257 = EDGE_CURVE ( 'NONE', #474, #1004, #641, .T. ) ;
#1258 = VERTEX_POINT ( 'NONE', #748 ) ;
#1259 = VECTOR ( 'NONE', #465, 1000.000000000000000 ) ;
#1260 = VECTOR ( 'NONE', #766, 1000.000000000000000 ) ;
#1261 = ORIENTED_EDGE ( 'NONE', *, *, #1315, .T. ) ;
#1262 = CARTESIAN_POINT ( 'NONE',  ( -15.00000000000000000, 6.349999999999999645, -68.25000000000000000 ) ) ;
#1263 = LINE ( 'NONE', #856, #155 ) ;
#1264 = EDGE_CURVE ( 'NONE', #161, #1212, #855, .T. ) ;
#1265 = ORIENTED_EDGE ( 'NONE', *, *, #508, .F. ) ;
#1266 = EDGE_CURVE ( 'NONE', #379, #959, #301, .T. ) ;
#1267 = EDGE_LOOP ( 'NONE', ( #370, #1374, #699, #398 ) ) ;
#1268 = LINE ( 'NONE', #962, #441 ) ;
#1269 = CARTESIAN_POINT ( 'NONE',  ( 261.5050000000001091, 6.349999999999999645, -668.8700000000001182 ) ) ;
#1270 = CARTESIAN_POINT ( 'NONE',  ( -15.00000000000000000, 0.000000000000000000, -144.7500000000000284 ) ) ;
#1271 = VERTEX_POINT ( 'NONE', #972 ) ;
#1272 = EDGE_CURVE ( 'NONE', #1281, #992, #1189, .T. ) ;
#1273 = EDGE_LOOP ( 'NONE', ( #760, #270, #450, #195 ) ) ;
#1274 = ADVANCED_FACE ( 'NONE', ( #1180 ), #516, .T. ) ;
#1275 = DIRECTION ( 'NONE',  ( -1.000000000000000000, 0.000000000000000000, -0.000000000000000000 ) ) ;
#1276 = VECTOR ( 'NONE', #1209, 1000.000000000000000 ) ;
#1277 = DIRECTION ( 'NONE',  ( 1.000000000000000000, 0.000000000000000000, 0.000000000000000000 ) ) ;
#1278 = FACE_OUTER_BOUND ( 'NONE', #1039, .T. ) ;
#1279 = CC_DESIGN_APPROVAL ( #511, ( #1118 ) ) ;
#1280 = ORIENTED_EDGE ( 'NONE', *, *, #976, .F. ) ;
#1281 = VERTEX_POINT ( 'NONE', #492 ) ;
#1282 = EDGE_CURVE ( 'NONE', #614, #100, #126, .T. ) ;
#1283 = DIRECTION ( 'NONE',  ( 1.000000000000000000, -0.000000000000000000, 0.000000000000000000 ) ) ;
#1284 = DIRECTION ( 'NONE',  ( 1.000000000000000000, -0.000000000000000000, -0.000000000000000000 ) ) ;
#1285 = DIRECTION ( 'NONE',  ( 1.000000000000000000, 0.000000000000000000, 0.000000000000000000 ) ) ;
#1286 = EDGE_LOOP ( 'NONE', ( #786, #816, #525, #1091 ) ) ;
#1287 = EDGE_LOOP ( 'NONE', ( #170, #162, #417, #857 ) ) ;
#1288 = CARTESIAN_POINT ( 'NONE',  ( 15.00000000000000000, 6.349999999999999645, -8.250000000000000000 ) ) ;
#1289 = EDGE_CURVE ( 'NONE', #1177, #474, #415, .T. ) ;
#1290 = DIRECTION ( 'NONE',  ( -1.000000000000000000, -0.000000000000000000, -0.000000000000000000 ) ) ;
#1291 = LINE ( 'NONE', #985, #43 ) ;
#1292 = DIRECTION ( 'NONE',  ( 0.000000000000000000, 0.000000000000000000, -1.000000000000000000 ) ) ;
#1293 = ORIENTED_EDGE ( 'NONE', *, *, #451, .F. ) ;
#1294 = CARTESIAN_POINT ( 'NONE',  ( -15.00000000000000000, 0.000000000000000000, -297.7500000000000568 ) ) ;
#1295 = DIRECTION ( 'NONE',  ( 0.000000000000000000, 0.000000000000000000, 1.000000000000000000 ) ) ;
#1296 = DIRECTION ( 'NONE',  ( -0.000000000000000000, -0.000000000000000000, 1.000000000000000000 ) ) ;
#1297 = VECTOR ( 'NONE', #1215, 1000.000000000000000 ) ;
#1298 = AXIS2_PLACEMENT_3D ( 'NONE', #685, #276, #1349 ) ;
#1299 = DIRECTION ( 'NONE',  ( 0.000000000000000000, 0.000000000000000000, 1.000000000000000000 ) ) ;
#1300 = EDGE_CURVE ( 'NONE', #194, #292, #96, .T. ) ;
#1301 = EDGE_CURVE ( 'NONE', #201, #513, #846, .T. ) ;
#1302 = EDGE_LOOP ( 'NONE', ( #612, #811, #113, #70 ) ) ;
#1303 = DIRECTION ( 'NONE',  ( -1.000000000000000000, 0.000000000000000000, 0.000000000000000000 ) ) ;
#1304 = COORDINATED_UNIVERSAL_TIME_OFFSET ( 8, 0, .AHEAD. ) ;
#1305 = DIRECTION ( 'NONE',  ( -1.000000000000000000, -0.000000000000000000, -0.000000000000000000 ) ) ;
#1306 = ORIENTED_EDGE ( 'NONE', *, *, #220, .T. ) ;
#1307 = EDGE_CURVE ( 'NONE', #391, #1, #69, .T. ) ;
#1308 = ORIENTED_EDGE ( 'NONE', *, *, #661, .T. ) ;
#1309 = CARTESIAN_POINT ( 'NONE',  ( -15.00000000000000000, 6.349999999999999645, -161.2500000000000284 ) ) ;
#1310 = MECHANICAL_CONTEXT ( 'NONE', #796, 'mechanical' ) ;
#1311 = CARTESIAN_POINT ( 'NONE',  ( -15.00000000000000000, 6.349999999999999645, -390.7500000000000568 ) ) ;
#1312 = EDGE_LOOP ( 'NONE', ( #76, #297, #858, #253 ) ) ;
#1313 = ORIENTED_EDGE ( 'NONE', *, *, #386, .T. ) ;
#1314 = CARTESIAN_POINT ( 'NONE',  ( 32.35474597061718782, 6.349999999999999645, 13.34804904009695825 ) ) ;
#1315 = EDGE_CURVE ( 'NONE', #100, #213, #841, .T. ) ;
#1316 = APPROVAL_STATUS ( 'not_yet_approved' ) ;
#1317 = FACE_BOUND ( 'NONE', #191, .T. ) ;
#1318 = CARTESIAN_POINT ( 'NONE',  ( -246.5049999999999955, 6.349999999999999645, -625.6200000000000045 ) ) ;
#1319 = AXIS2_PLACEMENT_3D ( 'NONE', #1347, #1104, #359 ) ;
#1320 = VECTOR ( 'NONE', #256, 1000.000000000000000 ) ;
#1321 = DIRECTION ( 'NONE',  ( -1.000000000000000000, 0.000000000000000000, 0.000000000000000000 ) ) ;
#1322 = DATE_AND_TIME ( #982, #642 ) ;
#1323 = ORIENTED_EDGE ( 'NONE', *, *, #981, .F. ) ;
#1324 = EDGE_CURVE ( 'NONE', #1131, #726, #952, .T. ) ;
#1325 = DIRECTION ( 'NONE',  ( -0.000000000000000000, -1.000000000000000000, -0.000000000000000000 ) ) ;
#1326 = PERSON_AND_ORGANIZATION ( #738, #574 ) ;
#1327 = FACE_BOUND ( 'NONE', #527, .T. ) ;
#1328 = VECTOR ( 'NONE', #1055, 1000.000000000000000 ) ;
#1329 = DIRECTION ( 'NONE',  ( 1.000000000000000000, -0.000000000000000000, 0.000000000000000000 ) ) ;
#1330 = PLANE ( 'NONE',  #966 ) ;
#1331 = ORIENTED_EDGE ( 'NONE', *, *, #141, .T. ) ;
#1332 = CARTESIAN_POINT ( 'NONE',  ( 261.5049999999997112, 6.349999999999999645, -633.8699999999996635 ) ) ;
#1333 = COORDINATED_UNIVERSAL_TIME_OFFSET ( 8, 0, .AHEAD. ) ;
#1334 = CARTESIAN_POINT ( 'NONE',  ( -15.00000000000000000, 6.349999999999999645, -84.75000000000001421 ) ) ;
#1335 = DIRECTION ( 'NONE',  ( -0.000000000000000000, -1.000000000000000000, -0.000000000000000000 ) ) ;
#1336 = DIRECTION ( 'NONE',  ( -0.000000000000000000, -0.000000000000000000, 1.000000000000000000 ) ) ;
#1337 = ORIENTED_EDGE ( 'NONE', *, *, #909, .T. ) ;
#1338 = DIRECTION ( 'NONE',  ( 0.000000000000000000, 0.000000000000000000, -1.000000000000000000 ) ) ;
#1339 = FACE_BOUND ( 'NONE', #333, .T. ) ;
#1340 = CARTESIAN_POINT ( 'NONE',  ( -15.00000000000000000, 0.000000000000000000, -374.2500000000000568 ) ) ;
#1341 = FACE_OUTER_BOUND ( 'NONE', #940, .T. ) ;
#1342 = ORIENTED_EDGE ( 'NONE', *, *, #163, .F. ) ;
#1343 = VECTOR ( 'NONE', #102, 1000.000000000000000 ) ;
#1344 = ORIENTED_EDGE ( 'NONE', *, *, #1282, .F. ) ;
#1345 = LOCAL_TIME ( 10, 35, 0.000000000000000000, #131 ) ;
#1346 = CARTESIAN_POINT ( 'NONE',  ( -15.00000000000000000, 6.349999999999999645, -374.2500000000000568 ) ) ;
#1347 = CARTESIAN_POINT ( 'NONE',  ( 0.000000000000000000, 0.000000000000000000, -6.591949208711866959E-14 ) ) ;
#1348 = DIRECTION ( 'NONE',  ( 1.000000000000000000, 0.000000000000000000, -0.000000000000000000 ) ) ;
#1349 = DIRECTION ( 'NONE',  ( -1.000000000000000000, 0.000000000000000000, -0.000000000000000000 ) ) ;
#1350 = ORIENTED_EDGE ( 'NONE', *, *, #451, .T. ) ;
#1351 = EDGE_CURVE ( 'NONE', #88, #467, #522, .T. ) ;
#1352 = DIRECTION ( 'NONE',  ( -0.000000000000000000, -1.000000000000000000, -0.000000000000000000 ) ) ;
#1353 = CARTESIAN_POINT ( 'NONE',  ( 293.8597459706173822, 6.349999999999999645, -620.5219509599029379 ) ) ;
#1354 = CARTESIAN_POINT ( 'NONE',  ( 15.00000000000000000, 0.000000000000000000, 8.250000000000000000 ) ) ;
#1355 = ORIENTED_EDGE ( 'NONE', *, *, #826, .T. ) ;
#1356 = VERTEX_POINT ( 'NONE', #978 ) ;
#1357 = LINE ( 'NONE', #73, #639 ) ;
#1358 = EDGE_CURVE ( 'NONE', #1164, #1131, #1161, .T. ) ;
#1359 = CARTESIAN_POINT ( 'NONE',  ( -15.00000000000000000, 6.349999999999999645, -237.7500000000000568 ) ) ;
#1360 = EDGE_CURVE ( 'NONE', #128, #467, #3, .T. ) ;
#1361 = DIRECTION ( 'NONE',  ( 0.000000000000000000, 0.000000000000000000, -1.000000000000000000 ) ) ;
#1362 = VERTEX_POINT ( 'NONE', #437 ) ;
#1363 = ORIENTED_EDGE ( 'NONE', *, *, #220, .F. ) ;
#1364 = PLANE ( 'NONE',  #399 ) ;
#1365 = VECTOR ( 'NONE', #423, 1000.000000000000000 ) ;
#1366 = LOCAL_TIME ( 10, 35, 0.000000000000000000, #1304 ) ;
#1367 = EDGE_CURVE ( 'NONE', #1050, #722, #1174, .T. ) ;
#1368 = CARTESIAN_POINT ( 'NONE',  ( -15.00000000000000000, 6.349999999999999645, -297.7500000000000568 ) ) ;
#1369 = EDGE_CURVE ( 'NONE', #1072, #745, #448, .T. ) ;
#1370 = LINE ( 'NONE', #1382, #1328 ) ;
#1371 = ORIENTED_EDGE ( 'NONE', *, *, #909, .F. ) ;
#1372 = AXIS2_PLACEMENT_3D ( 'NONE', #1121, #932, #383 ) ;
#1373 = VECTOR ( 'NONE', #4, 1000.000000000000000 ) ;
#1374 = ORIENTED_EDGE ( 'NONE', *, *, #1200, .T. ) ;
#1375 = CARTESIAN_POINT ( 'NONE',  ( -15.00000000000000000, 0.000000000000000000, -297.7500000000000568 ) ) ;
#1376 = CARTESIAN_POINT ( 'NONE',  ( 0.000000000000000000, 6.349999999999999645, -6.591949208711866959E-14 ) ) ;
#1377 = DIRECTION ( 'NONE',  ( -1.000000000000000000, 0.000000000000000000, -0.000000000000000000 ) ) ;
#1378 = ORIENTED_EDGE ( 'NONE', *, *, #183, .T. ) ;
#1379 = VERTEX_POINT ( 'NONE', #341 ) ;
#1380 = LINE ( 'NONE', #86, #1005 ) ;
#1381 = DIRECTION ( 'NONE',  ( 0.000000000000000000, 1.000000000000000000, 0.000000000000000000 ) ) ;
#1382 = CARTESIAN_POINT ( 'NONE',  ( 15.00000000000000000, 6.349999999999999645, -144.7500000000000284 ) ) ;
#1383 = ORIENTED_EDGE ( 'NONE', *, *, #1019, .T. ) ;
#1384 = ORIENTED_EDGE ( 'NONE', *, *, #917, .T. ) ;
#1385 = AXIS2_PLACEMENT_3D ( 'NONE', #654, #1283, #1098 ) ;
#1386 = PLANE ( 'NONE',  #1385 ) ;
#1387 = VECTOR ( 'NONE', #1167, 1000.000000000000000 ) ;
#1388 = DIRECTION ( 'NONE',  ( 0.3813728297170553838, -0.000000000000000000, 0.9244213134462043735 ) ) ;
#1389 = CARTESIAN_POINT ( 'NONE',  ( 15.00000000000000000, 6.349999999999999645, 8.250000000000000000 ) ) ;
#1390 = VERTEX_POINT ( 'NONE', #788 ) ;
#1391 = ORIENTED_EDGE ( 'NONE', *, *, #762, .T. ) ;
#1392 = EDGE_CURVE ( 'NONE', #223, #1023, #772, .T. ) ;
#1393 = VECTOR ( 'NONE', #416, 1000.000000000000000 ) ;
#1394 = DIRECTION ( 'NONE',  ( -0.000000000000000000, -1.000000000000000000, -0.000000000000000000 ) ) ;
#1395 = CARTESIAN_POINT ( 'NONE',  ( -15.00000000000000000, 6.349999999999999645, -144.7500000000000284 ) ) ;
#1396 = CARTESIAN_POINT ( 'NONE',  ( 0.000000000000000000, 6.349999999999999645, -6.591949208711866959E-14 ) ) ;
#1397 = FACE_OUTER_BOUND ( 'NONE', #1165, .T. ) ;
ENDSEC;
END-ISO-10303-21;
