<svg
  xmlns="http://www.w3.org/2000/svg"
  width="8.267716535433072in"
  height="11.692913385826772in"
  viewBox="0 0 210.0 297.0"
>
  <rect x="0" y="0" width="210.0" height="297.0" fill="white" />
  <line x1="70.8" y1="90.55" x2="139.67" y2="90.55" stroke="#d62828" stroke-width="5.0" stroke-linecap="round" stroke-opacity="0.85" />
  <line x1="139.67" y1="90.55" x2="143.47" y2="93.88" stroke="#999999" stroke-width="1.0" stroke-dasharray="4,3" />
  <line x1="143.47" y1="93.88" x2="67.0" y2="93.88" stroke="#d62828" stroke-width="5.0" stroke-linecap="round" stroke-opacity="0.85" />
  <line x1="67.0" y1="93.88" x2="62.72" y2="97.67" stroke="#999999" stroke-width="1.0" stroke-dasharray="4,3" />
  <line x1="62.72" y1="97.67" x2="147.75" y2="97.67" stroke="#d62828" stroke-width="5.0" stroke-linecap="round" stroke-opacity="0.85" />
  <line x1="147.75" y1="97.67" x2="152.5" y2="101.47" stroke="#999999" stroke-width="1.0" stroke-dasharray="4,3" />
  <line x1="152.5" y1="101.47" x2="57.97" y2="101.47" stroke="#d62828" stroke-width="5.0" stroke-linecap="round" stroke-opacity="0.85" />
  <line x1="57.97" y1="101.47" x2="53.7" y2="105.27" stroke="#999999" stroke-width="1.0" stroke-dasharray="4,3" />
  <line x1="53.7" y1="105.27" x2="156.78" y2="105.27" stroke="#d62828" stroke-width="5.0" stroke-linecap="round" stroke-opacity="0.85" />
  <line x1="156.78" y1="105.27" x2="161.05" y2="109.08" stroke="#999999" stroke-width="1.0" stroke-dasharray="4,3" />
  <line x1="161.05" y1="109.08" x2="49.42" y2="109.08" stroke="#d62828" stroke-width="5.0" stroke-linecap="round" stroke-opacity="0.85" />
  <line x1="49.42" y1="109.08" x2="47.05" y2="110.97" stroke="#999999" stroke-width="1.0" stroke-dasharray="4,3" />
  <line x1="47.05" y1="110.97" x2="163.42" y2="110.97" stroke="#d62828" stroke-width="5.0" stroke-linecap="round" stroke-opacity="0.85" />
  <line x1="163.42" y1="110.97" x2="134.93" y2="86.75" stroke="#999999" stroke-width="1.0" stroke-dasharray="4,3" />
  <line x1="134.93" y1="86.75" x2="75.55" y2="86.75" stroke="#d62828" stroke-width="5.0" stroke-linecap="round" stroke-opacity="0.85" />
  <line x1="75.55" y1="86.75" x2="79.83" y2="82.95" stroke="#999999" stroke-width="1.0" stroke-dasharray="4,3" />
  <line x1="79.83" y1="82.95" x2="130.65" y2="82.95" stroke="#d62828" stroke-width="5.0" stroke-linecap="round" stroke-opacity="0.85" />
  <line x1="130.65" y1="82.95" x2="126.38" y2="79.15" stroke="#999999" stroke-width="1.0" stroke-dasharray="4,3" />
  <line x1="126.38" y1="79.15" x2="84.1" y2="79.15" stroke="#d62828" stroke-width="5.0" stroke-linecap="round" stroke-opacity="0.85" />
  <line x1="84.1" y1="79.15" x2="88.85" y2="75.35" stroke="#999999" stroke-width="1.0" stroke-dasharray="4,3" />
  <line x1="88.85" y1="75.35" x2="121.62" y2="75.35" stroke="#d62828" stroke-width="5.0" stroke-linecap="round" stroke-opacity="0.85" />
  <line x1="121.62" y1="75.35" x2="117.35" y2="71.55" stroke="#999999" stroke-width="1.0" stroke-dasharray="4,3" />
  <line x1="117.35" y1="71.55" x2="93.12" y2="71.55" stroke="#d62828" stroke-width="5.0" stroke-linecap="round" stroke-opacity="0.85" />
  <line x1="93.12" y1="71.55" x2="97.4" y2="67.75" stroke="#999999" stroke-width="1.0" stroke-dasharray="4,3" />
  <line x1="97.4" y1="67.75" x2="113.07" y2="67.75" stroke="#d62828" stroke-width="5.0" stroke-linecap="round" stroke-opacity="0.85" />
  <line x1="113.07" y1="67.75" x2="108.32" y2="63.95" stroke="#999999" stroke-width="1.0" stroke-dasharray="4,3" />
  <line x1="108.32" y1="63.95" x2="102.15" y2="63.95" stroke="#d62828" stroke-width="5.0" stroke-linecap="round" stroke-opacity="0.85" />
  <line x1="102.15" y1="63.95" x2="44.2" y2="205.97" stroke="#999999" stroke-width="1.0" stroke-dasharray="4,3" />
  <line x1="44.2" y1="205.97" x2="33.27" y2="205.97" stroke="#d62828" stroke-width="5.0" stroke-linecap="round" stroke-opacity="0.85" />
  <line x1="33.27" y1="205.97" x2="31.85" y2="209.78" stroke="#999999" stroke-width="1.0" stroke-dasharray="4,3" />
  <line x1="31.85" y1="209.78" x2="45.62" y2="209.78" stroke="#d62828" stroke-width="5.0" stroke-linecap="round" stroke-opacity="0.85" />
  <line x1="45.62" y1="209.78" x2="44.67" y2="213.57" stroke="#999999" stroke-width="1.0" stroke-dasharray="4,3" />
  <line x1="44.67" y1="213.57" x2="32.8" y2="213.57" stroke="#d62828" stroke-width="5.0" stroke-linecap="round" stroke-opacity="0.85" />
  <line x1="32.8" y1="213.57" x2="33.27" y2="215.0" stroke="#999999" stroke-width="1.0" stroke-dasharray="4,3" />
  <line x1="33.27" y1="215.0" x2="44.2" y2="215.0" stroke="#d62828" stroke-width="5.0" stroke-linecap="round" stroke-opacity="0.85" />
  <line x1="44.2" y1="215.0" x2="162.47" y2="220.7" stroke="#999999" stroke-width="1.0" stroke-dasharray="4,3" />
  <line x1="162.47" y1="220.7" x2="181.0" y2="220.7" stroke="#f1c40f" stroke-width="5.0" stroke-linecap="round" stroke-opacity="0.85" />
  <line x1="181.0" y1="220.7" x2="180.53" y2="216.9" stroke="#999999" stroke-width="1.0" stroke-dasharray="4,3" />
  <line x1="180.53" y1="216.9" x2="162.95" y2="216.9" stroke="#f1c40f" stroke-width="5.0" stroke-linecap="round" stroke-opacity="0.85" />
  <line x1="162.95" y1="216.9" x2="164.85" y2="213.1" stroke="#999999" stroke-width="1.0" stroke-dasharray="4,3" />
  <line x1="164.85" y1="213.1" x2="178.62" y2="213.1" stroke="#f1c40f" stroke-width="5.0" stroke-linecap="round" stroke-opacity="0.85" />
  <line x1="178.62" y1="213.1" x2="179.57" y2="224.5" stroke="#999999" stroke-width="1.0" stroke-dasharray="4,3" />
  <line x1="179.57" y1="224.5" x2="163.9" y2="224.5" stroke="#f1c40f" stroke-width="5.0" stroke-linecap="round" stroke-opacity="0.85" />
  <line x1="163.9" y1="224.5" x2="165.32" y2="226.88" stroke="#999999" stroke-width="1.0" stroke-dasharray="4,3" />
  <line x1="165.32" y1="226.88" x2="178.15" y2="226.88" stroke="#f1c40f" stroke-width="5.0" stroke-linecap="round" stroke-opacity="0.85" />
  <line x1="178.15" y1="226.88" x2="171.5" y2="79.62" stroke="#999999" stroke-width="1.0" stroke-dasharray="4,3" />
  <line x1="171.5" y1="79.62" x2="152.97" y2="79.62" stroke="#f1c40f" stroke-width="5.0" stroke-linecap="round" stroke-opacity="0.85" />
  <line x1="152.97" y1="79.62" x2="149.17" y2="76.78" stroke="#999999" stroke-width="1.0" stroke-dasharray="4,3" />
  <line x1="149.17" y1="76.78" x2="175.3" y2="76.78" stroke="#f1c40f" stroke-width="5.0" stroke-linecap="round" stroke-opacity="0.85" />
  <line x1="175.3" y1="76.78" x2="177.67" y2="73.45" stroke="#999999" stroke-width="1.0" stroke-dasharray="4,3" />
  <line x1="177.67" y1="73.45" x2="146.32" y2="73.45" stroke="#f1c40f" stroke-width="5.0" stroke-linecap="round" stroke-opacity="0.85" />
  <line x1="146.32" y1="73.45" x2="144.9" y2="69.65" stroke="#999999" stroke-width="1.0" stroke-dasharray="4,3" />
  <line x1="144.9" y1="69.65" x2="179.57" y2="69.65" stroke="#f1c40f" stroke-width="5.0" stroke-linecap="round" stroke-opacity="0.85" />
  <line x1="179.57" y1="69.65" x2="181.0" y2="65.85" stroke="#999999" stroke-width="1.0" stroke-dasharray="4,3" />
  <line x1="181.0" y1="65.85" x2="143.47" y2="65.85" stroke="#f1c40f" stroke-width="5.0" stroke-linecap="round" stroke-opacity="0.85" />
  <line x1="143.47" y1="65.85" x2="143.47" y2="62.05" stroke="#999999" stroke-width="1.0" stroke-dasharray="4,3" />
  <line x1="143.47" y1="62.05" x2="181.0" y2="62.05" stroke="#f1c40f" stroke-width="5.0" stroke-linecap="round" stroke-opacity="0.85" />
  <line x1="181.0" y1="62.05" x2="180.53" y2="58.25" stroke="#999999" stroke-width="1.0" stroke-dasharray="4,3" />
  <line x1="180.53" y1="58.25" x2="143.95" y2="58.25" stroke="#f1c40f" stroke-width="5.0" stroke-linecap="round" stroke-opacity="0.85" />
  <line x1="143.95" y1="58.25" x2="145.38" y2="54.45" stroke="#999999" stroke-width="1.0" stroke-dasharray="4,3" />
  <line x1="145.38" y1="54.45" x2="179.1" y2="54.45" stroke="#f1c40f" stroke-width="5.0" stroke-linecap="round" stroke-opacity="0.85" />
  <line x1="179.1" y1="54.45" x2="176.72" y2="50.65" stroke="#999999" stroke-width="1.0" stroke-dasharray="4,3" />
  <line x1="176.72" y1="50.65" x2="147.75" y2="50.65" stroke="#f1c40f" stroke-width="5.0" stroke-linecap="round" stroke-opacity="0.85" />
  <line x1="147.75" y1="50.65" x2="152.5" y2="46.85" stroke="#999999" stroke-width="1.0" stroke-dasharray="4,3" />
  <line x1="152.5" y1="46.85" x2="171.97" y2="46.85" stroke="#f1c40f" stroke-width="5.0" stroke-linecap="round" stroke-opacity="0.85" />
  <line x1="171.97" y1="46.85" x2="154.88" y2="120.0" stroke="#999999" stroke-width="1.0" stroke-dasharray="4,3" />
  <line x1="154.88" y1="120.0" x2="55.6" y2="120.0" stroke="#1d3557" stroke-width="5.0" stroke-linecap="round" stroke-opacity="0.85" />
  <line x1="55.6" y1="120.0" x2="55.6" y2="123.8" stroke="#999999" stroke-width="1.0" stroke-dasharray="4,3" />
  <line x1="55.6" y1="123.8" x2="154.88" y2="123.8" stroke="#1d3557" stroke-width="5.0" stroke-linecap="round" stroke-opacity="0.85" />
  <line x1="154.88" y1="123.8" x2="154.88" y2="127.6" stroke="#999999" stroke-width="1.0" stroke-dasharray="4,3" />
  <line x1="154.88" y1="127.6" x2="55.6" y2="127.6" stroke="#1d3557" stroke-width="5.0" stroke-linecap="round" stroke-opacity="0.85" />
  <line x1="55.6" y1="127.6" x2="55.6" y2="131.4" stroke="#999999" stroke-width="1.0" stroke-dasharray="4,3" />
  <line x1="55.6" y1="131.4" x2="154.88" y2="131.4" stroke="#1d3557" stroke-width="5.0" stroke-linecap="round" stroke-opacity="0.85" />
  <line x1="154.88" y1="131.4" x2="154.88" y2="135.2" stroke="#999999" stroke-width="1.0" stroke-dasharray="4,3" />
  <line x1="154.88" y1="135.2" x2="55.6" y2="135.2" stroke="#1d3557" stroke-width="5.0" stroke-linecap="round" stroke-opacity="0.85" />
  <line x1="55.6" y1="135.2" x2="55.6" y2="139.0" stroke="#999999" stroke-width="1.0" stroke-dasharray="4,3" />
  <line x1="55.6" y1="139.0" x2="154.88" y2="139.0" stroke="#1d3557" stroke-width="5.0" stroke-linecap="round" stroke-opacity="0.85" />
  <line x1="154.88" y1="139.0" x2="154.88" y2="142.8" stroke="#999999" stroke-width="1.0" stroke-dasharray="4,3" />
  <line x1="154.88" y1="142.8" x2="55.6" y2="142.8" stroke="#1d3557" stroke-width="5.0" stroke-linecap="round" stroke-opacity="0.85" />
  <line x1="55.6" y1="142.8" x2="55.6" y2="146.6" stroke="#999999" stroke-width="1.0" stroke-dasharray="4,3" />
  <line x1="55.6" y1="146.6" x2="88.85" y2="146.6" stroke="#1d3557" stroke-width="5.0" stroke-linecap="round" stroke-opacity="0.85" />
  <line x1="88.85" y1="146.6" x2="87.9" y2="149.93" stroke="#999999" stroke-width="1.0" stroke-dasharray="4,3" />
  <line x1="87.9" y1="149.93" x2="55.6" y2="149.93" stroke="#1d3557" stroke-width="5.0" stroke-linecap="round" stroke-opacity="0.85" />
  <line x1="55.6" y1="149.93" x2="55.6" y2="153.72" stroke="#999999" stroke-width="1.0" stroke-dasharray="4,3" />
  <line x1="55.6" y1="153.72" x2="87.9" y2="153.72" stroke="#1d3557" stroke-width="5.0" stroke-linecap="round" stroke-opacity="0.85" />
  <line x1="87.9" y1="153.72" x2="87.9" y2="157.52" stroke="#999999" stroke-width="1.0" stroke-dasharray="4,3" />
  <line x1="87.9" y1="157.52" x2="55.6" y2="157.52" stroke="#1d3557" stroke-width="5.0" stroke-linecap="round" stroke-opacity="0.85" />
  <line x1="55.6" y1="157.52" x2="55.6" y2="161.32" stroke="#999999" stroke-width="1.0" stroke-dasharray="4,3" />
  <line x1="55.6" y1="161.32" x2="87.9" y2="161.32" stroke="#1d3557" stroke-width="5.0" stroke-linecap="round" stroke-opacity="0.85" />
  <line x1="87.9" y1="161.32" x2="87.9" y2="165.12" stroke="#999999" stroke-width="1.0" stroke-dasharray="4,3" />
  <line x1="87.9" y1="165.12" x2="55.6" y2="165.12" stroke="#1d3557" stroke-width="5.0" stroke-linecap="round" stroke-opacity="0.85" />
  <line x1="55.6" y1="165.12" x2="55.6" y2="168.92" stroke="#999999" stroke-width="1.0" stroke-dasharray="4,3" />
  <line x1="55.6" y1="168.92" x2="87.9" y2="168.92" stroke="#1d3557" stroke-width="5.0" stroke-linecap="round" stroke-opacity="0.85" />
  <line x1="87.9" y1="168.92" x2="87.9" y2="172.72" stroke="#999999" stroke-width="1.0" stroke-dasharray="4,3" />
  <line x1="87.9" y1="172.72" x2="55.6" y2="172.72" stroke="#1d3557" stroke-width="5.0" stroke-linecap="round" stroke-opacity="0.85" />
  <line x1="55.6" y1="172.72" x2="55.6" y2="176.53" stroke="#999999" stroke-width="1.0" stroke-dasharray="4,3" />
  <line x1="55.6" y1="176.53" x2="87.9" y2="176.53" stroke="#1d3557" stroke-width="5.0" stroke-linecap="round" stroke-opacity="0.85" />
  <line x1="87.9" y1="176.53" x2="87.9" y2="180.32" stroke="#999999" stroke-width="1.0" stroke-dasharray="4,3" />
  <line x1="87.9" y1="180.32" x2="55.6" y2="180.32" stroke="#1d3557" stroke-width="5.0" stroke-linecap="round" stroke-opacity="0.85" />
  <line x1="55.6" y1="180.32" x2="55.6" y2="183.65" stroke="#999999" stroke-width="1.0" stroke-dasharray="4,3" />
  <line x1="55.6" y1="183.65" x2="87.9" y2="183.65" stroke="#1d3557" stroke-width="5.0" stroke-linecap="round" stroke-opacity="0.85" />
  <line x1="87.9" y1="183.65" x2="87.9" y2="186.5" stroke="#999999" stroke-width="1.0" stroke-dasharray="4,3" />
  <line x1="87.9" y1="186.5" x2="55.6" y2="186.5" stroke="#1d3557" stroke-width="5.0" stroke-linecap="round" stroke-opacity="0.85" />
  <line x1="55.6" y1="186.5" x2="122.57" y2="186.5" stroke="#999999" stroke-width="1.0" stroke-dasharray="4,3" />
  <line x1="122.57" y1="186.5" x2="154.88" y2="186.5" stroke="#1d3557" stroke-width="5.0" stroke-linecap="round" stroke-opacity="0.85" />
  <line x1="154.88" y1="186.5" x2="154.88" y2="183.65" stroke="#999999" stroke-width="1.0" stroke-dasharray="4,3" />
  <line x1="154.88" y1="183.65" x2="122.57" y2="183.65" stroke="#1d3557" stroke-width="5.0" stroke-linecap="round" stroke-opacity="0.85" />
  <line x1="122.57" y1="183.65" x2="122.57" y2="180.32" stroke="#999999" stroke-width="1.0" stroke-dasharray="4,3" />
  <line x1="122.57" y1="180.32" x2="154.88" y2="180.32" stroke="#1d3557" stroke-width="5.0" stroke-linecap="round" stroke-opacity="0.85" />
  <line x1="154.88" y1="180.32" x2="154.88" y2="176.53" stroke="#999999" stroke-width="1.0" stroke-dasharray="4,3" />
  <line x1="154.88" y1="176.53" x2="122.57" y2="176.53" stroke="#1d3557" stroke-width="5.0" stroke-linecap="round" stroke-opacity="0.85" />
  <line x1="122.57" y1="176.53" x2="122.57" y2="172.72" stroke="#999999" stroke-width="1.0" stroke-dasharray="4,3" />
  <line x1="122.57" y1="172.72" x2="154.88" y2="172.72" stroke="#1d3557" stroke-width="5.0" stroke-linecap="round" stroke-opacity="0.85" />
  <line x1="154.88" y1="172.72" x2="154.88" y2="168.92" stroke="#999999" stroke-width="1.0" stroke-dasharray="4,3" />
  <line x1="154.88" y1="168.92" x2="122.57" y2="168.92" stroke="#1d3557" stroke-width="5.0" stroke-linecap="round" stroke-opacity="0.85" />
  <line x1="122.57" y1="168.92" x2="122.57" y2="165.12" stroke="#999999" stroke-width="1.0" stroke-dasharray="4,3" />
  <line x1="122.57" y1="165.12" x2="154.88" y2="165.12" stroke="#1d3557" stroke-width="5.0" stroke-linecap="round" stroke-opacity="0.85" />
  <line x1="154.88" y1="165.12" x2="154.88" y2="161.32" stroke="#999999" stroke-width="1.0" stroke-dasharray="4,3" />
  <line x1="154.88" y1="161.32" x2="122.57" y2="161.32" stroke="#1d3557" stroke-width="5.0" stroke-linecap="round" stroke-opacity="0.85" />
  <line x1="122.57" y1="161.32" x2="122.57" y2="157.52" stroke="#999999" stroke-width="1.0" stroke-dasharray="4,3" />
  <line x1="122.57" y1="157.52" x2="154.88" y2="157.52" stroke="#1d3557" stroke-width="5.0" stroke-linecap="round" stroke-opacity="0.85" />
  <line x1="154.88" y1="157.52" x2="154.88" y2="153.72" stroke="#999999" stroke-width="1.0" stroke-dasharray="4,3" />
  <line x1="154.88" y1="153.72" x2="122.57" y2="153.72" stroke="#1d3557" stroke-width="5.0" stroke-linecap="round" stroke-opacity="0.85" />
  <line x1="122.57" y1="153.72" x2="122.57" y2="149.93" stroke="#999999" stroke-width="1.0" stroke-dasharray="4,3" />
  <line x1="122.57" y1="149.93" x2="154.88" y2="149.93" stroke="#1d3557" stroke-width="5.0" stroke-linecap="round" stroke-opacity="0.85" />
  <line x1="154.88" y1="149.93" x2="154.88" y2="146.6" stroke="#999999" stroke-width="1.0" stroke-dasharray="4,3" />
  <line x1="154.88" y1="146.6" x2="121.62" y2="146.6" stroke="#1d3557" stroke-width="5.0" stroke-linecap="round" stroke-opacity="0.85" />
  <line x1="121.62" y1="146.6" x2="90.27" y2="148.5" stroke="#999999" stroke-width="1.0" stroke-dasharray="4,3" />
  <line x1="90.27" y1="148.5" x2="90.27" y2="190.78" stroke="#000000" stroke-width="5.0" stroke-linecap="round" stroke-opacity="0.85" />
  <line x1="90.27" y1="190.78" x2="119.25" y2="191.25" stroke="#000000" stroke-width="5.0" stroke-linecap="round" stroke-opacity="0.85" />
  <line x1="119.25" y1="191.25" x2="119.72" y2="148.5" stroke="#000000" stroke-width="5.0" stroke-linecap="round" stroke-opacity="0.85" />
  <line x1="119.72" y1="148.5" x2="90.27" y2="148.5" stroke="#000000" stroke-width="5.0" stroke-linecap="round" stroke-opacity="0.85" />
  <line x1="90.27" y1="148.5" x2="53.23" y2="115.72" stroke="#999999" stroke-width="1.0" stroke-dasharray="4,3" />
  <line x1="53.23" y1="115.72" x2="53.23" y2="190.78" stroke="#000000" stroke-width="5.0" stroke-linecap="round" stroke-opacity="0.85" />
  <line x1="53.23" y1="190.78" x2="89.8" y2="190.78" stroke="#000000" stroke-width="5.0" stroke-linecap="round" stroke-opacity="0.85" />
  <line x1="89.8" y1="190.78" x2="90.75" y2="147.55" stroke="#000000" stroke-width="5.0" stroke-linecap="round" stroke-opacity="0.85" />
  <line x1="90.75" y1="147.55" x2="120.2" y2="148.5" stroke="#000000" stroke-width="5.0" stroke-linecap="round" stroke-opacity="0.85" />
  <line x1="120.2" y1="148.5" x2="120.2" y2="190.78" stroke="#000000" stroke-width="5.0" stroke-linecap="round" stroke-opacity="0.85" />
  <line x1="120.2" y1="190.78" x2="156.78" y2="190.78" stroke="#000000" stroke-width="5.0" stroke-linecap="round" stroke-opacity="0.85" />
  <line x1="156.78" y1="190.78" x2="156.78" y2="115.72" stroke="#000000" stroke-width="5.0" stroke-linecap="round" stroke-opacity="0.85" />
  <line x1="156.78" y1="115.72" x2="53.23" y2="115.72" stroke="#000000" stroke-width="5.0" stroke-linecap="round" stroke-opacity="0.85" />
  <line x1="53.23" y1="115.72" x2="38.97" y2="114.77" stroke="#999999" stroke-width="1.0" stroke-dasharray="4,3" />
  <line x1="38.97" y1="114.77" x2="171.03" y2="115.25" stroke="#000000" stroke-width="5.0" stroke-linecap="round" stroke-opacity="0.85" />
  <line x1="171.03" y1="115.25" x2="105.47" y2="58.72" stroke="#000000" stroke-width="5.0" stroke-linecap="round" stroke-opacity="0.85" />
  <line x1="105.47" y1="58.72" x2="38.97" y2="114.77" stroke="#000000" stroke-width="5.0" stroke-linecap="round" stroke-opacity="0.85" />
  <line x1="38.97" y1="114.77" x2="35.65" y2="200.75" stroke="#999999" stroke-width="1.0" stroke-dasharray="4,3" />
  <line x1="35.65" y1="200.75" x2="44.2" y2="202.17" stroke="#000000" stroke-width="5.0" stroke-linecap="round" stroke-opacity="0.85" />
  <line x1="44.2" y1="202.17" x2="48.0" y2="207.4" stroke="#000000" stroke-width="5.0" stroke-linecap="round" stroke-opacity="0.85" />
  <line x1="48.0" y1="207.4" x2="46.57" y2="215.95" stroke="#000000" stroke-width="5.0" stroke-linecap="round" stroke-opacity="0.85" />
  <line x1="46.57" y1="215.95" x2="41.35" y2="219.75" stroke="#000000" stroke-width="5.0" stroke-linecap="round" stroke-opacity="0.85" />
  <line x1="41.35" y1="219.75" x2="32.8" y2="218.32" stroke="#000000" stroke-width="5.0" stroke-linecap="round" stroke-opacity="0.85" />
  <line x1="32.8" y1="218.32" x2="29.0" y2="213.1" stroke="#000000" stroke-width="5.0" stroke-linecap="round" stroke-opacity="0.85" />
  <line x1="29.0" y1="213.1" x2="30.43" y2="204.55" stroke="#000000" stroke-width="5.0" stroke-linecap="round" stroke-opacity="0.85" />
  <line x1="30.43" y1="204.55" x2="35.65" y2="200.75" stroke="#000000" stroke-width="5.0" stroke-linecap="round" stroke-opacity="0.85" />
  <line x1="35.65" y1="200.75" x2="35.65" y2="201.22" stroke="#999999" stroke-width="1.0" stroke-dasharray="4,3" />
  <line x1="35.65" y1="201.22" x2="30.9" y2="204.55" stroke="#000000" stroke-width="5.0" stroke-linecap="round" stroke-opacity="0.85" />
  <line x1="30.9" y1="204.55" x2="29.47" y2="207.4" stroke="#000000" stroke-width="5.0" stroke-linecap="round" stroke-opacity="0.85" />
  <line x1="29.47" y1="207.4" x2="29.47" y2="213.1" stroke="#000000" stroke-width="5.0" stroke-linecap="round" stroke-opacity="0.85" />
  <line x1="29.47" y1="213.1" x2="32.8" y2="217.85" stroke="#000000" stroke-width="5.0" stroke-linecap="round" stroke-opacity="0.85" />
  <line x1="32.8" y1="217.85" x2="35.65" y2="219.27" stroke="#000000" stroke-width="5.0" stroke-linecap="round" stroke-opacity="0.85" />
  <line x1="35.65" y1="219.27" x2="41.35" y2="219.27" stroke="#000000" stroke-width="5.0" stroke-linecap="round" stroke-opacity="0.85" />
  <line x1="41.35" y1="219.27" x2="46.1" y2="215.95" stroke="#000000" stroke-width="5.0" stroke-linecap="round" stroke-opacity="0.85" />
  <line x1="46.1" y1="215.95" x2="47.52" y2="213.1" stroke="#000000" stroke-width="5.0" stroke-linecap="round" stroke-opacity="0.85" />
  <line x1="47.52" y1="213.1" x2="47.52" y2="207.4" stroke="#000000" stroke-width="5.0" stroke-linecap="round" stroke-opacity="0.85" />
  <line x1="47.52" y1="207.4" x2="44.2" y2="202.65" stroke="#000000" stroke-width="5.0" stroke-linecap="round" stroke-opacity="0.85" />
  <line x1="44.2" y1="202.65" x2="41.35" y2="201.22" stroke="#000000" stroke-width="5.0" stroke-linecap="round" stroke-opacity="0.85" />
  <line x1="41.35" y1="201.22" x2="35.65" y2="201.22" stroke="#000000" stroke-width="5.0" stroke-linecap="round" stroke-opacity="0.85" />
  <line x1="35.65" y1="201.22" x2="168.65" y2="207.88" stroke="#999999" stroke-width="1.0" stroke-dasharray="4,3" />
  <line x1="168.65" y1="207.88" x2="174.82" y2="207.88" stroke="#000000" stroke-width="5.0" stroke-linecap="round" stroke-opacity="0.85" />
  <line x1="174.82" y1="207.88" x2="179.1" y2="210.25" stroke="#000000" stroke-width="5.0" stroke-linecap="round" stroke-opacity="0.85" />
  <line x1="179.1" y1="210.25" x2="183.38" y2="216.9" stroke="#000000" stroke-width="5.0" stroke-linecap="round" stroke-opacity="0.85" />
  <line x1="183.38" y1="216.9" x2="181.95" y2="225.92" stroke="#000000" stroke-width="5.0" stroke-linecap="round" stroke-opacity="0.85" />
  <line x1="181.95" y1="225.92" x2="174.35" y2="231.62" stroke="#000000" stroke-width="5.0" stroke-linecap="round" stroke-opacity="0.85" />
  <line x1="174.35" y1="231.62" x2="165.32" y2="230.2" stroke="#000000" stroke-width="5.0" stroke-linecap="round" stroke-opacity="0.85" />
  <line x1="165.32" y1="230.2" x2="159.62" y2="223.07" stroke="#000000" stroke-width="5.0" stroke-linecap="round" stroke-opacity="0.85" />
  <line x1="159.62" y1="223.07" x2="161.53" y2="212.62" stroke="#000000" stroke-width="5.0" stroke-linecap="round" stroke-opacity="0.85" />
  <line x1="161.53" y1="212.62" x2="168.65" y2="207.88" stroke="#000000" stroke-width="5.0" stroke-linecap="round" stroke-opacity="0.85" />
  <line x1="168.65" y1="207.88" x2="168.65" y2="208.35" stroke="#999999" stroke-width="1.0" stroke-dasharray="4,3" />
  <line x1="168.65" y1="208.35" x2="162.0" y2="212.62" stroke="#000000" stroke-width="5.0" stroke-linecap="round" stroke-opacity="0.85" />
  <line x1="162.0" y1="212.62" x2="160.1" y2="223.07" stroke="#000000" stroke-width="5.0" stroke-linecap="round" stroke-opacity="0.85" />
  <line x1="160.1" y1="223.07" x2="163.9" y2="228.77" stroke="#000000" stroke-width="5.0" stroke-linecap="round" stroke-opacity="0.85" />
  <line x1="163.9" y1="228.77" x2="168.65" y2="231.15" stroke="#000000" stroke-width="5.0" stroke-linecap="round" stroke-opacity="0.85" />
  <line x1="168.65" y1="231.15" x2="174.35" y2="231.15" stroke="#000000" stroke-width="5.0" stroke-linecap="round" stroke-opacity="0.85" />
  <line x1="174.35" y1="231.15" x2="181.47" y2="225.92" stroke="#000000" stroke-width="5.0" stroke-linecap="round" stroke-opacity="0.85" />
  <line x1="181.47" y1="225.92" x2="182.9" y2="216.9" stroke="#000000" stroke-width="5.0" stroke-linecap="round" stroke-opacity="0.85" />
  <line x1="182.9" y1="216.9" x2="179.1" y2="210.72" stroke="#000000" stroke-width="5.0" stroke-linecap="round" stroke-opacity="0.85" />
  <line x1="179.1" y1="210.72" x2="174.35" y2="208.35" stroke="#000000" stroke-width="5.0" stroke-linecap="round" stroke-opacity="0.85" />
  <line x1="174.35" y1="208.35" x2="168.65" y2="208.35" stroke="#000000" stroke-width="5.0" stroke-linecap="round" stroke-opacity="0.85" />
  <line x1="168.65" y1="208.35" x2="104.52" y2="58.25" stroke="#999999" stroke-width="1.0" stroke-dasharray="4,3" />
  <line x1="104.52" y1="58.25" x2="171.5" y2="114.77" stroke="#000000" stroke-width="5.0" stroke-linecap="round" stroke-opacity="0.85" />
  <line x1="171.5" y1="114.77" x2="157.25" y2="116.2" stroke="#000000" stroke-width="5.0" stroke-linecap="round" stroke-opacity="0.85" />
  <line x1="157.25" y1="116.2" x2="156.78" y2="191.25" stroke="#000000" stroke-width="5.0" stroke-linecap="round" stroke-opacity="0.85" />
  <line x1="156.78" y1="191.25" x2="52.75" y2="190.78" stroke="#000000" stroke-width="5.0" stroke-linecap="round" stroke-opacity="0.85" />
  <line x1="52.75" y1="190.78" x2="52.75" y2="116.2" stroke="#000000" stroke-width="5.0" stroke-linecap="round" stroke-opacity="0.85" />
  <line x1="52.75" y1="116.2" x2="38.5" y2="114.77" stroke="#000000" stroke-width="5.0" stroke-linecap="round" stroke-opacity="0.85" />
  <line x1="38.5" y1="114.77" x2="104.52" y2="58.25" stroke="#000000" stroke-width="5.0" stroke-linecap="round" stroke-opacity="0.85" />
  <line x1="104.52" y1="58.25" x2="157.72" y2="42.1" stroke="#999999" stroke-width="1.0" stroke-dasharray="4,3" />
  <line x1="157.72" y1="42.1" x2="144.9" y2="50.17" stroke="#000000" stroke-width="5.0" stroke-linecap="round" stroke-opacity="0.85" />
  <line x1="144.9" y1="50.17" x2="141.1" y2="67.28" stroke="#000000" stroke-width="5.0" stroke-linecap="round" stroke-opacity="0.85" />
  <line x1="141.1" y1="67.28" x2="148.7" y2="79.62" stroke="#000000" stroke-width="5.0" stroke-linecap="round" stroke-opacity="0.85" />
  <line x1="148.7" y1="79.62" x2="165.8" y2="83.9" stroke="#000000" stroke-width="5.0" stroke-linecap="round" stroke-opacity="0.85" />
  <line x1="165.8" y1="83.9" x2="178.62" y2="76.3" stroke="#000000" stroke-width="5.0" stroke-linecap="round" stroke-opacity="0.85" />
  <line x1="178.62" y1="76.3" x2="182.9" y2="59.2" stroke="#000000" stroke-width="5.0" stroke-linecap="round" stroke-opacity="0.85" />
  <line x1="182.9" y1="59.2" x2="175.3" y2="46.38" stroke="#000000" stroke-width="5.0" stroke-linecap="round" stroke-opacity="0.85" />
  <line x1="175.3" y1="46.38" x2="157.72" y2="42.1" stroke="#000000" stroke-width="5.0" stroke-linecap="round" stroke-opacity="0.85" />
  <line x1="157.72" y1="42.1" x2="157.72" y2="41.62" stroke="#999999" stroke-width="1.0" stroke-dasharray="4,3" />
  <line x1="157.72" y1="41.62" x2="173.4" y2="44.48" stroke="#000000" stroke-width="5.0" stroke-linecap="round" stroke-opacity="0.85" />
  <line x1="173.4" y1="44.48" x2="183.38" y2="59.2" stroke="#000000" stroke-width="5.0" stroke-linecap="round" stroke-opacity="0.85" />
  <line x1="183.38" y1="59.2" x2="179.1" y2="76.3" stroke="#000000" stroke-width="5.0" stroke-linecap="round" stroke-opacity="0.85" />
  <line x1="179.1" y1="76.3" x2="165.8" y2="84.38" stroke="#000000" stroke-width="5.0" stroke-linecap="round" stroke-opacity="0.85" />
  <line x1="165.8" y1="84.38" x2="148.7" y2="80.1" stroke="#000000" stroke-width="5.0" stroke-linecap="round" stroke-opacity="0.85" />
  <line x1="148.7" y1="80.1" x2="140.62" y2="67.28" stroke="#000000" stroke-width="5.0" stroke-linecap="round" stroke-opacity="0.85" />
  <line x1="140.62" y1="67.28" x2="144.42" y2="50.17" stroke="#000000" stroke-width="5.0" stroke-linecap="round" stroke-opacity="0.85" />
  <line x1="144.42" y1="50.17" x2="157.72" y2="41.62" stroke="#000000" stroke-width="5.0" stroke-linecap="round" stroke-opacity="0.85" />
  <line x1="157.72" y1="41.62" x2="10.0" y2="29.75" stroke="#999999" stroke-width="1.0" stroke-dasharray="4,3" />
  <line x1="10.0" y1="29.75" x2="10.0" y2="266.77" stroke="#000000" stroke-width="5.0" stroke-linecap="round" stroke-opacity="0.85" />
  <line x1="10.0" y1="266.77" x2="199.52" y2="266.77" stroke="#000000" stroke-width="5.0" stroke-linecap="round" stroke-opacity="0.85" />
  <line x1="199.52" y1="266.77" x2="199.52" y2="29.75" stroke="#000000" stroke-width="5.0" stroke-linecap="round" stroke-opacity="0.85" />
  <line x1="199.52" y1="29.75" x2="10.0" y2="29.75" stroke="#000000" stroke-width="5.0" stroke-linecap="round" stroke-opacity="0.85" />
</svg>
